G04 #@! TF.GenerationSoftware,KiCad,Pcbnew,9.0.0*
G04 #@! TF.CreationDate,2025-10-14T13:06:03-06:00*
G04 #@! TF.ProjectId,main_board,6d61696e-5f62-46f6-9172-642e6b696361,rev?*
G04 #@! TF.SameCoordinates,Original*
G04 #@! TF.FileFunction,Copper,L2,Inr*
G04 #@! TF.FilePolarity,Positive*
%FSLAX46Y46*%
G04 Gerber Fmt 4.6, Leading zero omitted, Abs format (unit mm)*
G04 Created by KiCad (PCBNEW 9.0.0) date 2025-10-14 13:06:03*
%MOMM*%
%LPD*%
G01*
G04 APERTURE LIST*
G04 #@! TA.AperFunction,ComponentPad*
%ADD10C,1.397000*%
G04 #@! TD*
G04 #@! TA.AperFunction,ComponentPad*
%ADD11R,1.700000X1.700000*%
G04 #@! TD*
G04 #@! TA.AperFunction,ComponentPad*
%ADD12C,1.700000*%
G04 #@! TD*
G04 #@! TA.AperFunction,ViaPad*
%ADD13C,0.610000*%
G04 #@! TD*
G04 APERTURE END LIST*
D10*
G04 #@! TO.N,+5V*
G04 #@! TO.C,J4*
X159700000Y-105880000D03*
G04 #@! TO.N,GND*
X159700000Y-108420000D03*
X159700000Y-110960000D03*
G04 #@! TO.N,+5V*
X159700000Y-113500000D03*
G04 #@! TD*
G04 #@! TO.N,+9V*
G04 #@! TO.C,J2*
X139450000Y-149320000D03*
G04 #@! TO.N,GND*
X141990000Y-149320000D03*
X144530000Y-149320000D03*
G04 #@! TO.N,+5V*
X147070000Y-149320000D03*
G04 #@! TD*
G04 #@! TO.N,GND*
G04 #@! TO.C,J3*
X159730000Y-135850000D03*
G04 #@! TO.N,/uart*
X159730000Y-133310000D03*
G04 #@! TO.N,GND*
X159730000Y-130770000D03*
X159730000Y-128230000D03*
G04 #@! TD*
D11*
G04 #@! TO.N,unconnected-(U10-Pad1)*
G04 #@! TO.C,U10*
X138030000Y-84990000D03*
D12*
G04 #@! TO.N,unconnected-(U10-Pad2)*
X138030000Y-87530000D03*
G04 #@! TO.N,unconnected-(U10-Pad3)*
X138030000Y-90070000D03*
G04 #@! TO.N,unconnected-(U10-Pad4)*
X138030000Y-92610000D03*
G04 #@! TO.N,unconnected-(U10-Pad5)*
X138030000Y-95150000D03*
G04 #@! TO.N,unconnected-(U10-Pad6)*
X138030000Y-97690000D03*
G04 #@! TO.N,unconnected-(U10-Pad7)*
X138030000Y-100230000D03*
G04 #@! TO.N,unconnected-(U10-Pad8)*
X138030000Y-102770000D03*
G04 #@! TO.N,unconnected-(U10-Pad9)*
X138030000Y-105310000D03*
D11*
G04 #@! TO.N,/CS_bar*
X138030000Y-123090000D03*
D12*
G04 #@! TO.N,unconnected-(U10-Pad17)*
X138030000Y-125630000D03*
G04 #@! TO.N,/SCK*
X138030000Y-128170000D03*
G04 #@! TO.N,unconnected-(U10-Pad19)*
X138030000Y-130710000D03*
G04 #@! TO.N,/Serial_Data_Out*
X138030000Y-133250000D03*
G04 #@! TO.N,unconnected-(U10-Pad21)*
X138030000Y-135790000D03*
G04 #@! TO.N,unconnected-(U10-Pad22)*
X138030000Y-138330000D03*
G04 #@! TO.N,unconnected-(U10-Pad23)*
X138030000Y-140870000D03*
G04 #@! TO.N,+5V*
X138030000Y-143410000D03*
D11*
G04 #@! TO.N,GND*
X153270000Y-143410000D03*
D12*
G04 #@! TO.N,unconnected-(U10-Pad26)*
X153270000Y-140870000D03*
G04 #@! TO.N,unconnected-(U10-Pad27)*
X153270000Y-138330000D03*
G04 #@! TO.N,unconnected-(U10-Pad28)*
X153270000Y-135790000D03*
G04 #@! TO.N,/uart*
X153270000Y-133250000D03*
G04 #@! TO.N,unconnected-(U10-Pad30)*
X153270000Y-130710000D03*
G04 #@! TO.N,unconnected-(U10-Pad31)*
X153270000Y-128170000D03*
G04 #@! TO.N,unconnected-(U10-Pad32)*
X153270000Y-125630000D03*
G04 #@! TO.N,unconnected-(U10-Pad33)*
X153270000Y-123090000D03*
D11*
G04 #@! TO.N,unconnected-(U10-Pad40)*
X153270000Y-105310000D03*
D12*
G04 #@! TO.N,unconnected-(U10-Pad41)*
X153270000Y-102770000D03*
G04 #@! TO.N,/Pot_SDI*
X153270000Y-100230000D03*
G04 #@! TO.N,unconnected-(U10-Pad43)*
X153270000Y-97690000D03*
G04 #@! TO.N,/Pot_CS*
X153270000Y-95150000D03*
G04 #@! TO.N,unconnected-(U10-Pad45)*
X153270000Y-92610000D03*
G04 #@! TO.N,/Pot_CLK*
X153270000Y-90070000D03*
G04 #@! TO.N,unconnected-(U10-Pad47)*
X153270000Y-87530000D03*
G04 #@! TO.N,/Bypass_ctrl*
X153270000Y-84990000D03*
G04 #@! TD*
D13*
G04 #@! TO.N,/Serial_Data_Out*
X136400000Y-133250000D03*
G04 #@! TO.N,GND*
X121700000Y-149300000D03*
X130300000Y-93000000D03*
X126290000Y-112390000D03*
X128600000Y-150300000D03*
X135500000Y-95800000D03*
X121900000Y-97600000D03*
X154000000Y-149000000D03*
X125827500Y-69072500D03*
X120630000Y-92700000D03*
X132600000Y-80200000D03*
X120600000Y-137000000D03*
X137400000Y-82100000D03*
X130000000Y-84700000D03*
X122900000Y-76800000D03*
X135500000Y-86777900D03*
X120220000Y-118700000D03*
X135400000Y-147300000D03*
X126400000Y-139200000D03*
X135272500Y-69072500D03*
X126052267Y-130586174D03*
X132655000Y-118410000D03*
G04 #@! TO.N,/Pot_CS*
X132000000Y-104000000D03*
G04 #@! TO.N,+5V*
X126262500Y-142762500D03*
X128900000Y-116860000D03*
X135050000Y-73850000D03*
X122500000Y-124400000D03*
X123700000Y-135900000D03*
X130300000Y-81300000D03*
X135600000Y-85100000D03*
X129000000Y-103200000D03*
X131182500Y-90817500D03*
X130300000Y-86400000D03*
X133580000Y-95600000D03*
X119500000Y-100500000D03*
X125600000Y-95700000D03*
G04 #@! TO.N,/Bypass_sig*
X134800000Y-83700000D03*
X135000000Y-90200000D03*
G04 #@! TO.N,/High Gain Amplifier/Sigin*
X127800000Y-87500000D03*
X133100000Y-89400000D03*
G04 #@! TO.N,/SCK*
X131000000Y-127000000D03*
G04 #@! TO.N,/CS_bar*
X130200000Y-125200000D03*
G04 #@! TO.N,Net-(C13-Pad2)*
X121400000Y-81400000D03*
X122000000Y-87825000D03*
G04 #@! TO.N,Net-(U7-SDO)*
X133775000Y-132100000D03*
X131000000Y-128000000D03*
G04 #@! TO.N,/Bypass_ctrl*
X136300000Y-87600000D03*
X132380001Y-93819999D03*
G04 #@! TO.N,/Pot_SDI*
X131100000Y-102900000D03*
G04 #@! TO.N,/Pot_CLK*
X130900000Y-100300000D03*
G04 #@! TD*
G04 #@! TA.AperFunction,Conductor*
G04 #@! TO.N,GND*
G36*
X162343039Y-68019685D02*
G01*
X162388794Y-68072489D01*
X162400000Y-68124000D01*
X162400000Y-151576563D01*
X162380315Y-151643602D01*
X162327511Y-151689357D01*
X162276565Y-151700562D01*
X118625011Y-151899430D01*
X118557882Y-151880051D01*
X118511887Y-151827456D01*
X118500447Y-151774988D01*
X118509563Y-149225631D01*
X138251000Y-149225631D01*
X138251000Y-149414368D01*
X138280522Y-149600763D01*
X138280523Y-149600767D01*
X138338843Y-149780256D01*
X138424523Y-149948413D01*
X138535454Y-150101096D01*
X138668904Y-150234546D01*
X138821587Y-150345477D01*
X138989744Y-150431157D01*
X139169233Y-150489477D01*
X139239134Y-150500548D01*
X139355632Y-150519000D01*
X139355637Y-150519000D01*
X139544368Y-150519000D01*
X139647920Y-150502598D01*
X139730767Y-150489477D01*
X139910256Y-150431157D01*
X140078413Y-150345477D01*
X140231096Y-150234546D01*
X140364546Y-150101096D01*
X140475477Y-149948413D01*
X140561157Y-149780256D01*
X140602333Y-149653529D01*
X140641768Y-149595858D01*
X140706127Y-149568659D01*
X140774973Y-149580573D01*
X140826449Y-149627817D01*
X140838193Y-149653533D01*
X140879304Y-149780061D01*
X140879305Y-149780063D01*
X140964952Y-149948153D01*
X140983189Y-149973255D01*
X140983190Y-149973255D01*
X141552352Y-149404093D01*
X141575792Y-149491571D01*
X141634311Y-149592930D01*
X141717070Y-149675689D01*
X141818429Y-149734208D01*
X141905905Y-149757647D01*
X141336743Y-150326808D01*
X141336743Y-150326809D01*
X141361844Y-150345046D01*
X141529935Y-150430694D01*
X141529938Y-150430695D01*
X141709349Y-150488988D01*
X141895677Y-150518500D01*
X142084323Y-150518500D01*
X142270650Y-150488988D01*
X142450061Y-150430695D01*
X142450064Y-150430694D01*
X142618151Y-150345048D01*
X142643256Y-150326808D01*
X142074095Y-149757647D01*
X142161571Y-149734208D01*
X142262930Y-149675689D01*
X142345689Y-149592930D01*
X142404208Y-149491571D01*
X142427647Y-149404094D01*
X142996808Y-149973256D01*
X142996808Y-149973255D01*
X143015048Y-149948151D01*
X143100694Y-149780064D01*
X143100695Y-149780061D01*
X143142069Y-149652724D01*
X143181506Y-149595049D01*
X143245865Y-149567850D01*
X143314711Y-149579764D01*
X143366187Y-149627008D01*
X143377931Y-149652724D01*
X143419304Y-149780061D01*
X143419305Y-149780063D01*
X143504952Y-149948153D01*
X143523189Y-149973255D01*
X143523190Y-149973255D01*
X144092352Y-149404093D01*
X144115792Y-149491571D01*
X144174311Y-149592930D01*
X144257070Y-149675689D01*
X144358429Y-149734208D01*
X144445905Y-149757647D01*
X143876743Y-150326808D01*
X143876743Y-150326809D01*
X143901844Y-150345046D01*
X144069935Y-150430694D01*
X144069938Y-150430695D01*
X144249349Y-150488988D01*
X144435677Y-150518500D01*
X144624323Y-150518500D01*
X144810650Y-150488988D01*
X144990061Y-150430695D01*
X144990064Y-150430694D01*
X145158151Y-150345048D01*
X145183255Y-150326808D01*
X145183256Y-150326808D01*
X144614095Y-149757647D01*
X144701571Y-149734208D01*
X144802930Y-149675689D01*
X144885689Y-149592930D01*
X144944208Y-149491571D01*
X144967647Y-149404094D01*
X145536808Y-149973256D01*
X145536808Y-149973255D01*
X145555048Y-149948151D01*
X145640694Y-149780064D01*
X145640696Y-149780058D01*
X145681806Y-149653534D01*
X145721243Y-149595858D01*
X145785601Y-149568659D01*
X145854448Y-149580573D01*
X145905924Y-149627817D01*
X145917666Y-149653528D01*
X145924173Y-149673553D01*
X145958844Y-149780260D01*
X146044390Y-149948151D01*
X146044523Y-149948413D01*
X146155454Y-150101096D01*
X146288904Y-150234546D01*
X146441587Y-150345477D01*
X146609744Y-150431157D01*
X146789233Y-150489477D01*
X146859134Y-150500548D01*
X146975632Y-150519000D01*
X146975637Y-150519000D01*
X147164368Y-150519000D01*
X147267920Y-150502598D01*
X147350767Y-150489477D01*
X147530256Y-150431157D01*
X147698413Y-150345477D01*
X147851096Y-150234546D01*
X147984546Y-150101096D01*
X148095477Y-149948413D01*
X148181157Y-149780256D01*
X148239477Y-149600767D01*
X148256772Y-149491571D01*
X148269000Y-149414368D01*
X148269000Y-149225631D01*
X148239477Y-149039236D01*
X148239477Y-149039233D01*
X148181157Y-148859744D01*
X148095477Y-148691587D01*
X147984546Y-148538904D01*
X147851096Y-148405454D01*
X147698413Y-148294523D01*
X147530256Y-148208843D01*
X147350767Y-148150523D01*
X147350765Y-148150522D01*
X147350763Y-148150522D01*
X147164368Y-148121000D01*
X147164363Y-148121000D01*
X146975637Y-148121000D01*
X146975632Y-148121000D01*
X146789236Y-148150522D01*
X146609741Y-148208844D01*
X146441586Y-148294523D01*
X146354475Y-148357813D01*
X146288904Y-148405454D01*
X146288902Y-148405456D01*
X146288901Y-148405456D01*
X146155456Y-148538901D01*
X146155456Y-148538902D01*
X146155454Y-148538904D01*
X146107813Y-148604475D01*
X146044523Y-148691586D01*
X145958844Y-148859739D01*
X145917668Y-148986467D01*
X145878230Y-149044142D01*
X145813871Y-149071340D01*
X145745025Y-149059425D01*
X145693549Y-149012181D01*
X145681806Y-148986466D01*
X145640695Y-148859938D01*
X145640694Y-148859935D01*
X145555046Y-148691844D01*
X145536809Y-148666743D01*
X145536808Y-148666743D01*
X144967647Y-149235904D01*
X144944208Y-149148429D01*
X144885689Y-149047070D01*
X144802930Y-148964311D01*
X144701571Y-148905792D01*
X144614094Y-148882352D01*
X145183255Y-148313190D01*
X145183255Y-148313189D01*
X145158153Y-148294952D01*
X144990063Y-148209305D01*
X144990061Y-148209304D01*
X144810650Y-148151011D01*
X144624323Y-148121500D01*
X144435677Y-148121500D01*
X144249349Y-148151011D01*
X144069938Y-148209304D01*
X144069936Y-148209305D01*
X143901844Y-148294953D01*
X143901839Y-148294957D01*
X143876743Y-148313188D01*
X143876743Y-148313191D01*
X144445906Y-148882352D01*
X144358429Y-148905792D01*
X144257070Y-148964311D01*
X144174311Y-149047070D01*
X144115792Y-149148429D01*
X144092352Y-149235905D01*
X143523191Y-148666743D01*
X143523188Y-148666743D01*
X143504957Y-148691839D01*
X143504953Y-148691844D01*
X143419305Y-148859936D01*
X143419304Y-148859938D01*
X143377931Y-148987275D01*
X143338494Y-149044950D01*
X143274135Y-149072149D01*
X143205289Y-149060235D01*
X143153813Y-149012991D01*
X143142069Y-148987275D01*
X143100695Y-148859938D01*
X143100694Y-148859935D01*
X143015046Y-148691844D01*
X142996809Y-148666743D01*
X142996808Y-148666743D01*
X142427647Y-149235904D01*
X142404208Y-149148429D01*
X142345689Y-149047070D01*
X142262930Y-148964311D01*
X142161571Y-148905792D01*
X142074094Y-148882352D01*
X142643255Y-148313190D01*
X142643255Y-148313189D01*
X142618153Y-148294952D01*
X142450063Y-148209305D01*
X142450061Y-148209304D01*
X142270650Y-148151011D01*
X142084323Y-148121500D01*
X141895677Y-148121500D01*
X141709349Y-148151011D01*
X141529938Y-148209304D01*
X141529936Y-148209305D01*
X141361844Y-148294953D01*
X141361839Y-148294957D01*
X141336743Y-148313188D01*
X141336743Y-148313191D01*
X141905906Y-148882352D01*
X141818429Y-148905792D01*
X141717070Y-148964311D01*
X141634311Y-149047070D01*
X141575792Y-149148429D01*
X141552352Y-149235905D01*
X140983191Y-148666743D01*
X140983188Y-148666743D01*
X140964957Y-148691839D01*
X140964953Y-148691844D01*
X140879306Y-148859935D01*
X140838193Y-148986467D01*
X140798755Y-149044142D01*
X140734396Y-149071340D01*
X140665550Y-149059425D01*
X140614074Y-149012181D01*
X140602333Y-148986472D01*
X140561157Y-148859744D01*
X140475477Y-148691587D01*
X140364546Y-148538904D01*
X140231096Y-148405454D01*
X140078413Y-148294523D01*
X139910256Y-148208843D01*
X139730767Y-148150523D01*
X139730765Y-148150522D01*
X139730763Y-148150522D01*
X139544368Y-148121000D01*
X139544363Y-148121000D01*
X139355637Y-148121000D01*
X139355632Y-148121000D01*
X139169236Y-148150522D01*
X138989741Y-148208844D01*
X138821586Y-148294523D01*
X138734475Y-148357813D01*
X138668904Y-148405454D01*
X138668902Y-148405456D01*
X138668901Y-148405456D01*
X138535456Y-148538901D01*
X138535456Y-148538902D01*
X138535454Y-148538904D01*
X138487813Y-148604475D01*
X138424523Y-148691586D01*
X138338844Y-148859741D01*
X138280522Y-149039236D01*
X138251000Y-149225631D01*
X118509563Y-149225631D01*
X118509582Y-149220322D01*
X118519721Y-146384571D01*
X118534950Y-142125513D01*
X121029500Y-142125513D01*
X121029500Y-142314486D01*
X121059059Y-142501118D01*
X121117454Y-142680836D01*
X121199488Y-142841835D01*
X121203240Y-142849199D01*
X121314310Y-143002073D01*
X121447927Y-143135690D01*
X121600801Y-143246760D01*
X121658139Y-143275975D01*
X121769163Y-143332545D01*
X121769165Y-143332545D01*
X121769168Y-143332547D01*
X121865497Y-143363846D01*
X121948881Y-143390940D01*
X122135514Y-143420500D01*
X122135519Y-143420500D01*
X122324486Y-143420500D01*
X122511118Y-143390940D01*
X122519646Y-143388169D01*
X122690832Y-143332547D01*
X122859199Y-143246760D01*
X123012073Y-143135690D01*
X123145690Y-143002073D01*
X123256760Y-142849199D01*
X123341361Y-142683160D01*
X125457000Y-142683160D01*
X125457000Y-142841839D01*
X125487953Y-142997448D01*
X125487955Y-142997456D01*
X125548674Y-143144043D01*
X125548679Y-143144053D01*
X125636827Y-143275975D01*
X125636830Y-143275979D01*
X125749020Y-143388169D01*
X125749024Y-143388172D01*
X125880946Y-143476320D01*
X125880950Y-143476322D01*
X125880953Y-143476324D01*
X126027544Y-143537045D01*
X126183160Y-143567999D01*
X126183163Y-143568000D01*
X126183165Y-143568000D01*
X126341837Y-143568000D01*
X126341838Y-143567999D01*
X126497456Y-143537045D01*
X126644047Y-143476324D01*
X126775976Y-143388172D01*
X126888172Y-143275976D01*
X126976324Y-143144047D01*
X127037045Y-142997456D01*
X127068000Y-142841835D01*
X127068000Y-142683165D01*
X127068000Y-142683162D01*
X127067999Y-142683160D01*
X127037046Y-142527551D01*
X127037045Y-142527544D01*
X126976324Y-142380953D01*
X126976322Y-142380950D01*
X126976320Y-142380946D01*
X126888172Y-142249024D01*
X126888169Y-142249020D01*
X126775979Y-142136830D01*
X126775975Y-142136827D01*
X126644053Y-142048679D01*
X126644043Y-142048674D01*
X126497456Y-141987955D01*
X126497448Y-141987953D01*
X126341838Y-141957000D01*
X126341835Y-141957000D01*
X126183165Y-141957000D01*
X126183162Y-141957000D01*
X126027551Y-141987953D01*
X126027543Y-141987955D01*
X125880956Y-142048674D01*
X125880946Y-142048679D01*
X125749024Y-142136827D01*
X125749020Y-142136830D01*
X125636830Y-142249020D01*
X125636827Y-142249024D01*
X125548679Y-142380946D01*
X125548674Y-142380956D01*
X125487955Y-142527543D01*
X125487953Y-142527551D01*
X125457000Y-142683160D01*
X123341361Y-142683160D01*
X123342547Y-142680832D01*
X123400940Y-142501118D01*
X123419972Y-142380956D01*
X123430500Y-142314486D01*
X123430500Y-142125513D01*
X123400940Y-141938881D01*
X123342545Y-141759163D01*
X123256759Y-141590800D01*
X123145690Y-141437927D01*
X123012073Y-141304310D01*
X122859199Y-141193240D01*
X122845459Y-141186239D01*
X122690836Y-141107454D01*
X122511118Y-141049059D01*
X122324486Y-141019500D01*
X122324481Y-141019500D01*
X122135519Y-141019500D01*
X122135514Y-141019500D01*
X121948881Y-141049059D01*
X121769163Y-141107454D01*
X121600800Y-141193240D01*
X121513579Y-141256610D01*
X121447927Y-141304310D01*
X121447925Y-141304312D01*
X121447924Y-141304312D01*
X121314312Y-141437924D01*
X121314312Y-141437925D01*
X121314310Y-141437927D01*
X121266610Y-141503579D01*
X121203240Y-141590800D01*
X121117454Y-141759163D01*
X121059059Y-141938881D01*
X121029500Y-142125513D01*
X118534950Y-142125513D01*
X118557494Y-135820660D01*
X122894500Y-135820660D01*
X122894500Y-135979339D01*
X122925453Y-136134948D01*
X122925455Y-136134956D01*
X122986174Y-136281543D01*
X122986179Y-136281553D01*
X123074327Y-136413475D01*
X123074330Y-136413479D01*
X123186520Y-136525669D01*
X123186524Y-136525672D01*
X123318446Y-136613820D01*
X123318450Y-136613822D01*
X123318453Y-136613824D01*
X123465044Y-136674545D01*
X123620660Y-136705499D01*
X123620663Y-136705500D01*
X123620665Y-136705500D01*
X123779337Y-136705500D01*
X123779338Y-136705499D01*
X123934956Y-136674545D01*
X124081547Y-136613824D01*
X124213476Y-136525672D01*
X124325672Y-136413476D01*
X124413824Y-136281547D01*
X124474545Y-136134956D01*
X124505500Y-135979335D01*
X124505500Y-135820665D01*
X124505500Y-135820662D01*
X124505499Y-135820660D01*
X124492573Y-135755676D01*
X124474545Y-135665044D01*
X124413824Y-135518453D01*
X124413822Y-135518450D01*
X124413820Y-135518446D01*
X124325672Y-135386524D01*
X124325669Y-135386520D01*
X124213479Y-135274330D01*
X124213475Y-135274327D01*
X124081553Y-135186179D01*
X124081543Y-135186174D01*
X123934956Y-135125455D01*
X123934948Y-135125453D01*
X123779338Y-135094500D01*
X123779335Y-135094500D01*
X123620665Y-135094500D01*
X123620662Y-135094500D01*
X123465051Y-135125453D01*
X123465043Y-135125455D01*
X123318456Y-135186174D01*
X123318446Y-135186179D01*
X123186524Y-135274327D01*
X123186520Y-135274330D01*
X123074330Y-135386520D01*
X123074327Y-135386524D01*
X122986179Y-135518446D01*
X122986174Y-135518456D01*
X122925455Y-135665043D01*
X122925453Y-135665051D01*
X122894500Y-135820660D01*
X118557494Y-135820660D01*
X118566970Y-133170660D01*
X135594500Y-133170660D01*
X135594500Y-133329339D01*
X135625453Y-133484948D01*
X135625455Y-133484956D01*
X135686174Y-133631543D01*
X135686179Y-133631553D01*
X135774327Y-133763475D01*
X135774330Y-133763479D01*
X135886520Y-133875669D01*
X135886524Y-133875672D01*
X136018446Y-133963820D01*
X136018450Y-133963822D01*
X136018453Y-133963824D01*
X136165044Y-134024545D01*
X136320660Y-134055499D01*
X136320663Y-134055500D01*
X136320665Y-134055500D01*
X136479337Y-134055500D01*
X136479338Y-134055499D01*
X136634956Y-134024545D01*
X136766386Y-133970103D01*
X136835854Y-133962635D01*
X136898333Y-133993909D01*
X136914154Y-134011778D01*
X136923430Y-134024545D01*
X136999892Y-134129788D01*
X137150213Y-134280109D01*
X137322182Y-134405050D01*
X137330946Y-134409516D01*
X137381742Y-134457491D01*
X137398536Y-134525312D01*
X137375998Y-134591447D01*
X137330946Y-134630484D01*
X137322182Y-134634949D01*
X137150213Y-134759890D01*
X136999890Y-134910213D01*
X136874951Y-135082179D01*
X136778444Y-135271585D01*
X136712753Y-135473760D01*
X136682457Y-135665043D01*
X136679500Y-135683713D01*
X136679500Y-135896287D01*
X136712754Y-136106243D01*
X136764080Y-136264208D01*
X136778444Y-136308414D01*
X136874951Y-136497820D01*
X136999890Y-136669786D01*
X137150213Y-136820109D01*
X137322182Y-136945050D01*
X137330946Y-136949516D01*
X137381742Y-136997491D01*
X137398536Y-137065312D01*
X137375998Y-137131447D01*
X137330946Y-137170484D01*
X137322182Y-137174949D01*
X137150213Y-137299890D01*
X136999890Y-137450213D01*
X136874951Y-137622179D01*
X136778444Y-137811585D01*
X136712753Y-138013760D01*
X136679500Y-138223713D01*
X136679500Y-138436286D01*
X136712753Y-138646239D01*
X136778444Y-138848414D01*
X136874951Y-139037820D01*
X136999890Y-139209786D01*
X137150213Y-139360109D01*
X137322182Y-139485050D01*
X137330946Y-139489516D01*
X137381742Y-139537491D01*
X137398536Y-139605312D01*
X137375998Y-139671447D01*
X137330946Y-139710484D01*
X137322182Y-139714949D01*
X137150213Y-139839890D01*
X136999890Y-139990213D01*
X136874951Y-140162179D01*
X136778444Y-140351585D01*
X136712753Y-140553760D01*
X136679500Y-140763713D01*
X136679500Y-140976287D01*
X136712754Y-141186243D01*
X136751116Y-141304310D01*
X136778444Y-141388414D01*
X136874951Y-141577820D01*
X136999890Y-141749786D01*
X137150213Y-141900109D01*
X137322182Y-142025050D01*
X137330946Y-142029516D01*
X137381742Y-142077491D01*
X137398536Y-142145312D01*
X137375998Y-142211447D01*
X137330946Y-142250484D01*
X137322182Y-142254949D01*
X137150213Y-142379890D01*
X136999890Y-142530213D01*
X136874951Y-142702179D01*
X136778444Y-142891585D01*
X136712753Y-143093760D01*
X136679500Y-143303713D01*
X136679500Y-143516286D01*
X136712753Y-143726239D01*
X136778444Y-143928414D01*
X136874951Y-144117820D01*
X136999890Y-144289786D01*
X137150213Y-144440109D01*
X137322179Y-144565048D01*
X137322181Y-144565049D01*
X137322184Y-144565051D01*
X137511588Y-144661557D01*
X137713757Y-144727246D01*
X137923713Y-144760500D01*
X137923714Y-144760500D01*
X138136286Y-144760500D01*
X138136287Y-144760500D01*
X138346243Y-144727246D01*
X138548412Y-144661557D01*
X138737816Y-144565051D01*
X138824471Y-144502093D01*
X138909786Y-144440109D01*
X138909788Y-144440106D01*
X138909792Y-144440104D01*
X139060104Y-144289792D01*
X139060106Y-144289788D01*
X139060109Y-144289786D01*
X139185048Y-144117820D01*
X139185047Y-144117820D01*
X139185051Y-144117816D01*
X139281557Y-143928412D01*
X139347246Y-143726243D01*
X139380500Y-143516287D01*
X139380500Y-143303713D01*
X139347246Y-143093757D01*
X139281557Y-142891588D01*
X139185051Y-142702184D01*
X139185049Y-142702181D01*
X139185048Y-142702179D01*
X139060109Y-142530213D01*
X138909786Y-142379890D01*
X138737820Y-142254951D01*
X138737115Y-142254591D01*
X138729054Y-142250485D01*
X138678259Y-142202512D01*
X138661463Y-142134692D01*
X138683999Y-142068556D01*
X138729054Y-142029515D01*
X138737816Y-142025051D01*
X138788875Y-141987955D01*
X138909786Y-141900109D01*
X138909788Y-141900106D01*
X138909792Y-141900104D01*
X139060104Y-141749792D01*
X139060106Y-141749788D01*
X139060109Y-141749786D01*
X139185048Y-141577820D01*
X139185047Y-141577820D01*
X139185051Y-141577816D01*
X139281557Y-141388412D01*
X139347246Y-141186243D01*
X139380500Y-140976287D01*
X139380500Y-140763713D01*
X139347246Y-140553757D01*
X139281557Y-140351588D01*
X139185051Y-140162184D01*
X139185049Y-140162181D01*
X139185048Y-140162179D01*
X139060109Y-139990213D01*
X138909786Y-139839890D01*
X138737820Y-139714951D01*
X138737115Y-139714591D01*
X138729054Y-139710485D01*
X138678259Y-139662512D01*
X138661463Y-139594692D01*
X138683999Y-139528556D01*
X138729054Y-139489515D01*
X138737816Y-139485051D01*
X138759789Y-139469086D01*
X138909786Y-139360109D01*
X138909788Y-139360106D01*
X138909792Y-139360104D01*
X139060104Y-139209792D01*
X139060106Y-139209788D01*
X139060109Y-139209786D01*
X139185048Y-139037820D01*
X139185047Y-139037820D01*
X139185051Y-139037816D01*
X139281557Y-138848412D01*
X139347246Y-138646243D01*
X139380500Y-138436287D01*
X139380500Y-138223713D01*
X139347246Y-138013757D01*
X139281557Y-137811588D01*
X139185051Y-137622184D01*
X139185049Y-137622181D01*
X139185048Y-137622179D01*
X139060109Y-137450213D01*
X138909786Y-137299890D01*
X138737820Y-137174951D01*
X138737115Y-137174591D01*
X138729054Y-137170485D01*
X138678259Y-137122512D01*
X138661463Y-137054692D01*
X138683999Y-136988556D01*
X138729054Y-136949515D01*
X138737816Y-136945051D01*
X138834168Y-136875048D01*
X138909786Y-136820109D01*
X138909788Y-136820106D01*
X138909792Y-136820104D01*
X139060104Y-136669792D01*
X139060106Y-136669788D01*
X139060109Y-136669786D01*
X139185048Y-136497820D01*
X139185047Y-136497820D01*
X139185051Y-136497816D01*
X139281557Y-136308412D01*
X139347246Y-136106243D01*
X139380500Y-135896287D01*
X139380500Y-135683713D01*
X139347246Y-135473757D01*
X139281557Y-135271588D01*
X139185051Y-135082184D01*
X139185049Y-135082181D01*
X139185048Y-135082179D01*
X139060109Y-134910213D01*
X138909786Y-134759890D01*
X138737820Y-134634951D01*
X138737115Y-134634591D01*
X138729054Y-134630485D01*
X138678259Y-134582512D01*
X138661463Y-134514692D01*
X138683999Y-134448556D01*
X138729054Y-134409515D01*
X138737816Y-134405051D01*
X138759789Y-134389086D01*
X138909786Y-134280109D01*
X138909788Y-134280106D01*
X138909792Y-134280104D01*
X139060104Y-134129792D01*
X139060106Y-134129788D01*
X139060109Y-134129786D01*
X139185048Y-133957820D01*
X139185047Y-133957820D01*
X139185051Y-133957816D01*
X139281557Y-133768412D01*
X139347246Y-133566243D01*
X139380500Y-133356287D01*
X139380500Y-133143713D01*
X139347246Y-132933757D01*
X139281557Y-132731588D01*
X139185051Y-132542184D01*
X139185049Y-132542181D01*
X139185048Y-132542179D01*
X139060109Y-132370213D01*
X138909786Y-132219890D01*
X138737820Y-132094951D01*
X138736833Y-132094448D01*
X138729054Y-132090485D01*
X138678259Y-132042512D01*
X138661463Y-131974692D01*
X138683999Y-131908556D01*
X138729054Y-131869515D01*
X138737816Y-131865051D01*
X138834168Y-131795048D01*
X138909786Y-131740109D01*
X138909788Y-131740106D01*
X138909792Y-131740104D01*
X139060104Y-131589792D01*
X139060106Y-131589788D01*
X139060109Y-131589786D01*
X139185048Y-131417820D01*
X139185047Y-131417820D01*
X139185051Y-131417816D01*
X139281557Y-131228412D01*
X139347246Y-131026243D01*
X139380500Y-130816287D01*
X139380500Y-130603713D01*
X139347246Y-130393757D01*
X139281557Y-130191588D01*
X139185051Y-130002184D01*
X139185049Y-130002181D01*
X139185048Y-130002179D01*
X139060109Y-129830213D01*
X138909786Y-129679890D01*
X138737820Y-129554951D01*
X138737115Y-129554591D01*
X138729054Y-129550485D01*
X138678259Y-129502512D01*
X138661463Y-129434692D01*
X138683999Y-129368556D01*
X138729054Y-129329515D01*
X138737816Y-129325051D01*
X138834168Y-129255048D01*
X138909786Y-129200109D01*
X138909788Y-129200106D01*
X138909792Y-129200104D01*
X139060104Y-129049792D01*
X139060106Y-129049788D01*
X139060109Y-129049786D01*
X139185048Y-128877820D01*
X139185047Y-128877820D01*
X139185051Y-128877816D01*
X139281557Y-128688412D01*
X139347246Y-128486243D01*
X139380500Y-128276287D01*
X139380500Y-128063713D01*
X139347246Y-127853757D01*
X139281557Y-127651588D01*
X139185051Y-127462184D01*
X139185049Y-127462181D01*
X139185048Y-127462179D01*
X139060109Y-127290213D01*
X138909786Y-127139890D01*
X138737820Y-127014951D01*
X138737115Y-127014591D01*
X138729054Y-127010485D01*
X138678259Y-126962512D01*
X138661463Y-126894692D01*
X138683999Y-126828556D01*
X138729054Y-126789515D01*
X138737816Y-126785051D01*
X138765355Y-126765043D01*
X138909786Y-126660109D01*
X138909788Y-126660106D01*
X138909792Y-126660104D01*
X139060104Y-126509792D01*
X139060106Y-126509788D01*
X139060109Y-126509786D01*
X139185048Y-126337820D01*
X139185047Y-126337820D01*
X139185051Y-126337816D01*
X139281557Y-126148412D01*
X139347246Y-125946243D01*
X139380500Y-125736287D01*
X139380500Y-125523713D01*
X139347246Y-125313757D01*
X139281557Y-125111588D01*
X139185051Y-124922184D01*
X139185049Y-124922181D01*
X139185048Y-124922179D01*
X139060109Y-124750213D01*
X138946569Y-124636673D01*
X138913084Y-124575350D01*
X138918068Y-124505658D01*
X138959940Y-124449725D01*
X138990915Y-124432810D01*
X139122331Y-124383796D01*
X139237546Y-124297546D01*
X139323796Y-124182331D01*
X139374091Y-124047483D01*
X139380500Y-123987873D01*
X139380499Y-122983713D01*
X151919500Y-122983713D01*
X151919500Y-123196286D01*
X151952753Y-123406239D01*
X152018444Y-123608414D01*
X152114951Y-123797820D01*
X152239890Y-123969786D01*
X152390213Y-124120109D01*
X152562182Y-124245050D01*
X152570946Y-124249516D01*
X152621742Y-124297491D01*
X152638536Y-124365312D01*
X152615998Y-124431447D01*
X152570946Y-124470484D01*
X152562182Y-124474949D01*
X152390213Y-124599890D01*
X152239890Y-124750213D01*
X152114951Y-124922179D01*
X152018444Y-125111585D01*
X152018443Y-125111587D01*
X152018443Y-125111588D01*
X152017716Y-125113825D01*
X151952753Y-125313760D01*
X151919500Y-125523713D01*
X151919500Y-125736286D01*
X151947618Y-125913820D01*
X151952754Y-125946243D01*
X151961950Y-125974546D01*
X152018444Y-126148414D01*
X152114951Y-126337820D01*
X152239890Y-126509786D01*
X152390213Y-126660109D01*
X152562182Y-126785050D01*
X152570946Y-126789516D01*
X152621742Y-126837491D01*
X152638536Y-126905312D01*
X152615998Y-126971447D01*
X152570946Y-127010484D01*
X152562182Y-127014949D01*
X152390213Y-127139890D01*
X152239890Y-127290213D01*
X152114951Y-127462179D01*
X152018444Y-127651585D01*
X151952753Y-127853760D01*
X151920337Y-128058429D01*
X151919500Y-128063713D01*
X151919500Y-128276287D01*
X151952754Y-128486243D01*
X152004080Y-128644208D01*
X152018444Y-128688414D01*
X152114951Y-128877820D01*
X152239890Y-129049786D01*
X152390213Y-129200109D01*
X152562182Y-129325050D01*
X152570946Y-129329516D01*
X152621742Y-129377491D01*
X152638536Y-129445312D01*
X152615998Y-129511447D01*
X152570946Y-129550484D01*
X152562182Y-129554949D01*
X152390213Y-129679890D01*
X152239890Y-129830213D01*
X152114951Y-130002179D01*
X152018444Y-130191585D01*
X151952753Y-130393760D01*
X151920337Y-130598429D01*
X151919500Y-130603713D01*
X151919500Y-130816287D01*
X151952754Y-131026243D01*
X152004080Y-131184208D01*
X152018444Y-131228414D01*
X152114951Y-131417820D01*
X152239890Y-131589786D01*
X152390213Y-131740109D01*
X152562182Y-131865050D01*
X152570946Y-131869516D01*
X152621742Y-131917491D01*
X152638536Y-131985312D01*
X152615998Y-132051447D01*
X152570946Y-132090484D01*
X152562182Y-132094949D01*
X152390213Y-132219890D01*
X152239890Y-132370213D01*
X152114951Y-132542179D01*
X152018444Y-132731585D01*
X152018443Y-132731587D01*
X152018443Y-132731588D01*
X152016839Y-132736524D01*
X151952753Y-132933760D01*
X151919500Y-133143713D01*
X151919500Y-133356287D01*
X151952754Y-133566243D01*
X152016840Y-133763479D01*
X152018444Y-133768414D01*
X152114951Y-133957820D01*
X152239890Y-134129786D01*
X152390213Y-134280109D01*
X152562182Y-134405050D01*
X152570946Y-134409516D01*
X152621742Y-134457491D01*
X152638536Y-134525312D01*
X152615998Y-134591447D01*
X152570946Y-134630484D01*
X152562182Y-134634949D01*
X152390213Y-134759890D01*
X152239890Y-134910213D01*
X152114951Y-135082179D01*
X152018444Y-135271585D01*
X151952753Y-135473760D01*
X151922457Y-135665043D01*
X151919500Y-135683713D01*
X151919500Y-135896287D01*
X151952754Y-136106243D01*
X152004080Y-136264208D01*
X152018444Y-136308414D01*
X152114951Y-136497820D01*
X152239890Y-136669786D01*
X152390213Y-136820109D01*
X152562182Y-136945050D01*
X152570946Y-136949516D01*
X152621742Y-136997491D01*
X152638536Y-137065312D01*
X152615998Y-137131447D01*
X152570946Y-137170484D01*
X152562182Y-137174949D01*
X152390213Y-137299890D01*
X152239890Y-137450213D01*
X152114951Y-137622179D01*
X152018444Y-137811585D01*
X151952753Y-138013760D01*
X151919500Y-138223713D01*
X151919500Y-138436286D01*
X151952753Y-138646239D01*
X152018444Y-138848414D01*
X152114951Y-139037820D01*
X152239890Y-139209786D01*
X152390213Y-139360109D01*
X152562182Y-139485050D01*
X152570946Y-139489516D01*
X152621742Y-139537491D01*
X152638536Y-139605312D01*
X152615998Y-139671447D01*
X152570946Y-139710484D01*
X152562182Y-139714949D01*
X152390213Y-139839890D01*
X152239890Y-139990213D01*
X152114951Y-140162179D01*
X152018444Y-140351585D01*
X151952753Y-140553760D01*
X151919500Y-140763713D01*
X151919500Y-140976287D01*
X151952754Y-141186243D01*
X151991116Y-141304310D01*
X152018444Y-141388414D01*
X152114951Y-141577820D01*
X152239890Y-141749786D01*
X152353818Y-141863714D01*
X152387303Y-141925037D01*
X152382319Y-141994729D01*
X152340447Y-142050662D01*
X152309471Y-142067577D01*
X152177912Y-142116646D01*
X152177906Y-142116649D01*
X152062812Y-142202809D01*
X152062809Y-142202812D01*
X151976649Y-142317906D01*
X151976645Y-142317913D01*
X151926403Y-142452620D01*
X151926401Y-142452627D01*
X151920000Y-142512155D01*
X151920000Y-143160000D01*
X152836988Y-143160000D01*
X152804075Y-143217007D01*
X152770000Y-143344174D01*
X152770000Y-143475826D01*
X152804075Y-143602993D01*
X152836988Y-143660000D01*
X151920000Y-143660000D01*
X151920000Y-144307844D01*
X151926401Y-144367372D01*
X151926403Y-144367379D01*
X151976645Y-144502086D01*
X151976649Y-144502093D01*
X152062809Y-144617187D01*
X152062812Y-144617190D01*
X152177906Y-144703350D01*
X152177913Y-144703354D01*
X152312620Y-144753596D01*
X152312627Y-144753598D01*
X152372155Y-144759999D01*
X152372172Y-144760000D01*
X153020000Y-144760000D01*
X153020000Y-143843012D01*
X153077007Y-143875925D01*
X153204174Y-143910000D01*
X153335826Y-143910000D01*
X153462993Y-143875925D01*
X153520000Y-143843012D01*
X153520000Y-144760000D01*
X154167828Y-144760000D01*
X154167844Y-144759999D01*
X154227372Y-144753598D01*
X154227379Y-144753596D01*
X154362086Y-144703354D01*
X154362093Y-144703350D01*
X154477187Y-144617190D01*
X154477190Y-144617187D01*
X154563350Y-144502093D01*
X154563354Y-144502086D01*
X154613596Y-144367379D01*
X154613598Y-144367372D01*
X154619999Y-144307844D01*
X154620000Y-144307827D01*
X154620000Y-143660000D01*
X153703012Y-143660000D01*
X153735925Y-143602993D01*
X153770000Y-143475826D01*
X153770000Y-143344174D01*
X153735925Y-143217007D01*
X153703012Y-143160000D01*
X154620000Y-143160000D01*
X154620000Y-142512172D01*
X154619999Y-142512155D01*
X154613598Y-142452627D01*
X154613596Y-142452620D01*
X154563354Y-142317913D01*
X154563350Y-142317906D01*
X154477190Y-142202812D01*
X154477187Y-142202809D01*
X154373934Y-142125513D01*
X158029500Y-142125513D01*
X158029500Y-142314486D01*
X158059059Y-142501118D01*
X158117454Y-142680836D01*
X158199488Y-142841835D01*
X158203240Y-142849199D01*
X158314310Y-143002073D01*
X158447927Y-143135690D01*
X158600801Y-143246760D01*
X158658139Y-143275975D01*
X158769163Y-143332545D01*
X158769165Y-143332545D01*
X158769168Y-143332547D01*
X158865497Y-143363846D01*
X158948881Y-143390940D01*
X159135514Y-143420500D01*
X159135519Y-143420500D01*
X159324486Y-143420500D01*
X159511118Y-143390940D01*
X159519646Y-143388169D01*
X159690832Y-143332547D01*
X159859199Y-143246760D01*
X160012073Y-143135690D01*
X160145690Y-143002073D01*
X160256760Y-142849199D01*
X160342547Y-142680832D01*
X160400940Y-142501118D01*
X160419972Y-142380956D01*
X160430500Y-142314486D01*
X160430500Y-142125513D01*
X160400940Y-141938881D01*
X160342545Y-141759163D01*
X160256759Y-141590800D01*
X160145690Y-141437927D01*
X160012073Y-141304310D01*
X159859199Y-141193240D01*
X159845459Y-141186239D01*
X159690836Y-141107454D01*
X159511118Y-141049059D01*
X159324486Y-141019500D01*
X159324481Y-141019500D01*
X159135519Y-141019500D01*
X159135514Y-141019500D01*
X158948881Y-141049059D01*
X158769163Y-141107454D01*
X158600800Y-141193240D01*
X158513579Y-141256610D01*
X158447927Y-141304310D01*
X158447925Y-141304312D01*
X158447924Y-141304312D01*
X158314312Y-141437924D01*
X158314312Y-141437925D01*
X158314310Y-141437927D01*
X158266610Y-141503579D01*
X158203240Y-141590800D01*
X158117454Y-141759163D01*
X158059059Y-141938881D01*
X158029500Y-142125513D01*
X154373934Y-142125513D01*
X154362093Y-142116649D01*
X154362088Y-142116646D01*
X154230528Y-142067577D01*
X154174595Y-142025705D01*
X154150178Y-141960241D01*
X154165030Y-141891968D01*
X154186175Y-141863720D01*
X154300104Y-141749792D01*
X154425051Y-141577816D01*
X154521557Y-141388412D01*
X154587246Y-141186243D01*
X154620500Y-140976287D01*
X154620500Y-140763713D01*
X154587246Y-140553757D01*
X154521557Y-140351588D01*
X154425051Y-140162184D01*
X154425049Y-140162181D01*
X154425048Y-140162179D01*
X154300109Y-139990213D01*
X154149786Y-139839890D01*
X153977820Y-139714951D01*
X153977115Y-139714591D01*
X153969054Y-139710485D01*
X153918259Y-139662512D01*
X153901463Y-139594692D01*
X153923999Y-139528556D01*
X153969054Y-139489515D01*
X153977816Y-139485051D01*
X153999789Y-139469086D01*
X154149786Y-139360109D01*
X154149788Y-139360106D01*
X154149792Y-139360104D01*
X154300104Y-139209792D01*
X154300106Y-139209788D01*
X154300109Y-139209786D01*
X154425048Y-139037820D01*
X154425047Y-139037820D01*
X154425051Y-139037816D01*
X154521557Y-138848412D01*
X154587246Y-138646243D01*
X154620500Y-138436287D01*
X154620500Y-138223713D01*
X154587246Y-138013757D01*
X154521557Y-137811588D01*
X154425051Y-137622184D01*
X154425049Y-137622181D01*
X154425048Y-137622179D01*
X154300109Y-137450213D01*
X154149786Y-137299890D01*
X153977820Y-137174951D01*
X153977115Y-137174591D01*
X153969054Y-137170485D01*
X153918259Y-137122512D01*
X153901463Y-137054692D01*
X153923999Y-136988556D01*
X153969054Y-136949515D01*
X153977816Y-136945051D01*
X154074168Y-136875048D01*
X154149786Y-136820109D01*
X154149788Y-136820106D01*
X154149792Y-136820104D01*
X154300104Y-136669792D01*
X154300106Y-136669788D01*
X154300109Y-136669786D01*
X154425048Y-136497820D01*
X154425047Y-136497820D01*
X154425051Y-136497816D01*
X154521557Y-136308412D01*
X154587246Y-136106243D01*
X154620500Y-135896287D01*
X154620500Y-135683713D01*
X154587246Y-135473757D01*
X154521557Y-135271588D01*
X154425051Y-135082184D01*
X154425049Y-135082181D01*
X154425048Y-135082179D01*
X154300109Y-134910213D01*
X154149786Y-134759890D01*
X153977820Y-134634951D01*
X153977115Y-134634591D01*
X153969054Y-134630485D01*
X153918259Y-134582512D01*
X153901463Y-134514692D01*
X153923999Y-134448556D01*
X153969054Y-134409515D01*
X153977816Y-134405051D01*
X153999789Y-134389086D01*
X154149786Y-134280109D01*
X154149788Y-134280106D01*
X154149792Y-134280104D01*
X154300104Y-134129792D01*
X154300106Y-134129788D01*
X154300109Y-134129786D01*
X154425048Y-133957820D01*
X154425047Y-133957820D01*
X154425051Y-133957816D01*
X154521557Y-133768412D01*
X154587246Y-133566243D01*
X154620500Y-133356287D01*
X154620500Y-133215631D01*
X158531000Y-133215631D01*
X158531000Y-133404368D01*
X158560522Y-133590763D01*
X158560523Y-133590767D01*
X158618843Y-133770256D01*
X158704523Y-133938413D01*
X158815454Y-134091096D01*
X158948904Y-134224546D01*
X159101587Y-134335477D01*
X159269744Y-134421157D01*
X159396468Y-134462332D01*
X159454141Y-134501768D01*
X159481340Y-134566127D01*
X159469425Y-134634973D01*
X159422181Y-134686449D01*
X159396467Y-134698193D01*
X159269935Y-134739306D01*
X159101844Y-134824953D01*
X159101839Y-134824957D01*
X159076743Y-134843188D01*
X159076743Y-134843191D01*
X159645906Y-135412352D01*
X159558429Y-135435792D01*
X159457070Y-135494311D01*
X159374311Y-135577070D01*
X159315792Y-135678429D01*
X159292352Y-135765905D01*
X158723191Y-135196743D01*
X158723188Y-135196743D01*
X158704957Y-135221839D01*
X158704953Y-135221844D01*
X158619305Y-135389936D01*
X158619304Y-135389938D01*
X158561011Y-135569349D01*
X158531500Y-135755676D01*
X158531500Y-135944323D01*
X158561011Y-136130650D01*
X158619304Y-136310061D01*
X158619305Y-136310063D01*
X158704952Y-136478153D01*
X158723189Y-136503255D01*
X158723190Y-136503255D01*
X159292352Y-135934093D01*
X159315792Y-136021571D01*
X159374311Y-136122930D01*
X159457070Y-136205689D01*
X159558429Y-136264208D01*
X159645905Y-136287647D01*
X159076743Y-136856808D01*
X159076743Y-136856809D01*
X159101844Y-136875046D01*
X159269935Y-136960694D01*
X159269938Y-136960695D01*
X159449349Y-137018988D01*
X159635677Y-137048500D01*
X159824323Y-137048500D01*
X160010650Y-137018988D01*
X160190061Y-136960695D01*
X160190064Y-136960694D01*
X160358151Y-136875048D01*
X160383255Y-136856808D01*
X160383256Y-136856808D01*
X159814095Y-136287647D01*
X159901571Y-136264208D01*
X160002930Y-136205689D01*
X160085689Y-136122930D01*
X160144208Y-136021571D01*
X160167647Y-135934094D01*
X160736808Y-136503256D01*
X160736808Y-136503255D01*
X160755048Y-136478151D01*
X160840694Y-136310064D01*
X160840695Y-136310061D01*
X160898988Y-136130650D01*
X160928500Y-135944323D01*
X160928500Y-135755676D01*
X160898988Y-135569349D01*
X160840695Y-135389938D01*
X160840694Y-135389935D01*
X160755046Y-135221844D01*
X160736809Y-135196743D01*
X160736808Y-135196743D01*
X160167647Y-135765904D01*
X160144208Y-135678429D01*
X160085689Y-135577070D01*
X160002930Y-135494311D01*
X159901571Y-135435792D01*
X159814094Y-135412352D01*
X160383255Y-134843190D01*
X160383255Y-134843189D01*
X160358153Y-134824952D01*
X160190063Y-134739305D01*
X160190061Y-134739304D01*
X160063533Y-134698193D01*
X160005857Y-134658755D01*
X159978659Y-134594397D01*
X159990574Y-134525550D01*
X160037818Y-134474075D01*
X160063524Y-134462334D01*
X160190256Y-134421157D01*
X160358413Y-134335477D01*
X160511096Y-134224546D01*
X160644546Y-134091096D01*
X160755477Y-133938413D01*
X160841157Y-133770256D01*
X160899477Y-133590767D01*
X160916237Y-133484948D01*
X160929000Y-133404368D01*
X160929000Y-133215631D01*
X160899477Y-133029236D01*
X160899477Y-133029233D01*
X160841157Y-132849744D01*
X160755477Y-132681587D01*
X160644546Y-132528904D01*
X160511096Y-132395454D01*
X160358413Y-132284523D01*
X160190260Y-132198844D01*
X160130217Y-132179335D01*
X160063530Y-132157667D01*
X160005857Y-132118230D01*
X159978659Y-132053871D01*
X159990574Y-131985025D01*
X160037818Y-131933549D01*
X160063534Y-131921806D01*
X160190058Y-131880696D01*
X160190064Y-131880694D01*
X160358151Y-131795048D01*
X160383255Y-131776808D01*
X160383256Y-131776808D01*
X159814095Y-131207647D01*
X159901571Y-131184208D01*
X160002930Y-131125689D01*
X160085689Y-131042930D01*
X160144208Y-130941571D01*
X160167647Y-130854094D01*
X160736808Y-131423256D01*
X160736808Y-131423255D01*
X160755048Y-131398151D01*
X160840694Y-131230064D01*
X160840695Y-131230061D01*
X160898988Y-131050650D01*
X160928500Y-130864323D01*
X160928500Y-130675676D01*
X160898988Y-130489349D01*
X160840695Y-130309938D01*
X160840694Y-130309935D01*
X160755046Y-130141844D01*
X160736809Y-130116743D01*
X160736808Y-130116743D01*
X160167647Y-130685904D01*
X160144208Y-130598429D01*
X160085689Y-130497070D01*
X160002930Y-130414311D01*
X159901571Y-130355792D01*
X159814094Y-130332352D01*
X160383255Y-129763190D01*
X160383255Y-129763189D01*
X160358153Y-129744952D01*
X160190063Y-129659305D01*
X160190061Y-129659304D01*
X160062724Y-129617931D01*
X160005049Y-129578494D01*
X159977850Y-129514135D01*
X159989764Y-129445289D01*
X160037008Y-129393813D01*
X160062724Y-129382069D01*
X160190061Y-129340695D01*
X160190064Y-129340694D01*
X160358151Y-129255048D01*
X160383255Y-129236808D01*
X160383256Y-129236808D01*
X159814095Y-128667647D01*
X159901571Y-128644208D01*
X160002930Y-128585689D01*
X160085689Y-128502930D01*
X160144208Y-128401571D01*
X160167647Y-128314094D01*
X160736808Y-128883256D01*
X160736808Y-128883255D01*
X160755048Y-128858151D01*
X160840694Y-128690064D01*
X160840695Y-128690061D01*
X160898988Y-128510650D01*
X160928500Y-128324323D01*
X160928500Y-128135676D01*
X160898988Y-127949349D01*
X160840695Y-127769938D01*
X160840694Y-127769935D01*
X160755046Y-127601844D01*
X160736809Y-127576743D01*
X160736808Y-127576743D01*
X160167647Y-128145904D01*
X160144208Y-128058429D01*
X160085689Y-127957070D01*
X160002930Y-127874311D01*
X159901571Y-127815792D01*
X159814094Y-127792352D01*
X160383255Y-127223190D01*
X160383255Y-127223189D01*
X160358153Y-127204952D01*
X160190063Y-127119305D01*
X160190061Y-127119304D01*
X160010650Y-127061011D01*
X159824323Y-127031500D01*
X159635677Y-127031500D01*
X159449349Y-127061011D01*
X159269938Y-127119304D01*
X159269936Y-127119305D01*
X159101844Y-127204953D01*
X159101839Y-127204957D01*
X159076743Y-127223188D01*
X159076743Y-127223191D01*
X159645906Y-127792352D01*
X159558429Y-127815792D01*
X159457070Y-127874311D01*
X159374311Y-127957070D01*
X159315792Y-128058429D01*
X159292352Y-128145905D01*
X158723191Y-127576743D01*
X158723188Y-127576743D01*
X158704957Y-127601839D01*
X158704953Y-127601844D01*
X158619305Y-127769936D01*
X158619304Y-127769938D01*
X158561011Y-127949349D01*
X158531500Y-128135676D01*
X158531500Y-128324323D01*
X158561011Y-128510650D01*
X158619304Y-128690061D01*
X158619305Y-128690063D01*
X158704952Y-128858153D01*
X158723189Y-128883255D01*
X158723190Y-128883255D01*
X159292352Y-128314093D01*
X159315792Y-128401571D01*
X159374311Y-128502930D01*
X159457070Y-128585689D01*
X159558429Y-128644208D01*
X159645905Y-128667647D01*
X159076743Y-129236808D01*
X159076743Y-129236809D01*
X159101844Y-129255046D01*
X159269935Y-129340694D01*
X159269938Y-129340695D01*
X159397275Y-129382069D01*
X159454950Y-129421506D01*
X159482149Y-129485865D01*
X159470235Y-129554711D01*
X159422991Y-129606187D01*
X159397275Y-129617931D01*
X159269938Y-129659304D01*
X159269936Y-129659305D01*
X159101844Y-129744953D01*
X159101839Y-129744957D01*
X159076743Y-129763188D01*
X159076743Y-129763191D01*
X159645906Y-130332352D01*
X159558429Y-130355792D01*
X159457070Y-130414311D01*
X159374311Y-130497070D01*
X159315792Y-130598429D01*
X159292352Y-130685905D01*
X158723191Y-130116743D01*
X158723188Y-130116743D01*
X158704957Y-130141839D01*
X158704953Y-130141844D01*
X158619305Y-130309936D01*
X158619304Y-130309938D01*
X158561011Y-130489349D01*
X158531500Y-130675676D01*
X158531500Y-130864323D01*
X158561011Y-131050650D01*
X158619304Y-131230061D01*
X158619305Y-131230063D01*
X158704952Y-131398153D01*
X158723189Y-131423255D01*
X158723190Y-131423255D01*
X159292352Y-130854093D01*
X159315792Y-130941571D01*
X159374311Y-131042930D01*
X159457070Y-131125689D01*
X159558429Y-131184208D01*
X159645905Y-131207647D01*
X159076743Y-131776808D01*
X159076743Y-131776809D01*
X159101844Y-131795046D01*
X159269935Y-131880694D01*
X159269938Y-131880695D01*
X159396466Y-131921806D01*
X159454141Y-131961243D01*
X159481340Y-132025602D01*
X159469426Y-132094448D01*
X159422182Y-132145924D01*
X159396467Y-132157668D01*
X159269739Y-132198844D01*
X159101586Y-132284523D01*
X159032183Y-132334948D01*
X158948904Y-132395454D01*
X158948902Y-132395456D01*
X158948901Y-132395456D01*
X158815456Y-132528901D01*
X158815456Y-132528902D01*
X158815454Y-132528904D01*
X158775235Y-132584260D01*
X158704523Y-132681586D01*
X158618844Y-132849741D01*
X158560522Y-133029236D01*
X158531000Y-133215631D01*
X154620500Y-133215631D01*
X154620500Y-133143713D01*
X154587246Y-132933757D01*
X154521557Y-132731588D01*
X154425051Y-132542184D01*
X154425049Y-132542181D01*
X154425048Y-132542179D01*
X154300109Y-132370213D01*
X154149786Y-132219890D01*
X153977820Y-132094951D01*
X153976833Y-132094448D01*
X153969054Y-132090485D01*
X153918259Y-132042512D01*
X153901463Y-131974692D01*
X153923999Y-131908556D01*
X153969054Y-131869515D01*
X153977816Y-131865051D01*
X154074168Y-131795048D01*
X154149786Y-131740109D01*
X154149788Y-131740106D01*
X154149792Y-131740104D01*
X154300104Y-131589792D01*
X154300106Y-131589788D01*
X154300109Y-131589786D01*
X154425048Y-131417820D01*
X154425047Y-131417820D01*
X154425051Y-131417816D01*
X154521557Y-131228412D01*
X154587246Y-131026243D01*
X154620500Y-130816287D01*
X154620500Y-130603713D01*
X154587246Y-130393757D01*
X154521557Y-130191588D01*
X154425051Y-130002184D01*
X154425049Y-130002181D01*
X154425048Y-130002179D01*
X154338703Y-129883334D01*
X154300109Y-129830214D01*
X154300105Y-129830209D01*
X154149786Y-129679890D01*
X153977820Y-129554951D01*
X153977115Y-129554591D01*
X153969054Y-129550485D01*
X153918259Y-129502512D01*
X153901463Y-129434692D01*
X153923999Y-129368556D01*
X153969054Y-129329515D01*
X153977816Y-129325051D01*
X154074168Y-129255048D01*
X154149786Y-129200109D01*
X154149788Y-129200106D01*
X154149792Y-129200104D01*
X154300104Y-129049792D01*
X154300106Y-129049788D01*
X154300109Y-129049786D01*
X154425048Y-128877820D01*
X154425047Y-128877820D01*
X154425051Y-128877816D01*
X154521557Y-128688412D01*
X154587246Y-128486243D01*
X154620500Y-128276287D01*
X154620500Y-128063713D01*
X154587246Y-127853757D01*
X154521557Y-127651588D01*
X154425051Y-127462184D01*
X154425049Y-127462181D01*
X154425048Y-127462179D01*
X154338703Y-127343334D01*
X154300109Y-127290214D01*
X154300105Y-127290209D01*
X154149786Y-127139890D01*
X153977820Y-127014951D01*
X153977115Y-127014591D01*
X153969054Y-127010485D01*
X153918259Y-126962512D01*
X153901463Y-126894692D01*
X153923999Y-126828556D01*
X153969054Y-126789515D01*
X153977816Y-126785051D01*
X154005355Y-126765043D01*
X154149786Y-126660109D01*
X154149788Y-126660106D01*
X154149792Y-126660104D01*
X154300104Y-126509792D01*
X154300106Y-126509788D01*
X154300109Y-126509786D01*
X154425048Y-126337820D01*
X154425047Y-126337820D01*
X154425051Y-126337816D01*
X154521557Y-126148412D01*
X154587246Y-125946243D01*
X154620500Y-125736287D01*
X154620500Y-125523713D01*
X154587246Y-125313757D01*
X154521557Y-125111588D01*
X154425051Y-124922184D01*
X154425049Y-124922181D01*
X154425048Y-124922179D01*
X154300109Y-124750213D01*
X154149786Y-124599890D01*
X153977820Y-124474951D01*
X153977115Y-124474591D01*
X153969054Y-124470485D01*
X153918259Y-124422512D01*
X153901463Y-124354692D01*
X153923999Y-124288556D01*
X153969054Y-124249515D01*
X153977816Y-124245051D01*
X154064138Y-124182335D01*
X154149786Y-124120109D01*
X154149788Y-124120106D01*
X154149792Y-124120104D01*
X154300104Y-123969792D01*
X154300106Y-123969788D01*
X154300109Y-123969786D01*
X154425048Y-123797820D01*
X154425047Y-123797820D01*
X154425051Y-123797816D01*
X154521557Y-123608412D01*
X154587246Y-123406243D01*
X154620500Y-123196287D01*
X154620500Y-122983713D01*
X154587246Y-122773757D01*
X154521557Y-122571588D01*
X154425051Y-122382184D01*
X154425049Y-122382181D01*
X154425048Y-122382179D01*
X154300109Y-122210213D01*
X154149786Y-122059890D01*
X153977820Y-121934951D01*
X153788414Y-121838444D01*
X153788413Y-121838443D01*
X153788412Y-121838443D01*
X153586243Y-121772754D01*
X153586241Y-121772753D01*
X153586240Y-121772753D01*
X153424957Y-121747208D01*
X153376287Y-121739500D01*
X153163713Y-121739500D01*
X153115042Y-121747208D01*
X152953760Y-121772753D01*
X152751585Y-121838444D01*
X152562179Y-121934951D01*
X152390213Y-122059890D01*
X152239890Y-122210213D01*
X152114951Y-122382179D01*
X152018444Y-122571585D01*
X151952753Y-122773760D01*
X151919500Y-122983713D01*
X139380499Y-122983713D01*
X139380499Y-122192128D01*
X139374091Y-122132517D01*
X139323796Y-121997669D01*
X139323795Y-121997668D01*
X139323793Y-121997664D01*
X139237547Y-121882455D01*
X139237544Y-121882452D01*
X139122335Y-121796206D01*
X139122328Y-121796202D01*
X138987482Y-121745908D01*
X138987483Y-121745908D01*
X138927883Y-121739501D01*
X138927881Y-121739500D01*
X138927873Y-121739500D01*
X138927864Y-121739500D01*
X137132129Y-121739500D01*
X137132123Y-121739501D01*
X137072516Y-121745908D01*
X136937671Y-121796202D01*
X136937664Y-121796206D01*
X136822455Y-121882452D01*
X136822452Y-121882455D01*
X136736206Y-121997664D01*
X136736202Y-121997671D01*
X136685908Y-122132517D01*
X136679501Y-122192116D01*
X136679501Y-122192123D01*
X136679500Y-122192135D01*
X136679500Y-123987870D01*
X136679501Y-123987876D01*
X136685908Y-124047483D01*
X136736202Y-124182328D01*
X136736206Y-124182335D01*
X136822452Y-124297544D01*
X136822455Y-124297547D01*
X136937664Y-124383793D01*
X136937671Y-124383797D01*
X137069082Y-124432810D01*
X137125016Y-124474681D01*
X137149433Y-124540145D01*
X137134582Y-124608418D01*
X137113431Y-124636673D01*
X136999889Y-124750215D01*
X136874951Y-124922179D01*
X136778444Y-125111585D01*
X136778443Y-125111587D01*
X136778443Y-125111588D01*
X136777716Y-125113825D01*
X136712753Y-125313760D01*
X136679500Y-125523713D01*
X136679500Y-125736286D01*
X136707618Y-125913820D01*
X136712754Y-125946243D01*
X136721950Y-125974546D01*
X136778444Y-126148414D01*
X136874951Y-126337820D01*
X136999890Y-126509786D01*
X137150213Y-126660109D01*
X137322182Y-126785050D01*
X137330946Y-126789516D01*
X137381742Y-126837491D01*
X137398536Y-126905312D01*
X137375998Y-126971447D01*
X137330946Y-127010484D01*
X137322182Y-127014949D01*
X137150213Y-127139890D01*
X136999890Y-127290213D01*
X136874951Y-127462179D01*
X136778444Y-127651585D01*
X136712753Y-127853760D01*
X136680337Y-128058429D01*
X136679500Y-128063713D01*
X136679500Y-128276287D01*
X136712754Y-128486243D01*
X136764080Y-128644208D01*
X136778444Y-128688414D01*
X136874951Y-128877820D01*
X136999890Y-129049786D01*
X137150213Y-129200109D01*
X137322182Y-129325050D01*
X137330946Y-129329516D01*
X137381742Y-129377491D01*
X137398536Y-129445312D01*
X137375998Y-129511447D01*
X137330946Y-129550484D01*
X137322182Y-129554949D01*
X137150213Y-129679890D01*
X136999890Y-129830213D01*
X136874951Y-130002179D01*
X136778444Y-130191585D01*
X136712753Y-130393760D01*
X136680337Y-130598429D01*
X136679500Y-130603713D01*
X136679500Y-130816287D01*
X136712754Y-131026243D01*
X136764080Y-131184208D01*
X136778444Y-131228414D01*
X136874951Y-131417820D01*
X136999890Y-131589786D01*
X137150213Y-131740109D01*
X137322182Y-131865050D01*
X137330946Y-131869516D01*
X137381742Y-131917491D01*
X137398536Y-131985312D01*
X137375998Y-132051447D01*
X137330946Y-132090484D01*
X137322182Y-132094949D01*
X137150213Y-132219890D01*
X136999894Y-132370209D01*
X136999890Y-132370214D01*
X136914155Y-132488219D01*
X136858825Y-132530885D01*
X136789212Y-132536864D01*
X136766384Y-132529895D01*
X136634956Y-132475455D01*
X136634948Y-132475453D01*
X136479338Y-132444500D01*
X136479335Y-132444500D01*
X136320665Y-132444500D01*
X136320662Y-132444500D01*
X136165051Y-132475453D01*
X136165043Y-132475455D01*
X136018456Y-132536174D01*
X136018446Y-132536179D01*
X135886524Y-132624327D01*
X135886520Y-132624330D01*
X135774330Y-132736520D01*
X135774327Y-132736524D01*
X135686179Y-132868446D01*
X135686174Y-132868456D01*
X135625455Y-133015043D01*
X135625453Y-133015051D01*
X135594500Y-133170660D01*
X118566970Y-133170660D01*
X118571082Y-132020660D01*
X132969500Y-132020660D01*
X132969500Y-132179339D01*
X133000453Y-132334948D01*
X133000455Y-132334956D01*
X133061174Y-132481543D01*
X133061179Y-132481553D01*
X133149327Y-132613475D01*
X133149330Y-132613479D01*
X133261520Y-132725669D01*
X133261524Y-132725672D01*
X133393446Y-132813820D01*
X133393450Y-132813822D01*
X133393453Y-132813824D01*
X133540044Y-132874545D01*
X133695660Y-132905499D01*
X133695663Y-132905500D01*
X133695665Y-132905500D01*
X133854337Y-132905500D01*
X133854338Y-132905499D01*
X134009956Y-132874545D01*
X134156547Y-132813824D01*
X134288476Y-132725672D01*
X134400672Y-132613476D01*
X134488824Y-132481547D01*
X134549545Y-132334956D01*
X134580500Y-132179335D01*
X134580500Y-132020665D01*
X134580500Y-132020662D01*
X134580499Y-132020660D01*
X134568680Y-131961243D01*
X134549545Y-131865044D01*
X134488824Y-131718453D01*
X134488822Y-131718450D01*
X134488820Y-131718446D01*
X134400672Y-131586524D01*
X134400669Y-131586520D01*
X134288479Y-131474330D01*
X134288475Y-131474327D01*
X134156553Y-131386179D01*
X134156543Y-131386174D01*
X134009956Y-131325455D01*
X134009948Y-131325453D01*
X133854338Y-131294500D01*
X133854335Y-131294500D01*
X133695665Y-131294500D01*
X133695662Y-131294500D01*
X133540051Y-131325453D01*
X133540043Y-131325455D01*
X133393456Y-131386174D01*
X133393446Y-131386179D01*
X133261524Y-131474327D01*
X133261520Y-131474330D01*
X133149330Y-131586520D01*
X133149327Y-131586524D01*
X133061179Y-131718446D01*
X133061174Y-131718456D01*
X133000455Y-131865043D01*
X133000453Y-131865051D01*
X132969500Y-132020660D01*
X118571082Y-132020660D01*
X118589318Y-126920660D01*
X130194500Y-126920660D01*
X130194500Y-127079339D01*
X130225453Y-127234948D01*
X130225455Y-127234956D01*
X130286176Y-127381547D01*
X130319292Y-127431111D01*
X130340169Y-127497789D01*
X130321683Y-127565169D01*
X130319292Y-127568889D01*
X130286176Y-127618452D01*
X130225455Y-127765043D01*
X130225453Y-127765051D01*
X130194500Y-127920660D01*
X130194500Y-128079339D01*
X130225453Y-128234948D01*
X130225455Y-128234956D01*
X130286174Y-128381543D01*
X130286179Y-128381553D01*
X130374327Y-128513475D01*
X130374330Y-128513479D01*
X130486520Y-128625669D01*
X130486524Y-128625672D01*
X130618446Y-128713820D01*
X130618450Y-128713822D01*
X130618453Y-128713824D01*
X130765044Y-128774545D01*
X130920660Y-128805499D01*
X130920663Y-128805500D01*
X130920665Y-128805500D01*
X131079337Y-128805500D01*
X131079338Y-128805499D01*
X131234956Y-128774545D01*
X131381547Y-128713824D01*
X131513476Y-128625672D01*
X131625672Y-128513476D01*
X131713824Y-128381547D01*
X131774545Y-128234956D01*
X131805500Y-128079335D01*
X131805500Y-127920665D01*
X131805500Y-127920662D01*
X131805499Y-127920660D01*
X131796704Y-127876446D01*
X131774545Y-127765044D01*
X131713824Y-127618453D01*
X131680706Y-127568889D01*
X131659829Y-127502214D01*
X131678313Y-127434834D01*
X131680706Y-127431111D01*
X131713824Y-127381547D01*
X131774545Y-127234956D01*
X131805500Y-127079335D01*
X131805500Y-126920665D01*
X131805500Y-126920662D01*
X131805499Y-126920660D01*
X131797721Y-126881557D01*
X131774545Y-126765044D01*
X131713824Y-126618453D01*
X131713822Y-126618450D01*
X131713820Y-126618446D01*
X131625672Y-126486524D01*
X131625669Y-126486520D01*
X131513479Y-126374330D01*
X131513475Y-126374327D01*
X131381553Y-126286179D01*
X131381543Y-126286174D01*
X131234956Y-126225455D01*
X131234948Y-126225453D01*
X131079338Y-126194500D01*
X131079335Y-126194500D01*
X130920665Y-126194500D01*
X130920662Y-126194500D01*
X130765051Y-126225453D01*
X130765043Y-126225455D01*
X130618456Y-126286174D01*
X130618446Y-126286179D01*
X130486524Y-126374327D01*
X130486520Y-126374330D01*
X130374330Y-126486520D01*
X130374327Y-126486524D01*
X130286179Y-126618446D01*
X130286174Y-126618456D01*
X130225455Y-126765043D01*
X130225453Y-126765051D01*
X130194500Y-126920660D01*
X118589318Y-126920660D01*
X118598615Y-124320660D01*
X121694500Y-124320660D01*
X121694500Y-124479339D01*
X121725453Y-124634948D01*
X121725455Y-124634956D01*
X121786174Y-124781543D01*
X121786179Y-124781553D01*
X121874327Y-124913475D01*
X121874330Y-124913479D01*
X121986520Y-125025669D01*
X121986524Y-125025672D01*
X122118446Y-125113820D01*
X122118450Y-125113822D01*
X122118453Y-125113824D01*
X122265044Y-125174545D01*
X122420660Y-125205499D01*
X122420663Y-125205500D01*
X122420665Y-125205500D01*
X122579337Y-125205500D01*
X122579338Y-125205499D01*
X122734956Y-125174545D01*
X122865044Y-125120660D01*
X129394500Y-125120660D01*
X129394500Y-125279339D01*
X129425453Y-125434948D01*
X129425455Y-125434956D01*
X129486174Y-125581543D01*
X129486179Y-125581553D01*
X129574327Y-125713475D01*
X129574330Y-125713479D01*
X129686520Y-125825669D01*
X129686524Y-125825672D01*
X129818446Y-125913820D01*
X129818450Y-125913822D01*
X129818453Y-125913824D01*
X129965044Y-125974545D01*
X130120660Y-126005499D01*
X130120663Y-126005500D01*
X130120665Y-126005500D01*
X130279337Y-126005500D01*
X130279338Y-126005499D01*
X130434956Y-125974545D01*
X130581547Y-125913824D01*
X130713476Y-125825672D01*
X130825672Y-125713476D01*
X130913824Y-125581547D01*
X130974545Y-125434956D01*
X131005500Y-125279335D01*
X131005500Y-125120665D01*
X131005500Y-125120662D01*
X131005499Y-125120660D01*
X131003694Y-125111585D01*
X130974545Y-124965044D01*
X130913824Y-124818453D01*
X130913822Y-124818450D01*
X130913820Y-124818446D01*
X130825672Y-124686524D01*
X130825669Y-124686520D01*
X130713479Y-124574330D01*
X130713475Y-124574327D01*
X130581553Y-124486179D01*
X130581543Y-124486174D01*
X130434956Y-124425455D01*
X130434948Y-124425453D01*
X130279338Y-124394500D01*
X130279335Y-124394500D01*
X130120665Y-124394500D01*
X130120662Y-124394500D01*
X129965051Y-124425453D01*
X129965043Y-124425455D01*
X129818456Y-124486174D01*
X129818446Y-124486179D01*
X129686524Y-124574327D01*
X129686520Y-124574330D01*
X129574330Y-124686520D01*
X129574327Y-124686524D01*
X129486179Y-124818446D01*
X129486174Y-124818456D01*
X129425455Y-124965043D01*
X129425453Y-124965051D01*
X129394500Y-125120660D01*
X122865044Y-125120660D01*
X122881547Y-125113824D01*
X123013476Y-125025672D01*
X123125672Y-124913476D01*
X123213824Y-124781547D01*
X123274545Y-124634956D01*
X123305500Y-124479335D01*
X123305500Y-124320665D01*
X123305500Y-124320662D01*
X123305499Y-124320660D01*
X123274545Y-124165044D01*
X123213824Y-124018453D01*
X123213822Y-124018450D01*
X123213820Y-124018446D01*
X123125672Y-123886524D01*
X123125669Y-123886520D01*
X123013479Y-123774330D01*
X123013475Y-123774327D01*
X122881553Y-123686179D01*
X122881543Y-123686174D01*
X122734956Y-123625455D01*
X122734948Y-123625453D01*
X122579338Y-123594500D01*
X122579335Y-123594500D01*
X122420665Y-123594500D01*
X122420662Y-123594500D01*
X122265051Y-123625453D01*
X122265043Y-123625455D01*
X122118456Y-123686174D01*
X122118446Y-123686179D01*
X121986524Y-123774327D01*
X121986520Y-123774330D01*
X121874330Y-123886520D01*
X121874327Y-123886524D01*
X121786179Y-124018446D01*
X121786174Y-124018456D01*
X121725455Y-124165043D01*
X121725453Y-124165051D01*
X121694500Y-124320660D01*
X118598615Y-124320660D01*
X118625575Y-116780660D01*
X128094500Y-116780660D01*
X128094500Y-116939339D01*
X128125453Y-117094948D01*
X128125455Y-117094956D01*
X128186174Y-117241543D01*
X128186179Y-117241553D01*
X128274327Y-117373475D01*
X128274330Y-117373479D01*
X128386520Y-117485669D01*
X128386524Y-117485672D01*
X128518446Y-117573820D01*
X128518450Y-117573822D01*
X128518453Y-117573824D01*
X128665044Y-117634545D01*
X128820660Y-117665499D01*
X128820663Y-117665500D01*
X128820665Y-117665500D01*
X128979337Y-117665500D01*
X128979338Y-117665499D01*
X129134956Y-117634545D01*
X129281547Y-117573824D01*
X129413476Y-117485672D01*
X129525672Y-117373476D01*
X129613824Y-117241547D01*
X129674545Y-117094956D01*
X129705500Y-116939335D01*
X129705500Y-116780665D01*
X129705500Y-116780662D01*
X129705499Y-116780660D01*
X129674546Y-116625051D01*
X129674545Y-116625044D01*
X129613824Y-116478453D01*
X129613822Y-116478450D01*
X129613820Y-116478446D01*
X129525672Y-116346524D01*
X129525669Y-116346520D01*
X129413479Y-116234330D01*
X129413475Y-116234327D01*
X129281553Y-116146179D01*
X129281543Y-116146174D01*
X129134956Y-116085455D01*
X129134948Y-116085453D01*
X128979338Y-116054500D01*
X128979335Y-116054500D01*
X128820665Y-116054500D01*
X128820662Y-116054500D01*
X128665051Y-116085453D01*
X128665043Y-116085455D01*
X128518456Y-116146174D01*
X128518446Y-116146179D01*
X128386524Y-116234327D01*
X128386520Y-116234330D01*
X128274330Y-116346520D01*
X128274327Y-116346524D01*
X128186179Y-116478446D01*
X128186174Y-116478456D01*
X128125455Y-116625043D01*
X128125453Y-116625051D01*
X128094500Y-116780660D01*
X118625575Y-116780660D01*
X118674419Y-103120660D01*
X128194500Y-103120660D01*
X128194500Y-103279339D01*
X128225453Y-103434948D01*
X128225455Y-103434956D01*
X128286174Y-103581543D01*
X128286179Y-103581553D01*
X128374327Y-103713475D01*
X128374330Y-103713479D01*
X128486520Y-103825669D01*
X128486524Y-103825672D01*
X128618446Y-103913820D01*
X128618450Y-103913822D01*
X128618453Y-103913824D01*
X128765044Y-103974545D01*
X128920660Y-104005499D01*
X128920663Y-104005500D01*
X128920665Y-104005500D01*
X129079337Y-104005500D01*
X129079338Y-104005499D01*
X129234956Y-103974545D01*
X129381547Y-103913824D01*
X129513476Y-103825672D01*
X129625672Y-103713476D01*
X129713824Y-103581547D01*
X129774545Y-103434956D01*
X129805500Y-103279335D01*
X129805500Y-103120665D01*
X129805500Y-103120662D01*
X129805499Y-103120660D01*
X129792011Y-103052853D01*
X129774545Y-102965044D01*
X129714738Y-102820660D01*
X130294500Y-102820660D01*
X130294500Y-102979339D01*
X130325453Y-103134948D01*
X130325455Y-103134956D01*
X130386174Y-103281543D01*
X130386179Y-103281553D01*
X130474327Y-103413475D01*
X130474330Y-103413479D01*
X130586520Y-103525669D01*
X130586524Y-103525672D01*
X130718446Y-103613820D01*
X130718450Y-103613822D01*
X130718453Y-103613824D01*
X130865044Y-103674545D01*
X131020660Y-103705499D01*
X131020663Y-103705500D01*
X131086204Y-103705500D01*
X131153243Y-103725185D01*
X131198998Y-103777989D01*
X131208942Y-103847147D01*
X131207821Y-103853691D01*
X131194500Y-103920660D01*
X131194500Y-104079339D01*
X131225453Y-104234948D01*
X131225455Y-104234956D01*
X131286174Y-104381543D01*
X131286179Y-104381553D01*
X131374327Y-104513475D01*
X131374330Y-104513479D01*
X131486520Y-104625669D01*
X131486524Y-104625672D01*
X131618446Y-104713820D01*
X131618450Y-104713822D01*
X131618453Y-104713824D01*
X131765044Y-104774545D01*
X131920660Y-104805499D01*
X131920663Y-104805500D01*
X131920665Y-104805500D01*
X132079337Y-104805500D01*
X132079338Y-104805499D01*
X132234956Y-104774545D01*
X132381547Y-104713824D01*
X132513476Y-104625672D01*
X132625672Y-104513476D01*
X132713824Y-104381547D01*
X132774545Y-104234956D01*
X132805500Y-104079335D01*
X132805500Y-103920665D01*
X132805500Y-103920662D01*
X132805499Y-103920660D01*
X132790876Y-103847147D01*
X132774545Y-103765044D01*
X132713824Y-103618453D01*
X132713822Y-103618450D01*
X132713820Y-103618446D01*
X132625672Y-103486524D01*
X132625669Y-103486520D01*
X132513479Y-103374330D01*
X132513475Y-103374327D01*
X132381553Y-103286179D01*
X132381543Y-103286174D01*
X132234956Y-103225455D01*
X132234948Y-103225453D01*
X132079338Y-103194500D01*
X132079335Y-103194500D01*
X132013796Y-103194500D01*
X131946757Y-103174815D01*
X131901002Y-103122011D01*
X131891058Y-103052853D01*
X131892179Y-103046309D01*
X131905499Y-102979339D01*
X131905500Y-102979337D01*
X131905500Y-102820662D01*
X131905499Y-102820660D01*
X131905059Y-102818446D01*
X131874545Y-102665044D01*
X131813824Y-102518453D01*
X131813822Y-102518450D01*
X131813820Y-102518446D01*
X131725672Y-102386524D01*
X131725669Y-102386520D01*
X131613479Y-102274330D01*
X131613475Y-102274327D01*
X131481553Y-102186179D01*
X131481543Y-102186174D01*
X131334956Y-102125455D01*
X131334948Y-102125453D01*
X131179338Y-102094500D01*
X131179335Y-102094500D01*
X131020665Y-102094500D01*
X131020662Y-102094500D01*
X130865051Y-102125453D01*
X130865043Y-102125455D01*
X130718456Y-102186174D01*
X130718446Y-102186179D01*
X130586524Y-102274327D01*
X130586520Y-102274330D01*
X130474330Y-102386520D01*
X130474327Y-102386524D01*
X130386179Y-102518446D01*
X130386174Y-102518456D01*
X130325455Y-102665043D01*
X130325453Y-102665051D01*
X130294500Y-102820660D01*
X129714738Y-102820660D01*
X129713824Y-102818453D01*
X129713822Y-102818450D01*
X129713820Y-102818446D01*
X129625672Y-102686524D01*
X129625669Y-102686520D01*
X129513479Y-102574330D01*
X129513475Y-102574327D01*
X129381553Y-102486179D01*
X129381543Y-102486174D01*
X129234956Y-102425455D01*
X129234948Y-102425453D01*
X129079338Y-102394500D01*
X129079335Y-102394500D01*
X128920665Y-102394500D01*
X128920662Y-102394500D01*
X128765051Y-102425453D01*
X128765043Y-102425455D01*
X128618456Y-102486174D01*
X128618446Y-102486179D01*
X128486524Y-102574327D01*
X128486520Y-102574330D01*
X128374330Y-102686520D01*
X128374327Y-102686524D01*
X128286179Y-102818446D01*
X128286174Y-102818456D01*
X128225455Y-102965043D01*
X128225453Y-102965051D01*
X128194500Y-103120660D01*
X118674419Y-103120660D01*
X118681574Y-101119639D01*
X118701498Y-101052672D01*
X118754465Y-101007106D01*
X118823659Y-100997410D01*
X118887110Y-101026662D01*
X118893254Y-101032403D01*
X118986520Y-101125669D01*
X118986524Y-101125672D01*
X119118446Y-101213820D01*
X119118450Y-101213822D01*
X119118453Y-101213824D01*
X119265044Y-101274545D01*
X119420660Y-101305499D01*
X119420663Y-101305500D01*
X119420665Y-101305500D01*
X119579337Y-101305500D01*
X119579338Y-101305499D01*
X119734956Y-101274545D01*
X119881547Y-101213824D01*
X120013476Y-101125672D01*
X120125672Y-101013476D01*
X120213824Y-100881547D01*
X120274545Y-100734956D01*
X120305500Y-100579335D01*
X120305500Y-100420665D01*
X120305500Y-100420662D01*
X120305499Y-100420660D01*
X120274546Y-100265051D01*
X120274545Y-100265044D01*
X120274543Y-100265039D01*
X120274542Y-100265035D01*
X120273308Y-100262056D01*
X120273295Y-100262026D01*
X120256160Y-100220660D01*
X130094500Y-100220660D01*
X130094500Y-100379339D01*
X130125453Y-100534948D01*
X130125455Y-100534956D01*
X130186174Y-100681543D01*
X130186179Y-100681553D01*
X130274327Y-100813475D01*
X130274330Y-100813479D01*
X130386520Y-100925669D01*
X130386524Y-100925672D01*
X130518446Y-101013820D01*
X130518450Y-101013822D01*
X130518453Y-101013824D01*
X130665044Y-101074545D01*
X130820660Y-101105499D01*
X130820663Y-101105500D01*
X130820665Y-101105500D01*
X130979337Y-101105500D01*
X130979338Y-101105499D01*
X131134956Y-101074545D01*
X131281547Y-101013824D01*
X131413476Y-100925672D01*
X131525672Y-100813476D01*
X131613824Y-100681547D01*
X131674545Y-100534956D01*
X131705500Y-100379335D01*
X131705500Y-100220665D01*
X131705500Y-100220662D01*
X131705499Y-100220660D01*
X131685169Y-100118456D01*
X131674545Y-100065044D01*
X131613824Y-99918453D01*
X131613822Y-99918450D01*
X131613820Y-99918446D01*
X131525672Y-99786524D01*
X131525669Y-99786520D01*
X131413479Y-99674330D01*
X131413475Y-99674327D01*
X131281553Y-99586179D01*
X131281543Y-99586174D01*
X131134956Y-99525455D01*
X131134948Y-99525453D01*
X130979338Y-99494500D01*
X130979335Y-99494500D01*
X130820665Y-99494500D01*
X130820662Y-99494500D01*
X130665051Y-99525453D01*
X130665043Y-99525455D01*
X130518456Y-99586174D01*
X130518446Y-99586179D01*
X130386524Y-99674327D01*
X130386520Y-99674330D01*
X130274330Y-99786520D01*
X130274327Y-99786524D01*
X130186179Y-99918446D01*
X130186174Y-99918456D01*
X130125455Y-100065043D01*
X130125453Y-100065051D01*
X130094500Y-100220660D01*
X120256160Y-100220660D01*
X120213825Y-100118456D01*
X120213824Y-100118453D01*
X120213822Y-100118450D01*
X120213820Y-100118446D01*
X120125672Y-99986524D01*
X120125669Y-99986520D01*
X120013479Y-99874330D01*
X120013475Y-99874327D01*
X119881553Y-99786179D01*
X119881543Y-99786174D01*
X119734956Y-99725455D01*
X119734948Y-99725453D01*
X119579338Y-99694500D01*
X119579335Y-99694500D01*
X119420665Y-99694500D01*
X119420662Y-99694500D01*
X119265051Y-99725453D01*
X119265043Y-99725455D01*
X119118456Y-99786174D01*
X119118446Y-99786179D01*
X118986524Y-99874327D01*
X118897704Y-99963147D01*
X118836380Y-99996631D01*
X118766689Y-99991647D01*
X118710755Y-99949775D01*
X118686339Y-99884310D01*
X118686024Y-99875047D01*
X118701236Y-95620660D01*
X124794500Y-95620660D01*
X124794500Y-95779339D01*
X124825453Y-95934948D01*
X124825455Y-95934956D01*
X124886174Y-96081543D01*
X124886179Y-96081553D01*
X124974327Y-96213475D01*
X124974330Y-96213479D01*
X125086520Y-96325669D01*
X125086524Y-96325672D01*
X125218446Y-96413820D01*
X125218450Y-96413822D01*
X125218453Y-96413824D01*
X125365044Y-96474545D01*
X125520660Y-96505499D01*
X125520663Y-96505500D01*
X125520665Y-96505500D01*
X125679337Y-96505500D01*
X125679338Y-96505499D01*
X125834956Y-96474545D01*
X125981547Y-96413824D01*
X126113476Y-96325672D01*
X126225672Y-96213476D01*
X126313824Y-96081547D01*
X126374545Y-95934956D01*
X126405500Y-95779335D01*
X126405500Y-95620665D01*
X126405500Y-95620662D01*
X126389209Y-95538765D01*
X126389209Y-95538764D01*
X126385608Y-95520660D01*
X132774500Y-95520660D01*
X132774500Y-95679339D01*
X132805453Y-95834948D01*
X132805455Y-95834956D01*
X132866174Y-95981543D01*
X132866179Y-95981553D01*
X132954327Y-96113475D01*
X132954330Y-96113479D01*
X133066520Y-96225669D01*
X133066524Y-96225672D01*
X133198446Y-96313820D01*
X133198450Y-96313822D01*
X133198453Y-96313824D01*
X133345044Y-96374545D01*
X133500660Y-96405499D01*
X133500663Y-96405500D01*
X133500665Y-96405500D01*
X133659337Y-96405500D01*
X133659338Y-96405499D01*
X133814956Y-96374545D01*
X133961547Y-96313824D01*
X134093476Y-96225672D01*
X134205672Y-96113476D01*
X134293824Y-95981547D01*
X134354545Y-95834956D01*
X134385500Y-95679335D01*
X134385500Y-95520665D01*
X134385500Y-95520662D01*
X134385499Y-95520660D01*
X134354546Y-95365051D01*
X134354545Y-95365044D01*
X134293824Y-95218453D01*
X134293822Y-95218450D01*
X134293820Y-95218446D01*
X134205672Y-95086524D01*
X134205669Y-95086520D01*
X134093479Y-94974330D01*
X134093475Y-94974327D01*
X133961553Y-94886179D01*
X133961543Y-94886174D01*
X133814956Y-94825455D01*
X133814948Y-94825453D01*
X133659338Y-94794500D01*
X133659335Y-94794500D01*
X133500665Y-94794500D01*
X133500662Y-94794500D01*
X133345051Y-94825453D01*
X133345043Y-94825455D01*
X133198456Y-94886174D01*
X133198446Y-94886179D01*
X133066524Y-94974327D01*
X133066520Y-94974330D01*
X132954330Y-95086520D01*
X132954327Y-95086524D01*
X132866179Y-95218446D01*
X132866174Y-95218456D01*
X132805455Y-95365043D01*
X132805453Y-95365051D01*
X132774500Y-95520660D01*
X126385608Y-95520660D01*
X126374783Y-95466243D01*
X126374545Y-95465044D01*
X126313824Y-95318453D01*
X126313822Y-95318450D01*
X126313820Y-95318446D01*
X126225672Y-95186524D01*
X126225669Y-95186520D01*
X126113479Y-95074330D01*
X126113475Y-95074327D01*
X125981553Y-94986179D01*
X125981543Y-94986174D01*
X125834956Y-94925455D01*
X125834948Y-94925453D01*
X125679338Y-94894500D01*
X125679335Y-94894500D01*
X125520665Y-94894500D01*
X125520662Y-94894500D01*
X125365051Y-94925453D01*
X125365043Y-94925455D01*
X125218456Y-94986174D01*
X125218446Y-94986179D01*
X125086524Y-95074327D01*
X125086520Y-95074330D01*
X124974330Y-95186520D01*
X124974327Y-95186524D01*
X124886179Y-95318446D01*
X124886174Y-95318456D01*
X124825455Y-95465043D01*
X124825453Y-95465051D01*
X124794500Y-95620660D01*
X118701236Y-95620660D01*
X118707959Y-93740659D01*
X131574501Y-93740659D01*
X131574501Y-93899338D01*
X131605454Y-94054947D01*
X131605456Y-94054955D01*
X131666175Y-94201542D01*
X131666180Y-94201552D01*
X131754328Y-94333474D01*
X131754331Y-94333478D01*
X131866521Y-94445668D01*
X131866525Y-94445671D01*
X131998447Y-94533819D01*
X131998451Y-94533821D01*
X131998454Y-94533823D01*
X132145045Y-94594544D01*
X132300661Y-94625498D01*
X132300664Y-94625499D01*
X132300666Y-94625499D01*
X132459338Y-94625499D01*
X132459339Y-94625498D01*
X132614957Y-94594544D01*
X132761548Y-94533823D01*
X132893477Y-94445671D01*
X133005673Y-94333475D01*
X133093825Y-94201546D01*
X133154546Y-94054955D01*
X133185501Y-93899334D01*
X133185501Y-93740664D01*
X133185501Y-93740661D01*
X133185500Y-93740659D01*
X133154547Y-93585050D01*
X133154546Y-93585043D01*
X133093825Y-93438452D01*
X133093823Y-93438449D01*
X133093821Y-93438445D01*
X133005673Y-93306523D01*
X133005670Y-93306519D01*
X132893480Y-93194329D01*
X132893476Y-93194326D01*
X132761554Y-93106178D01*
X132761544Y-93106173D01*
X132614957Y-93045454D01*
X132614949Y-93045452D01*
X132459339Y-93014499D01*
X132459336Y-93014499D01*
X132300666Y-93014499D01*
X132300663Y-93014499D01*
X132145052Y-93045452D01*
X132145044Y-93045454D01*
X131998457Y-93106173D01*
X131998447Y-93106178D01*
X131866525Y-93194326D01*
X131866521Y-93194329D01*
X131754331Y-93306519D01*
X131754328Y-93306523D01*
X131666180Y-93438445D01*
X131666175Y-93438455D01*
X131605456Y-93585042D01*
X131605454Y-93585050D01*
X131574501Y-93740659D01*
X118707959Y-93740659D01*
X118718695Y-90738160D01*
X130377000Y-90738160D01*
X130377000Y-90896839D01*
X130407953Y-91052448D01*
X130407955Y-91052456D01*
X130468674Y-91199043D01*
X130468679Y-91199053D01*
X130556827Y-91330975D01*
X130556830Y-91330979D01*
X130669020Y-91443169D01*
X130669024Y-91443172D01*
X130800946Y-91531320D01*
X130800950Y-91531322D01*
X130800953Y-91531324D01*
X130947544Y-91592045D01*
X131103160Y-91622999D01*
X131103163Y-91623000D01*
X131103165Y-91623000D01*
X131261837Y-91623000D01*
X131261838Y-91622999D01*
X131417456Y-91592045D01*
X131564047Y-91531324D01*
X131695976Y-91443172D01*
X131808172Y-91330976D01*
X131896324Y-91199047D01*
X131957045Y-91052456D01*
X131988000Y-90896835D01*
X131988000Y-90738165D01*
X131988000Y-90738162D01*
X131987999Y-90738160D01*
X131983089Y-90713475D01*
X131957045Y-90582544D01*
X131896324Y-90435953D01*
X131896322Y-90435950D01*
X131896320Y-90435946D01*
X131808172Y-90304024D01*
X131808169Y-90304020D01*
X131695979Y-90191830D01*
X131695975Y-90191827D01*
X131564053Y-90103679D01*
X131564043Y-90103674D01*
X131417456Y-90042955D01*
X131417448Y-90042953D01*
X131261838Y-90012000D01*
X131261835Y-90012000D01*
X131103165Y-90012000D01*
X131103162Y-90012000D01*
X130947551Y-90042953D01*
X130947543Y-90042955D01*
X130800956Y-90103674D01*
X130800946Y-90103679D01*
X130669024Y-90191827D01*
X130669020Y-90191830D01*
X130556830Y-90304020D01*
X130556827Y-90304024D01*
X130468679Y-90435946D01*
X130468674Y-90435956D01*
X130407955Y-90582543D01*
X130407953Y-90582551D01*
X130377000Y-90738160D01*
X118718695Y-90738160D01*
X118723763Y-89320660D01*
X132294500Y-89320660D01*
X132294500Y-89479339D01*
X132325453Y-89634948D01*
X132325455Y-89634956D01*
X132386174Y-89781543D01*
X132386179Y-89781553D01*
X132474327Y-89913475D01*
X132474330Y-89913479D01*
X132586520Y-90025669D01*
X132586524Y-90025672D01*
X132718446Y-90113820D01*
X132718450Y-90113822D01*
X132718453Y-90113824D01*
X132865044Y-90174545D01*
X133020660Y-90205499D01*
X133020663Y-90205500D01*
X133020665Y-90205500D01*
X133179337Y-90205500D01*
X133179338Y-90205499D01*
X133334956Y-90174545D01*
X133465044Y-90120660D01*
X134194500Y-90120660D01*
X134194500Y-90279339D01*
X134225453Y-90434948D01*
X134225455Y-90434956D01*
X134286174Y-90581543D01*
X134286179Y-90581553D01*
X134374327Y-90713475D01*
X134374330Y-90713479D01*
X134486520Y-90825669D01*
X134486524Y-90825672D01*
X134618446Y-90913820D01*
X134618450Y-90913822D01*
X134618453Y-90913824D01*
X134765044Y-90974545D01*
X134920660Y-91005499D01*
X134920663Y-91005500D01*
X134920665Y-91005500D01*
X135079337Y-91005500D01*
X135079338Y-91005499D01*
X135234956Y-90974545D01*
X135381547Y-90913824D01*
X135513476Y-90825672D01*
X135625672Y-90713476D01*
X135713824Y-90581547D01*
X135774545Y-90434956D01*
X135805500Y-90279335D01*
X135805500Y-90120665D01*
X135805500Y-90120662D01*
X135805499Y-90120660D01*
X135790042Y-90042953D01*
X135774545Y-89965044D01*
X135713824Y-89818453D01*
X135713822Y-89818450D01*
X135713820Y-89818446D01*
X135625672Y-89686524D01*
X135625669Y-89686520D01*
X135513479Y-89574330D01*
X135513475Y-89574327D01*
X135381553Y-89486179D01*
X135381543Y-89486174D01*
X135234956Y-89425455D01*
X135234948Y-89425453D01*
X135079338Y-89394500D01*
X135079335Y-89394500D01*
X134920665Y-89394500D01*
X134920662Y-89394500D01*
X134765051Y-89425453D01*
X134765043Y-89425455D01*
X134618456Y-89486174D01*
X134618446Y-89486179D01*
X134486524Y-89574327D01*
X134486520Y-89574330D01*
X134374330Y-89686520D01*
X134374327Y-89686524D01*
X134286179Y-89818446D01*
X134286174Y-89818456D01*
X134225455Y-89965043D01*
X134225453Y-89965051D01*
X134194500Y-90120660D01*
X133465044Y-90120660D01*
X133481547Y-90113824D01*
X133613476Y-90025672D01*
X133725672Y-89913476D01*
X133813824Y-89781547D01*
X133874545Y-89634956D01*
X133905500Y-89479335D01*
X133905500Y-89320665D01*
X133905500Y-89320662D01*
X133905499Y-89320660D01*
X133874546Y-89165051D01*
X133874545Y-89165044D01*
X133813824Y-89018453D01*
X133813822Y-89018450D01*
X133813820Y-89018446D01*
X133725672Y-88886524D01*
X133725669Y-88886520D01*
X133613479Y-88774330D01*
X133613475Y-88774327D01*
X133481553Y-88686179D01*
X133481543Y-88686174D01*
X133334956Y-88625455D01*
X133334948Y-88625453D01*
X133179338Y-88594500D01*
X133179335Y-88594500D01*
X133020665Y-88594500D01*
X133020662Y-88594500D01*
X132865051Y-88625453D01*
X132865043Y-88625455D01*
X132718456Y-88686174D01*
X132718446Y-88686179D01*
X132586524Y-88774327D01*
X132586520Y-88774330D01*
X132474330Y-88886520D01*
X132474327Y-88886524D01*
X132386179Y-89018446D01*
X132386174Y-89018456D01*
X132325455Y-89165043D01*
X132325453Y-89165051D01*
X132294500Y-89320660D01*
X118723763Y-89320660D01*
X118729395Y-87745660D01*
X121194500Y-87745660D01*
X121194500Y-87904339D01*
X121225453Y-88059948D01*
X121225455Y-88059956D01*
X121286174Y-88206543D01*
X121286179Y-88206553D01*
X121374327Y-88338475D01*
X121374330Y-88338479D01*
X121486520Y-88450669D01*
X121486524Y-88450672D01*
X121618446Y-88538820D01*
X121618450Y-88538822D01*
X121618453Y-88538824D01*
X121765044Y-88599545D01*
X121895292Y-88625453D01*
X121920660Y-88630499D01*
X121920663Y-88630500D01*
X121920665Y-88630500D01*
X122079337Y-88630500D01*
X122079338Y-88630499D01*
X122234956Y-88599545D01*
X122381547Y-88538824D01*
X122513476Y-88450672D01*
X122625672Y-88338476D01*
X122713824Y-88206547D01*
X122774545Y-88059956D01*
X122805500Y-87904335D01*
X122805500Y-87745665D01*
X122805500Y-87745662D01*
X122805499Y-87745660D01*
X122774546Y-87590051D01*
X122774545Y-87590044D01*
X122713824Y-87443453D01*
X122713820Y-87443446D01*
X122698595Y-87420660D01*
X126994500Y-87420660D01*
X126994500Y-87579339D01*
X127025453Y-87734948D01*
X127025455Y-87734956D01*
X127086174Y-87881543D01*
X127086179Y-87881553D01*
X127174327Y-88013475D01*
X127174330Y-88013479D01*
X127286520Y-88125669D01*
X127286524Y-88125672D01*
X127418446Y-88213820D01*
X127418450Y-88213822D01*
X127418453Y-88213824D01*
X127565044Y-88274545D01*
X127720660Y-88305499D01*
X127720663Y-88305500D01*
X127720665Y-88305500D01*
X127879337Y-88305500D01*
X127879338Y-88305499D01*
X128034956Y-88274545D01*
X128181547Y-88213824D01*
X128313476Y-88125672D01*
X128425672Y-88013476D01*
X128513824Y-87881547D01*
X128574545Y-87734956D01*
X128605500Y-87579335D01*
X128605500Y-87520660D01*
X135494500Y-87520660D01*
X135494500Y-87679339D01*
X135525453Y-87834948D01*
X135525455Y-87834956D01*
X135586174Y-87981543D01*
X135586179Y-87981553D01*
X135674327Y-88113475D01*
X135674330Y-88113479D01*
X135786520Y-88225669D01*
X135786524Y-88225672D01*
X135918446Y-88313820D01*
X135918450Y-88313822D01*
X135918453Y-88313824D01*
X136065044Y-88374545D01*
X136220660Y-88405499D01*
X136220663Y-88405500D01*
X136220665Y-88405500D01*
X136379337Y-88405500D01*
X136379338Y-88405499D01*
X136534956Y-88374545D01*
X136681547Y-88313824D01*
X136681552Y-88313820D01*
X136681555Y-88313819D01*
X136749786Y-88268228D01*
X136816463Y-88247349D01*
X136883844Y-88265833D01*
X136918996Y-88298444D01*
X136999890Y-88409785D01*
X136999894Y-88409790D01*
X137150213Y-88560109D01*
X137322182Y-88685050D01*
X137330946Y-88689516D01*
X137381742Y-88737491D01*
X137398536Y-88805312D01*
X137375998Y-88871447D01*
X137330946Y-88910484D01*
X137322182Y-88914949D01*
X137150213Y-89039890D01*
X136999890Y-89190213D01*
X136874951Y-89362179D01*
X136778444Y-89551585D01*
X136712753Y-89753760D01*
X136687457Y-89913475D01*
X136679500Y-89963713D01*
X136679500Y-90176287D01*
X136712754Y-90386243D01*
X136776536Y-90582544D01*
X136778444Y-90588414D01*
X136874951Y-90777820D01*
X136999890Y-90949786D01*
X137150213Y-91100109D01*
X137322182Y-91225050D01*
X137330946Y-91229516D01*
X137381742Y-91277491D01*
X137398536Y-91345312D01*
X137375998Y-91411447D01*
X137330946Y-91450484D01*
X137322182Y-91454949D01*
X137150213Y-91579890D01*
X136999890Y-91730213D01*
X136874951Y-91902179D01*
X136778444Y-92091585D01*
X136712753Y-92293760D01*
X136679500Y-92503713D01*
X136679500Y-92716287D01*
X136712754Y-92926243D01*
X136751488Y-93045454D01*
X136778444Y-93128414D01*
X136874951Y-93317820D01*
X136999890Y-93489786D01*
X137150213Y-93640109D01*
X137322182Y-93765050D01*
X137330946Y-93769516D01*
X137381742Y-93817491D01*
X137398536Y-93885312D01*
X137375998Y-93951447D01*
X137330946Y-93990484D01*
X137322182Y-93994949D01*
X137150213Y-94119890D01*
X136999890Y-94270213D01*
X136874951Y-94442179D01*
X136778444Y-94631585D01*
X136712753Y-94833760D01*
X136679500Y-95043713D01*
X136679500Y-95256286D01*
X136696725Y-95365044D01*
X136712754Y-95466243D01*
X136762927Y-95620660D01*
X136778444Y-95668414D01*
X136874951Y-95857820D01*
X136999890Y-96029786D01*
X137150213Y-96180109D01*
X137322182Y-96305050D01*
X137330946Y-96309516D01*
X137381742Y-96357491D01*
X137398536Y-96425312D01*
X137375998Y-96491447D01*
X137330946Y-96530484D01*
X137322182Y-96534949D01*
X137150213Y-96659890D01*
X136999890Y-96810213D01*
X136874951Y-96982179D01*
X136778444Y-97171585D01*
X136712753Y-97373760D01*
X136679500Y-97583713D01*
X136679500Y-97796286D01*
X136712753Y-98006239D01*
X136778444Y-98208414D01*
X136874951Y-98397820D01*
X136999890Y-98569786D01*
X137150213Y-98720109D01*
X137322182Y-98845050D01*
X137330946Y-98849516D01*
X137381742Y-98897491D01*
X137398536Y-98965312D01*
X137375998Y-99031447D01*
X137330946Y-99070484D01*
X137322182Y-99074949D01*
X137150213Y-99199890D01*
X136999890Y-99350213D01*
X136874951Y-99522179D01*
X136778444Y-99711585D01*
X136712753Y-99913760D01*
X136700417Y-99991647D01*
X136679500Y-100123713D01*
X136679500Y-100336287D01*
X136712754Y-100546243D01*
X136774068Y-100734948D01*
X136778444Y-100748414D01*
X136874951Y-100937820D01*
X136999890Y-101109786D01*
X137150213Y-101260109D01*
X137322182Y-101385050D01*
X137330946Y-101389516D01*
X137381742Y-101437491D01*
X137398536Y-101505312D01*
X137375998Y-101571447D01*
X137330946Y-101610484D01*
X137322182Y-101614949D01*
X137150213Y-101739890D01*
X136999890Y-101890213D01*
X136874951Y-102062179D01*
X136778444Y-102251585D01*
X136712753Y-102453760D01*
X136679500Y-102663713D01*
X136679500Y-102876286D01*
X136707465Y-103052853D01*
X136712754Y-103086243D01*
X136777717Y-103286179D01*
X136778444Y-103288414D01*
X136874951Y-103477820D01*
X136999890Y-103649786D01*
X137150213Y-103800109D01*
X137322182Y-103925050D01*
X137330946Y-103929516D01*
X137381742Y-103977491D01*
X137398536Y-104045312D01*
X137375998Y-104111447D01*
X137330946Y-104150484D01*
X137322182Y-104154949D01*
X137150213Y-104279890D01*
X136999890Y-104430213D01*
X136874951Y-104602179D01*
X136778444Y-104791585D01*
X136712753Y-104993760D01*
X136696100Y-105098904D01*
X136679500Y-105203713D01*
X136679500Y-105416287D01*
X136712754Y-105626243D01*
X136764544Y-105785637D01*
X136778444Y-105828414D01*
X136874951Y-106017820D01*
X136999890Y-106189786D01*
X137150213Y-106340109D01*
X137322179Y-106465048D01*
X137322181Y-106465049D01*
X137322184Y-106465051D01*
X137511588Y-106561557D01*
X137713757Y-106627246D01*
X137923713Y-106660500D01*
X137923714Y-106660500D01*
X138136286Y-106660500D01*
X138136287Y-106660500D01*
X138346243Y-106627246D01*
X138548412Y-106561557D01*
X138737816Y-106465051D01*
X138824138Y-106402335D01*
X138909786Y-106340109D01*
X138909788Y-106340106D01*
X138909792Y-106340104D01*
X139060104Y-106189792D01*
X139060106Y-106189788D01*
X139060109Y-106189786D01*
X139185048Y-106017820D01*
X139185047Y-106017820D01*
X139185051Y-106017816D01*
X139281557Y-105828412D01*
X139347246Y-105626243D01*
X139380500Y-105416287D01*
X139380500Y-105203713D01*
X139347246Y-104993757D01*
X139281557Y-104791588D01*
X139185051Y-104602184D01*
X139185049Y-104602181D01*
X139185048Y-104602179D01*
X139060109Y-104430213D01*
X138909786Y-104279890D01*
X138737820Y-104154951D01*
X138737115Y-104154591D01*
X138729054Y-104150485D01*
X138678259Y-104102512D01*
X138661463Y-104034692D01*
X138683999Y-103968556D01*
X138729054Y-103929515D01*
X138737816Y-103925051D01*
X138827554Y-103859853D01*
X138909786Y-103800109D01*
X138909788Y-103800106D01*
X138909792Y-103800104D01*
X139060104Y-103649792D01*
X139060106Y-103649788D01*
X139060109Y-103649786D01*
X139185048Y-103477820D01*
X139185047Y-103477820D01*
X139185051Y-103477816D01*
X139281557Y-103288412D01*
X139347246Y-103086243D01*
X139380500Y-102876287D01*
X139380500Y-102663713D01*
X139347246Y-102453757D01*
X139281557Y-102251588D01*
X139185051Y-102062184D01*
X139185049Y-102062181D01*
X139185048Y-102062179D01*
X139060109Y-101890213D01*
X138909786Y-101739890D01*
X138737820Y-101614951D01*
X138737115Y-101614591D01*
X138729054Y-101610485D01*
X138678259Y-101562512D01*
X138661463Y-101494692D01*
X138683999Y-101428556D01*
X138729054Y-101389515D01*
X138737816Y-101385051D01*
X138759789Y-101369086D01*
X138909786Y-101260109D01*
X138909788Y-101260106D01*
X138909792Y-101260104D01*
X139060104Y-101109792D01*
X139060106Y-101109788D01*
X139060109Y-101109786D01*
X139185048Y-100937820D01*
X139185047Y-100937820D01*
X139185051Y-100937816D01*
X139281557Y-100748412D01*
X139347246Y-100546243D01*
X139380500Y-100336287D01*
X139380500Y-100123713D01*
X139347246Y-99913757D01*
X139281557Y-99711588D01*
X139185051Y-99522184D01*
X139185049Y-99522181D01*
X139185048Y-99522179D01*
X139060109Y-99350213D01*
X138909786Y-99199890D01*
X138737820Y-99074951D01*
X138737115Y-99074591D01*
X138729054Y-99070485D01*
X138678259Y-99022512D01*
X138661463Y-98954692D01*
X138683999Y-98888556D01*
X138729054Y-98849515D01*
X138737816Y-98845051D01*
X138759789Y-98829086D01*
X138909786Y-98720109D01*
X138909788Y-98720106D01*
X138909792Y-98720104D01*
X139060104Y-98569792D01*
X139060106Y-98569788D01*
X139060109Y-98569786D01*
X139185048Y-98397820D01*
X139185047Y-98397820D01*
X139185051Y-98397816D01*
X139281557Y-98208412D01*
X139347246Y-98006243D01*
X139380500Y-97796287D01*
X139380500Y-97583713D01*
X139347246Y-97373757D01*
X139281557Y-97171588D01*
X139185051Y-96982184D01*
X139185049Y-96982181D01*
X139185048Y-96982179D01*
X139060109Y-96810213D01*
X138909786Y-96659890D01*
X138737820Y-96534951D01*
X138737115Y-96534591D01*
X138729054Y-96530485D01*
X138678259Y-96482512D01*
X138661463Y-96414692D01*
X138683999Y-96348556D01*
X138729054Y-96309515D01*
X138737816Y-96305051D01*
X138847077Y-96225669D01*
X138909786Y-96180109D01*
X138909788Y-96180106D01*
X138909792Y-96180104D01*
X139060104Y-96029792D01*
X139060106Y-96029788D01*
X139060109Y-96029786D01*
X139185048Y-95857820D01*
X139185047Y-95857820D01*
X139185051Y-95857816D01*
X139281557Y-95668412D01*
X139347246Y-95466243D01*
X139380500Y-95256287D01*
X139380500Y-95043713D01*
X139347246Y-94833757D01*
X139281557Y-94631588D01*
X139185051Y-94442184D01*
X139185049Y-94442181D01*
X139185048Y-94442179D01*
X139060109Y-94270213D01*
X138909786Y-94119890D01*
X138737820Y-93994951D01*
X138737115Y-93994591D01*
X138729054Y-93990485D01*
X138678259Y-93942512D01*
X138661463Y-93874692D01*
X138683999Y-93808556D01*
X138729054Y-93769515D01*
X138737816Y-93765051D01*
X138771389Y-93740659D01*
X138909786Y-93640109D01*
X138909788Y-93640106D01*
X138909792Y-93640104D01*
X139060104Y-93489792D01*
X139060106Y-93489788D01*
X139060109Y-93489786D01*
X139185048Y-93317820D01*
X139185047Y-93317820D01*
X139185051Y-93317816D01*
X139281557Y-93128412D01*
X139347246Y-92926243D01*
X139380500Y-92716287D01*
X139380500Y-92503713D01*
X139347246Y-92293757D01*
X139281557Y-92091588D01*
X139185051Y-91902184D01*
X139185049Y-91902181D01*
X139185048Y-91902179D01*
X139060109Y-91730213D01*
X138909786Y-91579890D01*
X138737820Y-91454951D01*
X138737115Y-91454591D01*
X138729054Y-91450485D01*
X138678259Y-91402512D01*
X138661463Y-91334692D01*
X138683999Y-91268556D01*
X138729054Y-91229515D01*
X138737816Y-91225051D01*
X138759789Y-91209086D01*
X138909786Y-91100109D01*
X138909788Y-91100106D01*
X138909792Y-91100104D01*
X139060104Y-90949792D01*
X139060106Y-90949788D01*
X139060109Y-90949786D01*
X139185048Y-90777820D01*
X139185047Y-90777820D01*
X139185051Y-90777816D01*
X139281557Y-90588412D01*
X139347246Y-90386243D01*
X139380500Y-90176287D01*
X139380500Y-89963713D01*
X139347246Y-89753757D01*
X139281557Y-89551588D01*
X139185051Y-89362184D01*
X139185049Y-89362181D01*
X139185048Y-89362179D01*
X139060109Y-89190213D01*
X138909786Y-89039890D01*
X138737820Y-88914951D01*
X138737115Y-88914591D01*
X138729054Y-88910485D01*
X138678259Y-88862512D01*
X138661463Y-88794692D01*
X138683999Y-88728556D01*
X138729054Y-88689515D01*
X138737816Y-88685051D01*
X138812901Y-88630499D01*
X138909786Y-88560109D01*
X138909788Y-88560106D01*
X138909792Y-88560104D01*
X139060104Y-88409792D01*
X139060106Y-88409788D01*
X139060109Y-88409786D01*
X139185048Y-88237820D01*
X139185047Y-88237820D01*
X139185051Y-88237816D01*
X139281557Y-88048412D01*
X139347246Y-87846243D01*
X139380500Y-87636287D01*
X139380500Y-87423713D01*
X139347246Y-87213757D01*
X139281557Y-87011588D01*
X139185051Y-86822184D01*
X139185049Y-86822181D01*
X139185048Y-86822179D01*
X139060109Y-86650213D01*
X138946569Y-86536673D01*
X138913084Y-86475350D01*
X138918068Y-86405658D01*
X138959940Y-86349725D01*
X138990915Y-86332810D01*
X139122331Y-86283796D01*
X139237546Y-86197546D01*
X139323796Y-86082331D01*
X139374091Y-85947483D01*
X139380500Y-85887873D01*
X139380499Y-84883713D01*
X151919500Y-84883713D01*
X151919500Y-85096287D01*
X151952754Y-85306243D01*
X151962083Y-85334956D01*
X152018444Y-85508414D01*
X152114951Y-85697820D01*
X152239890Y-85869786D01*
X152390213Y-86020109D01*
X152562182Y-86145050D01*
X152570946Y-86149516D01*
X152621742Y-86197491D01*
X152638536Y-86265312D01*
X152615998Y-86331447D01*
X152570946Y-86370484D01*
X152562182Y-86374949D01*
X152390213Y-86499890D01*
X152239890Y-86650213D01*
X152114951Y-86822179D01*
X152018444Y-87011585D01*
X151952753Y-87213760D01*
X151937269Y-87311524D01*
X151919500Y-87423713D01*
X151919500Y-87636287D01*
X151952754Y-87846243D01*
X152007091Y-88013475D01*
X152018444Y-88048414D01*
X152114951Y-88237820D01*
X152239890Y-88409786D01*
X152390213Y-88560109D01*
X152562182Y-88685050D01*
X152570946Y-88689516D01*
X152621742Y-88737491D01*
X152638536Y-88805312D01*
X152615998Y-88871447D01*
X152570946Y-88910484D01*
X152562182Y-88914949D01*
X152390213Y-89039890D01*
X152239890Y-89190213D01*
X152114951Y-89362179D01*
X152018444Y-89551585D01*
X151952753Y-89753760D01*
X151927457Y-89913475D01*
X151919500Y-89963713D01*
X151919500Y-90176287D01*
X151952754Y-90386243D01*
X152016536Y-90582544D01*
X152018444Y-90588414D01*
X152114951Y-90777820D01*
X152239890Y-90949786D01*
X152390213Y-91100109D01*
X152562182Y-91225050D01*
X152570946Y-91229516D01*
X152621742Y-91277491D01*
X152638536Y-91345312D01*
X152615998Y-91411447D01*
X152570946Y-91450484D01*
X152562182Y-91454949D01*
X152390213Y-91579890D01*
X152239890Y-91730213D01*
X152114951Y-91902179D01*
X152018444Y-92091585D01*
X151952753Y-92293760D01*
X151919500Y-92503713D01*
X151919500Y-92716287D01*
X151952754Y-92926243D01*
X151991488Y-93045454D01*
X152018444Y-93128414D01*
X152114951Y-93317820D01*
X152239890Y-93489786D01*
X152390213Y-93640109D01*
X152562182Y-93765050D01*
X152570946Y-93769516D01*
X152621742Y-93817491D01*
X152638536Y-93885312D01*
X152615998Y-93951447D01*
X152570946Y-93990484D01*
X152562182Y-93994949D01*
X152390213Y-94119890D01*
X152239890Y-94270213D01*
X152114951Y-94442179D01*
X152018444Y-94631585D01*
X151952753Y-94833760D01*
X151919500Y-95043713D01*
X151919500Y-95256286D01*
X151936725Y-95365044D01*
X151952754Y-95466243D01*
X152002927Y-95620660D01*
X152018444Y-95668414D01*
X152114951Y-95857820D01*
X152239890Y-96029786D01*
X152390213Y-96180109D01*
X152562182Y-96305050D01*
X152570946Y-96309516D01*
X152621742Y-96357491D01*
X152638536Y-96425312D01*
X152615998Y-96491447D01*
X152570946Y-96530484D01*
X152562182Y-96534949D01*
X152390213Y-96659890D01*
X152239890Y-96810213D01*
X152114951Y-96982179D01*
X152018444Y-97171585D01*
X151952753Y-97373760D01*
X151919500Y-97583713D01*
X151919500Y-97796286D01*
X151952753Y-98006239D01*
X152018444Y-98208414D01*
X152114951Y-98397820D01*
X152239890Y-98569786D01*
X152390213Y-98720109D01*
X152562182Y-98845050D01*
X152570946Y-98849516D01*
X152621742Y-98897491D01*
X152638536Y-98965312D01*
X152615998Y-99031447D01*
X152570946Y-99070484D01*
X152562182Y-99074949D01*
X152390213Y-99199890D01*
X152239890Y-99350213D01*
X152114951Y-99522179D01*
X152018444Y-99711585D01*
X151952753Y-99913760D01*
X151940417Y-99991647D01*
X151919500Y-100123713D01*
X151919500Y-100336287D01*
X151952754Y-100546243D01*
X152014068Y-100734948D01*
X152018444Y-100748414D01*
X152114951Y-100937820D01*
X152239890Y-101109786D01*
X152390213Y-101260109D01*
X152562182Y-101385050D01*
X152570946Y-101389516D01*
X152621742Y-101437491D01*
X152638536Y-101505312D01*
X152615998Y-101571447D01*
X152570946Y-101610484D01*
X152562182Y-101614949D01*
X152390213Y-101739890D01*
X152239890Y-101890213D01*
X152114951Y-102062179D01*
X152018444Y-102251585D01*
X151952753Y-102453760D01*
X151919500Y-102663713D01*
X151919500Y-102876286D01*
X151947465Y-103052853D01*
X151952754Y-103086243D01*
X152017717Y-103286179D01*
X152018444Y-103288414D01*
X152114951Y-103477820D01*
X152239890Y-103649786D01*
X152353430Y-103763326D01*
X152386915Y-103824649D01*
X152381931Y-103894341D01*
X152340059Y-103950274D01*
X152309083Y-103967189D01*
X152177669Y-104016203D01*
X152177664Y-104016206D01*
X152062455Y-104102452D01*
X152062452Y-104102455D01*
X151976206Y-104217664D01*
X151976202Y-104217671D01*
X151925908Y-104352517D01*
X151922787Y-104381553D01*
X151919501Y-104412123D01*
X151919500Y-104412135D01*
X151919500Y-106207870D01*
X151919501Y-106207876D01*
X151925908Y-106267483D01*
X151976202Y-106402328D01*
X151976206Y-106402335D01*
X152062452Y-106517544D01*
X152062455Y-106517547D01*
X152177664Y-106603793D01*
X152177671Y-106603797D01*
X152312517Y-106654091D01*
X152312516Y-106654091D01*
X152319444Y-106654835D01*
X152372127Y-106660500D01*
X154167872Y-106660499D01*
X154227483Y-106654091D01*
X154362331Y-106603796D01*
X154477546Y-106517546D01*
X154563796Y-106402331D01*
X154614091Y-106267483D01*
X154620500Y-106207873D01*
X154620500Y-105785631D01*
X158501000Y-105785631D01*
X158501000Y-105974368D01*
X158530522Y-106160763D01*
X158530523Y-106160767D01*
X158588843Y-106340256D01*
X158674523Y-106508413D01*
X158785454Y-106661096D01*
X158918904Y-106794546D01*
X159071587Y-106905477D01*
X159239744Y-106991157D01*
X159366468Y-107032332D01*
X159424141Y-107071768D01*
X159451340Y-107136127D01*
X159439425Y-107204973D01*
X159392181Y-107256449D01*
X159366467Y-107268193D01*
X159239935Y-107309306D01*
X159071844Y-107394953D01*
X159071839Y-107394957D01*
X159046743Y-107413188D01*
X159046743Y-107413191D01*
X159615906Y-107982352D01*
X159528429Y-108005792D01*
X159427070Y-108064311D01*
X159344311Y-108147070D01*
X159285792Y-108248429D01*
X159262352Y-108335905D01*
X158693191Y-107766743D01*
X158693188Y-107766743D01*
X158674957Y-107791839D01*
X158674953Y-107791844D01*
X158589305Y-107959936D01*
X158589304Y-107959938D01*
X158531011Y-108139349D01*
X158501500Y-108325676D01*
X158501500Y-108514323D01*
X158531011Y-108700650D01*
X158589304Y-108880061D01*
X158589305Y-108880063D01*
X158674952Y-109048153D01*
X158693189Y-109073255D01*
X158693190Y-109073255D01*
X159262352Y-108504093D01*
X159285792Y-108591571D01*
X159344311Y-108692930D01*
X159427070Y-108775689D01*
X159528429Y-108834208D01*
X159615905Y-108857647D01*
X159046743Y-109426808D01*
X159046743Y-109426809D01*
X159071844Y-109445046D01*
X159239935Y-109530694D01*
X159239938Y-109530695D01*
X159367275Y-109572069D01*
X159424950Y-109611506D01*
X159452149Y-109675865D01*
X159440235Y-109744711D01*
X159392991Y-109796187D01*
X159367275Y-109807931D01*
X159239938Y-109849304D01*
X159239936Y-109849305D01*
X159071844Y-109934953D01*
X159071839Y-109934957D01*
X159046743Y-109953188D01*
X159046743Y-109953191D01*
X159615906Y-110522352D01*
X159528429Y-110545792D01*
X159427070Y-110604311D01*
X159344311Y-110687070D01*
X159285792Y-110788429D01*
X159262352Y-110875905D01*
X158693191Y-110306743D01*
X158693188Y-110306743D01*
X158674957Y-110331839D01*
X158674953Y-110331844D01*
X158589305Y-110499936D01*
X158589304Y-110499938D01*
X158531011Y-110679349D01*
X158501500Y-110865676D01*
X158501500Y-111054323D01*
X158531011Y-111240650D01*
X158589304Y-111420061D01*
X158589305Y-111420063D01*
X158674952Y-111588153D01*
X158693189Y-111613255D01*
X158693190Y-111613255D01*
X159262352Y-111044093D01*
X159285792Y-111131571D01*
X159344311Y-111232930D01*
X159427070Y-111315689D01*
X159528429Y-111374208D01*
X159615905Y-111397647D01*
X159046743Y-111966808D01*
X159046743Y-111966809D01*
X159071844Y-111985046D01*
X159239935Y-112070694D01*
X159239938Y-112070695D01*
X159366466Y-112111806D01*
X159424141Y-112151243D01*
X159451340Y-112215602D01*
X159439426Y-112284448D01*
X159392182Y-112335924D01*
X159366467Y-112347668D01*
X159239739Y-112388844D01*
X159071586Y-112474523D01*
X158984475Y-112537813D01*
X158918904Y-112585454D01*
X158918902Y-112585456D01*
X158918901Y-112585456D01*
X158785456Y-112718901D01*
X158785456Y-112718902D01*
X158785454Y-112718904D01*
X158737813Y-112784475D01*
X158674523Y-112871586D01*
X158588844Y-113039741D01*
X158530522Y-113219236D01*
X158501000Y-113405631D01*
X158501000Y-113594368D01*
X158530522Y-113780763D01*
X158530523Y-113780767D01*
X158588843Y-113960256D01*
X158674523Y-114128413D01*
X158785454Y-114281096D01*
X158918904Y-114414546D01*
X159071587Y-114525477D01*
X159239744Y-114611157D01*
X159419233Y-114669477D01*
X159489134Y-114680548D01*
X159605632Y-114699000D01*
X159605637Y-114699000D01*
X159794368Y-114699000D01*
X159897920Y-114682598D01*
X159980767Y-114669477D01*
X160160256Y-114611157D01*
X160328413Y-114525477D01*
X160481096Y-114414546D01*
X160614546Y-114281096D01*
X160725477Y-114128413D01*
X160811157Y-113960256D01*
X160869477Y-113780767D01*
X160882598Y-113697920D01*
X160899000Y-113594368D01*
X160899000Y-113405631D01*
X160869477Y-113219236D01*
X160869477Y-113219233D01*
X160811157Y-113039744D01*
X160725477Y-112871587D01*
X160614546Y-112718904D01*
X160481096Y-112585454D01*
X160328413Y-112474523D01*
X160160260Y-112388844D01*
X160110825Y-112372781D01*
X160033530Y-112347667D01*
X159975857Y-112308230D01*
X159948659Y-112243871D01*
X159960574Y-112175025D01*
X160007818Y-112123549D01*
X160033534Y-112111806D01*
X160160058Y-112070696D01*
X160160064Y-112070694D01*
X160328151Y-111985048D01*
X160353255Y-111966808D01*
X160353256Y-111966808D01*
X159784095Y-111397647D01*
X159871571Y-111374208D01*
X159972930Y-111315689D01*
X160055689Y-111232930D01*
X160114208Y-111131571D01*
X160137647Y-111044095D01*
X160706808Y-111613256D01*
X160706808Y-111613255D01*
X160725048Y-111588151D01*
X160810694Y-111420064D01*
X160810695Y-111420061D01*
X160868988Y-111240650D01*
X160898500Y-111054323D01*
X160898500Y-110865676D01*
X160868988Y-110679349D01*
X160810695Y-110499938D01*
X160810694Y-110499935D01*
X160725046Y-110331844D01*
X160706809Y-110306743D01*
X160706808Y-110306743D01*
X160137647Y-110875904D01*
X160114208Y-110788429D01*
X160055689Y-110687070D01*
X159972930Y-110604311D01*
X159871571Y-110545792D01*
X159784094Y-110522352D01*
X160353255Y-109953190D01*
X160353255Y-109953189D01*
X160328153Y-109934952D01*
X160160063Y-109849305D01*
X160160061Y-109849304D01*
X160032724Y-109807931D01*
X159975049Y-109768494D01*
X159947850Y-109704135D01*
X159959764Y-109635289D01*
X160007008Y-109583813D01*
X160032724Y-109572069D01*
X160160061Y-109530695D01*
X160160064Y-109530694D01*
X160328151Y-109445048D01*
X160353255Y-109426808D01*
X160353256Y-109426808D01*
X159784095Y-108857647D01*
X159871571Y-108834208D01*
X159972930Y-108775689D01*
X160055689Y-108692930D01*
X160114208Y-108591571D01*
X160137647Y-108504095D01*
X160706808Y-109073256D01*
X160706808Y-109073255D01*
X160725048Y-109048151D01*
X160810694Y-108880064D01*
X160810695Y-108880061D01*
X160868988Y-108700650D01*
X160898500Y-108514323D01*
X160898500Y-108325676D01*
X160868988Y-108139349D01*
X160810695Y-107959938D01*
X160810694Y-107959935D01*
X160725046Y-107791844D01*
X160706809Y-107766743D01*
X160706808Y-107766743D01*
X160137647Y-108335904D01*
X160114208Y-108248429D01*
X160055689Y-108147070D01*
X159972930Y-108064311D01*
X159871571Y-108005792D01*
X159784094Y-107982352D01*
X160353255Y-107413190D01*
X160353255Y-107413189D01*
X160328153Y-107394952D01*
X160160063Y-107309305D01*
X160160061Y-107309304D01*
X160033533Y-107268193D01*
X159975857Y-107228755D01*
X159948659Y-107164397D01*
X159960574Y-107095550D01*
X160007818Y-107044075D01*
X160033524Y-107032334D01*
X160160256Y-106991157D01*
X160328413Y-106905477D01*
X160481096Y-106794546D01*
X160614546Y-106661096D01*
X160725477Y-106508413D01*
X160811157Y-106340256D01*
X160869477Y-106160767D01*
X160882598Y-106077920D01*
X160899000Y-105974368D01*
X160899000Y-105785631D01*
X160869477Y-105599236D01*
X160869477Y-105599233D01*
X160811157Y-105419744D01*
X160725477Y-105251587D01*
X160614546Y-105098904D01*
X160481096Y-104965454D01*
X160328413Y-104854523D01*
X160160256Y-104768843D01*
X159980767Y-104710523D01*
X159980765Y-104710522D01*
X159980763Y-104710522D01*
X159794368Y-104681000D01*
X159794363Y-104681000D01*
X159605637Y-104681000D01*
X159605632Y-104681000D01*
X159419236Y-104710522D01*
X159239741Y-104768844D01*
X159071586Y-104854523D01*
X158984475Y-104917813D01*
X158918904Y-104965454D01*
X158918902Y-104965456D01*
X158918901Y-104965456D01*
X158785456Y-105098901D01*
X158785456Y-105098902D01*
X158785454Y-105098904D01*
X158737813Y-105164475D01*
X158674523Y-105251586D01*
X158588844Y-105419741D01*
X158530522Y-105599236D01*
X158501000Y-105785631D01*
X154620500Y-105785631D01*
X154620499Y-105251587D01*
X154620499Y-104412129D01*
X154620498Y-104412123D01*
X154620497Y-104412116D01*
X154614091Y-104352517D01*
X154563796Y-104217669D01*
X154563795Y-104217668D01*
X154563793Y-104217664D01*
X154477547Y-104102455D01*
X154477544Y-104102452D01*
X154362335Y-104016206D01*
X154362328Y-104016202D01*
X154230917Y-103967189D01*
X154174983Y-103925318D01*
X154150566Y-103859853D01*
X154165418Y-103791580D01*
X154186563Y-103763332D01*
X154300104Y-103649792D01*
X154326236Y-103613825D01*
X154425048Y-103477820D01*
X154425047Y-103477820D01*
X154425051Y-103477816D01*
X154521557Y-103288412D01*
X154587246Y-103086243D01*
X154620500Y-102876287D01*
X154620500Y-102663713D01*
X154587246Y-102453757D01*
X154521557Y-102251588D01*
X154425051Y-102062184D01*
X154425049Y-102062181D01*
X154425048Y-102062179D01*
X154300109Y-101890213D01*
X154149786Y-101739890D01*
X153977820Y-101614951D01*
X153977115Y-101614591D01*
X153969054Y-101610485D01*
X153918259Y-101562512D01*
X153901463Y-101494692D01*
X153923999Y-101428556D01*
X153969054Y-101389515D01*
X153977816Y-101385051D01*
X153999789Y-101369086D01*
X154149786Y-101260109D01*
X154149788Y-101260106D01*
X154149792Y-101260104D01*
X154300104Y-101109792D01*
X154300106Y-101109788D01*
X154300109Y-101109786D01*
X154425048Y-100937820D01*
X154425047Y-100937820D01*
X154425051Y-100937816D01*
X154521557Y-100748412D01*
X154587246Y-100546243D01*
X154620500Y-100336287D01*
X154620500Y-100123713D01*
X154587246Y-99913757D01*
X154521557Y-99711588D01*
X154425051Y-99522184D01*
X154425049Y-99522181D01*
X154425048Y-99522179D01*
X154300109Y-99350213D01*
X154149786Y-99199890D01*
X153977820Y-99074951D01*
X153977115Y-99074591D01*
X153969054Y-99070485D01*
X153918259Y-99022512D01*
X153901463Y-98954692D01*
X153923999Y-98888556D01*
X153969054Y-98849515D01*
X153977816Y-98845051D01*
X153999789Y-98829086D01*
X154149786Y-98720109D01*
X154149788Y-98720106D01*
X154149792Y-98720104D01*
X154300104Y-98569792D01*
X154300106Y-98569788D01*
X154300109Y-98569786D01*
X154425048Y-98397820D01*
X154425047Y-98397820D01*
X154425051Y-98397816D01*
X154521557Y-98208412D01*
X154587246Y-98006243D01*
X154620500Y-97796287D01*
X154620500Y-97583713D01*
X154587246Y-97373757D01*
X154521557Y-97171588D01*
X154425051Y-96982184D01*
X154425049Y-96982181D01*
X154425048Y-96982179D01*
X154300109Y-96810213D01*
X154149786Y-96659890D01*
X153977820Y-96534951D01*
X153977115Y-96534591D01*
X153969054Y-96530485D01*
X153918259Y-96482512D01*
X153901463Y-96414692D01*
X153923999Y-96348556D01*
X153969054Y-96309515D01*
X153977816Y-96305051D01*
X154087077Y-96225669D01*
X154149786Y-96180109D01*
X154149788Y-96180106D01*
X154149792Y-96180104D01*
X154300104Y-96029792D01*
X154300106Y-96029788D01*
X154300109Y-96029786D01*
X154425048Y-95857820D01*
X154425047Y-95857820D01*
X154425051Y-95857816D01*
X154521557Y-95668412D01*
X154587246Y-95466243D01*
X154620500Y-95256287D01*
X154620500Y-95043713D01*
X154587246Y-94833757D01*
X154521557Y-94631588D01*
X154425051Y-94442184D01*
X154425049Y-94442181D01*
X154425048Y-94442179D01*
X154300109Y-94270213D01*
X154149786Y-94119890D01*
X153977820Y-93994951D01*
X153977115Y-93994591D01*
X153969054Y-93990485D01*
X153918259Y-93942512D01*
X153901463Y-93874692D01*
X153923999Y-93808556D01*
X153969054Y-93769515D01*
X153977816Y-93765051D01*
X154011389Y-93740659D01*
X154149786Y-93640109D01*
X154149788Y-93640106D01*
X154149792Y-93640104D01*
X154300104Y-93489792D01*
X154300106Y-93489788D01*
X154300109Y-93489786D01*
X154425048Y-93317820D01*
X154425047Y-93317820D01*
X154425051Y-93317816D01*
X154521557Y-93128412D01*
X154587246Y-92926243D01*
X154620500Y-92716287D01*
X154620500Y-92503713D01*
X154587246Y-92293757D01*
X154521557Y-92091588D01*
X154425051Y-91902184D01*
X154425049Y-91902181D01*
X154425048Y-91902179D01*
X154300109Y-91730213D01*
X154149786Y-91579890D01*
X153977820Y-91454951D01*
X153977115Y-91454591D01*
X153969054Y-91450485D01*
X153918259Y-91402512D01*
X153901463Y-91334692D01*
X153923999Y-91268556D01*
X153969054Y-91229515D01*
X153977816Y-91225051D01*
X153999789Y-91209086D01*
X154149786Y-91100109D01*
X154149788Y-91100106D01*
X154149792Y-91100104D01*
X154300104Y-90949792D01*
X154300106Y-90949788D01*
X154300109Y-90949786D01*
X154425048Y-90777820D01*
X154425047Y-90777820D01*
X154425051Y-90777816D01*
X154521557Y-90588412D01*
X154587246Y-90386243D01*
X154620500Y-90176287D01*
X154620500Y-89963713D01*
X154587246Y-89753757D01*
X154521557Y-89551588D01*
X154425051Y-89362184D01*
X154425049Y-89362181D01*
X154425048Y-89362179D01*
X154300109Y-89190213D01*
X154149786Y-89039890D01*
X153977820Y-88914951D01*
X153977115Y-88914591D01*
X153969054Y-88910485D01*
X153918259Y-88862512D01*
X153901463Y-88794692D01*
X153923999Y-88728556D01*
X153969054Y-88689515D01*
X153977816Y-88685051D01*
X154052901Y-88630499D01*
X154149786Y-88560109D01*
X154149788Y-88560106D01*
X154149792Y-88560104D01*
X154300104Y-88409792D01*
X154300106Y-88409788D01*
X154300109Y-88409786D01*
X154425048Y-88237820D01*
X154425047Y-88237820D01*
X154425051Y-88237816D01*
X154521557Y-88048412D01*
X154587246Y-87846243D01*
X154620500Y-87636287D01*
X154620500Y-87423713D01*
X154587246Y-87213757D01*
X154521557Y-87011588D01*
X154425051Y-86822184D01*
X154425049Y-86822181D01*
X154425048Y-86822179D01*
X154300109Y-86650213D01*
X154149786Y-86499890D01*
X153977820Y-86374951D01*
X153977115Y-86374591D01*
X153969054Y-86370485D01*
X153918259Y-86322512D01*
X153901463Y-86254692D01*
X153923999Y-86188556D01*
X153969054Y-86149515D01*
X153977816Y-86145051D01*
X154064138Y-86082335D01*
X154149786Y-86020109D01*
X154149788Y-86020106D01*
X154149792Y-86020104D01*
X154300104Y-85869792D01*
X154300106Y-85869788D01*
X154300109Y-85869786D01*
X154425048Y-85697820D01*
X154425047Y-85697820D01*
X154425051Y-85697816D01*
X154521557Y-85508412D01*
X154587246Y-85306243D01*
X154620500Y-85096287D01*
X154620500Y-84883713D01*
X154587246Y-84673757D01*
X154521557Y-84471588D01*
X154425051Y-84282184D01*
X154425049Y-84282181D01*
X154425048Y-84282179D01*
X154300109Y-84110213D01*
X154149786Y-83959890D01*
X153977820Y-83834951D01*
X153788414Y-83738444D01*
X153788413Y-83738443D01*
X153788412Y-83738443D01*
X153586243Y-83672754D01*
X153586241Y-83672753D01*
X153586240Y-83672753D01*
X153424957Y-83647208D01*
X153376287Y-83639500D01*
X153163713Y-83639500D01*
X153115042Y-83647208D01*
X152953760Y-83672753D01*
X152751585Y-83738444D01*
X152562179Y-83834951D01*
X152390213Y-83959890D01*
X152239890Y-84110213D01*
X152114951Y-84282179D01*
X152018444Y-84471585D01*
X151952753Y-84673760D01*
X151945674Y-84718456D01*
X151919500Y-84883713D01*
X139380499Y-84883713D01*
X139380499Y-84092128D01*
X139374091Y-84032517D01*
X139323796Y-83897669D01*
X139323795Y-83897668D01*
X139323793Y-83897664D01*
X139237547Y-83782455D01*
X139237544Y-83782452D01*
X139122335Y-83696206D01*
X139122328Y-83696202D01*
X138987482Y-83645908D01*
X138987483Y-83645908D01*
X138927883Y-83639501D01*
X138927881Y-83639500D01*
X138927873Y-83639500D01*
X138927864Y-83639500D01*
X137132129Y-83639500D01*
X137132123Y-83639501D01*
X137072516Y-83645908D01*
X136937671Y-83696202D01*
X136937664Y-83696206D01*
X136822455Y-83782452D01*
X136822452Y-83782455D01*
X136736206Y-83897664D01*
X136736202Y-83897671D01*
X136685908Y-84032517D01*
X136680637Y-84081551D01*
X136679501Y-84092123D01*
X136679500Y-84092135D01*
X136679500Y-85887870D01*
X136679501Y-85887876D01*
X136685908Y-85947483D01*
X136736202Y-86082328D01*
X136736206Y-86082335D01*
X136822452Y-86197544D01*
X136822455Y-86197547D01*
X136937664Y-86283793D01*
X136937671Y-86283797D01*
X137069082Y-86332810D01*
X137125016Y-86374681D01*
X137149433Y-86440145D01*
X137134582Y-86508418D01*
X137113431Y-86536673D01*
X136999889Y-86650215D01*
X136874949Y-86822182D01*
X136864852Y-86841998D01*
X136816876Y-86892793D01*
X136749055Y-86909586D01*
X136685478Y-86888802D01*
X136681553Y-86886179D01*
X136681543Y-86886174D01*
X136534956Y-86825455D01*
X136534948Y-86825453D01*
X136379338Y-86794500D01*
X136379335Y-86794500D01*
X136220665Y-86794500D01*
X136220662Y-86794500D01*
X136065051Y-86825453D01*
X136065043Y-86825455D01*
X135918456Y-86886174D01*
X135918446Y-86886179D01*
X135786524Y-86974327D01*
X135786520Y-86974330D01*
X135674330Y-87086520D01*
X135674327Y-87086524D01*
X135586179Y-87218446D01*
X135586174Y-87218456D01*
X135525455Y-87365043D01*
X135525453Y-87365051D01*
X135494500Y-87520660D01*
X128605500Y-87520660D01*
X128605500Y-87420665D01*
X128605500Y-87420662D01*
X128605499Y-87420660D01*
X128583790Y-87311524D01*
X128574545Y-87265044D01*
X128513824Y-87118453D01*
X128513822Y-87118450D01*
X128513820Y-87118446D01*
X128425672Y-86986524D01*
X128425669Y-86986520D01*
X128313479Y-86874330D01*
X128313475Y-86874327D01*
X128181553Y-86786179D01*
X128181543Y-86786174D01*
X128034956Y-86725455D01*
X128034948Y-86725453D01*
X127879338Y-86694500D01*
X127879335Y-86694500D01*
X127720665Y-86694500D01*
X127720662Y-86694500D01*
X127565051Y-86725453D01*
X127565043Y-86725455D01*
X127418456Y-86786174D01*
X127418446Y-86786179D01*
X127286524Y-86874327D01*
X127286520Y-86874330D01*
X127174330Y-86986520D01*
X127174327Y-86986524D01*
X127086179Y-87118446D01*
X127086174Y-87118456D01*
X127025455Y-87265043D01*
X127025453Y-87265051D01*
X126994500Y-87420660D01*
X122698595Y-87420660D01*
X122625672Y-87311524D01*
X122625669Y-87311520D01*
X122513479Y-87199330D01*
X122513475Y-87199327D01*
X122381553Y-87111179D01*
X122381543Y-87111174D01*
X122234956Y-87050455D01*
X122234948Y-87050453D01*
X122079338Y-87019500D01*
X122079335Y-87019500D01*
X121920665Y-87019500D01*
X121920662Y-87019500D01*
X121765051Y-87050453D01*
X121765043Y-87050455D01*
X121618456Y-87111174D01*
X121618446Y-87111179D01*
X121486524Y-87199327D01*
X121486520Y-87199330D01*
X121374330Y-87311520D01*
X121374327Y-87311524D01*
X121286179Y-87443446D01*
X121286174Y-87443456D01*
X121225455Y-87590043D01*
X121225453Y-87590051D01*
X121194500Y-87745660D01*
X118729395Y-87745660D01*
X118734490Y-86320660D01*
X129494500Y-86320660D01*
X129494500Y-86479339D01*
X129525453Y-86634948D01*
X129525455Y-86634956D01*
X129586174Y-86781543D01*
X129586179Y-86781553D01*
X129674327Y-86913475D01*
X129674330Y-86913479D01*
X129786520Y-87025669D01*
X129786524Y-87025672D01*
X129918446Y-87113820D01*
X129918450Y-87113822D01*
X129918453Y-87113824D01*
X130065044Y-87174545D01*
X130220660Y-87205499D01*
X130220663Y-87205500D01*
X130220665Y-87205500D01*
X130379337Y-87205500D01*
X130379338Y-87205499D01*
X130534956Y-87174545D01*
X130681547Y-87113824D01*
X130813476Y-87025672D01*
X130925672Y-86913476D01*
X131013824Y-86781547D01*
X131074545Y-86634956D01*
X131105500Y-86479335D01*
X131105500Y-86320665D01*
X131105500Y-86320662D01*
X131105499Y-86320660D01*
X131098166Y-86283793D01*
X131074545Y-86165044D01*
X131013824Y-86018453D01*
X131013822Y-86018450D01*
X131013820Y-86018446D01*
X130925672Y-85886524D01*
X130925669Y-85886520D01*
X130813479Y-85774330D01*
X130813475Y-85774327D01*
X130681553Y-85686179D01*
X130681543Y-85686174D01*
X130534956Y-85625455D01*
X130534948Y-85625453D01*
X130379338Y-85594500D01*
X130379335Y-85594500D01*
X130220665Y-85594500D01*
X130220662Y-85594500D01*
X130065051Y-85625453D01*
X130065043Y-85625455D01*
X129918456Y-85686174D01*
X129918446Y-85686179D01*
X129786524Y-85774327D01*
X129786520Y-85774330D01*
X129674330Y-85886520D01*
X129674327Y-85886524D01*
X129586179Y-86018446D01*
X129586174Y-86018456D01*
X129525455Y-86165043D01*
X129525453Y-86165051D01*
X129494500Y-86320660D01*
X118734490Y-86320660D01*
X118744145Y-83620660D01*
X133994500Y-83620660D01*
X133994500Y-83779339D01*
X134025453Y-83934948D01*
X134025455Y-83934956D01*
X134086174Y-84081543D01*
X134086179Y-84081553D01*
X134174327Y-84213475D01*
X134174330Y-84213479D01*
X134286520Y-84325669D01*
X134286524Y-84325672D01*
X134418446Y-84413820D01*
X134418450Y-84413822D01*
X134418453Y-84413824D01*
X134565044Y-84474545D01*
X134720660Y-84505499D01*
X134720663Y-84505500D01*
X134796478Y-84505500D01*
X134863517Y-84525185D01*
X134909272Y-84577989D01*
X134919216Y-84647147D01*
X134899581Y-84698390D01*
X134886178Y-84718448D01*
X134886174Y-84718456D01*
X134825455Y-84865043D01*
X134825453Y-84865051D01*
X134794500Y-85020660D01*
X134794500Y-85179339D01*
X134825453Y-85334948D01*
X134825455Y-85334956D01*
X134886174Y-85481543D01*
X134886179Y-85481553D01*
X134974327Y-85613475D01*
X134974330Y-85613479D01*
X135086520Y-85725669D01*
X135086524Y-85725672D01*
X135218446Y-85813820D01*
X135218450Y-85813822D01*
X135218453Y-85813824D01*
X135365044Y-85874545D01*
X135520660Y-85905499D01*
X135520663Y-85905500D01*
X135520665Y-85905500D01*
X135679337Y-85905500D01*
X135679338Y-85905499D01*
X135834956Y-85874545D01*
X135981547Y-85813824D01*
X136113476Y-85725672D01*
X136225672Y-85613476D01*
X136313824Y-85481547D01*
X136374545Y-85334956D01*
X136405500Y-85179335D01*
X136405500Y-85020665D01*
X136405500Y-85020662D01*
X136405499Y-85020660D01*
X136374545Y-84865044D01*
X136313824Y-84718453D01*
X136313821Y-84718448D01*
X136313820Y-84718446D01*
X136225672Y-84586524D01*
X136225669Y-84586520D01*
X136113479Y-84474330D01*
X136113475Y-84474327D01*
X135981553Y-84386179D01*
X135981543Y-84386174D01*
X135834956Y-84325455D01*
X135834948Y-84325453D01*
X135679338Y-84294500D01*
X135679335Y-84294500D01*
X135603522Y-84294500D01*
X135536483Y-84274815D01*
X135490728Y-84222011D01*
X135480784Y-84152853D01*
X135500419Y-84101610D01*
X135513821Y-84081551D01*
X135513824Y-84081547D01*
X135574545Y-83934956D01*
X135605500Y-83779335D01*
X135605500Y-83620665D01*
X135605500Y-83620662D01*
X135605499Y-83620660D01*
X135574546Y-83465051D01*
X135574545Y-83465044D01*
X135513824Y-83318453D01*
X135513822Y-83318450D01*
X135513820Y-83318446D01*
X135425672Y-83186524D01*
X135425669Y-83186520D01*
X135313479Y-83074330D01*
X135313475Y-83074327D01*
X135181553Y-82986179D01*
X135181543Y-82986174D01*
X135034956Y-82925455D01*
X135034948Y-82925453D01*
X134879338Y-82894500D01*
X134879335Y-82894500D01*
X134720665Y-82894500D01*
X134720662Y-82894500D01*
X134565051Y-82925453D01*
X134565043Y-82925455D01*
X134418456Y-82986174D01*
X134418446Y-82986179D01*
X134286524Y-83074327D01*
X134286520Y-83074330D01*
X134174330Y-83186520D01*
X134174327Y-83186524D01*
X134086179Y-83318446D01*
X134086174Y-83318456D01*
X134025455Y-83465043D01*
X134025453Y-83465051D01*
X133994500Y-83620660D01*
X118744145Y-83620660D01*
X118752369Y-81320660D01*
X120594500Y-81320660D01*
X120594500Y-81479339D01*
X120625453Y-81634948D01*
X120625455Y-81634956D01*
X120686174Y-81781543D01*
X120686179Y-81781553D01*
X120774327Y-81913475D01*
X120774330Y-81913479D01*
X120886520Y-82025669D01*
X120886524Y-82025672D01*
X121018446Y-82113820D01*
X121018450Y-82113822D01*
X121018453Y-82113824D01*
X121165044Y-82174545D01*
X121320660Y-82205499D01*
X121320663Y-82205500D01*
X121320665Y-82205500D01*
X121479337Y-82205500D01*
X121479338Y-82205499D01*
X121634956Y-82174545D01*
X121781547Y-82113824D01*
X121913476Y-82025672D01*
X122025672Y-81913476D01*
X122113824Y-81781547D01*
X122174545Y-81634956D01*
X122205500Y-81479335D01*
X122205500Y-81320665D01*
X122205500Y-81320662D01*
X122189209Y-81238765D01*
X122189209Y-81238764D01*
X122185608Y-81220660D01*
X129494500Y-81220660D01*
X129494500Y-81379339D01*
X129525453Y-81534948D01*
X129525455Y-81534956D01*
X129586174Y-81681543D01*
X129586179Y-81681553D01*
X129674327Y-81813475D01*
X129674330Y-81813479D01*
X129786520Y-81925669D01*
X129786524Y-81925672D01*
X129918446Y-82013820D01*
X129918450Y-82013822D01*
X129918453Y-82013824D01*
X130065044Y-82074545D01*
X130220660Y-82105499D01*
X130220663Y-82105500D01*
X130220665Y-82105500D01*
X130379337Y-82105500D01*
X130379338Y-82105499D01*
X130534956Y-82074545D01*
X130681547Y-82013824D01*
X130813476Y-81925672D01*
X130925672Y-81813476D01*
X131013824Y-81681547D01*
X131074545Y-81534956D01*
X131105500Y-81379335D01*
X131105500Y-81220665D01*
X131105500Y-81220662D01*
X131105499Y-81220660D01*
X131074546Y-81065051D01*
X131074545Y-81065044D01*
X131013824Y-80918453D01*
X131013822Y-80918450D01*
X131013820Y-80918446D01*
X130925672Y-80786524D01*
X130925669Y-80786520D01*
X130813479Y-80674330D01*
X130813475Y-80674327D01*
X130681553Y-80586179D01*
X130681543Y-80586174D01*
X130534956Y-80525455D01*
X130534948Y-80525453D01*
X130379338Y-80494500D01*
X130379335Y-80494500D01*
X130220665Y-80494500D01*
X130220662Y-80494500D01*
X130065051Y-80525453D01*
X130065043Y-80525455D01*
X129918456Y-80586174D01*
X129918446Y-80586179D01*
X129786524Y-80674327D01*
X129786520Y-80674330D01*
X129674330Y-80786520D01*
X129674327Y-80786524D01*
X129586179Y-80918446D01*
X129586174Y-80918456D01*
X129525455Y-81065043D01*
X129525453Y-81065051D01*
X129494500Y-81220660D01*
X122185608Y-81220660D01*
X122174546Y-81165051D01*
X122174545Y-81165044D01*
X122113824Y-81018453D01*
X122113822Y-81018450D01*
X122113820Y-81018446D01*
X122025672Y-80886524D01*
X122025669Y-80886520D01*
X121913479Y-80774330D01*
X121913475Y-80774327D01*
X121781553Y-80686179D01*
X121781543Y-80686174D01*
X121634956Y-80625455D01*
X121634948Y-80625453D01*
X121479338Y-80594500D01*
X121479335Y-80594500D01*
X121320665Y-80594500D01*
X121320662Y-80594500D01*
X121165051Y-80625453D01*
X121165043Y-80625455D01*
X121018456Y-80686174D01*
X121018446Y-80686179D01*
X120886524Y-80774327D01*
X120886520Y-80774330D01*
X120774330Y-80886520D01*
X120774327Y-80886524D01*
X120686179Y-81018446D01*
X120686174Y-81018456D01*
X120625455Y-81165043D01*
X120625453Y-81165051D01*
X120594500Y-81320660D01*
X118752369Y-81320660D01*
X118779366Y-73770660D01*
X134244500Y-73770660D01*
X134244500Y-73929339D01*
X134275453Y-74084948D01*
X134275455Y-74084956D01*
X134336174Y-74231543D01*
X134336179Y-74231553D01*
X134424327Y-74363475D01*
X134424330Y-74363479D01*
X134536520Y-74475669D01*
X134536524Y-74475672D01*
X134668446Y-74563820D01*
X134668450Y-74563822D01*
X134668453Y-74563824D01*
X134815044Y-74624545D01*
X134970660Y-74655499D01*
X134970663Y-74655500D01*
X134970665Y-74655500D01*
X135129337Y-74655500D01*
X135129338Y-74655499D01*
X135284956Y-74624545D01*
X135431547Y-74563824D01*
X135563476Y-74475672D01*
X135675672Y-74363476D01*
X135763824Y-74231547D01*
X135824545Y-74084956D01*
X135855500Y-73929335D01*
X135855500Y-73770665D01*
X135855500Y-73770662D01*
X135855499Y-73770660D01*
X135824546Y-73615051D01*
X135824545Y-73615044D01*
X135763824Y-73468453D01*
X135763822Y-73468450D01*
X135763820Y-73468446D01*
X135675672Y-73336524D01*
X135675669Y-73336520D01*
X135563479Y-73224330D01*
X135563475Y-73224327D01*
X135431553Y-73136179D01*
X135431543Y-73136174D01*
X135284956Y-73075455D01*
X135284948Y-73075453D01*
X135129338Y-73044500D01*
X135129335Y-73044500D01*
X134970665Y-73044500D01*
X134970662Y-73044500D01*
X134815051Y-73075453D01*
X134815043Y-73075455D01*
X134668456Y-73136174D01*
X134668446Y-73136179D01*
X134536524Y-73224327D01*
X134536520Y-73224330D01*
X134424330Y-73336520D01*
X134424327Y-73336524D01*
X134336179Y-73468446D01*
X134336174Y-73468456D01*
X134275455Y-73615043D01*
X134275453Y-73615051D01*
X134244500Y-73770660D01*
X118779366Y-73770660D01*
X118788824Y-71125513D01*
X121029500Y-71125513D01*
X121029500Y-71314486D01*
X121059059Y-71501118D01*
X121117454Y-71680836D01*
X121203240Y-71849199D01*
X121314310Y-72002073D01*
X121447927Y-72135690D01*
X121600801Y-72246760D01*
X121680347Y-72287290D01*
X121769163Y-72332545D01*
X121769165Y-72332545D01*
X121769168Y-72332547D01*
X121865497Y-72363846D01*
X121948881Y-72390940D01*
X122135514Y-72420500D01*
X122135519Y-72420500D01*
X122324486Y-72420500D01*
X122511118Y-72390940D01*
X122690832Y-72332547D01*
X122859199Y-72246760D01*
X123012073Y-72135690D01*
X123145690Y-72002073D01*
X123256760Y-71849199D01*
X123342547Y-71680832D01*
X123400940Y-71501118D01*
X123430500Y-71314486D01*
X123430500Y-71125513D01*
X158029500Y-71125513D01*
X158029500Y-71314486D01*
X158059059Y-71501118D01*
X158117454Y-71680836D01*
X158203240Y-71849199D01*
X158314310Y-72002073D01*
X158447927Y-72135690D01*
X158600801Y-72246760D01*
X158680347Y-72287290D01*
X158769163Y-72332545D01*
X158769165Y-72332545D01*
X158769168Y-72332547D01*
X158865497Y-72363846D01*
X158948881Y-72390940D01*
X159135514Y-72420500D01*
X159135519Y-72420500D01*
X159324486Y-72420500D01*
X159511118Y-72390940D01*
X159690832Y-72332547D01*
X159859199Y-72246760D01*
X160012073Y-72135690D01*
X160145690Y-72002073D01*
X160256760Y-71849199D01*
X160342547Y-71680832D01*
X160400940Y-71501118D01*
X160430500Y-71314486D01*
X160430500Y-71125513D01*
X160400940Y-70938881D01*
X160342545Y-70759163D01*
X160256759Y-70590800D01*
X160145690Y-70437927D01*
X160012073Y-70304310D01*
X159859199Y-70193240D01*
X159690836Y-70107454D01*
X159511118Y-70049059D01*
X159324486Y-70019500D01*
X159324481Y-70019500D01*
X159135519Y-70019500D01*
X159135514Y-70019500D01*
X158948881Y-70049059D01*
X158769163Y-70107454D01*
X158600800Y-70193240D01*
X158513579Y-70256610D01*
X158447927Y-70304310D01*
X158447925Y-70304312D01*
X158447924Y-70304312D01*
X158314312Y-70437924D01*
X158314312Y-70437925D01*
X158314310Y-70437927D01*
X158266610Y-70503579D01*
X158203240Y-70590800D01*
X158117454Y-70759163D01*
X158059059Y-70938881D01*
X158029500Y-71125513D01*
X123430500Y-71125513D01*
X123400940Y-70938881D01*
X123342545Y-70759163D01*
X123256759Y-70590800D01*
X123145690Y-70437927D01*
X123012073Y-70304310D01*
X122859199Y-70193240D01*
X122690836Y-70107454D01*
X122511118Y-70049059D01*
X122324486Y-70019500D01*
X122324481Y-70019500D01*
X122135519Y-70019500D01*
X122135514Y-70019500D01*
X121948881Y-70049059D01*
X121769163Y-70107454D01*
X121600800Y-70193240D01*
X121513579Y-70256610D01*
X121447927Y-70304310D01*
X121447925Y-70304312D01*
X121447924Y-70304312D01*
X121314312Y-70437924D01*
X121314312Y-70437925D01*
X121314310Y-70437927D01*
X121266610Y-70503579D01*
X121203240Y-70590800D01*
X121117454Y-70759163D01*
X121059059Y-70938881D01*
X121029500Y-71125513D01*
X118788824Y-71125513D01*
X118799558Y-68123556D01*
X118819482Y-68056588D01*
X118872449Y-68011022D01*
X118923557Y-68000000D01*
X162276000Y-68000000D01*
X162343039Y-68019685D01*
G37*
G04 #@! TD.AperFunction*
G04 #@! TD*
M02*
