G04 #@! TF.GenerationSoftware,KiCad,Pcbnew,9.0.0*
G04 #@! TF.CreationDate,2025-10-14T13:06:03-06:00*
G04 #@! TF.ProjectId,main_board,6d61696e-5f62-46f6-9172-642e6b696361,rev?*
G04 #@! TF.SameCoordinates,Original*
G04 #@! TF.FileFunction,Paste,Top*
G04 #@! TF.FilePolarity,Positive*
%FSLAX46Y46*%
G04 Gerber Fmt 4.6, Leading zero omitted, Abs format (unit mm)*
G04 Created by KiCad (PCBNEW 9.0.0) date 2025-10-14 13:06:03*
%MOMM*%
%LPD*%
G01*
G04 APERTURE LIST*
G04 Aperture macros list*
%AMRoundRect*
0 Rectangle with rounded corners*
0 $1 Rounding radius*
0 $2 $3 $4 $5 $6 $7 $8 $9 X,Y pos of 4 corners*
0 Add a 4 corners polygon primitive as box body*
4,1,4,$2,$3,$4,$5,$6,$7,$8,$9,$2,$3,0*
0 Add four circle primitives for the rounded corners*
1,1,$1+$1,$2,$3*
1,1,$1+$1,$4,$5*
1,1,$1+$1,$6,$7*
1,1,$1+$1,$8,$9*
0 Add four rect primitives between the rounded corners*
20,1,$1+$1,$2,$3,$4,$5,0*
20,1,$1+$1,$4,$5,$6,$7,0*
20,1,$1+$1,$6,$7,$8,$9,0*
20,1,$1+$1,$8,$9,$2,$3,0*%
G04 Aperture macros list end*
%ADD10RoundRect,0.200000X-0.275000X0.200000X-0.275000X-0.200000X0.275000X-0.200000X0.275000X0.200000X0*%
%ADD11RoundRect,0.225000X-0.225000X-0.250000X0.225000X-0.250000X0.225000X0.250000X-0.225000X0.250000X0*%
%ADD12RoundRect,0.180000X0.820000X0.420000X-0.820000X0.420000X-0.820000X-0.420000X0.820000X-0.420000X0*%
%ADD13RoundRect,0.217500X0.782500X0.507500X-0.782500X0.507500X-0.782500X-0.507500X0.782500X-0.507500X0*%
%ADD14RoundRect,0.225000X0.225000X0.250000X-0.225000X0.250000X-0.225000X-0.250000X0.225000X-0.250000X0*%
%ADD15R,1.104900X0.508000*%
%ADD16RoundRect,0.200000X0.275000X-0.200000X0.275000X0.200000X-0.275000X0.200000X-0.275000X-0.200000X0*%
%ADD17R,0.304800X1.079500*%
%ADD18R,1.500000X3.500000*%
%ADD19RoundRect,0.218750X0.218750X0.256250X-0.218750X0.256250X-0.218750X-0.256250X0.218750X-0.256250X0*%
%ADD20RoundRect,0.200000X-0.200000X-0.275000X0.200000X-0.275000X0.200000X0.275000X-0.200000X0.275000X0*%
%ADD21R,0.355600X1.168400*%
%ADD22RoundRect,0.225000X0.250000X-0.225000X0.250000X0.225000X-0.250000X0.225000X-0.250000X-0.225000X0*%
%ADD23R,0.457200X1.219200*%
%ADD24O,0.457200X1.219200*%
%ADD25RoundRect,0.225000X-0.250000X0.225000X-0.250000X-0.225000X0.250000X-0.225000X0.250000X0.225000X0*%
%ADD26RoundRect,0.200000X0.200000X0.275000X-0.200000X0.275000X-0.200000X-0.275000X0.200000X-0.275000X0*%
%ADD27RoundRect,0.115000X-0.115000X0.547500X-0.115000X-0.547500X0.115000X-0.547500X0.115000X0.547500X0*%
%ADD28R,0.876300X0.406400*%
%ADD29R,1.270000X0.508000*%
G04 APERTURE END LIST*
D10*
G04 #@! TO.C,R1*
X126300000Y-108085000D03*
X126300000Y-109735000D03*
G04 #@! TD*
D11*
G04 #@! TO.C,C9*
X119505000Y-94460000D03*
X121055000Y-94460000D03*
G04 #@! TD*
D10*
G04 #@! TO.C,R9*
X136000000Y-74975000D03*
X136000000Y-76625000D03*
G04 #@! TD*
D12*
G04 #@! TO.C,FL1*
X130387500Y-75000000D03*
X130387500Y-79000000D03*
D13*
X125387500Y-77000000D03*
G04 #@! TD*
D14*
G04 #@! TO.C,C30*
X123705000Y-137010000D03*
X122155000Y-137010000D03*
G04 #@! TD*
D15*
G04 #@! TO.C,U9*
X125296650Y-146249999D03*
X125296650Y-147200000D03*
X125296650Y-148150001D03*
X128103350Y-148150001D03*
X128103350Y-147200000D03*
X128103350Y-146249999D03*
G04 #@! TD*
D16*
G04 #@! TO.C,R8*
X120600000Y-87825000D03*
X120600000Y-86175000D03*
G04 #@! TD*
D11*
G04 #@! TO.C,C10*
X119505000Y-98660000D03*
X121055000Y-98660000D03*
G04 #@! TD*
D17*
G04 #@! TO.C,U12*
X125730001Y-138072850D03*
X126380000Y-138072850D03*
X127029999Y-138072850D03*
X127029999Y-135647150D03*
X125730001Y-135647150D03*
G04 #@! TD*
D18*
G04 #@! TO.C,J1*
X130400000Y-69072500D03*
X133100000Y-69072500D03*
X127700000Y-69072500D03*
G04 #@! TD*
D19*
G04 #@! TO.C,L1*
X127837500Y-143950000D03*
X126262500Y-143950000D03*
G04 #@! TD*
D20*
G04 #@! TO.C,R5*
X123605000Y-98710000D03*
X125255000Y-98710000D03*
G04 #@! TD*
D21*
G04 #@! TO.C,U4*
X132380001Y-92460000D03*
X133030000Y-92460000D03*
X133679999Y-92460000D03*
X133679999Y-90504200D03*
X133030000Y-90504200D03*
X132380001Y-90504200D03*
G04 #@! TD*
D22*
G04 #@! TO.C,C26*
X130300000Y-147575000D03*
X130300000Y-146025000D03*
G04 #@! TD*
D11*
G04 #@! TO.C,C15*
X133580000Y-94410000D03*
X135130000Y-94410000D03*
G04 #@! TD*
D22*
G04 #@! TO.C,C31*
X135000000Y-150050000D03*
X135000000Y-148500000D03*
G04 #@! TD*
D14*
G04 #@! TO.C,C5*
X123375000Y-109060000D03*
X121825000Y-109060000D03*
G04 #@! TD*
D16*
G04 #@! TO.C,R6*
X123030000Y-80625000D03*
X123030000Y-78975000D03*
G04 #@! TD*
D23*
G04 #@! TO.C,U8*
X127230001Y-113750000D03*
D24*
X126280000Y-113750000D03*
X125329999Y-113750000D03*
X125329999Y-116370000D03*
X127230001Y-116370000D03*
G04 #@! TD*
D25*
G04 #@! TO.C,C27*
X122120000Y-146340000D03*
X122120000Y-147890000D03*
G04 #@! TD*
G04 #@! TO.C,C13*
X120280000Y-78835000D03*
X120280000Y-80385000D03*
G04 #@! TD*
D22*
G04 #@! TO.C,C18*
X128980000Y-85735000D03*
X128980000Y-84185000D03*
G04 #@! TD*
D11*
G04 #@! TO.C,C3*
X120925000Y-102210000D03*
X122475000Y-102210000D03*
G04 #@! TD*
D26*
G04 #@! TO.C,R12*
X127105000Y-118310000D03*
X125455000Y-118310000D03*
G04 #@! TD*
G04 #@! TO.C,R4*
X125205000Y-94510000D03*
X123555000Y-94510000D03*
G04 #@! TD*
D23*
G04 #@! TO.C,U1*
X120749999Y-106570000D03*
D24*
X121700000Y-106570000D03*
X122650001Y-106570000D03*
X122650001Y-103950000D03*
X120749999Y-103950000D03*
G04 #@! TD*
D23*
G04 #@! TO.C,U6*
X125080000Y-82710000D03*
D24*
X124129999Y-82710000D03*
X123179998Y-82710000D03*
X123179998Y-85330000D03*
X125080000Y-85330000D03*
G04 #@! TD*
D20*
G04 #@! TO.C,R14*
X133775000Y-133400000D03*
X135425000Y-133400000D03*
G04 #@! TD*
D14*
G04 #@! TO.C,C34*
X123830000Y-133410000D03*
X122280000Y-133410000D03*
G04 #@! TD*
D22*
G04 #@! TO.C,C21*
X125530000Y-127985000D03*
X125530000Y-126435000D03*
G04 #@! TD*
D11*
G04 #@! TO.C,C6*
X132855000Y-96660000D03*
X134405000Y-96660000D03*
G04 #@! TD*
G04 #@! TO.C,C24*
X132425000Y-79160000D03*
X133975000Y-79160000D03*
G04 #@! TD*
D20*
G04 #@! TO.C,R3*
X127405000Y-94460000D03*
X129055000Y-94460000D03*
G04 #@! TD*
D25*
G04 #@! TO.C,C11*
X120630000Y-89425000D03*
X120630000Y-90975000D03*
G04 #@! TD*
G04 #@! TO.C,C12*
X123680000Y-89425000D03*
X123680000Y-90975000D03*
G04 #@! TD*
G04 #@! TO.C,C7*
X120750000Y-112135000D03*
X120750000Y-113685000D03*
G04 #@! TD*
D27*
G04 #@! TO.C,U3*
X134030000Y-100422500D03*
X133380000Y-100422500D03*
X132730000Y-100422500D03*
X132080000Y-100422500D03*
X132080000Y-102697500D03*
X132730000Y-102697500D03*
X133380000Y-102697500D03*
X134030000Y-102697500D03*
G04 #@! TD*
D20*
G04 #@! TO.C,R7*
X124880000Y-87410000D03*
X126530000Y-87410000D03*
G04 #@! TD*
D14*
G04 #@! TO.C,C2*
X133355000Y-98460000D03*
X131805000Y-98460000D03*
G04 #@! TD*
D25*
G04 #@! TO.C,C16*
X130000000Y-89635000D03*
X130000000Y-91185000D03*
G04 #@! TD*
D10*
G04 #@! TO.C,R2*
X126180000Y-103985000D03*
X126180000Y-105635000D03*
G04 #@! TD*
G04 #@! TO.C,R10*
X136080000Y-80460000D03*
X136080000Y-82110000D03*
G04 #@! TD*
D28*
G04 #@! TO.C,U7*
X127265550Y-126285001D03*
X127265550Y-126934999D03*
X127265550Y-127585001D03*
X127265550Y-128234999D03*
X129894450Y-128234999D03*
X129894450Y-127585001D03*
X129894450Y-126934999D03*
X129894450Y-126285001D03*
G04 #@! TD*
D10*
G04 #@! TO.C,R13*
X120800000Y-115935000D03*
X120800000Y-117585000D03*
G04 #@! TD*
D11*
G04 #@! TO.C,C32*
X150855000Y-149310000D03*
X152405000Y-149310000D03*
G04 #@! TD*
D22*
G04 #@! TO.C,C14*
X120280000Y-83985000D03*
X120280000Y-82435000D03*
G04 #@! TD*
G04 #@! TO.C,C17*
X127080000Y-85785000D03*
X127080000Y-84235000D03*
G04 #@! TD*
D11*
G04 #@! TO.C,C8*
X132425000Y-88600000D03*
X133975000Y-88600000D03*
G04 #@! TD*
G04 #@! TO.C,C19*
X131755000Y-82810000D03*
X133305000Y-82810000D03*
G04 #@! TD*
D14*
G04 #@! TO.C,C22*
X129280000Y-130310000D03*
X127730000Y-130310000D03*
G04 #@! TD*
D25*
G04 #@! TO.C,C29*
X130630000Y-116860000D03*
X130630000Y-118410000D03*
G04 #@! TD*
G04 #@! TO.C,C28*
X119350000Y-146340000D03*
X119350000Y-147890000D03*
G04 #@! TD*
D11*
G04 #@! TO.C,C1*
X131705000Y-81210000D03*
X133255000Y-81210000D03*
G04 #@! TD*
D22*
G04 #@! TO.C,C20*
X122330000Y-128000000D03*
X122330000Y-126450000D03*
G04 #@! TD*
D25*
G04 #@! TO.C,C23*
X134030000Y-115485000D03*
X134030000Y-117035000D03*
G04 #@! TD*
D16*
G04 #@! TO.C,R11*
X130580000Y-115335000D03*
X130580000Y-113685000D03*
G04 #@! TD*
D29*
G04 #@! TO.C,U5*
X125761600Y-89400000D03*
X125761600Y-90350001D03*
X125761600Y-91300002D03*
X128200000Y-91300002D03*
X128200000Y-89400000D03*
G04 #@! TD*
D11*
G04 #@! TO.C,C4*
X120925000Y-100500000D03*
X122475000Y-100500000D03*
G04 #@! TD*
D21*
G04 #@! TO.C,U2*
X133050001Y-86777900D03*
X133700000Y-86777900D03*
X134349999Y-86777900D03*
X134349999Y-84822100D03*
X133700000Y-84822100D03*
X133050001Y-84822100D03*
G04 #@! TD*
D11*
G04 #@! TO.C,C25*
X125320000Y-150340000D03*
X126870000Y-150340000D03*
G04 #@! TD*
M02*
