G04 #@! TF.GenerationSoftware,KiCad,Pcbnew,9.0.0*
G04 #@! TF.CreationDate,2025-10-14T13:06:04-06:00*
G04 #@! TF.ProjectId,main_board,6d61696e-5f62-46f6-9172-642e6b696361,rev?*
G04 #@! TF.SameCoordinates,Original*
G04 #@! TF.FileFunction,Soldermask,Bot*
G04 #@! TF.FilePolarity,Negative*
%FSLAX46Y46*%
G04 Gerber Fmt 4.6, Leading zero omitted, Abs format (unit mm)*
G04 Created by KiCad (PCBNEW 9.0.0) date 2025-10-14 13:06:04*
%MOMM*%
%LPD*%
G01*
G04 APERTURE LIST*
G04 APERTURE END LIST*
G36*
X139652764Y-148651577D02*
G01*
X139779271Y-148703978D01*
X139893124Y-148780052D01*
X139989948Y-148876876D01*
X140066022Y-148990729D01*
X140118423Y-149117236D01*
X140145137Y-149251535D01*
X140145137Y-149388465D01*
X140118423Y-149522764D01*
X140066022Y-149649271D01*
X139989948Y-149763124D01*
X139893124Y-149859948D01*
X139779271Y-149936022D01*
X139652764Y-149988423D01*
X139518465Y-150015137D01*
X139381535Y-150015137D01*
X139247236Y-149988423D01*
X139120729Y-149936022D01*
X139006876Y-149859948D01*
X138910052Y-149763124D01*
X138833978Y-149649271D01*
X138781577Y-149522764D01*
X138754863Y-149388465D01*
X138754863Y-149251535D01*
X138781577Y-149117236D01*
X138833978Y-148990729D01*
X138910052Y-148876876D01*
X139006876Y-148780052D01*
X139120729Y-148703978D01*
X139247236Y-148651577D01*
X139381535Y-148624863D01*
X139518465Y-148624863D01*
X139652764Y-148651577D01*
G37*
G36*
X142192764Y-148651577D02*
G01*
X142319271Y-148703978D01*
X142433124Y-148780052D01*
X142529948Y-148876876D01*
X142606022Y-148990729D01*
X142658423Y-149117236D01*
X142685137Y-149251535D01*
X142685137Y-149388465D01*
X142658423Y-149522764D01*
X142606022Y-149649271D01*
X142529948Y-149763124D01*
X142433124Y-149859948D01*
X142319271Y-149936022D01*
X142192764Y-149988423D01*
X142058465Y-150015137D01*
X141921535Y-150015137D01*
X141787236Y-149988423D01*
X141660729Y-149936022D01*
X141546876Y-149859948D01*
X141450052Y-149763124D01*
X141373978Y-149649271D01*
X141321577Y-149522764D01*
X141294863Y-149388465D01*
X141294863Y-149251535D01*
X141321577Y-149117236D01*
X141373978Y-148990729D01*
X141450052Y-148876876D01*
X141546876Y-148780052D01*
X141660729Y-148703978D01*
X141787236Y-148651577D01*
X141921535Y-148624863D01*
X142058465Y-148624863D01*
X142192764Y-148651577D01*
G37*
G36*
X144732764Y-148651577D02*
G01*
X144859271Y-148703978D01*
X144973124Y-148780052D01*
X145069948Y-148876876D01*
X145146022Y-148990729D01*
X145198423Y-149117236D01*
X145225137Y-149251535D01*
X145225137Y-149388465D01*
X145198423Y-149522764D01*
X145146022Y-149649271D01*
X145069948Y-149763124D01*
X144973124Y-149859948D01*
X144859271Y-149936022D01*
X144732764Y-149988423D01*
X144598465Y-150015137D01*
X144461535Y-150015137D01*
X144327236Y-149988423D01*
X144200729Y-149936022D01*
X144086876Y-149859948D01*
X143990052Y-149763124D01*
X143913978Y-149649271D01*
X143861577Y-149522764D01*
X143834863Y-149388465D01*
X143834863Y-149251535D01*
X143861577Y-149117236D01*
X143913978Y-148990729D01*
X143990052Y-148876876D01*
X144086876Y-148780052D01*
X144200729Y-148703978D01*
X144327236Y-148651577D01*
X144461535Y-148624863D01*
X144598465Y-148624863D01*
X144732764Y-148651577D01*
G37*
G36*
X147272764Y-148651577D02*
G01*
X147399271Y-148703978D01*
X147513124Y-148780052D01*
X147609948Y-148876876D01*
X147686022Y-148990729D01*
X147738423Y-149117236D01*
X147765137Y-149251535D01*
X147765137Y-149388465D01*
X147738423Y-149522764D01*
X147686022Y-149649271D01*
X147609948Y-149763124D01*
X147513124Y-149859948D01*
X147399271Y-149936022D01*
X147272764Y-149988423D01*
X147138465Y-150015137D01*
X147001535Y-150015137D01*
X146867236Y-149988423D01*
X146740729Y-149936022D01*
X146626876Y-149859948D01*
X146530052Y-149763124D01*
X146453978Y-149649271D01*
X146401577Y-149522764D01*
X146374863Y-149388465D01*
X146374863Y-149251535D01*
X146401577Y-149117236D01*
X146453978Y-148990729D01*
X146530052Y-148876876D01*
X146626876Y-148780052D01*
X146740729Y-148703978D01*
X146867236Y-148651577D01*
X147001535Y-148624863D01*
X147138465Y-148624863D01*
X147272764Y-148651577D01*
G37*
G36*
X154120000Y-144260000D02*
G01*
X152420000Y-144260000D01*
X152420000Y-142560000D01*
X154120000Y-142560000D01*
X154120000Y-144260000D01*
G37*
G36*
X138276742Y-142596601D02*
G01*
X138430687Y-142660367D01*
X138569234Y-142752941D01*
X138687059Y-142870766D01*
X138779633Y-143009313D01*
X138843399Y-143163258D01*
X138875907Y-143326685D01*
X138875907Y-143493315D01*
X138843399Y-143656742D01*
X138779633Y-143810687D01*
X138687059Y-143949234D01*
X138569234Y-144067059D01*
X138430687Y-144159633D01*
X138276742Y-144223399D01*
X138113315Y-144255907D01*
X137946685Y-144255907D01*
X137783258Y-144223399D01*
X137629313Y-144159633D01*
X137490766Y-144067059D01*
X137372941Y-143949234D01*
X137280367Y-143810687D01*
X137216601Y-143656742D01*
X137184093Y-143493315D01*
X137184093Y-143326685D01*
X137216601Y-143163258D01*
X137280367Y-143009313D01*
X137372941Y-142870766D01*
X137490766Y-142752941D01*
X137629313Y-142660367D01*
X137783258Y-142596601D01*
X137946685Y-142564093D01*
X138113315Y-142564093D01*
X138276742Y-142596601D01*
G37*
G36*
X122520285Y-141263060D02*
G01*
X122701397Y-141338079D01*
X122864393Y-141446990D01*
X123003010Y-141585607D01*
X123111921Y-141748603D01*
X123186940Y-141929715D01*
X123225185Y-142121983D01*
X123225185Y-142318017D01*
X123186940Y-142510285D01*
X123111921Y-142691397D01*
X123003010Y-142854393D01*
X122864393Y-142993010D01*
X122701397Y-143101921D01*
X122520285Y-143176940D01*
X122328017Y-143215185D01*
X122131983Y-143215185D01*
X121939715Y-143176940D01*
X121758603Y-143101921D01*
X121595607Y-142993010D01*
X121456990Y-142854393D01*
X121348079Y-142691397D01*
X121273060Y-142510285D01*
X121234815Y-142318017D01*
X121234815Y-142121983D01*
X121273060Y-141929715D01*
X121348079Y-141748603D01*
X121456990Y-141585607D01*
X121595607Y-141446990D01*
X121758603Y-141338079D01*
X121939715Y-141263060D01*
X122131983Y-141224815D01*
X122328017Y-141224815D01*
X122520285Y-141263060D01*
G37*
G36*
X159520285Y-141263060D02*
G01*
X159701397Y-141338079D01*
X159864393Y-141446990D01*
X160003010Y-141585607D01*
X160111921Y-141748603D01*
X160186940Y-141929715D01*
X160225185Y-142121983D01*
X160225185Y-142318017D01*
X160186940Y-142510285D01*
X160111921Y-142691397D01*
X160003010Y-142854393D01*
X159864393Y-142993010D01*
X159701397Y-143101921D01*
X159520285Y-143176940D01*
X159328017Y-143215185D01*
X159131983Y-143215185D01*
X158939715Y-143176940D01*
X158758603Y-143101921D01*
X158595607Y-142993010D01*
X158456990Y-142854393D01*
X158348079Y-142691397D01*
X158273060Y-142510285D01*
X158234815Y-142318017D01*
X158234815Y-142121983D01*
X158273060Y-141929715D01*
X158348079Y-141748603D01*
X158456990Y-141585607D01*
X158595607Y-141446990D01*
X158758603Y-141338079D01*
X158939715Y-141263060D01*
X159131983Y-141224815D01*
X159328017Y-141224815D01*
X159520285Y-141263060D01*
G37*
G36*
X138276742Y-140056601D02*
G01*
X138430687Y-140120367D01*
X138569234Y-140212941D01*
X138687059Y-140330766D01*
X138779633Y-140469313D01*
X138843399Y-140623258D01*
X138875907Y-140786685D01*
X138875907Y-140953315D01*
X138843399Y-141116742D01*
X138779633Y-141270687D01*
X138687059Y-141409234D01*
X138569234Y-141527059D01*
X138430687Y-141619633D01*
X138276742Y-141683399D01*
X138113315Y-141715907D01*
X137946685Y-141715907D01*
X137783258Y-141683399D01*
X137629313Y-141619633D01*
X137490766Y-141527059D01*
X137372941Y-141409234D01*
X137280367Y-141270687D01*
X137216601Y-141116742D01*
X137184093Y-140953315D01*
X137184093Y-140786685D01*
X137216601Y-140623258D01*
X137280367Y-140469313D01*
X137372941Y-140330766D01*
X137490766Y-140212941D01*
X137629313Y-140120367D01*
X137783258Y-140056601D01*
X137946685Y-140024093D01*
X138113315Y-140024093D01*
X138276742Y-140056601D01*
G37*
G36*
X153516742Y-140056601D02*
G01*
X153670687Y-140120367D01*
X153809234Y-140212941D01*
X153927059Y-140330766D01*
X154019633Y-140469313D01*
X154083399Y-140623258D01*
X154115907Y-140786685D01*
X154115907Y-140953315D01*
X154083399Y-141116742D01*
X154019633Y-141270687D01*
X153927059Y-141409234D01*
X153809234Y-141527059D01*
X153670687Y-141619633D01*
X153516742Y-141683399D01*
X153353315Y-141715907D01*
X153186685Y-141715907D01*
X153023258Y-141683399D01*
X152869313Y-141619633D01*
X152730766Y-141527059D01*
X152612941Y-141409234D01*
X152520367Y-141270687D01*
X152456601Y-141116742D01*
X152424093Y-140953315D01*
X152424093Y-140786685D01*
X152456601Y-140623258D01*
X152520367Y-140469313D01*
X152612941Y-140330766D01*
X152730766Y-140212941D01*
X152869313Y-140120367D01*
X153023258Y-140056601D01*
X153186685Y-140024093D01*
X153353315Y-140024093D01*
X153516742Y-140056601D01*
G37*
G36*
X138276742Y-137516601D02*
G01*
X138430687Y-137580367D01*
X138569234Y-137672941D01*
X138687059Y-137790766D01*
X138779633Y-137929313D01*
X138843399Y-138083258D01*
X138875907Y-138246685D01*
X138875907Y-138413315D01*
X138843399Y-138576742D01*
X138779633Y-138730687D01*
X138687059Y-138869234D01*
X138569234Y-138987059D01*
X138430687Y-139079633D01*
X138276742Y-139143399D01*
X138113315Y-139175907D01*
X137946685Y-139175907D01*
X137783258Y-139143399D01*
X137629313Y-139079633D01*
X137490766Y-138987059D01*
X137372941Y-138869234D01*
X137280367Y-138730687D01*
X137216601Y-138576742D01*
X137184093Y-138413315D01*
X137184093Y-138246685D01*
X137216601Y-138083258D01*
X137280367Y-137929313D01*
X137372941Y-137790766D01*
X137490766Y-137672941D01*
X137629313Y-137580367D01*
X137783258Y-137516601D01*
X137946685Y-137484093D01*
X138113315Y-137484093D01*
X138276742Y-137516601D01*
G37*
G36*
X153516742Y-137516601D02*
G01*
X153670687Y-137580367D01*
X153809234Y-137672941D01*
X153927059Y-137790766D01*
X154019633Y-137929313D01*
X154083399Y-138083258D01*
X154115907Y-138246685D01*
X154115907Y-138413315D01*
X154083399Y-138576742D01*
X154019633Y-138730687D01*
X153927059Y-138869234D01*
X153809234Y-138987059D01*
X153670687Y-139079633D01*
X153516742Y-139143399D01*
X153353315Y-139175907D01*
X153186685Y-139175907D01*
X153023258Y-139143399D01*
X152869313Y-139079633D01*
X152730766Y-138987059D01*
X152612941Y-138869234D01*
X152520367Y-138730687D01*
X152456601Y-138576742D01*
X152424093Y-138413315D01*
X152424093Y-138246685D01*
X152456601Y-138083258D01*
X152520367Y-137929313D01*
X152612941Y-137790766D01*
X152730766Y-137672941D01*
X152869313Y-137580367D01*
X153023258Y-137516601D01*
X153186685Y-137484093D01*
X153353315Y-137484093D01*
X153516742Y-137516601D01*
G37*
G36*
X138276742Y-134976601D02*
G01*
X138430687Y-135040367D01*
X138569234Y-135132941D01*
X138687059Y-135250766D01*
X138779633Y-135389313D01*
X138843399Y-135543258D01*
X138875907Y-135706685D01*
X138875907Y-135873315D01*
X138843399Y-136036742D01*
X138779633Y-136190687D01*
X138687059Y-136329234D01*
X138569234Y-136447059D01*
X138430687Y-136539633D01*
X138276742Y-136603399D01*
X138113315Y-136635907D01*
X137946685Y-136635907D01*
X137783258Y-136603399D01*
X137629313Y-136539633D01*
X137490766Y-136447059D01*
X137372941Y-136329234D01*
X137280367Y-136190687D01*
X137216601Y-136036742D01*
X137184093Y-135873315D01*
X137184093Y-135706685D01*
X137216601Y-135543258D01*
X137280367Y-135389313D01*
X137372941Y-135250766D01*
X137490766Y-135132941D01*
X137629313Y-135040367D01*
X137783258Y-134976601D01*
X137946685Y-134944093D01*
X138113315Y-134944093D01*
X138276742Y-134976601D01*
G37*
G36*
X153516742Y-134976601D02*
G01*
X153670687Y-135040367D01*
X153809234Y-135132941D01*
X153927059Y-135250766D01*
X154019633Y-135389313D01*
X154083399Y-135543258D01*
X154115907Y-135706685D01*
X154115907Y-135873315D01*
X154083399Y-136036742D01*
X154019633Y-136190687D01*
X153927059Y-136329234D01*
X153809234Y-136447059D01*
X153670687Y-136539633D01*
X153516742Y-136603399D01*
X153353315Y-136635907D01*
X153186685Y-136635907D01*
X153023258Y-136603399D01*
X152869313Y-136539633D01*
X152730766Y-136447059D01*
X152612941Y-136329234D01*
X152520367Y-136190687D01*
X152456601Y-136036742D01*
X152424093Y-135873315D01*
X152424093Y-135706685D01*
X152456601Y-135543258D01*
X152520367Y-135389313D01*
X152612941Y-135250766D01*
X152730766Y-135132941D01*
X152869313Y-135040367D01*
X153023258Y-134976601D01*
X153186685Y-134944093D01*
X153353315Y-134944093D01*
X153516742Y-134976601D01*
G37*
G36*
X159932764Y-135181577D02*
G01*
X160059271Y-135233978D01*
X160173124Y-135310052D01*
X160269948Y-135406876D01*
X160346022Y-135520729D01*
X160398423Y-135647236D01*
X160425137Y-135781535D01*
X160425137Y-135918465D01*
X160398423Y-136052764D01*
X160346022Y-136179271D01*
X160269948Y-136293124D01*
X160173124Y-136389948D01*
X160059271Y-136466022D01*
X159932764Y-136518423D01*
X159798465Y-136545137D01*
X159661535Y-136545137D01*
X159527236Y-136518423D01*
X159400729Y-136466022D01*
X159286876Y-136389948D01*
X159190052Y-136293124D01*
X159113978Y-136179271D01*
X159061577Y-136052764D01*
X159034863Y-135918465D01*
X159034863Y-135781535D01*
X159061577Y-135647236D01*
X159113978Y-135520729D01*
X159190052Y-135406876D01*
X159286876Y-135310052D01*
X159400729Y-135233978D01*
X159527236Y-135181577D01*
X159661535Y-135154863D01*
X159798465Y-135154863D01*
X159932764Y-135181577D01*
G37*
G36*
X138276742Y-132436601D02*
G01*
X138430687Y-132500367D01*
X138569234Y-132592941D01*
X138687059Y-132710766D01*
X138779633Y-132849313D01*
X138843399Y-133003258D01*
X138875907Y-133166685D01*
X138875907Y-133333315D01*
X138843399Y-133496742D01*
X138779633Y-133650687D01*
X138687059Y-133789234D01*
X138569234Y-133907059D01*
X138430687Y-133999633D01*
X138276742Y-134063399D01*
X138113315Y-134095907D01*
X137946685Y-134095907D01*
X137783258Y-134063399D01*
X137629313Y-133999633D01*
X137490766Y-133907059D01*
X137372941Y-133789234D01*
X137280367Y-133650687D01*
X137216601Y-133496742D01*
X137184093Y-133333315D01*
X137184093Y-133166685D01*
X137216601Y-133003258D01*
X137280367Y-132849313D01*
X137372941Y-132710766D01*
X137490766Y-132592941D01*
X137629313Y-132500367D01*
X137783258Y-132436601D01*
X137946685Y-132404093D01*
X138113315Y-132404093D01*
X138276742Y-132436601D01*
G37*
G36*
X153516742Y-132436601D02*
G01*
X153670687Y-132500367D01*
X153809234Y-132592941D01*
X153927059Y-132710766D01*
X154019633Y-132849313D01*
X154083399Y-133003258D01*
X154115907Y-133166685D01*
X154115907Y-133333315D01*
X154083399Y-133496742D01*
X154019633Y-133650687D01*
X153927059Y-133789234D01*
X153809234Y-133907059D01*
X153670687Y-133999633D01*
X153516742Y-134063399D01*
X153353315Y-134095907D01*
X153186685Y-134095907D01*
X153023258Y-134063399D01*
X152869313Y-133999633D01*
X152730766Y-133907059D01*
X152612941Y-133789234D01*
X152520367Y-133650687D01*
X152456601Y-133496742D01*
X152424093Y-133333315D01*
X152424093Y-133166685D01*
X152456601Y-133003258D01*
X152520367Y-132849313D01*
X152612941Y-132710766D01*
X152730766Y-132592941D01*
X152869313Y-132500367D01*
X153023258Y-132436601D01*
X153186685Y-132404093D01*
X153353315Y-132404093D01*
X153516742Y-132436601D01*
G37*
G36*
X159932764Y-132641577D02*
G01*
X160059271Y-132693978D01*
X160173124Y-132770052D01*
X160269948Y-132866876D01*
X160346022Y-132980729D01*
X160398423Y-133107236D01*
X160425137Y-133241535D01*
X160425137Y-133378465D01*
X160398423Y-133512764D01*
X160346022Y-133639271D01*
X160269948Y-133753124D01*
X160173124Y-133849948D01*
X160059271Y-133926022D01*
X159932764Y-133978423D01*
X159798465Y-134005137D01*
X159661535Y-134005137D01*
X159527236Y-133978423D01*
X159400729Y-133926022D01*
X159286876Y-133849948D01*
X159190052Y-133753124D01*
X159113978Y-133639271D01*
X159061577Y-133512764D01*
X159034863Y-133378465D01*
X159034863Y-133241535D01*
X159061577Y-133107236D01*
X159113978Y-132980729D01*
X159190052Y-132866876D01*
X159286876Y-132770052D01*
X159400729Y-132693978D01*
X159527236Y-132641577D01*
X159661535Y-132614863D01*
X159798465Y-132614863D01*
X159932764Y-132641577D01*
G37*
G36*
X138276742Y-129896601D02*
G01*
X138430687Y-129960367D01*
X138569234Y-130052941D01*
X138687059Y-130170766D01*
X138779633Y-130309313D01*
X138843399Y-130463258D01*
X138875907Y-130626685D01*
X138875907Y-130793315D01*
X138843399Y-130956742D01*
X138779633Y-131110687D01*
X138687059Y-131249234D01*
X138569234Y-131367059D01*
X138430687Y-131459633D01*
X138276742Y-131523399D01*
X138113315Y-131555907D01*
X137946685Y-131555907D01*
X137783258Y-131523399D01*
X137629313Y-131459633D01*
X137490766Y-131367059D01*
X137372941Y-131249234D01*
X137280367Y-131110687D01*
X137216601Y-130956742D01*
X137184093Y-130793315D01*
X137184093Y-130626685D01*
X137216601Y-130463258D01*
X137280367Y-130309313D01*
X137372941Y-130170766D01*
X137490766Y-130052941D01*
X137629313Y-129960367D01*
X137783258Y-129896601D01*
X137946685Y-129864093D01*
X138113315Y-129864093D01*
X138276742Y-129896601D01*
G37*
G36*
X153516742Y-129896601D02*
G01*
X153670687Y-129960367D01*
X153809234Y-130052941D01*
X153927059Y-130170766D01*
X154019633Y-130309313D01*
X154083399Y-130463258D01*
X154115907Y-130626685D01*
X154115907Y-130793315D01*
X154083399Y-130956742D01*
X154019633Y-131110687D01*
X153927059Y-131249234D01*
X153809234Y-131367059D01*
X153670687Y-131459633D01*
X153516742Y-131523399D01*
X153353315Y-131555907D01*
X153186685Y-131555907D01*
X153023258Y-131523399D01*
X152869313Y-131459633D01*
X152730766Y-131367059D01*
X152612941Y-131249234D01*
X152520367Y-131110687D01*
X152456601Y-130956742D01*
X152424093Y-130793315D01*
X152424093Y-130626685D01*
X152456601Y-130463258D01*
X152520367Y-130309313D01*
X152612941Y-130170766D01*
X152730766Y-130052941D01*
X152869313Y-129960367D01*
X153023258Y-129896601D01*
X153186685Y-129864093D01*
X153353315Y-129864093D01*
X153516742Y-129896601D01*
G37*
G36*
X159932764Y-130101577D02*
G01*
X160059271Y-130153978D01*
X160173124Y-130230052D01*
X160269948Y-130326876D01*
X160346022Y-130440729D01*
X160398423Y-130567236D01*
X160425137Y-130701535D01*
X160425137Y-130838465D01*
X160398423Y-130972764D01*
X160346022Y-131099271D01*
X160269948Y-131213124D01*
X160173124Y-131309948D01*
X160059271Y-131386022D01*
X159932764Y-131438423D01*
X159798465Y-131465137D01*
X159661535Y-131465137D01*
X159527236Y-131438423D01*
X159400729Y-131386022D01*
X159286876Y-131309948D01*
X159190052Y-131213124D01*
X159113978Y-131099271D01*
X159061577Y-130972764D01*
X159034863Y-130838465D01*
X159034863Y-130701535D01*
X159061577Y-130567236D01*
X159113978Y-130440729D01*
X159190052Y-130326876D01*
X159286876Y-130230052D01*
X159400729Y-130153978D01*
X159527236Y-130101577D01*
X159661535Y-130074863D01*
X159798465Y-130074863D01*
X159932764Y-130101577D01*
G37*
G36*
X138276742Y-127356601D02*
G01*
X138430687Y-127420367D01*
X138569234Y-127512941D01*
X138687059Y-127630766D01*
X138779633Y-127769313D01*
X138843399Y-127923258D01*
X138875907Y-128086685D01*
X138875907Y-128253315D01*
X138843399Y-128416742D01*
X138779633Y-128570687D01*
X138687059Y-128709234D01*
X138569234Y-128827059D01*
X138430687Y-128919633D01*
X138276742Y-128983399D01*
X138113315Y-129015907D01*
X137946685Y-129015907D01*
X137783258Y-128983399D01*
X137629313Y-128919633D01*
X137490766Y-128827059D01*
X137372941Y-128709234D01*
X137280367Y-128570687D01*
X137216601Y-128416742D01*
X137184093Y-128253315D01*
X137184093Y-128086685D01*
X137216601Y-127923258D01*
X137280367Y-127769313D01*
X137372941Y-127630766D01*
X137490766Y-127512941D01*
X137629313Y-127420367D01*
X137783258Y-127356601D01*
X137946685Y-127324093D01*
X138113315Y-127324093D01*
X138276742Y-127356601D01*
G37*
G36*
X153516742Y-127356601D02*
G01*
X153670687Y-127420367D01*
X153809234Y-127512941D01*
X153927059Y-127630766D01*
X154019633Y-127769313D01*
X154083399Y-127923258D01*
X154115907Y-128086685D01*
X154115907Y-128253315D01*
X154083399Y-128416742D01*
X154019633Y-128570687D01*
X153927059Y-128709234D01*
X153809234Y-128827059D01*
X153670687Y-128919633D01*
X153516742Y-128983399D01*
X153353315Y-129015907D01*
X153186685Y-129015907D01*
X153023258Y-128983399D01*
X152869313Y-128919633D01*
X152730766Y-128827059D01*
X152612941Y-128709234D01*
X152520367Y-128570687D01*
X152456601Y-128416742D01*
X152424093Y-128253315D01*
X152424093Y-128086685D01*
X152456601Y-127923258D01*
X152520367Y-127769313D01*
X152612941Y-127630766D01*
X152730766Y-127512941D01*
X152869313Y-127420367D01*
X153023258Y-127356601D01*
X153186685Y-127324093D01*
X153353315Y-127324093D01*
X153516742Y-127356601D01*
G37*
G36*
X159932764Y-127561577D02*
G01*
X160059271Y-127613978D01*
X160173124Y-127690052D01*
X160269948Y-127786876D01*
X160346022Y-127900729D01*
X160398423Y-128027236D01*
X160425137Y-128161535D01*
X160425137Y-128298465D01*
X160398423Y-128432764D01*
X160346022Y-128559271D01*
X160269948Y-128673124D01*
X160173124Y-128769948D01*
X160059271Y-128846022D01*
X159932764Y-128898423D01*
X159798465Y-128925137D01*
X159661535Y-128925137D01*
X159527236Y-128898423D01*
X159400729Y-128846022D01*
X159286876Y-128769948D01*
X159190052Y-128673124D01*
X159113978Y-128559271D01*
X159061577Y-128432764D01*
X159034863Y-128298465D01*
X159034863Y-128161535D01*
X159061577Y-128027236D01*
X159113978Y-127900729D01*
X159190052Y-127786876D01*
X159286876Y-127690052D01*
X159400729Y-127613978D01*
X159527236Y-127561577D01*
X159661535Y-127534863D01*
X159798465Y-127534863D01*
X159932764Y-127561577D01*
G37*
G36*
X138276742Y-124816601D02*
G01*
X138430687Y-124880367D01*
X138569234Y-124972941D01*
X138687059Y-125090766D01*
X138779633Y-125229313D01*
X138843399Y-125383258D01*
X138875907Y-125546685D01*
X138875907Y-125713315D01*
X138843399Y-125876742D01*
X138779633Y-126030687D01*
X138687059Y-126169234D01*
X138569234Y-126287059D01*
X138430687Y-126379633D01*
X138276742Y-126443399D01*
X138113315Y-126475907D01*
X137946685Y-126475907D01*
X137783258Y-126443399D01*
X137629313Y-126379633D01*
X137490766Y-126287059D01*
X137372941Y-126169234D01*
X137280367Y-126030687D01*
X137216601Y-125876742D01*
X137184093Y-125713315D01*
X137184093Y-125546685D01*
X137216601Y-125383258D01*
X137280367Y-125229313D01*
X137372941Y-125090766D01*
X137490766Y-124972941D01*
X137629313Y-124880367D01*
X137783258Y-124816601D01*
X137946685Y-124784093D01*
X138113315Y-124784093D01*
X138276742Y-124816601D01*
G37*
G36*
X153516742Y-124816601D02*
G01*
X153670687Y-124880367D01*
X153809234Y-124972941D01*
X153927059Y-125090766D01*
X154019633Y-125229313D01*
X154083399Y-125383258D01*
X154115907Y-125546685D01*
X154115907Y-125713315D01*
X154083399Y-125876742D01*
X154019633Y-126030687D01*
X153927059Y-126169234D01*
X153809234Y-126287059D01*
X153670687Y-126379633D01*
X153516742Y-126443399D01*
X153353315Y-126475907D01*
X153186685Y-126475907D01*
X153023258Y-126443399D01*
X152869313Y-126379633D01*
X152730766Y-126287059D01*
X152612941Y-126169234D01*
X152520367Y-126030687D01*
X152456601Y-125876742D01*
X152424093Y-125713315D01*
X152424093Y-125546685D01*
X152456601Y-125383258D01*
X152520367Y-125229313D01*
X152612941Y-125090766D01*
X152730766Y-124972941D01*
X152869313Y-124880367D01*
X153023258Y-124816601D01*
X153186685Y-124784093D01*
X153353315Y-124784093D01*
X153516742Y-124816601D01*
G37*
G36*
X138880000Y-123940000D02*
G01*
X137180000Y-123940000D01*
X137180000Y-122240000D01*
X138880000Y-122240000D01*
X138880000Y-123940000D01*
G37*
G36*
X153516742Y-122276601D02*
G01*
X153670687Y-122340367D01*
X153809234Y-122432941D01*
X153927059Y-122550766D01*
X154019633Y-122689313D01*
X154083399Y-122843258D01*
X154115907Y-123006685D01*
X154115907Y-123173315D01*
X154083399Y-123336742D01*
X154019633Y-123490687D01*
X153927059Y-123629234D01*
X153809234Y-123747059D01*
X153670687Y-123839633D01*
X153516742Y-123903399D01*
X153353315Y-123935907D01*
X153186685Y-123935907D01*
X153023258Y-123903399D01*
X152869313Y-123839633D01*
X152730766Y-123747059D01*
X152612941Y-123629234D01*
X152520367Y-123490687D01*
X152456601Y-123336742D01*
X152424093Y-123173315D01*
X152424093Y-123006685D01*
X152456601Y-122843258D01*
X152520367Y-122689313D01*
X152612941Y-122550766D01*
X152730766Y-122432941D01*
X152869313Y-122340367D01*
X153023258Y-122276601D01*
X153186685Y-122244093D01*
X153353315Y-122244093D01*
X153516742Y-122276601D01*
G37*
G36*
X159902764Y-112831577D02*
G01*
X160029271Y-112883978D01*
X160143124Y-112960052D01*
X160239948Y-113056876D01*
X160316022Y-113170729D01*
X160368423Y-113297236D01*
X160395137Y-113431535D01*
X160395137Y-113568465D01*
X160368423Y-113702764D01*
X160316022Y-113829271D01*
X160239948Y-113943124D01*
X160143124Y-114039948D01*
X160029271Y-114116022D01*
X159902764Y-114168423D01*
X159768465Y-114195137D01*
X159631535Y-114195137D01*
X159497236Y-114168423D01*
X159370729Y-114116022D01*
X159256876Y-114039948D01*
X159160052Y-113943124D01*
X159083978Y-113829271D01*
X159031577Y-113702764D01*
X159004863Y-113568465D01*
X159004863Y-113431535D01*
X159031577Y-113297236D01*
X159083978Y-113170729D01*
X159160052Y-113056876D01*
X159256876Y-112960052D01*
X159370729Y-112883978D01*
X159497236Y-112831577D01*
X159631535Y-112804863D01*
X159768465Y-112804863D01*
X159902764Y-112831577D01*
G37*
G36*
X159902764Y-110291577D02*
G01*
X160029271Y-110343978D01*
X160143124Y-110420052D01*
X160239948Y-110516876D01*
X160316022Y-110630729D01*
X160368423Y-110757236D01*
X160395137Y-110891535D01*
X160395137Y-111028465D01*
X160368423Y-111162764D01*
X160316022Y-111289271D01*
X160239948Y-111403124D01*
X160143124Y-111499948D01*
X160029271Y-111576022D01*
X159902764Y-111628423D01*
X159768465Y-111655137D01*
X159631535Y-111655137D01*
X159497236Y-111628423D01*
X159370729Y-111576022D01*
X159256876Y-111499948D01*
X159160052Y-111403124D01*
X159083978Y-111289271D01*
X159031577Y-111162764D01*
X159004863Y-111028465D01*
X159004863Y-110891535D01*
X159031577Y-110757236D01*
X159083978Y-110630729D01*
X159160052Y-110516876D01*
X159256876Y-110420052D01*
X159370729Y-110343978D01*
X159497236Y-110291577D01*
X159631535Y-110264863D01*
X159768465Y-110264863D01*
X159902764Y-110291577D01*
G37*
G36*
X159902764Y-107751577D02*
G01*
X160029271Y-107803978D01*
X160143124Y-107880052D01*
X160239948Y-107976876D01*
X160316022Y-108090729D01*
X160368423Y-108217236D01*
X160395137Y-108351535D01*
X160395137Y-108488465D01*
X160368423Y-108622764D01*
X160316022Y-108749271D01*
X160239948Y-108863124D01*
X160143124Y-108959948D01*
X160029271Y-109036022D01*
X159902764Y-109088423D01*
X159768465Y-109115137D01*
X159631535Y-109115137D01*
X159497236Y-109088423D01*
X159370729Y-109036022D01*
X159256876Y-108959948D01*
X159160052Y-108863124D01*
X159083978Y-108749271D01*
X159031577Y-108622764D01*
X159004863Y-108488465D01*
X159004863Y-108351535D01*
X159031577Y-108217236D01*
X159083978Y-108090729D01*
X159160052Y-107976876D01*
X159256876Y-107880052D01*
X159370729Y-107803978D01*
X159497236Y-107751577D01*
X159631535Y-107724863D01*
X159768465Y-107724863D01*
X159902764Y-107751577D01*
G37*
G36*
X159902764Y-105211577D02*
G01*
X160029271Y-105263978D01*
X160143124Y-105340052D01*
X160239948Y-105436876D01*
X160316022Y-105550729D01*
X160368423Y-105677236D01*
X160395137Y-105811535D01*
X160395137Y-105948465D01*
X160368423Y-106082764D01*
X160316022Y-106209271D01*
X160239948Y-106323124D01*
X160143124Y-106419948D01*
X160029271Y-106496022D01*
X159902764Y-106548423D01*
X159768465Y-106575137D01*
X159631535Y-106575137D01*
X159497236Y-106548423D01*
X159370729Y-106496022D01*
X159256876Y-106419948D01*
X159160052Y-106323124D01*
X159083978Y-106209271D01*
X159031577Y-106082764D01*
X159004863Y-105948465D01*
X159004863Y-105811535D01*
X159031577Y-105677236D01*
X159083978Y-105550729D01*
X159160052Y-105436876D01*
X159256876Y-105340052D01*
X159370729Y-105263978D01*
X159497236Y-105211577D01*
X159631535Y-105184863D01*
X159768465Y-105184863D01*
X159902764Y-105211577D01*
G37*
G36*
X154120000Y-106160000D02*
G01*
X152420000Y-106160000D01*
X152420000Y-104460000D01*
X154120000Y-104460000D01*
X154120000Y-106160000D01*
G37*
G36*
X138276742Y-104496601D02*
G01*
X138430687Y-104560367D01*
X138569234Y-104652941D01*
X138687059Y-104770766D01*
X138779633Y-104909313D01*
X138843399Y-105063258D01*
X138875907Y-105226685D01*
X138875907Y-105393315D01*
X138843399Y-105556742D01*
X138779633Y-105710687D01*
X138687059Y-105849234D01*
X138569234Y-105967059D01*
X138430687Y-106059633D01*
X138276742Y-106123399D01*
X138113315Y-106155907D01*
X137946685Y-106155907D01*
X137783258Y-106123399D01*
X137629313Y-106059633D01*
X137490766Y-105967059D01*
X137372941Y-105849234D01*
X137280367Y-105710687D01*
X137216601Y-105556742D01*
X137184093Y-105393315D01*
X137184093Y-105226685D01*
X137216601Y-105063258D01*
X137280367Y-104909313D01*
X137372941Y-104770766D01*
X137490766Y-104652941D01*
X137629313Y-104560367D01*
X137783258Y-104496601D01*
X137946685Y-104464093D01*
X138113315Y-104464093D01*
X138276742Y-104496601D01*
G37*
G36*
X138276742Y-101956601D02*
G01*
X138430687Y-102020367D01*
X138569234Y-102112941D01*
X138687059Y-102230766D01*
X138779633Y-102369313D01*
X138843399Y-102523258D01*
X138875907Y-102686685D01*
X138875907Y-102853315D01*
X138843399Y-103016742D01*
X138779633Y-103170687D01*
X138687059Y-103309234D01*
X138569234Y-103427059D01*
X138430687Y-103519633D01*
X138276742Y-103583399D01*
X138113315Y-103615907D01*
X137946685Y-103615907D01*
X137783258Y-103583399D01*
X137629313Y-103519633D01*
X137490766Y-103427059D01*
X137372941Y-103309234D01*
X137280367Y-103170687D01*
X137216601Y-103016742D01*
X137184093Y-102853315D01*
X137184093Y-102686685D01*
X137216601Y-102523258D01*
X137280367Y-102369313D01*
X137372941Y-102230766D01*
X137490766Y-102112941D01*
X137629313Y-102020367D01*
X137783258Y-101956601D01*
X137946685Y-101924093D01*
X138113315Y-101924093D01*
X138276742Y-101956601D01*
G37*
G36*
X153516742Y-101956601D02*
G01*
X153670687Y-102020367D01*
X153809234Y-102112941D01*
X153927059Y-102230766D01*
X154019633Y-102369313D01*
X154083399Y-102523258D01*
X154115907Y-102686685D01*
X154115907Y-102853315D01*
X154083399Y-103016742D01*
X154019633Y-103170687D01*
X153927059Y-103309234D01*
X153809234Y-103427059D01*
X153670687Y-103519633D01*
X153516742Y-103583399D01*
X153353315Y-103615907D01*
X153186685Y-103615907D01*
X153023258Y-103583399D01*
X152869313Y-103519633D01*
X152730766Y-103427059D01*
X152612941Y-103309234D01*
X152520367Y-103170687D01*
X152456601Y-103016742D01*
X152424093Y-102853315D01*
X152424093Y-102686685D01*
X152456601Y-102523258D01*
X152520367Y-102369313D01*
X152612941Y-102230766D01*
X152730766Y-102112941D01*
X152869313Y-102020367D01*
X153023258Y-101956601D01*
X153186685Y-101924093D01*
X153353315Y-101924093D01*
X153516742Y-101956601D01*
G37*
G36*
X138276742Y-99416601D02*
G01*
X138430687Y-99480367D01*
X138569234Y-99572941D01*
X138687059Y-99690766D01*
X138779633Y-99829313D01*
X138843399Y-99983258D01*
X138875907Y-100146685D01*
X138875907Y-100313315D01*
X138843399Y-100476742D01*
X138779633Y-100630687D01*
X138687059Y-100769234D01*
X138569234Y-100887059D01*
X138430687Y-100979633D01*
X138276742Y-101043399D01*
X138113315Y-101075907D01*
X137946685Y-101075907D01*
X137783258Y-101043399D01*
X137629313Y-100979633D01*
X137490766Y-100887059D01*
X137372941Y-100769234D01*
X137280367Y-100630687D01*
X137216601Y-100476742D01*
X137184093Y-100313315D01*
X137184093Y-100146685D01*
X137216601Y-99983258D01*
X137280367Y-99829313D01*
X137372941Y-99690766D01*
X137490766Y-99572941D01*
X137629313Y-99480367D01*
X137783258Y-99416601D01*
X137946685Y-99384093D01*
X138113315Y-99384093D01*
X138276742Y-99416601D01*
G37*
G36*
X153516742Y-99416601D02*
G01*
X153670687Y-99480367D01*
X153809234Y-99572941D01*
X153927059Y-99690766D01*
X154019633Y-99829313D01*
X154083399Y-99983258D01*
X154115907Y-100146685D01*
X154115907Y-100313315D01*
X154083399Y-100476742D01*
X154019633Y-100630687D01*
X153927059Y-100769234D01*
X153809234Y-100887059D01*
X153670687Y-100979633D01*
X153516742Y-101043399D01*
X153353315Y-101075907D01*
X153186685Y-101075907D01*
X153023258Y-101043399D01*
X152869313Y-100979633D01*
X152730766Y-100887059D01*
X152612941Y-100769234D01*
X152520367Y-100630687D01*
X152456601Y-100476742D01*
X152424093Y-100313315D01*
X152424093Y-100146685D01*
X152456601Y-99983258D01*
X152520367Y-99829313D01*
X152612941Y-99690766D01*
X152730766Y-99572941D01*
X152869313Y-99480367D01*
X153023258Y-99416601D01*
X153186685Y-99384093D01*
X153353315Y-99384093D01*
X153516742Y-99416601D01*
G37*
G36*
X138276742Y-96876601D02*
G01*
X138430687Y-96940367D01*
X138569234Y-97032941D01*
X138687059Y-97150766D01*
X138779633Y-97289313D01*
X138843399Y-97443258D01*
X138875907Y-97606685D01*
X138875907Y-97773315D01*
X138843399Y-97936742D01*
X138779633Y-98090687D01*
X138687059Y-98229234D01*
X138569234Y-98347059D01*
X138430687Y-98439633D01*
X138276742Y-98503399D01*
X138113315Y-98535907D01*
X137946685Y-98535907D01*
X137783258Y-98503399D01*
X137629313Y-98439633D01*
X137490766Y-98347059D01*
X137372941Y-98229234D01*
X137280367Y-98090687D01*
X137216601Y-97936742D01*
X137184093Y-97773315D01*
X137184093Y-97606685D01*
X137216601Y-97443258D01*
X137280367Y-97289313D01*
X137372941Y-97150766D01*
X137490766Y-97032941D01*
X137629313Y-96940367D01*
X137783258Y-96876601D01*
X137946685Y-96844093D01*
X138113315Y-96844093D01*
X138276742Y-96876601D01*
G37*
G36*
X153516742Y-96876601D02*
G01*
X153670687Y-96940367D01*
X153809234Y-97032941D01*
X153927059Y-97150766D01*
X154019633Y-97289313D01*
X154083399Y-97443258D01*
X154115907Y-97606685D01*
X154115907Y-97773315D01*
X154083399Y-97936742D01*
X154019633Y-98090687D01*
X153927059Y-98229234D01*
X153809234Y-98347059D01*
X153670687Y-98439633D01*
X153516742Y-98503399D01*
X153353315Y-98535907D01*
X153186685Y-98535907D01*
X153023258Y-98503399D01*
X152869313Y-98439633D01*
X152730766Y-98347059D01*
X152612941Y-98229234D01*
X152520367Y-98090687D01*
X152456601Y-97936742D01*
X152424093Y-97773315D01*
X152424093Y-97606685D01*
X152456601Y-97443258D01*
X152520367Y-97289313D01*
X152612941Y-97150766D01*
X152730766Y-97032941D01*
X152869313Y-96940367D01*
X153023258Y-96876601D01*
X153186685Y-96844093D01*
X153353315Y-96844093D01*
X153516742Y-96876601D01*
G37*
G36*
X138276742Y-94336601D02*
G01*
X138430687Y-94400367D01*
X138569234Y-94492941D01*
X138687059Y-94610766D01*
X138779633Y-94749313D01*
X138843399Y-94903258D01*
X138875907Y-95066685D01*
X138875907Y-95233315D01*
X138843399Y-95396742D01*
X138779633Y-95550687D01*
X138687059Y-95689234D01*
X138569234Y-95807059D01*
X138430687Y-95899633D01*
X138276742Y-95963399D01*
X138113315Y-95995907D01*
X137946685Y-95995907D01*
X137783258Y-95963399D01*
X137629313Y-95899633D01*
X137490766Y-95807059D01*
X137372941Y-95689234D01*
X137280367Y-95550687D01*
X137216601Y-95396742D01*
X137184093Y-95233315D01*
X137184093Y-95066685D01*
X137216601Y-94903258D01*
X137280367Y-94749313D01*
X137372941Y-94610766D01*
X137490766Y-94492941D01*
X137629313Y-94400367D01*
X137783258Y-94336601D01*
X137946685Y-94304093D01*
X138113315Y-94304093D01*
X138276742Y-94336601D01*
G37*
G36*
X153516742Y-94336601D02*
G01*
X153670687Y-94400367D01*
X153809234Y-94492941D01*
X153927059Y-94610766D01*
X154019633Y-94749313D01*
X154083399Y-94903258D01*
X154115907Y-95066685D01*
X154115907Y-95233315D01*
X154083399Y-95396742D01*
X154019633Y-95550687D01*
X153927059Y-95689234D01*
X153809234Y-95807059D01*
X153670687Y-95899633D01*
X153516742Y-95963399D01*
X153353315Y-95995907D01*
X153186685Y-95995907D01*
X153023258Y-95963399D01*
X152869313Y-95899633D01*
X152730766Y-95807059D01*
X152612941Y-95689234D01*
X152520367Y-95550687D01*
X152456601Y-95396742D01*
X152424093Y-95233315D01*
X152424093Y-95066685D01*
X152456601Y-94903258D01*
X152520367Y-94749313D01*
X152612941Y-94610766D01*
X152730766Y-94492941D01*
X152869313Y-94400367D01*
X153023258Y-94336601D01*
X153186685Y-94304093D01*
X153353315Y-94304093D01*
X153516742Y-94336601D01*
G37*
G36*
X138276742Y-91796601D02*
G01*
X138430687Y-91860367D01*
X138569234Y-91952941D01*
X138687059Y-92070766D01*
X138779633Y-92209313D01*
X138843399Y-92363258D01*
X138875907Y-92526685D01*
X138875907Y-92693315D01*
X138843399Y-92856742D01*
X138779633Y-93010687D01*
X138687059Y-93149234D01*
X138569234Y-93267059D01*
X138430687Y-93359633D01*
X138276742Y-93423399D01*
X138113315Y-93455907D01*
X137946685Y-93455907D01*
X137783258Y-93423399D01*
X137629313Y-93359633D01*
X137490766Y-93267059D01*
X137372941Y-93149234D01*
X137280367Y-93010687D01*
X137216601Y-92856742D01*
X137184093Y-92693315D01*
X137184093Y-92526685D01*
X137216601Y-92363258D01*
X137280367Y-92209313D01*
X137372941Y-92070766D01*
X137490766Y-91952941D01*
X137629313Y-91860367D01*
X137783258Y-91796601D01*
X137946685Y-91764093D01*
X138113315Y-91764093D01*
X138276742Y-91796601D01*
G37*
G36*
X153516742Y-91796601D02*
G01*
X153670687Y-91860367D01*
X153809234Y-91952941D01*
X153927059Y-92070766D01*
X154019633Y-92209313D01*
X154083399Y-92363258D01*
X154115907Y-92526685D01*
X154115907Y-92693315D01*
X154083399Y-92856742D01*
X154019633Y-93010687D01*
X153927059Y-93149234D01*
X153809234Y-93267059D01*
X153670687Y-93359633D01*
X153516742Y-93423399D01*
X153353315Y-93455907D01*
X153186685Y-93455907D01*
X153023258Y-93423399D01*
X152869313Y-93359633D01*
X152730766Y-93267059D01*
X152612941Y-93149234D01*
X152520367Y-93010687D01*
X152456601Y-92856742D01*
X152424093Y-92693315D01*
X152424093Y-92526685D01*
X152456601Y-92363258D01*
X152520367Y-92209313D01*
X152612941Y-92070766D01*
X152730766Y-91952941D01*
X152869313Y-91860367D01*
X153023258Y-91796601D01*
X153186685Y-91764093D01*
X153353315Y-91764093D01*
X153516742Y-91796601D01*
G37*
G36*
X138276742Y-89256601D02*
G01*
X138430687Y-89320367D01*
X138569234Y-89412941D01*
X138687059Y-89530766D01*
X138779633Y-89669313D01*
X138843399Y-89823258D01*
X138875907Y-89986685D01*
X138875907Y-90153315D01*
X138843399Y-90316742D01*
X138779633Y-90470687D01*
X138687059Y-90609234D01*
X138569234Y-90727059D01*
X138430687Y-90819633D01*
X138276742Y-90883399D01*
X138113315Y-90915907D01*
X137946685Y-90915907D01*
X137783258Y-90883399D01*
X137629313Y-90819633D01*
X137490766Y-90727059D01*
X137372941Y-90609234D01*
X137280367Y-90470687D01*
X137216601Y-90316742D01*
X137184093Y-90153315D01*
X137184093Y-89986685D01*
X137216601Y-89823258D01*
X137280367Y-89669313D01*
X137372941Y-89530766D01*
X137490766Y-89412941D01*
X137629313Y-89320367D01*
X137783258Y-89256601D01*
X137946685Y-89224093D01*
X138113315Y-89224093D01*
X138276742Y-89256601D01*
G37*
G36*
X153516742Y-89256601D02*
G01*
X153670687Y-89320367D01*
X153809234Y-89412941D01*
X153927059Y-89530766D01*
X154019633Y-89669313D01*
X154083399Y-89823258D01*
X154115907Y-89986685D01*
X154115907Y-90153315D01*
X154083399Y-90316742D01*
X154019633Y-90470687D01*
X153927059Y-90609234D01*
X153809234Y-90727059D01*
X153670687Y-90819633D01*
X153516742Y-90883399D01*
X153353315Y-90915907D01*
X153186685Y-90915907D01*
X153023258Y-90883399D01*
X152869313Y-90819633D01*
X152730766Y-90727059D01*
X152612941Y-90609234D01*
X152520367Y-90470687D01*
X152456601Y-90316742D01*
X152424093Y-90153315D01*
X152424093Y-89986685D01*
X152456601Y-89823258D01*
X152520367Y-89669313D01*
X152612941Y-89530766D01*
X152730766Y-89412941D01*
X152869313Y-89320367D01*
X153023258Y-89256601D01*
X153186685Y-89224093D01*
X153353315Y-89224093D01*
X153516742Y-89256601D01*
G37*
G36*
X138276742Y-86716601D02*
G01*
X138430687Y-86780367D01*
X138569234Y-86872941D01*
X138687059Y-86990766D01*
X138779633Y-87129313D01*
X138843399Y-87283258D01*
X138875907Y-87446685D01*
X138875907Y-87613315D01*
X138843399Y-87776742D01*
X138779633Y-87930687D01*
X138687059Y-88069234D01*
X138569234Y-88187059D01*
X138430687Y-88279633D01*
X138276742Y-88343399D01*
X138113315Y-88375907D01*
X137946685Y-88375907D01*
X137783258Y-88343399D01*
X137629313Y-88279633D01*
X137490766Y-88187059D01*
X137372941Y-88069234D01*
X137280367Y-87930687D01*
X137216601Y-87776742D01*
X137184093Y-87613315D01*
X137184093Y-87446685D01*
X137216601Y-87283258D01*
X137280367Y-87129313D01*
X137372941Y-86990766D01*
X137490766Y-86872941D01*
X137629313Y-86780367D01*
X137783258Y-86716601D01*
X137946685Y-86684093D01*
X138113315Y-86684093D01*
X138276742Y-86716601D01*
G37*
G36*
X153516742Y-86716601D02*
G01*
X153670687Y-86780367D01*
X153809234Y-86872941D01*
X153927059Y-86990766D01*
X154019633Y-87129313D01*
X154083399Y-87283258D01*
X154115907Y-87446685D01*
X154115907Y-87613315D01*
X154083399Y-87776742D01*
X154019633Y-87930687D01*
X153927059Y-88069234D01*
X153809234Y-88187059D01*
X153670687Y-88279633D01*
X153516742Y-88343399D01*
X153353315Y-88375907D01*
X153186685Y-88375907D01*
X153023258Y-88343399D01*
X152869313Y-88279633D01*
X152730766Y-88187059D01*
X152612941Y-88069234D01*
X152520367Y-87930687D01*
X152456601Y-87776742D01*
X152424093Y-87613315D01*
X152424093Y-87446685D01*
X152456601Y-87283258D01*
X152520367Y-87129313D01*
X152612941Y-86990766D01*
X152730766Y-86872941D01*
X152869313Y-86780367D01*
X153023258Y-86716601D01*
X153186685Y-86684093D01*
X153353315Y-86684093D01*
X153516742Y-86716601D01*
G37*
G36*
X138880000Y-85840000D02*
G01*
X137180000Y-85840000D01*
X137180000Y-84140000D01*
X138880000Y-84140000D01*
X138880000Y-85840000D01*
G37*
G36*
X153516742Y-84176601D02*
G01*
X153670687Y-84240367D01*
X153809234Y-84332941D01*
X153927059Y-84450766D01*
X154019633Y-84589313D01*
X154083399Y-84743258D01*
X154115907Y-84906685D01*
X154115907Y-85073315D01*
X154083399Y-85236742D01*
X154019633Y-85390687D01*
X153927059Y-85529234D01*
X153809234Y-85647059D01*
X153670687Y-85739633D01*
X153516742Y-85803399D01*
X153353315Y-85835907D01*
X153186685Y-85835907D01*
X153023258Y-85803399D01*
X152869313Y-85739633D01*
X152730766Y-85647059D01*
X152612941Y-85529234D01*
X152520367Y-85390687D01*
X152456601Y-85236742D01*
X152424093Y-85073315D01*
X152424093Y-84906685D01*
X152456601Y-84743258D01*
X152520367Y-84589313D01*
X152612941Y-84450766D01*
X152730766Y-84332941D01*
X152869313Y-84240367D01*
X153023258Y-84176601D01*
X153186685Y-84144093D01*
X153353315Y-84144093D01*
X153516742Y-84176601D01*
G37*
G36*
X122520285Y-70263060D02*
G01*
X122701397Y-70338079D01*
X122864393Y-70446990D01*
X123003010Y-70585607D01*
X123111921Y-70748603D01*
X123186940Y-70929715D01*
X123225185Y-71121983D01*
X123225185Y-71318017D01*
X123186940Y-71510285D01*
X123111921Y-71691397D01*
X123003010Y-71854393D01*
X122864393Y-71993010D01*
X122701397Y-72101921D01*
X122520285Y-72176940D01*
X122328017Y-72215185D01*
X122131983Y-72215185D01*
X121939715Y-72176940D01*
X121758603Y-72101921D01*
X121595607Y-71993010D01*
X121456990Y-71854393D01*
X121348079Y-71691397D01*
X121273060Y-71510285D01*
X121234815Y-71318017D01*
X121234815Y-71121983D01*
X121273060Y-70929715D01*
X121348079Y-70748603D01*
X121456990Y-70585607D01*
X121595607Y-70446990D01*
X121758603Y-70338079D01*
X121939715Y-70263060D01*
X122131983Y-70224815D01*
X122328017Y-70224815D01*
X122520285Y-70263060D01*
G37*
G36*
X159520285Y-70263060D02*
G01*
X159701397Y-70338079D01*
X159864393Y-70446990D01*
X160003010Y-70585607D01*
X160111921Y-70748603D01*
X160186940Y-70929715D01*
X160225185Y-71121983D01*
X160225185Y-71318017D01*
X160186940Y-71510285D01*
X160111921Y-71691397D01*
X160003010Y-71854393D01*
X159864393Y-71993010D01*
X159701397Y-72101921D01*
X159520285Y-72176940D01*
X159328017Y-72215185D01*
X159131983Y-72215185D01*
X158939715Y-72176940D01*
X158758603Y-72101921D01*
X158595607Y-71993010D01*
X158456990Y-71854393D01*
X158348079Y-71691397D01*
X158273060Y-71510285D01*
X158234815Y-71318017D01*
X158234815Y-71121983D01*
X158273060Y-70929715D01*
X158348079Y-70748603D01*
X158456990Y-70585607D01*
X158595607Y-70446990D01*
X158758603Y-70338079D01*
X158939715Y-70263060D01*
X159131983Y-70224815D01*
X159328017Y-70224815D01*
X159520285Y-70263060D01*
G37*
G36*
X128450000Y-70822500D02*
G01*
X126950000Y-70822500D01*
X126950000Y-67322500D01*
X128450000Y-67322500D01*
X128450000Y-70822500D01*
G37*
G36*
X133850000Y-70822500D02*
G01*
X132350000Y-70822500D01*
X132350000Y-67322500D01*
X133850000Y-67322500D01*
X133850000Y-70822500D01*
G37*
M02*
