G04 #@! TF.GenerationSoftware,KiCad,Pcbnew,9.0.0*
G04 #@! TF.CreationDate,2025-10-14T13:06:04-06:00*
G04 #@! TF.ProjectId,main_board,6d61696e-5f62-46f6-9172-642e6b696361,rev?*
G04 #@! TF.SameCoordinates,Original*
G04 #@! TF.FileFunction,Soldermask,Top*
G04 #@! TF.FilePolarity,Negative*
%FSLAX46Y46*%
G04 Gerber Fmt 4.6, Leading zero omitted, Abs format (unit mm)*
G04 Created by KiCad (PCBNEW 9.0.0) date 2025-10-14 13:06:04*
%MOMM*%
%LPD*%
G01*
G04 APERTURE LIST*
G04 APERTURE END LIST*
G36*
X125631104Y-149882127D02*
G01*
X125704099Y-149930901D01*
X125752873Y-150003896D01*
X125770000Y-150090000D01*
X125770000Y-150590000D01*
X125752873Y-150676104D01*
X125704099Y-150749099D01*
X125631104Y-150797873D01*
X125545000Y-150815000D01*
X125095000Y-150815000D01*
X125008896Y-150797873D01*
X124935901Y-150749099D01*
X124887127Y-150676104D01*
X124870000Y-150590000D01*
X124870000Y-150090000D01*
X124887127Y-150003896D01*
X124935901Y-149930901D01*
X125008896Y-149882127D01*
X125095000Y-149865000D01*
X125545000Y-149865000D01*
X125631104Y-149882127D01*
G37*
G36*
X127181104Y-149882127D02*
G01*
X127254099Y-149930901D01*
X127302873Y-150003896D01*
X127320000Y-150090000D01*
X127320000Y-150590000D01*
X127302873Y-150676104D01*
X127254099Y-150749099D01*
X127181104Y-150797873D01*
X127095000Y-150815000D01*
X126645000Y-150815000D01*
X126558896Y-150797873D01*
X126485901Y-150749099D01*
X126437127Y-150676104D01*
X126420000Y-150590000D01*
X126420000Y-150090000D01*
X126437127Y-150003896D01*
X126485901Y-149930901D01*
X126558896Y-149882127D01*
X126645000Y-149865000D01*
X127095000Y-149865000D01*
X127181104Y-149882127D01*
G37*
G36*
X135336104Y-149617127D02*
G01*
X135409099Y-149665901D01*
X135457873Y-149738896D01*
X135475000Y-149825000D01*
X135475000Y-150275000D01*
X135457873Y-150361104D01*
X135409099Y-150434099D01*
X135336104Y-150482873D01*
X135250000Y-150500000D01*
X134750000Y-150500000D01*
X134663896Y-150482873D01*
X134590901Y-150434099D01*
X134542127Y-150361104D01*
X134525000Y-150275000D01*
X134525000Y-149825000D01*
X134542127Y-149738896D01*
X134590901Y-149665901D01*
X134663896Y-149617127D01*
X134750000Y-149600000D01*
X135250000Y-149600000D01*
X135336104Y-149617127D01*
G37*
G36*
X139652764Y-148651577D02*
G01*
X139779271Y-148703978D01*
X139893124Y-148780052D01*
X139989948Y-148876876D01*
X140066022Y-148990729D01*
X140118423Y-149117236D01*
X140145137Y-149251535D01*
X140145137Y-149388465D01*
X140118423Y-149522764D01*
X140066022Y-149649271D01*
X139989948Y-149763124D01*
X139893124Y-149859948D01*
X139779271Y-149936022D01*
X139652764Y-149988423D01*
X139518465Y-150015137D01*
X139381535Y-150015137D01*
X139247236Y-149988423D01*
X139120729Y-149936022D01*
X139006876Y-149859948D01*
X138910052Y-149763124D01*
X138833978Y-149649271D01*
X138781577Y-149522764D01*
X138754863Y-149388465D01*
X138754863Y-149251535D01*
X138781577Y-149117236D01*
X138833978Y-148990729D01*
X138910052Y-148876876D01*
X139006876Y-148780052D01*
X139120729Y-148703978D01*
X139247236Y-148651577D01*
X139381535Y-148624863D01*
X139518465Y-148624863D01*
X139652764Y-148651577D01*
G37*
G36*
X142192764Y-148651577D02*
G01*
X142319271Y-148703978D01*
X142433124Y-148780052D01*
X142529948Y-148876876D01*
X142606022Y-148990729D01*
X142658423Y-149117236D01*
X142685137Y-149251535D01*
X142685137Y-149388465D01*
X142658423Y-149522764D01*
X142606022Y-149649271D01*
X142529948Y-149763124D01*
X142433124Y-149859948D01*
X142319271Y-149936022D01*
X142192764Y-149988423D01*
X142058465Y-150015137D01*
X141921535Y-150015137D01*
X141787236Y-149988423D01*
X141660729Y-149936022D01*
X141546876Y-149859948D01*
X141450052Y-149763124D01*
X141373978Y-149649271D01*
X141321577Y-149522764D01*
X141294863Y-149388465D01*
X141294863Y-149251535D01*
X141321577Y-149117236D01*
X141373978Y-148990729D01*
X141450052Y-148876876D01*
X141546876Y-148780052D01*
X141660729Y-148703978D01*
X141787236Y-148651577D01*
X141921535Y-148624863D01*
X142058465Y-148624863D01*
X142192764Y-148651577D01*
G37*
G36*
X144732764Y-148651577D02*
G01*
X144859271Y-148703978D01*
X144973124Y-148780052D01*
X145069948Y-148876876D01*
X145146022Y-148990729D01*
X145198423Y-149117236D01*
X145225137Y-149251535D01*
X145225137Y-149388465D01*
X145198423Y-149522764D01*
X145146022Y-149649271D01*
X145069948Y-149763124D01*
X144973124Y-149859948D01*
X144859271Y-149936022D01*
X144732764Y-149988423D01*
X144598465Y-150015137D01*
X144461535Y-150015137D01*
X144327236Y-149988423D01*
X144200729Y-149936022D01*
X144086876Y-149859948D01*
X143990052Y-149763124D01*
X143913978Y-149649271D01*
X143861577Y-149522764D01*
X143834863Y-149388465D01*
X143834863Y-149251535D01*
X143861577Y-149117236D01*
X143913978Y-148990729D01*
X143990052Y-148876876D01*
X144086876Y-148780052D01*
X144200729Y-148703978D01*
X144327236Y-148651577D01*
X144461535Y-148624863D01*
X144598465Y-148624863D01*
X144732764Y-148651577D01*
G37*
G36*
X147272764Y-148651577D02*
G01*
X147399271Y-148703978D01*
X147513124Y-148780052D01*
X147609948Y-148876876D01*
X147686022Y-148990729D01*
X147738423Y-149117236D01*
X147765137Y-149251535D01*
X147765137Y-149388465D01*
X147738423Y-149522764D01*
X147686022Y-149649271D01*
X147609948Y-149763124D01*
X147513124Y-149859948D01*
X147399271Y-149936022D01*
X147272764Y-149988423D01*
X147138465Y-150015137D01*
X147001535Y-150015137D01*
X146867236Y-149988423D01*
X146740729Y-149936022D01*
X146626876Y-149859948D01*
X146530052Y-149763124D01*
X146453978Y-149649271D01*
X146401577Y-149522764D01*
X146374863Y-149388465D01*
X146374863Y-149251535D01*
X146401577Y-149117236D01*
X146453978Y-148990729D01*
X146530052Y-148876876D01*
X146626876Y-148780052D01*
X146740729Y-148703978D01*
X146867236Y-148651577D01*
X147001535Y-148624863D01*
X147138465Y-148624863D01*
X147272764Y-148651577D01*
G37*
G36*
X151166104Y-148852127D02*
G01*
X151239099Y-148900901D01*
X151287873Y-148973896D01*
X151305000Y-149060000D01*
X151305000Y-149560000D01*
X151287873Y-149646104D01*
X151239099Y-149719099D01*
X151166104Y-149767873D01*
X151080000Y-149785000D01*
X150630000Y-149785000D01*
X150543896Y-149767873D01*
X150470901Y-149719099D01*
X150422127Y-149646104D01*
X150405000Y-149560000D01*
X150405000Y-149060000D01*
X150422127Y-148973896D01*
X150470901Y-148900901D01*
X150543896Y-148852127D01*
X150630000Y-148835000D01*
X151080000Y-148835000D01*
X151166104Y-148852127D01*
G37*
G36*
X152716104Y-148852127D02*
G01*
X152789099Y-148900901D01*
X152837873Y-148973896D01*
X152855000Y-149060000D01*
X152855000Y-149560000D01*
X152837873Y-149646104D01*
X152789099Y-149719099D01*
X152716104Y-149767873D01*
X152630000Y-149785000D01*
X152180000Y-149785000D01*
X152093896Y-149767873D01*
X152020901Y-149719099D01*
X151972127Y-149646104D01*
X151955000Y-149560000D01*
X151955000Y-149060000D01*
X151972127Y-148973896D01*
X152020901Y-148900901D01*
X152093896Y-148852127D01*
X152180000Y-148835000D01*
X152630000Y-148835000D01*
X152716104Y-148852127D01*
G37*
G36*
X135336104Y-148067127D02*
G01*
X135409099Y-148115901D01*
X135457873Y-148188896D01*
X135475000Y-148275000D01*
X135475000Y-148725000D01*
X135457873Y-148811104D01*
X135409099Y-148884099D01*
X135336104Y-148932873D01*
X135250000Y-148950000D01*
X134750000Y-148950000D01*
X134663896Y-148932873D01*
X134590901Y-148884099D01*
X134542127Y-148811104D01*
X134525000Y-148725000D01*
X134525000Y-148275000D01*
X134542127Y-148188896D01*
X134590901Y-148115901D01*
X134663896Y-148067127D01*
X134750000Y-148050000D01*
X135250000Y-148050000D01*
X135336104Y-148067127D01*
G37*
G36*
X125849100Y-148404001D02*
G01*
X124744200Y-148404001D01*
X124744200Y-147896001D01*
X125849100Y-147896001D01*
X125849100Y-148404001D01*
G37*
G36*
X128655800Y-148404001D02*
G01*
X127550900Y-148404001D01*
X127550900Y-147896001D01*
X128655800Y-147896001D01*
X128655800Y-148404001D01*
G37*
G36*
X119686104Y-147457127D02*
G01*
X119759099Y-147505901D01*
X119807873Y-147578896D01*
X119825000Y-147665000D01*
X119825000Y-148115000D01*
X119807873Y-148201104D01*
X119759099Y-148274099D01*
X119686104Y-148322873D01*
X119600000Y-148340000D01*
X119100000Y-148340000D01*
X119013896Y-148322873D01*
X118940901Y-148274099D01*
X118892127Y-148201104D01*
X118875000Y-148115000D01*
X118875000Y-147665000D01*
X118892127Y-147578896D01*
X118940901Y-147505901D01*
X119013896Y-147457127D01*
X119100000Y-147440000D01*
X119600000Y-147440000D01*
X119686104Y-147457127D01*
G37*
G36*
X122456104Y-147457127D02*
G01*
X122529099Y-147505901D01*
X122577873Y-147578896D01*
X122595000Y-147665000D01*
X122595000Y-148115000D01*
X122577873Y-148201104D01*
X122529099Y-148274099D01*
X122456104Y-148322873D01*
X122370000Y-148340000D01*
X121870000Y-148340000D01*
X121783896Y-148322873D01*
X121710901Y-148274099D01*
X121662127Y-148201104D01*
X121645000Y-148115000D01*
X121645000Y-147665000D01*
X121662127Y-147578896D01*
X121710901Y-147505901D01*
X121783896Y-147457127D01*
X121870000Y-147440000D01*
X122370000Y-147440000D01*
X122456104Y-147457127D01*
G37*
G36*
X130636104Y-147142127D02*
G01*
X130709099Y-147190901D01*
X130757873Y-147263896D01*
X130775000Y-147350000D01*
X130775000Y-147800000D01*
X130757873Y-147886104D01*
X130709099Y-147959099D01*
X130636104Y-148007873D01*
X130550000Y-148025000D01*
X130050000Y-148025000D01*
X129963896Y-148007873D01*
X129890901Y-147959099D01*
X129842127Y-147886104D01*
X129825000Y-147800000D01*
X129825000Y-147350000D01*
X129842127Y-147263896D01*
X129890901Y-147190901D01*
X129963896Y-147142127D01*
X130050000Y-147125000D01*
X130550000Y-147125000D01*
X130636104Y-147142127D01*
G37*
G36*
X125849100Y-147454000D02*
G01*
X124744200Y-147454000D01*
X124744200Y-146946000D01*
X125849100Y-146946000D01*
X125849100Y-147454000D01*
G37*
G36*
X128655800Y-147454000D02*
G01*
X127550900Y-147454000D01*
X127550900Y-146946000D01*
X128655800Y-146946000D01*
X128655800Y-147454000D01*
G37*
G36*
X119686104Y-145907127D02*
G01*
X119759099Y-145955901D01*
X119807873Y-146028896D01*
X119825000Y-146115000D01*
X119825000Y-146565000D01*
X119807873Y-146651104D01*
X119759099Y-146724099D01*
X119686104Y-146772873D01*
X119600000Y-146790000D01*
X119100000Y-146790000D01*
X119013896Y-146772873D01*
X118940901Y-146724099D01*
X118892127Y-146651104D01*
X118875000Y-146565000D01*
X118875000Y-146115000D01*
X118892127Y-146028896D01*
X118940901Y-145955901D01*
X119013896Y-145907127D01*
X119100000Y-145890000D01*
X119600000Y-145890000D01*
X119686104Y-145907127D01*
G37*
G36*
X122456104Y-145907127D02*
G01*
X122529099Y-145955901D01*
X122577873Y-146028896D01*
X122595000Y-146115000D01*
X122595000Y-146565000D01*
X122577873Y-146651104D01*
X122529099Y-146724099D01*
X122456104Y-146772873D01*
X122370000Y-146790000D01*
X121870000Y-146790000D01*
X121783896Y-146772873D01*
X121710901Y-146724099D01*
X121662127Y-146651104D01*
X121645000Y-146565000D01*
X121645000Y-146115000D01*
X121662127Y-146028896D01*
X121710901Y-145955901D01*
X121783896Y-145907127D01*
X121870000Y-145890000D01*
X122370000Y-145890000D01*
X122456104Y-145907127D01*
G37*
G36*
X125849100Y-146503999D02*
G01*
X124744200Y-146503999D01*
X124744200Y-145995999D01*
X125849100Y-145995999D01*
X125849100Y-146503999D01*
G37*
G36*
X128655800Y-146503999D02*
G01*
X127550900Y-146503999D01*
X127550900Y-145995999D01*
X128655800Y-145995999D01*
X128655800Y-146503999D01*
G37*
G36*
X130636104Y-145592127D02*
G01*
X130709099Y-145640901D01*
X130757873Y-145713896D01*
X130775000Y-145800000D01*
X130775000Y-146250000D01*
X130757873Y-146336104D01*
X130709099Y-146409099D01*
X130636104Y-146457873D01*
X130550000Y-146475000D01*
X130050000Y-146475000D01*
X129963896Y-146457873D01*
X129890901Y-146409099D01*
X129842127Y-146336104D01*
X129825000Y-146250000D01*
X129825000Y-145800000D01*
X129842127Y-145713896D01*
X129890901Y-145640901D01*
X129963896Y-145592127D01*
X130050000Y-145575000D01*
X130550000Y-145575000D01*
X130636104Y-145592127D01*
G37*
G36*
X126564962Y-143491651D02*
G01*
X126635930Y-143539070D01*
X126683349Y-143610038D01*
X126700000Y-143693750D01*
X126700000Y-144206250D01*
X126683349Y-144289962D01*
X126635930Y-144360930D01*
X126564962Y-144408349D01*
X126481250Y-144425000D01*
X126043750Y-144425000D01*
X125960038Y-144408349D01*
X125889070Y-144360930D01*
X125841651Y-144289962D01*
X125825000Y-144206250D01*
X125825000Y-143693750D01*
X125841651Y-143610038D01*
X125889070Y-143539070D01*
X125960038Y-143491651D01*
X126043750Y-143475000D01*
X126481250Y-143475000D01*
X126564962Y-143491651D01*
G37*
G36*
X128139962Y-143491651D02*
G01*
X128210930Y-143539070D01*
X128258349Y-143610038D01*
X128275000Y-143693750D01*
X128275000Y-144206250D01*
X128258349Y-144289962D01*
X128210930Y-144360930D01*
X128139962Y-144408349D01*
X128056250Y-144425000D01*
X127618750Y-144425000D01*
X127535038Y-144408349D01*
X127464070Y-144360930D01*
X127416651Y-144289962D01*
X127400000Y-144206250D01*
X127400000Y-143693750D01*
X127416651Y-143610038D01*
X127464070Y-143539070D01*
X127535038Y-143491651D01*
X127618750Y-143475000D01*
X128056250Y-143475000D01*
X128139962Y-143491651D01*
G37*
G36*
X154120000Y-144260000D02*
G01*
X152420000Y-144260000D01*
X152420000Y-142560000D01*
X154120000Y-142560000D01*
X154120000Y-144260000D01*
G37*
G36*
X138276742Y-142596601D02*
G01*
X138430687Y-142660367D01*
X138569234Y-142752941D01*
X138687059Y-142870766D01*
X138779633Y-143009313D01*
X138843399Y-143163258D01*
X138875907Y-143326685D01*
X138875907Y-143493315D01*
X138843399Y-143656742D01*
X138779633Y-143810687D01*
X138687059Y-143949234D01*
X138569234Y-144067059D01*
X138430687Y-144159633D01*
X138276742Y-144223399D01*
X138113315Y-144255907D01*
X137946685Y-144255907D01*
X137783258Y-144223399D01*
X137629313Y-144159633D01*
X137490766Y-144067059D01*
X137372941Y-143949234D01*
X137280367Y-143810687D01*
X137216601Y-143656742D01*
X137184093Y-143493315D01*
X137184093Y-143326685D01*
X137216601Y-143163258D01*
X137280367Y-143009313D01*
X137372941Y-142870766D01*
X137490766Y-142752941D01*
X137629313Y-142660367D01*
X137783258Y-142596601D01*
X137946685Y-142564093D01*
X138113315Y-142564093D01*
X138276742Y-142596601D01*
G37*
G36*
X122520285Y-141263060D02*
G01*
X122701397Y-141338079D01*
X122864393Y-141446990D01*
X123003010Y-141585607D01*
X123111921Y-141748603D01*
X123186940Y-141929715D01*
X123225185Y-142121983D01*
X123225185Y-142318017D01*
X123186940Y-142510285D01*
X123111921Y-142691397D01*
X123003010Y-142854393D01*
X122864393Y-142993010D01*
X122701397Y-143101921D01*
X122520285Y-143176940D01*
X122328017Y-143215185D01*
X122131983Y-143215185D01*
X121939715Y-143176940D01*
X121758603Y-143101921D01*
X121595607Y-142993010D01*
X121456990Y-142854393D01*
X121348079Y-142691397D01*
X121273060Y-142510285D01*
X121234815Y-142318017D01*
X121234815Y-142121983D01*
X121273060Y-141929715D01*
X121348079Y-141748603D01*
X121456990Y-141585607D01*
X121595607Y-141446990D01*
X121758603Y-141338079D01*
X121939715Y-141263060D01*
X122131983Y-141224815D01*
X122328017Y-141224815D01*
X122520285Y-141263060D01*
G37*
G36*
X159520285Y-141263060D02*
G01*
X159701397Y-141338079D01*
X159864393Y-141446990D01*
X160003010Y-141585607D01*
X160111921Y-141748603D01*
X160186940Y-141929715D01*
X160225185Y-142121983D01*
X160225185Y-142318017D01*
X160186940Y-142510285D01*
X160111921Y-142691397D01*
X160003010Y-142854393D01*
X159864393Y-142993010D01*
X159701397Y-143101921D01*
X159520285Y-143176940D01*
X159328017Y-143215185D01*
X159131983Y-143215185D01*
X158939715Y-143176940D01*
X158758603Y-143101921D01*
X158595607Y-142993010D01*
X158456990Y-142854393D01*
X158348079Y-142691397D01*
X158273060Y-142510285D01*
X158234815Y-142318017D01*
X158234815Y-142121983D01*
X158273060Y-141929715D01*
X158348079Y-141748603D01*
X158456990Y-141585607D01*
X158595607Y-141446990D01*
X158758603Y-141338079D01*
X158939715Y-141263060D01*
X159131983Y-141224815D01*
X159328017Y-141224815D01*
X159520285Y-141263060D01*
G37*
G36*
X138276742Y-140056601D02*
G01*
X138430687Y-140120367D01*
X138569234Y-140212941D01*
X138687059Y-140330766D01*
X138779633Y-140469313D01*
X138843399Y-140623258D01*
X138875907Y-140786685D01*
X138875907Y-140953315D01*
X138843399Y-141116742D01*
X138779633Y-141270687D01*
X138687059Y-141409234D01*
X138569234Y-141527059D01*
X138430687Y-141619633D01*
X138276742Y-141683399D01*
X138113315Y-141715907D01*
X137946685Y-141715907D01*
X137783258Y-141683399D01*
X137629313Y-141619633D01*
X137490766Y-141527059D01*
X137372941Y-141409234D01*
X137280367Y-141270687D01*
X137216601Y-141116742D01*
X137184093Y-140953315D01*
X137184093Y-140786685D01*
X137216601Y-140623258D01*
X137280367Y-140469313D01*
X137372941Y-140330766D01*
X137490766Y-140212941D01*
X137629313Y-140120367D01*
X137783258Y-140056601D01*
X137946685Y-140024093D01*
X138113315Y-140024093D01*
X138276742Y-140056601D01*
G37*
G36*
X153516742Y-140056601D02*
G01*
X153670687Y-140120367D01*
X153809234Y-140212941D01*
X153927059Y-140330766D01*
X154019633Y-140469313D01*
X154083399Y-140623258D01*
X154115907Y-140786685D01*
X154115907Y-140953315D01*
X154083399Y-141116742D01*
X154019633Y-141270687D01*
X153927059Y-141409234D01*
X153809234Y-141527059D01*
X153670687Y-141619633D01*
X153516742Y-141683399D01*
X153353315Y-141715907D01*
X153186685Y-141715907D01*
X153023258Y-141683399D01*
X152869313Y-141619633D01*
X152730766Y-141527059D01*
X152612941Y-141409234D01*
X152520367Y-141270687D01*
X152456601Y-141116742D01*
X152424093Y-140953315D01*
X152424093Y-140786685D01*
X152456601Y-140623258D01*
X152520367Y-140469313D01*
X152612941Y-140330766D01*
X152730766Y-140212941D01*
X152869313Y-140120367D01*
X153023258Y-140056601D01*
X153186685Y-140024093D01*
X153353315Y-140024093D01*
X153516742Y-140056601D01*
G37*
G36*
X138276742Y-137516601D02*
G01*
X138430687Y-137580367D01*
X138569234Y-137672941D01*
X138687059Y-137790766D01*
X138779633Y-137929313D01*
X138843399Y-138083258D01*
X138875907Y-138246685D01*
X138875907Y-138413315D01*
X138843399Y-138576742D01*
X138779633Y-138730687D01*
X138687059Y-138869234D01*
X138569234Y-138987059D01*
X138430687Y-139079633D01*
X138276742Y-139143399D01*
X138113315Y-139175907D01*
X137946685Y-139175907D01*
X137783258Y-139143399D01*
X137629313Y-139079633D01*
X137490766Y-138987059D01*
X137372941Y-138869234D01*
X137280367Y-138730687D01*
X137216601Y-138576742D01*
X137184093Y-138413315D01*
X137184093Y-138246685D01*
X137216601Y-138083258D01*
X137280367Y-137929313D01*
X137372941Y-137790766D01*
X137490766Y-137672941D01*
X137629313Y-137580367D01*
X137783258Y-137516601D01*
X137946685Y-137484093D01*
X138113315Y-137484093D01*
X138276742Y-137516601D01*
G37*
G36*
X153516742Y-137516601D02*
G01*
X153670687Y-137580367D01*
X153809234Y-137672941D01*
X153927059Y-137790766D01*
X154019633Y-137929313D01*
X154083399Y-138083258D01*
X154115907Y-138246685D01*
X154115907Y-138413315D01*
X154083399Y-138576742D01*
X154019633Y-138730687D01*
X153927059Y-138869234D01*
X153809234Y-138987059D01*
X153670687Y-139079633D01*
X153516742Y-139143399D01*
X153353315Y-139175907D01*
X153186685Y-139175907D01*
X153023258Y-139143399D01*
X152869313Y-139079633D01*
X152730766Y-138987059D01*
X152612941Y-138869234D01*
X152520367Y-138730687D01*
X152456601Y-138576742D01*
X152424093Y-138413315D01*
X152424093Y-138246685D01*
X152456601Y-138083258D01*
X152520367Y-137929313D01*
X152612941Y-137790766D01*
X152730766Y-137672941D01*
X152869313Y-137580367D01*
X153023258Y-137516601D01*
X153186685Y-137484093D01*
X153353315Y-137484093D01*
X153516742Y-137516601D01*
G37*
G36*
X125882401Y-138612600D02*
G01*
X125577601Y-138612600D01*
X125577601Y-137533100D01*
X125882401Y-137533100D01*
X125882401Y-138612600D01*
G37*
G36*
X126532400Y-138612600D02*
G01*
X126227600Y-138612600D01*
X126227600Y-137533100D01*
X126532400Y-137533100D01*
X126532400Y-138612600D01*
G37*
G36*
X127182399Y-138612600D02*
G01*
X126877599Y-138612600D01*
X126877599Y-137533100D01*
X127182399Y-137533100D01*
X127182399Y-138612600D01*
G37*
G36*
X122466104Y-136552127D02*
G01*
X122539099Y-136600901D01*
X122587873Y-136673896D01*
X122605000Y-136760000D01*
X122605000Y-137260000D01*
X122587873Y-137346104D01*
X122539099Y-137419099D01*
X122466104Y-137467873D01*
X122380000Y-137485000D01*
X121930000Y-137485000D01*
X121843896Y-137467873D01*
X121770901Y-137419099D01*
X121722127Y-137346104D01*
X121705000Y-137260000D01*
X121705000Y-136760000D01*
X121722127Y-136673896D01*
X121770901Y-136600901D01*
X121843896Y-136552127D01*
X121930000Y-136535000D01*
X122380000Y-136535000D01*
X122466104Y-136552127D01*
G37*
G36*
X124016104Y-136552127D02*
G01*
X124089099Y-136600901D01*
X124137873Y-136673896D01*
X124155000Y-136760000D01*
X124155000Y-137260000D01*
X124137873Y-137346104D01*
X124089099Y-137419099D01*
X124016104Y-137467873D01*
X123930000Y-137485000D01*
X123480000Y-137485000D01*
X123393896Y-137467873D01*
X123320901Y-137419099D01*
X123272127Y-137346104D01*
X123255000Y-137260000D01*
X123255000Y-136760000D01*
X123272127Y-136673896D01*
X123320901Y-136600901D01*
X123393896Y-136552127D01*
X123480000Y-136535000D01*
X123930000Y-136535000D01*
X124016104Y-136552127D01*
G37*
G36*
X138276742Y-134976601D02*
G01*
X138430687Y-135040367D01*
X138569234Y-135132941D01*
X138687059Y-135250766D01*
X138779633Y-135389313D01*
X138843399Y-135543258D01*
X138875907Y-135706685D01*
X138875907Y-135873315D01*
X138843399Y-136036742D01*
X138779633Y-136190687D01*
X138687059Y-136329234D01*
X138569234Y-136447059D01*
X138430687Y-136539633D01*
X138276742Y-136603399D01*
X138113315Y-136635907D01*
X137946685Y-136635907D01*
X137783258Y-136603399D01*
X137629313Y-136539633D01*
X137490766Y-136447059D01*
X137372941Y-136329234D01*
X137280367Y-136190687D01*
X137216601Y-136036742D01*
X137184093Y-135873315D01*
X137184093Y-135706685D01*
X137216601Y-135543258D01*
X137280367Y-135389313D01*
X137372941Y-135250766D01*
X137490766Y-135132941D01*
X137629313Y-135040367D01*
X137783258Y-134976601D01*
X137946685Y-134944093D01*
X138113315Y-134944093D01*
X138276742Y-134976601D01*
G37*
G36*
X153516742Y-134976601D02*
G01*
X153670687Y-135040367D01*
X153809234Y-135132941D01*
X153927059Y-135250766D01*
X154019633Y-135389313D01*
X154083399Y-135543258D01*
X154115907Y-135706685D01*
X154115907Y-135873315D01*
X154083399Y-136036742D01*
X154019633Y-136190687D01*
X153927059Y-136329234D01*
X153809234Y-136447059D01*
X153670687Y-136539633D01*
X153516742Y-136603399D01*
X153353315Y-136635907D01*
X153186685Y-136635907D01*
X153023258Y-136603399D01*
X152869313Y-136539633D01*
X152730766Y-136447059D01*
X152612941Y-136329234D01*
X152520367Y-136190687D01*
X152456601Y-136036742D01*
X152424093Y-135873315D01*
X152424093Y-135706685D01*
X152456601Y-135543258D01*
X152520367Y-135389313D01*
X152612941Y-135250766D01*
X152730766Y-135132941D01*
X152869313Y-135040367D01*
X153023258Y-134976601D01*
X153186685Y-134944093D01*
X153353315Y-134944093D01*
X153516742Y-134976601D01*
G37*
G36*
X159932764Y-135181577D02*
G01*
X160059271Y-135233978D01*
X160173124Y-135310052D01*
X160269948Y-135406876D01*
X160346022Y-135520729D01*
X160398423Y-135647236D01*
X160425137Y-135781535D01*
X160425137Y-135918465D01*
X160398423Y-136052764D01*
X160346022Y-136179271D01*
X160269948Y-136293124D01*
X160173124Y-136389948D01*
X160059271Y-136466022D01*
X159932764Y-136518423D01*
X159798465Y-136545137D01*
X159661535Y-136545137D01*
X159527236Y-136518423D01*
X159400729Y-136466022D01*
X159286876Y-136389948D01*
X159190052Y-136293124D01*
X159113978Y-136179271D01*
X159061577Y-136052764D01*
X159034863Y-135918465D01*
X159034863Y-135781535D01*
X159061577Y-135647236D01*
X159113978Y-135520729D01*
X159190052Y-135406876D01*
X159286876Y-135310052D01*
X159400729Y-135233978D01*
X159527236Y-135181577D01*
X159661535Y-135154863D01*
X159798465Y-135154863D01*
X159932764Y-135181577D01*
G37*
G36*
X125882401Y-136186900D02*
G01*
X125577601Y-136186900D01*
X125577601Y-135107400D01*
X125882401Y-135107400D01*
X125882401Y-136186900D01*
G37*
G36*
X127182399Y-136186900D02*
G01*
X126877599Y-136186900D01*
X126877599Y-135107400D01*
X127182399Y-135107400D01*
X127182399Y-136186900D01*
G37*
G36*
X138276742Y-132436601D02*
G01*
X138430687Y-132500367D01*
X138569234Y-132592941D01*
X138687059Y-132710766D01*
X138779633Y-132849313D01*
X138843399Y-133003258D01*
X138875907Y-133166685D01*
X138875907Y-133333315D01*
X138843399Y-133496742D01*
X138779633Y-133650687D01*
X138687059Y-133789234D01*
X138569234Y-133907059D01*
X138430687Y-133999633D01*
X138276742Y-134063399D01*
X138113315Y-134095907D01*
X137946685Y-134095907D01*
X137783258Y-134063399D01*
X137629313Y-133999633D01*
X137490766Y-133907059D01*
X137372941Y-133789234D01*
X137280367Y-133650687D01*
X137216601Y-133496742D01*
X137184093Y-133333315D01*
X137184093Y-133166685D01*
X137216601Y-133003258D01*
X137280367Y-132849313D01*
X137372941Y-132710766D01*
X137490766Y-132592941D01*
X137629313Y-132500367D01*
X137783258Y-132436601D01*
X137946685Y-132404093D01*
X138113315Y-132404093D01*
X138276742Y-132436601D01*
G37*
G36*
X153516742Y-132436601D02*
G01*
X153670687Y-132500367D01*
X153809234Y-132592941D01*
X153927059Y-132710766D01*
X154019633Y-132849313D01*
X154083399Y-133003258D01*
X154115907Y-133166685D01*
X154115907Y-133333315D01*
X154083399Y-133496742D01*
X154019633Y-133650687D01*
X153927059Y-133789234D01*
X153809234Y-133907059D01*
X153670687Y-133999633D01*
X153516742Y-134063399D01*
X153353315Y-134095907D01*
X153186685Y-134095907D01*
X153023258Y-134063399D01*
X152869313Y-133999633D01*
X152730766Y-133907059D01*
X152612941Y-133789234D01*
X152520367Y-133650687D01*
X152456601Y-133496742D01*
X152424093Y-133333315D01*
X152424093Y-133166685D01*
X152456601Y-133003258D01*
X152520367Y-132849313D01*
X152612941Y-132710766D01*
X152730766Y-132592941D01*
X152869313Y-132500367D01*
X153023258Y-132436601D01*
X153186685Y-132404093D01*
X153353315Y-132404093D01*
X153516742Y-132436601D01*
G37*
G36*
X159932764Y-132641577D02*
G01*
X160059271Y-132693978D01*
X160173124Y-132770052D01*
X160269948Y-132866876D01*
X160346022Y-132980729D01*
X160398423Y-133107236D01*
X160425137Y-133241535D01*
X160425137Y-133378465D01*
X160398423Y-133512764D01*
X160346022Y-133639271D01*
X160269948Y-133753124D01*
X160173124Y-133849948D01*
X160059271Y-133926022D01*
X159932764Y-133978423D01*
X159798465Y-134005137D01*
X159661535Y-134005137D01*
X159527236Y-133978423D01*
X159400729Y-133926022D01*
X159286876Y-133849948D01*
X159190052Y-133753124D01*
X159113978Y-133639271D01*
X159061577Y-133512764D01*
X159034863Y-133378465D01*
X159034863Y-133241535D01*
X159061577Y-133107236D01*
X159113978Y-132980729D01*
X159190052Y-132866876D01*
X159286876Y-132770052D01*
X159400729Y-132693978D01*
X159527236Y-132641577D01*
X159661535Y-132614863D01*
X159798465Y-132614863D01*
X159932764Y-132641577D01*
G37*
G36*
X122591104Y-132952127D02*
G01*
X122664099Y-133000901D01*
X122712873Y-133073896D01*
X122730000Y-133160000D01*
X122730000Y-133660000D01*
X122712873Y-133746104D01*
X122664099Y-133819099D01*
X122591104Y-133867873D01*
X122505000Y-133885000D01*
X122055000Y-133885000D01*
X121968896Y-133867873D01*
X121895901Y-133819099D01*
X121847127Y-133746104D01*
X121830000Y-133660000D01*
X121830000Y-133160000D01*
X121847127Y-133073896D01*
X121895901Y-133000901D01*
X121968896Y-132952127D01*
X122055000Y-132935000D01*
X122505000Y-132935000D01*
X122591104Y-132952127D01*
G37*
G36*
X124141104Y-132952127D02*
G01*
X124214099Y-133000901D01*
X124262873Y-133073896D01*
X124280000Y-133160000D01*
X124280000Y-133660000D01*
X124262873Y-133746104D01*
X124214099Y-133819099D01*
X124141104Y-133867873D01*
X124055000Y-133885000D01*
X123605000Y-133885000D01*
X123518896Y-133867873D01*
X123445901Y-133819099D01*
X123397127Y-133746104D01*
X123380000Y-133660000D01*
X123380000Y-133160000D01*
X123397127Y-133073896D01*
X123445901Y-133000901D01*
X123518896Y-132952127D01*
X123605000Y-132935000D01*
X124055000Y-132935000D01*
X124141104Y-132952127D01*
G37*
G36*
X134051537Y-132940224D02*
G01*
X134116421Y-132983579D01*
X134159776Y-133048463D01*
X134175000Y-133125000D01*
X134175000Y-133675000D01*
X134159776Y-133751537D01*
X134116421Y-133816421D01*
X134051537Y-133859776D01*
X133975000Y-133875000D01*
X133575000Y-133875000D01*
X133498463Y-133859776D01*
X133433579Y-133816421D01*
X133390224Y-133751537D01*
X133375000Y-133675000D01*
X133375000Y-133125000D01*
X133390224Y-133048463D01*
X133433579Y-132983579D01*
X133498463Y-132940224D01*
X133575000Y-132925000D01*
X133975000Y-132925000D01*
X134051537Y-132940224D01*
G37*
G36*
X135701537Y-132940224D02*
G01*
X135766421Y-132983579D01*
X135809776Y-133048463D01*
X135825000Y-133125000D01*
X135825000Y-133675000D01*
X135809776Y-133751537D01*
X135766421Y-133816421D01*
X135701537Y-133859776D01*
X135625000Y-133875000D01*
X135225000Y-133875000D01*
X135148463Y-133859776D01*
X135083579Y-133816421D01*
X135040224Y-133751537D01*
X135025000Y-133675000D01*
X135025000Y-133125000D01*
X135040224Y-133048463D01*
X135083579Y-132983579D01*
X135148463Y-132940224D01*
X135225000Y-132925000D01*
X135625000Y-132925000D01*
X135701537Y-132940224D01*
G37*
G36*
X138276742Y-129896601D02*
G01*
X138430687Y-129960367D01*
X138569234Y-130052941D01*
X138687059Y-130170766D01*
X138779633Y-130309313D01*
X138843399Y-130463258D01*
X138875907Y-130626685D01*
X138875907Y-130793315D01*
X138843399Y-130956742D01*
X138779633Y-131110687D01*
X138687059Y-131249234D01*
X138569234Y-131367059D01*
X138430687Y-131459633D01*
X138276742Y-131523399D01*
X138113315Y-131555907D01*
X137946685Y-131555907D01*
X137783258Y-131523399D01*
X137629313Y-131459633D01*
X137490766Y-131367059D01*
X137372941Y-131249234D01*
X137280367Y-131110687D01*
X137216601Y-130956742D01*
X137184093Y-130793315D01*
X137184093Y-130626685D01*
X137216601Y-130463258D01*
X137280367Y-130309313D01*
X137372941Y-130170766D01*
X137490766Y-130052941D01*
X137629313Y-129960367D01*
X137783258Y-129896601D01*
X137946685Y-129864093D01*
X138113315Y-129864093D01*
X138276742Y-129896601D01*
G37*
G36*
X153516742Y-129896601D02*
G01*
X153670687Y-129960367D01*
X153809234Y-130052941D01*
X153927059Y-130170766D01*
X154019633Y-130309313D01*
X154083399Y-130463258D01*
X154115907Y-130626685D01*
X154115907Y-130793315D01*
X154083399Y-130956742D01*
X154019633Y-131110687D01*
X153927059Y-131249234D01*
X153809234Y-131367059D01*
X153670687Y-131459633D01*
X153516742Y-131523399D01*
X153353315Y-131555907D01*
X153186685Y-131555907D01*
X153023258Y-131523399D01*
X152869313Y-131459633D01*
X152730766Y-131367059D01*
X152612941Y-131249234D01*
X152520367Y-131110687D01*
X152456601Y-130956742D01*
X152424093Y-130793315D01*
X152424093Y-130626685D01*
X152456601Y-130463258D01*
X152520367Y-130309313D01*
X152612941Y-130170766D01*
X152730766Y-130052941D01*
X152869313Y-129960367D01*
X153023258Y-129896601D01*
X153186685Y-129864093D01*
X153353315Y-129864093D01*
X153516742Y-129896601D01*
G37*
G36*
X159932764Y-130101577D02*
G01*
X160059271Y-130153978D01*
X160173124Y-130230052D01*
X160269948Y-130326876D01*
X160346022Y-130440729D01*
X160398423Y-130567236D01*
X160425137Y-130701535D01*
X160425137Y-130838465D01*
X160398423Y-130972764D01*
X160346022Y-131099271D01*
X160269948Y-131213124D01*
X160173124Y-131309948D01*
X160059271Y-131386022D01*
X159932764Y-131438423D01*
X159798465Y-131465137D01*
X159661535Y-131465137D01*
X159527236Y-131438423D01*
X159400729Y-131386022D01*
X159286876Y-131309948D01*
X159190052Y-131213124D01*
X159113978Y-131099271D01*
X159061577Y-130972764D01*
X159034863Y-130838465D01*
X159034863Y-130701535D01*
X159061577Y-130567236D01*
X159113978Y-130440729D01*
X159190052Y-130326876D01*
X159286876Y-130230052D01*
X159400729Y-130153978D01*
X159527236Y-130101577D01*
X159661535Y-130074863D01*
X159798465Y-130074863D01*
X159932764Y-130101577D01*
G37*
G36*
X128041104Y-129852127D02*
G01*
X128114099Y-129900901D01*
X128162873Y-129973896D01*
X128180000Y-130060000D01*
X128180000Y-130560000D01*
X128162873Y-130646104D01*
X128114099Y-130719099D01*
X128041104Y-130767873D01*
X127955000Y-130785000D01*
X127505000Y-130785000D01*
X127418896Y-130767873D01*
X127345901Y-130719099D01*
X127297127Y-130646104D01*
X127280000Y-130560000D01*
X127280000Y-130060000D01*
X127297127Y-129973896D01*
X127345901Y-129900901D01*
X127418896Y-129852127D01*
X127505000Y-129835000D01*
X127955000Y-129835000D01*
X128041104Y-129852127D01*
G37*
G36*
X129591104Y-129852127D02*
G01*
X129664099Y-129900901D01*
X129712873Y-129973896D01*
X129730000Y-130060000D01*
X129730000Y-130560000D01*
X129712873Y-130646104D01*
X129664099Y-130719099D01*
X129591104Y-130767873D01*
X129505000Y-130785000D01*
X129055000Y-130785000D01*
X128968896Y-130767873D01*
X128895901Y-130719099D01*
X128847127Y-130646104D01*
X128830000Y-130560000D01*
X128830000Y-130060000D01*
X128847127Y-129973896D01*
X128895901Y-129900901D01*
X128968896Y-129852127D01*
X129055000Y-129835000D01*
X129505000Y-129835000D01*
X129591104Y-129852127D01*
G37*
G36*
X138276742Y-127356601D02*
G01*
X138430687Y-127420367D01*
X138569234Y-127512941D01*
X138687059Y-127630766D01*
X138779633Y-127769313D01*
X138843399Y-127923258D01*
X138875907Y-128086685D01*
X138875907Y-128253315D01*
X138843399Y-128416742D01*
X138779633Y-128570687D01*
X138687059Y-128709234D01*
X138569234Y-128827059D01*
X138430687Y-128919633D01*
X138276742Y-128983399D01*
X138113315Y-129015907D01*
X137946685Y-129015907D01*
X137783258Y-128983399D01*
X137629313Y-128919633D01*
X137490766Y-128827059D01*
X137372941Y-128709234D01*
X137280367Y-128570687D01*
X137216601Y-128416742D01*
X137184093Y-128253315D01*
X137184093Y-128086685D01*
X137216601Y-127923258D01*
X137280367Y-127769313D01*
X137372941Y-127630766D01*
X137490766Y-127512941D01*
X137629313Y-127420367D01*
X137783258Y-127356601D01*
X137946685Y-127324093D01*
X138113315Y-127324093D01*
X138276742Y-127356601D01*
G37*
G36*
X153516742Y-127356601D02*
G01*
X153670687Y-127420367D01*
X153809234Y-127512941D01*
X153927059Y-127630766D01*
X154019633Y-127769313D01*
X154083399Y-127923258D01*
X154115907Y-128086685D01*
X154115907Y-128253315D01*
X154083399Y-128416742D01*
X154019633Y-128570687D01*
X153927059Y-128709234D01*
X153809234Y-128827059D01*
X153670687Y-128919633D01*
X153516742Y-128983399D01*
X153353315Y-129015907D01*
X153186685Y-129015907D01*
X153023258Y-128983399D01*
X152869313Y-128919633D01*
X152730766Y-128827059D01*
X152612941Y-128709234D01*
X152520367Y-128570687D01*
X152456601Y-128416742D01*
X152424093Y-128253315D01*
X152424093Y-128086685D01*
X152456601Y-127923258D01*
X152520367Y-127769313D01*
X152612941Y-127630766D01*
X152730766Y-127512941D01*
X152869313Y-127420367D01*
X153023258Y-127356601D01*
X153186685Y-127324093D01*
X153353315Y-127324093D01*
X153516742Y-127356601D01*
G37*
G36*
X159932764Y-127561577D02*
G01*
X160059271Y-127613978D01*
X160173124Y-127690052D01*
X160269948Y-127786876D01*
X160346022Y-127900729D01*
X160398423Y-128027236D01*
X160425137Y-128161535D01*
X160425137Y-128298465D01*
X160398423Y-128432764D01*
X160346022Y-128559271D01*
X160269948Y-128673124D01*
X160173124Y-128769948D01*
X160059271Y-128846022D01*
X159932764Y-128898423D01*
X159798465Y-128925137D01*
X159661535Y-128925137D01*
X159527236Y-128898423D01*
X159400729Y-128846022D01*
X159286876Y-128769948D01*
X159190052Y-128673124D01*
X159113978Y-128559271D01*
X159061577Y-128432764D01*
X159034863Y-128298465D01*
X159034863Y-128161535D01*
X159061577Y-128027236D01*
X159113978Y-127900729D01*
X159190052Y-127786876D01*
X159286876Y-127690052D01*
X159400729Y-127613978D01*
X159527236Y-127561577D01*
X159661535Y-127534863D01*
X159798465Y-127534863D01*
X159932764Y-127561577D01*
G37*
G36*
X122666104Y-127567127D02*
G01*
X122739099Y-127615901D01*
X122787873Y-127688896D01*
X122805000Y-127775000D01*
X122805000Y-128225000D01*
X122787873Y-128311104D01*
X122739099Y-128384099D01*
X122666104Y-128432873D01*
X122580000Y-128450000D01*
X122080000Y-128450000D01*
X121993896Y-128432873D01*
X121920901Y-128384099D01*
X121872127Y-128311104D01*
X121855000Y-128225000D01*
X121855000Y-127775000D01*
X121872127Y-127688896D01*
X121920901Y-127615901D01*
X121993896Y-127567127D01*
X122080000Y-127550000D01*
X122580000Y-127550000D01*
X122666104Y-127567127D01*
G37*
G36*
X127703700Y-128438199D02*
G01*
X126827400Y-128438199D01*
X126827400Y-128031799D01*
X127703700Y-128031799D01*
X127703700Y-128438199D01*
G37*
G36*
X130332600Y-128438199D02*
G01*
X129456300Y-128438199D01*
X129456300Y-128031799D01*
X130332600Y-128031799D01*
X130332600Y-128438199D01*
G37*
G36*
X125866104Y-127552127D02*
G01*
X125939099Y-127600901D01*
X125987873Y-127673896D01*
X126005000Y-127760000D01*
X126005000Y-128210000D01*
X125987873Y-128296104D01*
X125939099Y-128369099D01*
X125866104Y-128417873D01*
X125780000Y-128435000D01*
X125280000Y-128435000D01*
X125193896Y-128417873D01*
X125120901Y-128369099D01*
X125072127Y-128296104D01*
X125055000Y-128210000D01*
X125055000Y-127760000D01*
X125072127Y-127673896D01*
X125120901Y-127600901D01*
X125193896Y-127552127D01*
X125280000Y-127535000D01*
X125780000Y-127535000D01*
X125866104Y-127552127D01*
G37*
G36*
X127703700Y-127788201D02*
G01*
X126827400Y-127788201D01*
X126827400Y-127381801D01*
X127703700Y-127381801D01*
X127703700Y-127788201D01*
G37*
G36*
X130332600Y-127788201D02*
G01*
X129456300Y-127788201D01*
X129456300Y-127381801D01*
X130332600Y-127381801D01*
X130332600Y-127788201D01*
G37*
G36*
X127703700Y-127138199D02*
G01*
X126827400Y-127138199D01*
X126827400Y-126731799D01*
X127703700Y-126731799D01*
X127703700Y-127138199D01*
G37*
G36*
X130332600Y-127138199D02*
G01*
X129456300Y-127138199D01*
X129456300Y-126731799D01*
X130332600Y-126731799D01*
X130332600Y-127138199D01*
G37*
G36*
X122666104Y-126017127D02*
G01*
X122739099Y-126065901D01*
X122787873Y-126138896D01*
X122805000Y-126225000D01*
X122805000Y-126675000D01*
X122787873Y-126761104D01*
X122739099Y-126834099D01*
X122666104Y-126882873D01*
X122580000Y-126900000D01*
X122080000Y-126900000D01*
X121993896Y-126882873D01*
X121920901Y-126834099D01*
X121872127Y-126761104D01*
X121855000Y-126675000D01*
X121855000Y-126225000D01*
X121872127Y-126138896D01*
X121920901Y-126065901D01*
X121993896Y-126017127D01*
X122080000Y-126000000D01*
X122580000Y-126000000D01*
X122666104Y-126017127D01*
G37*
G36*
X125866104Y-126002127D02*
G01*
X125939099Y-126050901D01*
X125987873Y-126123896D01*
X126005000Y-126210000D01*
X126005000Y-126660000D01*
X125987873Y-126746104D01*
X125939099Y-126819099D01*
X125866104Y-126867873D01*
X125780000Y-126885000D01*
X125280000Y-126885000D01*
X125193896Y-126867873D01*
X125120901Y-126819099D01*
X125072127Y-126746104D01*
X125055000Y-126660000D01*
X125055000Y-126210000D01*
X125072127Y-126123896D01*
X125120901Y-126050901D01*
X125193896Y-126002127D01*
X125280000Y-125985000D01*
X125780000Y-125985000D01*
X125866104Y-126002127D01*
G37*
G36*
X127703700Y-126488201D02*
G01*
X126827400Y-126488201D01*
X126827400Y-126081801D01*
X127703700Y-126081801D01*
X127703700Y-126488201D01*
G37*
G36*
X130332600Y-126488201D02*
G01*
X129456300Y-126488201D01*
X129456300Y-126081801D01*
X130332600Y-126081801D01*
X130332600Y-126488201D01*
G37*
G36*
X138276742Y-124816601D02*
G01*
X138430687Y-124880367D01*
X138569234Y-124972941D01*
X138687059Y-125090766D01*
X138779633Y-125229313D01*
X138843399Y-125383258D01*
X138875907Y-125546685D01*
X138875907Y-125713315D01*
X138843399Y-125876742D01*
X138779633Y-126030687D01*
X138687059Y-126169234D01*
X138569234Y-126287059D01*
X138430687Y-126379633D01*
X138276742Y-126443399D01*
X138113315Y-126475907D01*
X137946685Y-126475907D01*
X137783258Y-126443399D01*
X137629313Y-126379633D01*
X137490766Y-126287059D01*
X137372941Y-126169234D01*
X137280367Y-126030687D01*
X137216601Y-125876742D01*
X137184093Y-125713315D01*
X137184093Y-125546685D01*
X137216601Y-125383258D01*
X137280367Y-125229313D01*
X137372941Y-125090766D01*
X137490766Y-124972941D01*
X137629313Y-124880367D01*
X137783258Y-124816601D01*
X137946685Y-124784093D01*
X138113315Y-124784093D01*
X138276742Y-124816601D01*
G37*
G36*
X153516742Y-124816601D02*
G01*
X153670687Y-124880367D01*
X153809234Y-124972941D01*
X153927059Y-125090766D01*
X154019633Y-125229313D01*
X154083399Y-125383258D01*
X154115907Y-125546685D01*
X154115907Y-125713315D01*
X154083399Y-125876742D01*
X154019633Y-126030687D01*
X153927059Y-126169234D01*
X153809234Y-126287059D01*
X153670687Y-126379633D01*
X153516742Y-126443399D01*
X153353315Y-126475907D01*
X153186685Y-126475907D01*
X153023258Y-126443399D01*
X152869313Y-126379633D01*
X152730766Y-126287059D01*
X152612941Y-126169234D01*
X152520367Y-126030687D01*
X152456601Y-125876742D01*
X152424093Y-125713315D01*
X152424093Y-125546685D01*
X152456601Y-125383258D01*
X152520367Y-125229313D01*
X152612941Y-125090766D01*
X152730766Y-124972941D01*
X152869313Y-124880367D01*
X153023258Y-124816601D01*
X153186685Y-124784093D01*
X153353315Y-124784093D01*
X153516742Y-124816601D01*
G37*
G36*
X138880000Y-123940000D02*
G01*
X137180000Y-123940000D01*
X137180000Y-122240000D01*
X138880000Y-122240000D01*
X138880000Y-123940000D01*
G37*
G36*
X153516742Y-122276601D02*
G01*
X153670687Y-122340367D01*
X153809234Y-122432941D01*
X153927059Y-122550766D01*
X154019633Y-122689313D01*
X154083399Y-122843258D01*
X154115907Y-123006685D01*
X154115907Y-123173315D01*
X154083399Y-123336742D01*
X154019633Y-123490687D01*
X153927059Y-123629234D01*
X153809234Y-123747059D01*
X153670687Y-123839633D01*
X153516742Y-123903399D01*
X153353315Y-123935907D01*
X153186685Y-123935907D01*
X153023258Y-123903399D01*
X152869313Y-123839633D01*
X152730766Y-123747059D01*
X152612941Y-123629234D01*
X152520367Y-123490687D01*
X152456601Y-123336742D01*
X152424093Y-123173315D01*
X152424093Y-123006685D01*
X152456601Y-122843258D01*
X152520367Y-122689313D01*
X152612941Y-122550766D01*
X152730766Y-122432941D01*
X152869313Y-122340367D01*
X153023258Y-122276601D01*
X153186685Y-122244093D01*
X153353315Y-122244093D01*
X153516742Y-122276601D01*
G37*
G36*
X130966104Y-117977127D02*
G01*
X131039099Y-118025901D01*
X131087873Y-118098896D01*
X131105000Y-118185000D01*
X131105000Y-118635000D01*
X131087873Y-118721104D01*
X131039099Y-118794099D01*
X130966104Y-118842873D01*
X130880000Y-118860000D01*
X130380000Y-118860000D01*
X130293896Y-118842873D01*
X130220901Y-118794099D01*
X130172127Y-118721104D01*
X130155000Y-118635000D01*
X130155000Y-118185000D01*
X130172127Y-118098896D01*
X130220901Y-118025901D01*
X130293896Y-117977127D01*
X130380000Y-117960000D01*
X130880000Y-117960000D01*
X130966104Y-117977127D01*
G37*
G36*
X125731537Y-117850224D02*
G01*
X125796421Y-117893579D01*
X125839776Y-117958463D01*
X125855000Y-118035000D01*
X125855000Y-118585000D01*
X125839776Y-118661537D01*
X125796421Y-118726421D01*
X125731537Y-118769776D01*
X125655000Y-118785000D01*
X125255000Y-118785000D01*
X125178463Y-118769776D01*
X125113579Y-118726421D01*
X125070224Y-118661537D01*
X125055000Y-118585000D01*
X125055000Y-118035000D01*
X125070224Y-117958463D01*
X125113579Y-117893579D01*
X125178463Y-117850224D01*
X125255000Y-117835000D01*
X125655000Y-117835000D01*
X125731537Y-117850224D01*
G37*
G36*
X127381537Y-117850224D02*
G01*
X127446421Y-117893579D01*
X127489776Y-117958463D01*
X127505000Y-118035000D01*
X127505000Y-118585000D01*
X127489776Y-118661537D01*
X127446421Y-118726421D01*
X127381537Y-118769776D01*
X127305000Y-118785000D01*
X126905000Y-118785000D01*
X126828463Y-118769776D01*
X126763579Y-118726421D01*
X126720224Y-118661537D01*
X126705000Y-118585000D01*
X126705000Y-118035000D01*
X126720224Y-117958463D01*
X126763579Y-117893579D01*
X126828463Y-117850224D01*
X126905000Y-117835000D01*
X127305000Y-117835000D01*
X127381537Y-117850224D01*
G37*
G36*
X121151537Y-117200224D02*
G01*
X121216421Y-117243579D01*
X121259776Y-117308463D01*
X121275000Y-117385000D01*
X121275000Y-117785000D01*
X121259776Y-117861537D01*
X121216421Y-117926421D01*
X121151537Y-117969776D01*
X121075000Y-117985000D01*
X120525000Y-117985000D01*
X120448463Y-117969776D01*
X120383579Y-117926421D01*
X120340224Y-117861537D01*
X120325000Y-117785000D01*
X120325000Y-117385000D01*
X120340224Y-117308463D01*
X120383579Y-117243579D01*
X120448463Y-117200224D01*
X120525000Y-117185000D01*
X121075000Y-117185000D01*
X121151537Y-117200224D01*
G37*
G36*
X134366104Y-116602127D02*
G01*
X134439099Y-116650901D01*
X134487873Y-116723896D01*
X134505000Y-116810000D01*
X134505000Y-117260000D01*
X134487873Y-117346104D01*
X134439099Y-117419099D01*
X134366104Y-117467873D01*
X134280000Y-117485000D01*
X133780000Y-117485000D01*
X133693896Y-117467873D01*
X133620901Y-117419099D01*
X133572127Y-117346104D01*
X133555000Y-117260000D01*
X133555000Y-116810000D01*
X133572127Y-116723896D01*
X133620901Y-116650901D01*
X133693896Y-116602127D01*
X133780000Y-116585000D01*
X134280000Y-116585000D01*
X134366104Y-116602127D01*
G37*
G36*
X130966104Y-116427127D02*
G01*
X131039099Y-116475901D01*
X131087873Y-116548896D01*
X131105000Y-116635000D01*
X131105000Y-117085000D01*
X131087873Y-117171104D01*
X131039099Y-117244099D01*
X130966104Y-117292873D01*
X130880000Y-117310000D01*
X130380000Y-117310000D01*
X130293896Y-117292873D01*
X130220901Y-117244099D01*
X130172127Y-117171104D01*
X130155000Y-117085000D01*
X130155000Y-116635000D01*
X130172127Y-116548896D01*
X130220901Y-116475901D01*
X130293896Y-116427127D01*
X130380000Y-116410000D01*
X130880000Y-116410000D01*
X130966104Y-116427127D01*
G37*
G36*
X125367252Y-115764792D02*
G01*
X125374597Y-115764792D01*
X125388051Y-115770365D01*
X125417311Y-115778205D01*
X125443547Y-115793352D01*
X125457002Y-115798926D01*
X125462195Y-115804119D01*
X125468896Y-115807988D01*
X125511010Y-115850102D01*
X125514878Y-115856802D01*
X125520073Y-115861997D01*
X125525647Y-115875454D01*
X125540793Y-115901687D01*
X125548632Y-115930944D01*
X125554207Y-115944402D01*
X125555350Y-115956017D01*
X125556645Y-115960847D01*
X125558274Y-115985700D01*
X125558599Y-115989000D01*
X125558599Y-116751000D01*
X125558273Y-116754301D01*
X125556645Y-116779152D01*
X125555351Y-116783981D01*
X125554207Y-116795598D01*
X125548631Y-116809057D01*
X125540793Y-116838312D01*
X125525648Y-116864542D01*
X125520073Y-116878003D01*
X125514877Y-116883198D01*
X125511010Y-116889897D01*
X125468896Y-116932011D01*
X125462197Y-116935878D01*
X125457002Y-116941074D01*
X125443541Y-116946649D01*
X125417311Y-116961794D01*
X125388054Y-116969633D01*
X125374597Y-116975208D01*
X125367251Y-116975208D01*
X125359780Y-116977210D01*
X125300218Y-116977210D01*
X125292747Y-116975208D01*
X125285401Y-116975208D01*
X125271944Y-116969633D01*
X125242686Y-116961794D01*
X125216453Y-116946648D01*
X125202996Y-116941074D01*
X125197801Y-116935879D01*
X125191101Y-116932011D01*
X125148987Y-116889897D01*
X125145118Y-116883196D01*
X125139925Y-116878003D01*
X125134351Y-116864548D01*
X125119204Y-116838312D01*
X125111363Y-116809050D01*
X125105791Y-116795598D01*
X125104647Y-116783987D01*
X125103352Y-116779152D01*
X125101723Y-116754296D01*
X125101399Y-116751000D01*
X125101399Y-115989000D01*
X125101723Y-115985705D01*
X125103352Y-115960847D01*
X125104647Y-115956011D01*
X125105791Y-115944402D01*
X125111362Y-115930951D01*
X125119204Y-115901687D01*
X125134353Y-115875447D01*
X125139925Y-115861997D01*
X125145116Y-115856805D01*
X125148987Y-115850102D01*
X125191101Y-115807988D01*
X125197804Y-115804117D01*
X125202996Y-115798926D01*
X125216446Y-115793354D01*
X125242686Y-115778205D01*
X125271947Y-115770364D01*
X125285401Y-115764792D01*
X125292746Y-115764792D01*
X125300218Y-115762790D01*
X125359780Y-115762790D01*
X125367252Y-115764792D01*
G37*
G36*
X127267254Y-115764792D02*
G01*
X127274599Y-115764792D01*
X127288053Y-115770365D01*
X127317313Y-115778205D01*
X127343549Y-115793352D01*
X127357004Y-115798926D01*
X127362197Y-115804119D01*
X127368898Y-115807988D01*
X127411012Y-115850102D01*
X127414880Y-115856802D01*
X127420075Y-115861997D01*
X127425649Y-115875454D01*
X127440795Y-115901687D01*
X127448634Y-115930944D01*
X127454209Y-115944402D01*
X127455352Y-115956017D01*
X127456647Y-115960847D01*
X127458276Y-115985700D01*
X127458601Y-115989000D01*
X127458601Y-116751000D01*
X127458275Y-116754301D01*
X127456647Y-116779152D01*
X127455353Y-116783981D01*
X127454209Y-116795598D01*
X127448633Y-116809057D01*
X127440795Y-116838312D01*
X127425650Y-116864542D01*
X127420075Y-116878003D01*
X127414879Y-116883198D01*
X127411012Y-116889897D01*
X127368898Y-116932011D01*
X127362199Y-116935878D01*
X127357004Y-116941074D01*
X127343543Y-116946649D01*
X127317313Y-116961794D01*
X127288056Y-116969633D01*
X127274599Y-116975208D01*
X127267253Y-116975208D01*
X127259782Y-116977210D01*
X127200220Y-116977210D01*
X127192749Y-116975208D01*
X127185403Y-116975208D01*
X127171946Y-116969633D01*
X127142688Y-116961794D01*
X127116455Y-116946648D01*
X127102998Y-116941074D01*
X127097803Y-116935879D01*
X127091103Y-116932011D01*
X127048989Y-116889897D01*
X127045120Y-116883196D01*
X127039927Y-116878003D01*
X127034353Y-116864548D01*
X127019206Y-116838312D01*
X127011365Y-116809050D01*
X127005793Y-116795598D01*
X127004649Y-116783987D01*
X127003354Y-116779152D01*
X127001725Y-116754296D01*
X127001401Y-116751000D01*
X127001401Y-115989000D01*
X127001725Y-115985705D01*
X127003354Y-115960847D01*
X127004649Y-115956011D01*
X127005793Y-115944402D01*
X127011364Y-115930951D01*
X127019206Y-115901687D01*
X127034355Y-115875447D01*
X127039927Y-115861997D01*
X127045118Y-115856805D01*
X127048989Y-115850102D01*
X127091103Y-115807988D01*
X127097806Y-115804117D01*
X127102998Y-115798926D01*
X127116448Y-115793354D01*
X127142688Y-115778205D01*
X127171949Y-115770364D01*
X127185403Y-115764792D01*
X127192748Y-115764792D01*
X127200220Y-115762790D01*
X127259782Y-115762790D01*
X127267254Y-115764792D01*
G37*
G36*
X121151537Y-115550224D02*
G01*
X121216421Y-115593579D01*
X121259776Y-115658463D01*
X121275000Y-115735000D01*
X121275000Y-116135000D01*
X121259776Y-116211537D01*
X121216421Y-116276421D01*
X121151537Y-116319776D01*
X121075000Y-116335000D01*
X120525000Y-116335000D01*
X120448463Y-116319776D01*
X120383579Y-116276421D01*
X120340224Y-116211537D01*
X120325000Y-116135000D01*
X120325000Y-115735000D01*
X120340224Y-115658463D01*
X120383579Y-115593579D01*
X120448463Y-115550224D01*
X120525000Y-115535000D01*
X121075000Y-115535000D01*
X121151537Y-115550224D01*
G37*
G36*
X134366104Y-115052127D02*
G01*
X134439099Y-115100901D01*
X134487873Y-115173896D01*
X134505000Y-115260000D01*
X134505000Y-115710000D01*
X134487873Y-115796104D01*
X134439099Y-115869099D01*
X134366104Y-115917873D01*
X134280000Y-115935000D01*
X133780000Y-115935000D01*
X133693896Y-115917873D01*
X133620901Y-115869099D01*
X133572127Y-115796104D01*
X133555000Y-115710000D01*
X133555000Y-115260000D01*
X133572127Y-115173896D01*
X133620901Y-115100901D01*
X133693896Y-115052127D01*
X133780000Y-115035000D01*
X134280000Y-115035000D01*
X134366104Y-115052127D01*
G37*
G36*
X130931537Y-114950224D02*
G01*
X130996421Y-114993579D01*
X131039776Y-115058463D01*
X131055000Y-115135000D01*
X131055000Y-115535000D01*
X131039776Y-115611537D01*
X130996421Y-115676421D01*
X130931537Y-115719776D01*
X130855000Y-115735000D01*
X130305000Y-115735000D01*
X130228463Y-115719776D01*
X130163579Y-115676421D01*
X130120224Y-115611537D01*
X130105000Y-115535000D01*
X130105000Y-115135000D01*
X130120224Y-115058463D01*
X130163579Y-114993579D01*
X130228463Y-114950224D01*
X130305000Y-114935000D01*
X130855000Y-114935000D01*
X130931537Y-114950224D01*
G37*
G36*
X127458601Y-114359600D02*
G01*
X127001401Y-114359600D01*
X127001401Y-113140400D01*
X127458601Y-113140400D01*
X127458601Y-114359600D01*
G37*
G36*
X125367252Y-113144792D02*
G01*
X125374597Y-113144792D01*
X125388051Y-113150365D01*
X125417311Y-113158205D01*
X125443547Y-113173352D01*
X125457002Y-113178926D01*
X125462195Y-113184119D01*
X125468896Y-113187988D01*
X125511010Y-113230102D01*
X125514878Y-113236802D01*
X125520073Y-113241997D01*
X125525647Y-113255454D01*
X125540793Y-113281687D01*
X125548632Y-113310944D01*
X125554207Y-113324402D01*
X125555350Y-113336017D01*
X125556645Y-113340847D01*
X125558274Y-113365700D01*
X125558599Y-113369000D01*
X125558599Y-114131000D01*
X125558273Y-114134301D01*
X125556645Y-114159152D01*
X125555351Y-114163981D01*
X125554207Y-114175598D01*
X125548631Y-114189057D01*
X125540793Y-114218312D01*
X125525648Y-114244542D01*
X125520073Y-114258003D01*
X125514877Y-114263198D01*
X125511010Y-114269897D01*
X125468896Y-114312011D01*
X125462197Y-114315878D01*
X125457002Y-114321074D01*
X125443541Y-114326649D01*
X125417311Y-114341794D01*
X125388054Y-114349633D01*
X125374597Y-114355208D01*
X125367251Y-114355208D01*
X125359780Y-114357210D01*
X125300218Y-114357210D01*
X125292747Y-114355208D01*
X125285401Y-114355208D01*
X125271944Y-114349633D01*
X125242686Y-114341794D01*
X125216453Y-114326648D01*
X125202996Y-114321074D01*
X125197801Y-114315879D01*
X125191101Y-114312011D01*
X125148987Y-114269897D01*
X125145118Y-114263196D01*
X125139925Y-114258003D01*
X125134351Y-114244548D01*
X125119204Y-114218312D01*
X125111363Y-114189050D01*
X125105791Y-114175598D01*
X125104647Y-114163987D01*
X125103352Y-114159152D01*
X125101723Y-114134296D01*
X125101399Y-114131000D01*
X125101399Y-113369000D01*
X125101723Y-113365705D01*
X125103352Y-113340847D01*
X125104647Y-113336011D01*
X125105791Y-113324402D01*
X125111362Y-113310951D01*
X125119204Y-113281687D01*
X125134353Y-113255447D01*
X125139925Y-113241997D01*
X125145116Y-113236805D01*
X125148987Y-113230102D01*
X125191101Y-113187988D01*
X125197804Y-113184117D01*
X125202996Y-113178926D01*
X125216446Y-113173354D01*
X125242686Y-113158205D01*
X125271947Y-113150364D01*
X125285401Y-113144792D01*
X125292746Y-113144792D01*
X125300218Y-113142790D01*
X125359780Y-113142790D01*
X125367252Y-113144792D01*
G37*
G36*
X126317253Y-113144792D02*
G01*
X126324598Y-113144792D01*
X126338052Y-113150365D01*
X126367312Y-113158205D01*
X126393548Y-113173352D01*
X126407003Y-113178926D01*
X126412196Y-113184119D01*
X126418897Y-113187988D01*
X126461011Y-113230102D01*
X126464879Y-113236802D01*
X126470074Y-113241997D01*
X126475648Y-113255454D01*
X126490794Y-113281687D01*
X126498633Y-113310944D01*
X126504208Y-113324402D01*
X126505351Y-113336017D01*
X126506646Y-113340847D01*
X126508275Y-113365700D01*
X126508600Y-113369000D01*
X126508600Y-114131000D01*
X126508274Y-114134301D01*
X126506646Y-114159152D01*
X126505352Y-114163981D01*
X126504208Y-114175598D01*
X126498632Y-114189057D01*
X126490794Y-114218312D01*
X126475649Y-114244542D01*
X126470074Y-114258003D01*
X126464878Y-114263198D01*
X126461011Y-114269897D01*
X126418897Y-114312011D01*
X126412198Y-114315878D01*
X126407003Y-114321074D01*
X126393542Y-114326649D01*
X126367312Y-114341794D01*
X126338055Y-114349633D01*
X126324598Y-114355208D01*
X126317252Y-114355208D01*
X126309781Y-114357210D01*
X126250219Y-114357210D01*
X126242748Y-114355208D01*
X126235402Y-114355208D01*
X126221945Y-114349633D01*
X126192687Y-114341794D01*
X126166454Y-114326648D01*
X126152997Y-114321074D01*
X126147802Y-114315879D01*
X126141102Y-114312011D01*
X126098988Y-114269897D01*
X126095119Y-114263196D01*
X126089926Y-114258003D01*
X126084352Y-114244548D01*
X126069205Y-114218312D01*
X126061364Y-114189050D01*
X126055792Y-114175598D01*
X126054648Y-114163987D01*
X126053353Y-114159152D01*
X126051724Y-114134296D01*
X126051400Y-114131000D01*
X126051400Y-113369000D01*
X126051724Y-113365705D01*
X126053353Y-113340847D01*
X126054648Y-113336011D01*
X126055792Y-113324402D01*
X126061363Y-113310951D01*
X126069205Y-113281687D01*
X126084354Y-113255447D01*
X126089926Y-113241997D01*
X126095117Y-113236805D01*
X126098988Y-113230102D01*
X126141102Y-113187988D01*
X126147805Y-113184117D01*
X126152997Y-113178926D01*
X126166447Y-113173354D01*
X126192687Y-113158205D01*
X126221948Y-113150364D01*
X126235402Y-113144792D01*
X126242747Y-113144792D01*
X126250219Y-113142790D01*
X126309781Y-113142790D01*
X126317253Y-113144792D01*
G37*
G36*
X159902764Y-112831577D02*
G01*
X160029271Y-112883978D01*
X160143124Y-112960052D01*
X160239948Y-113056876D01*
X160316022Y-113170729D01*
X160368423Y-113297236D01*
X160395137Y-113431535D01*
X160395137Y-113568465D01*
X160368423Y-113702764D01*
X160316022Y-113829271D01*
X160239948Y-113943124D01*
X160143124Y-114039948D01*
X160029271Y-114116022D01*
X159902764Y-114168423D01*
X159768465Y-114195137D01*
X159631535Y-114195137D01*
X159497236Y-114168423D01*
X159370729Y-114116022D01*
X159256876Y-114039948D01*
X159160052Y-113943124D01*
X159083978Y-113829271D01*
X159031577Y-113702764D01*
X159004863Y-113568465D01*
X159004863Y-113431535D01*
X159031577Y-113297236D01*
X159083978Y-113170729D01*
X159160052Y-113056876D01*
X159256876Y-112960052D01*
X159370729Y-112883978D01*
X159497236Y-112831577D01*
X159631535Y-112804863D01*
X159768465Y-112804863D01*
X159902764Y-112831577D01*
G37*
G36*
X121086104Y-113252127D02*
G01*
X121159099Y-113300901D01*
X121207873Y-113373896D01*
X121225000Y-113460000D01*
X121225000Y-113910000D01*
X121207873Y-113996104D01*
X121159099Y-114069099D01*
X121086104Y-114117873D01*
X121000000Y-114135000D01*
X120500000Y-114135000D01*
X120413896Y-114117873D01*
X120340901Y-114069099D01*
X120292127Y-113996104D01*
X120275000Y-113910000D01*
X120275000Y-113460000D01*
X120292127Y-113373896D01*
X120340901Y-113300901D01*
X120413896Y-113252127D01*
X120500000Y-113235000D01*
X121000000Y-113235000D01*
X121086104Y-113252127D01*
G37*
G36*
X130931537Y-113300224D02*
G01*
X130996421Y-113343579D01*
X131039776Y-113408463D01*
X131055000Y-113485000D01*
X131055000Y-113885000D01*
X131039776Y-113961537D01*
X130996421Y-114026421D01*
X130931537Y-114069776D01*
X130855000Y-114085000D01*
X130305000Y-114085000D01*
X130228463Y-114069776D01*
X130163579Y-114026421D01*
X130120224Y-113961537D01*
X130105000Y-113885000D01*
X130105000Y-113485000D01*
X130120224Y-113408463D01*
X130163579Y-113343579D01*
X130228463Y-113300224D01*
X130305000Y-113285000D01*
X130855000Y-113285000D01*
X130931537Y-113300224D01*
G37*
G36*
X121086104Y-111702127D02*
G01*
X121159099Y-111750901D01*
X121207873Y-111823896D01*
X121225000Y-111910000D01*
X121225000Y-112360000D01*
X121207873Y-112446104D01*
X121159099Y-112519099D01*
X121086104Y-112567873D01*
X121000000Y-112585000D01*
X120500000Y-112585000D01*
X120413896Y-112567873D01*
X120340901Y-112519099D01*
X120292127Y-112446104D01*
X120275000Y-112360000D01*
X120275000Y-111910000D01*
X120292127Y-111823896D01*
X120340901Y-111750901D01*
X120413896Y-111702127D01*
X120500000Y-111685000D01*
X121000000Y-111685000D01*
X121086104Y-111702127D01*
G37*
G36*
X159902764Y-110291577D02*
G01*
X160029271Y-110343978D01*
X160143124Y-110420052D01*
X160239948Y-110516876D01*
X160316022Y-110630729D01*
X160368423Y-110757236D01*
X160395137Y-110891535D01*
X160395137Y-111028465D01*
X160368423Y-111162764D01*
X160316022Y-111289271D01*
X160239948Y-111403124D01*
X160143124Y-111499948D01*
X160029271Y-111576022D01*
X159902764Y-111628423D01*
X159768465Y-111655137D01*
X159631535Y-111655137D01*
X159497236Y-111628423D01*
X159370729Y-111576022D01*
X159256876Y-111499948D01*
X159160052Y-111403124D01*
X159083978Y-111289271D01*
X159031577Y-111162764D01*
X159004863Y-111028465D01*
X159004863Y-110891535D01*
X159031577Y-110757236D01*
X159083978Y-110630729D01*
X159160052Y-110516876D01*
X159256876Y-110420052D01*
X159370729Y-110343978D01*
X159497236Y-110291577D01*
X159631535Y-110264863D01*
X159768465Y-110264863D01*
X159902764Y-110291577D01*
G37*
G36*
X126651537Y-109350224D02*
G01*
X126716421Y-109393579D01*
X126759776Y-109458463D01*
X126775000Y-109535000D01*
X126775000Y-109935000D01*
X126759776Y-110011537D01*
X126716421Y-110076421D01*
X126651537Y-110119776D01*
X126575000Y-110135000D01*
X126025000Y-110135000D01*
X125948463Y-110119776D01*
X125883579Y-110076421D01*
X125840224Y-110011537D01*
X125825000Y-109935000D01*
X125825000Y-109535000D01*
X125840224Y-109458463D01*
X125883579Y-109393579D01*
X125948463Y-109350224D01*
X126025000Y-109335000D01*
X126575000Y-109335000D01*
X126651537Y-109350224D01*
G37*
G36*
X122136104Y-108602127D02*
G01*
X122209099Y-108650901D01*
X122257873Y-108723896D01*
X122275000Y-108810000D01*
X122275000Y-109310000D01*
X122257873Y-109396104D01*
X122209099Y-109469099D01*
X122136104Y-109517873D01*
X122050000Y-109535000D01*
X121600000Y-109535000D01*
X121513896Y-109517873D01*
X121440901Y-109469099D01*
X121392127Y-109396104D01*
X121375000Y-109310000D01*
X121375000Y-108810000D01*
X121392127Y-108723896D01*
X121440901Y-108650901D01*
X121513896Y-108602127D01*
X121600000Y-108585000D01*
X122050000Y-108585000D01*
X122136104Y-108602127D01*
G37*
G36*
X123686104Y-108602127D02*
G01*
X123759099Y-108650901D01*
X123807873Y-108723896D01*
X123825000Y-108810000D01*
X123825000Y-109310000D01*
X123807873Y-109396104D01*
X123759099Y-109469099D01*
X123686104Y-109517873D01*
X123600000Y-109535000D01*
X123150000Y-109535000D01*
X123063896Y-109517873D01*
X122990901Y-109469099D01*
X122942127Y-109396104D01*
X122925000Y-109310000D01*
X122925000Y-108810000D01*
X122942127Y-108723896D01*
X122990901Y-108650901D01*
X123063896Y-108602127D01*
X123150000Y-108585000D01*
X123600000Y-108585000D01*
X123686104Y-108602127D01*
G37*
G36*
X159902764Y-107751577D02*
G01*
X160029271Y-107803978D01*
X160143124Y-107880052D01*
X160239948Y-107976876D01*
X160316022Y-108090729D01*
X160368423Y-108217236D01*
X160395137Y-108351535D01*
X160395137Y-108488465D01*
X160368423Y-108622764D01*
X160316022Y-108749271D01*
X160239948Y-108863124D01*
X160143124Y-108959948D01*
X160029271Y-109036022D01*
X159902764Y-109088423D01*
X159768465Y-109115137D01*
X159631535Y-109115137D01*
X159497236Y-109088423D01*
X159370729Y-109036022D01*
X159256876Y-108959948D01*
X159160052Y-108863124D01*
X159083978Y-108749271D01*
X159031577Y-108622764D01*
X159004863Y-108488465D01*
X159004863Y-108351535D01*
X159031577Y-108217236D01*
X159083978Y-108090729D01*
X159160052Y-107976876D01*
X159256876Y-107880052D01*
X159370729Y-107803978D01*
X159497236Y-107751577D01*
X159631535Y-107724863D01*
X159768465Y-107724863D01*
X159902764Y-107751577D01*
G37*
G36*
X126651537Y-107700224D02*
G01*
X126716421Y-107743579D01*
X126759776Y-107808463D01*
X126775000Y-107885000D01*
X126775000Y-108285000D01*
X126759776Y-108361537D01*
X126716421Y-108426421D01*
X126651537Y-108469776D01*
X126575000Y-108485000D01*
X126025000Y-108485000D01*
X125948463Y-108469776D01*
X125883579Y-108426421D01*
X125840224Y-108361537D01*
X125825000Y-108285000D01*
X125825000Y-107885000D01*
X125840224Y-107808463D01*
X125883579Y-107743579D01*
X125948463Y-107700224D01*
X126025000Y-107685000D01*
X126575000Y-107685000D01*
X126651537Y-107700224D01*
G37*
G36*
X120978599Y-107179600D02*
G01*
X120521399Y-107179600D01*
X120521399Y-105960400D01*
X120978599Y-105960400D01*
X120978599Y-107179600D01*
G37*
G36*
X121737253Y-105964792D02*
G01*
X121744598Y-105964792D01*
X121758052Y-105970365D01*
X121787312Y-105978205D01*
X121813548Y-105993352D01*
X121827003Y-105998926D01*
X121832196Y-106004119D01*
X121838897Y-106007988D01*
X121881011Y-106050102D01*
X121884879Y-106056802D01*
X121890074Y-106061997D01*
X121895648Y-106075454D01*
X121910794Y-106101687D01*
X121918633Y-106130944D01*
X121924208Y-106144402D01*
X121925351Y-106156017D01*
X121926646Y-106160847D01*
X121928275Y-106185700D01*
X121928600Y-106189000D01*
X121928600Y-106951000D01*
X121928274Y-106954301D01*
X121926646Y-106979152D01*
X121925352Y-106983981D01*
X121924208Y-106995598D01*
X121918632Y-107009057D01*
X121910794Y-107038312D01*
X121895649Y-107064542D01*
X121890074Y-107078003D01*
X121884878Y-107083198D01*
X121881011Y-107089897D01*
X121838897Y-107132011D01*
X121832198Y-107135878D01*
X121827003Y-107141074D01*
X121813542Y-107146649D01*
X121787312Y-107161794D01*
X121758055Y-107169633D01*
X121744598Y-107175208D01*
X121737252Y-107175208D01*
X121729781Y-107177210D01*
X121670219Y-107177210D01*
X121662748Y-107175208D01*
X121655402Y-107175208D01*
X121641945Y-107169633D01*
X121612687Y-107161794D01*
X121586454Y-107146648D01*
X121572997Y-107141074D01*
X121567802Y-107135879D01*
X121561102Y-107132011D01*
X121518988Y-107089897D01*
X121515119Y-107083196D01*
X121509926Y-107078003D01*
X121504352Y-107064548D01*
X121489205Y-107038312D01*
X121481364Y-107009050D01*
X121475792Y-106995598D01*
X121474648Y-106983987D01*
X121473353Y-106979152D01*
X121471724Y-106954296D01*
X121471400Y-106951000D01*
X121471400Y-106189000D01*
X121471724Y-106185705D01*
X121473353Y-106160847D01*
X121474648Y-106156011D01*
X121475792Y-106144402D01*
X121481363Y-106130951D01*
X121489205Y-106101687D01*
X121504354Y-106075447D01*
X121509926Y-106061997D01*
X121515117Y-106056805D01*
X121518988Y-106050102D01*
X121561102Y-106007988D01*
X121567805Y-106004117D01*
X121572997Y-105998926D01*
X121586447Y-105993354D01*
X121612687Y-105978205D01*
X121641948Y-105970364D01*
X121655402Y-105964792D01*
X121662747Y-105964792D01*
X121670219Y-105962790D01*
X121729781Y-105962790D01*
X121737253Y-105964792D01*
G37*
G36*
X122687254Y-105964792D02*
G01*
X122694599Y-105964792D01*
X122708053Y-105970365D01*
X122737313Y-105978205D01*
X122763549Y-105993352D01*
X122777004Y-105998926D01*
X122782197Y-106004119D01*
X122788898Y-106007988D01*
X122831012Y-106050102D01*
X122834880Y-106056802D01*
X122840075Y-106061997D01*
X122845649Y-106075454D01*
X122860795Y-106101687D01*
X122868634Y-106130944D01*
X122874209Y-106144402D01*
X122875352Y-106156017D01*
X122876647Y-106160847D01*
X122878276Y-106185700D01*
X122878601Y-106189000D01*
X122878601Y-106951000D01*
X122878275Y-106954301D01*
X122876647Y-106979152D01*
X122875353Y-106983981D01*
X122874209Y-106995598D01*
X122868633Y-107009057D01*
X122860795Y-107038312D01*
X122845650Y-107064542D01*
X122840075Y-107078003D01*
X122834879Y-107083198D01*
X122831012Y-107089897D01*
X122788898Y-107132011D01*
X122782199Y-107135878D01*
X122777004Y-107141074D01*
X122763543Y-107146649D01*
X122737313Y-107161794D01*
X122708056Y-107169633D01*
X122694599Y-107175208D01*
X122687253Y-107175208D01*
X122679782Y-107177210D01*
X122620220Y-107177210D01*
X122612749Y-107175208D01*
X122605403Y-107175208D01*
X122591946Y-107169633D01*
X122562688Y-107161794D01*
X122536455Y-107146648D01*
X122522998Y-107141074D01*
X122517803Y-107135879D01*
X122511103Y-107132011D01*
X122468989Y-107089897D01*
X122465120Y-107083196D01*
X122459927Y-107078003D01*
X122454353Y-107064548D01*
X122439206Y-107038312D01*
X122431365Y-107009050D01*
X122425793Y-106995598D01*
X122424649Y-106983987D01*
X122423354Y-106979152D01*
X122421725Y-106954296D01*
X122421401Y-106951000D01*
X122421401Y-106189000D01*
X122421725Y-106185705D01*
X122423354Y-106160847D01*
X122424649Y-106156011D01*
X122425793Y-106144402D01*
X122431364Y-106130951D01*
X122439206Y-106101687D01*
X122454355Y-106075447D01*
X122459927Y-106061997D01*
X122465118Y-106056805D01*
X122468989Y-106050102D01*
X122511103Y-106007988D01*
X122517806Y-106004117D01*
X122522998Y-105998926D01*
X122536448Y-105993354D01*
X122562688Y-105978205D01*
X122591949Y-105970364D01*
X122605403Y-105964792D01*
X122612748Y-105964792D01*
X122620220Y-105962790D01*
X122679782Y-105962790D01*
X122687254Y-105964792D01*
G37*
G36*
X159902764Y-105211577D02*
G01*
X160029271Y-105263978D01*
X160143124Y-105340052D01*
X160239948Y-105436876D01*
X160316022Y-105550729D01*
X160368423Y-105677236D01*
X160395137Y-105811535D01*
X160395137Y-105948465D01*
X160368423Y-106082764D01*
X160316022Y-106209271D01*
X160239948Y-106323124D01*
X160143124Y-106419948D01*
X160029271Y-106496022D01*
X159902764Y-106548423D01*
X159768465Y-106575137D01*
X159631535Y-106575137D01*
X159497236Y-106548423D01*
X159370729Y-106496022D01*
X159256876Y-106419948D01*
X159160052Y-106323124D01*
X159083978Y-106209271D01*
X159031577Y-106082764D01*
X159004863Y-105948465D01*
X159004863Y-105811535D01*
X159031577Y-105677236D01*
X159083978Y-105550729D01*
X159160052Y-105436876D01*
X159256876Y-105340052D01*
X159370729Y-105263978D01*
X159497236Y-105211577D01*
X159631535Y-105184863D01*
X159768465Y-105184863D01*
X159902764Y-105211577D01*
G37*
G36*
X154120000Y-106160000D02*
G01*
X152420000Y-106160000D01*
X152420000Y-104460000D01*
X154120000Y-104460000D01*
X154120000Y-106160000D01*
G37*
G36*
X138276742Y-104496601D02*
G01*
X138430687Y-104560367D01*
X138569234Y-104652941D01*
X138687059Y-104770766D01*
X138779633Y-104909313D01*
X138843399Y-105063258D01*
X138875907Y-105226685D01*
X138875907Y-105393315D01*
X138843399Y-105556742D01*
X138779633Y-105710687D01*
X138687059Y-105849234D01*
X138569234Y-105967059D01*
X138430687Y-106059633D01*
X138276742Y-106123399D01*
X138113315Y-106155907D01*
X137946685Y-106155907D01*
X137783258Y-106123399D01*
X137629313Y-106059633D01*
X137490766Y-105967059D01*
X137372941Y-105849234D01*
X137280367Y-105710687D01*
X137216601Y-105556742D01*
X137184093Y-105393315D01*
X137184093Y-105226685D01*
X137216601Y-105063258D01*
X137280367Y-104909313D01*
X137372941Y-104770766D01*
X137490766Y-104652941D01*
X137629313Y-104560367D01*
X137783258Y-104496601D01*
X137946685Y-104464093D01*
X138113315Y-104464093D01*
X138276742Y-104496601D01*
G37*
G36*
X126531537Y-105250224D02*
G01*
X126596421Y-105293579D01*
X126639776Y-105358463D01*
X126655000Y-105435000D01*
X126655000Y-105835000D01*
X126639776Y-105911537D01*
X126596421Y-105976421D01*
X126531537Y-106019776D01*
X126455000Y-106035000D01*
X125905000Y-106035000D01*
X125828463Y-106019776D01*
X125763579Y-105976421D01*
X125720224Y-105911537D01*
X125705000Y-105835000D01*
X125705000Y-105435000D01*
X125720224Y-105358463D01*
X125763579Y-105293579D01*
X125828463Y-105250224D01*
X125905000Y-105235000D01*
X126455000Y-105235000D01*
X126531537Y-105250224D01*
G37*
G36*
X120787252Y-103344792D02*
G01*
X120794597Y-103344792D01*
X120808051Y-103350365D01*
X120837311Y-103358205D01*
X120863547Y-103373352D01*
X120877002Y-103378926D01*
X120882195Y-103384119D01*
X120888896Y-103387988D01*
X120931010Y-103430102D01*
X120934878Y-103436802D01*
X120940073Y-103441997D01*
X120945647Y-103455454D01*
X120960793Y-103481687D01*
X120968632Y-103510944D01*
X120974207Y-103524402D01*
X120975350Y-103536017D01*
X120976645Y-103540847D01*
X120978274Y-103565700D01*
X120978599Y-103569000D01*
X120978599Y-104331000D01*
X120978273Y-104334301D01*
X120976645Y-104359152D01*
X120975351Y-104363981D01*
X120974207Y-104375598D01*
X120968631Y-104389057D01*
X120960793Y-104418312D01*
X120945648Y-104444542D01*
X120940073Y-104458003D01*
X120934877Y-104463198D01*
X120931010Y-104469897D01*
X120888896Y-104512011D01*
X120882197Y-104515878D01*
X120877002Y-104521074D01*
X120863541Y-104526649D01*
X120837311Y-104541794D01*
X120808054Y-104549633D01*
X120794597Y-104555208D01*
X120787251Y-104555208D01*
X120779780Y-104557210D01*
X120720218Y-104557210D01*
X120712747Y-104555208D01*
X120705401Y-104555208D01*
X120691944Y-104549633D01*
X120662686Y-104541794D01*
X120636453Y-104526648D01*
X120622996Y-104521074D01*
X120617801Y-104515879D01*
X120611101Y-104512011D01*
X120568987Y-104469897D01*
X120565118Y-104463196D01*
X120559925Y-104458003D01*
X120554351Y-104444548D01*
X120539204Y-104418312D01*
X120531363Y-104389050D01*
X120525791Y-104375598D01*
X120524647Y-104363987D01*
X120523352Y-104359152D01*
X120521723Y-104334296D01*
X120521399Y-104331000D01*
X120521399Y-103569000D01*
X120521723Y-103565705D01*
X120523352Y-103540847D01*
X120524647Y-103536011D01*
X120525791Y-103524402D01*
X120531362Y-103510951D01*
X120539204Y-103481687D01*
X120554353Y-103455447D01*
X120559925Y-103441997D01*
X120565116Y-103436805D01*
X120568987Y-103430102D01*
X120611101Y-103387988D01*
X120617804Y-103384117D01*
X120622996Y-103378926D01*
X120636446Y-103373354D01*
X120662686Y-103358205D01*
X120691947Y-103350364D01*
X120705401Y-103344792D01*
X120712746Y-103344792D01*
X120720218Y-103342790D01*
X120779780Y-103342790D01*
X120787252Y-103344792D01*
G37*
G36*
X122687254Y-103344792D02*
G01*
X122694599Y-103344792D01*
X122708053Y-103350365D01*
X122737313Y-103358205D01*
X122763549Y-103373352D01*
X122777004Y-103378926D01*
X122782197Y-103384119D01*
X122788898Y-103387988D01*
X122831012Y-103430102D01*
X122834880Y-103436802D01*
X122840075Y-103441997D01*
X122845649Y-103455454D01*
X122860795Y-103481687D01*
X122868634Y-103510944D01*
X122874209Y-103524402D01*
X122875352Y-103536017D01*
X122876647Y-103540847D01*
X122878276Y-103565700D01*
X122878601Y-103569000D01*
X122878601Y-104331000D01*
X122878275Y-104334301D01*
X122876647Y-104359152D01*
X122875353Y-104363981D01*
X122874209Y-104375598D01*
X122868633Y-104389057D01*
X122860795Y-104418312D01*
X122845650Y-104444542D01*
X122840075Y-104458003D01*
X122834879Y-104463198D01*
X122831012Y-104469897D01*
X122788898Y-104512011D01*
X122782199Y-104515878D01*
X122777004Y-104521074D01*
X122763543Y-104526649D01*
X122737313Y-104541794D01*
X122708056Y-104549633D01*
X122694599Y-104555208D01*
X122687253Y-104555208D01*
X122679782Y-104557210D01*
X122620220Y-104557210D01*
X122612749Y-104555208D01*
X122605403Y-104555208D01*
X122591946Y-104549633D01*
X122562688Y-104541794D01*
X122536455Y-104526648D01*
X122522998Y-104521074D01*
X122517803Y-104515879D01*
X122511103Y-104512011D01*
X122468989Y-104469897D01*
X122465120Y-104463196D01*
X122459927Y-104458003D01*
X122454353Y-104444548D01*
X122439206Y-104418312D01*
X122431365Y-104389050D01*
X122425793Y-104375598D01*
X122424649Y-104363987D01*
X122423354Y-104359152D01*
X122421725Y-104334296D01*
X122421401Y-104331000D01*
X122421401Y-103569000D01*
X122421725Y-103565705D01*
X122423354Y-103540847D01*
X122424649Y-103536011D01*
X122425793Y-103524402D01*
X122431364Y-103510951D01*
X122439206Y-103481687D01*
X122454355Y-103455447D01*
X122459927Y-103441997D01*
X122465118Y-103436805D01*
X122468989Y-103430102D01*
X122511103Y-103387988D01*
X122517806Y-103384117D01*
X122522998Y-103378926D01*
X122536448Y-103373354D01*
X122562688Y-103358205D01*
X122591949Y-103350364D01*
X122605403Y-103344792D01*
X122612748Y-103344792D01*
X122620220Y-103342790D01*
X122679782Y-103342790D01*
X122687254Y-103344792D01*
G37*
G36*
X126531537Y-103600224D02*
G01*
X126596421Y-103643579D01*
X126639776Y-103708463D01*
X126655000Y-103785000D01*
X126655000Y-104185000D01*
X126639776Y-104261537D01*
X126596421Y-104326421D01*
X126531537Y-104369776D01*
X126455000Y-104385000D01*
X125905000Y-104385000D01*
X125828463Y-104369776D01*
X125763579Y-104326421D01*
X125720224Y-104261537D01*
X125705000Y-104185000D01*
X125705000Y-103785000D01*
X125720224Y-103708463D01*
X125763579Y-103643579D01*
X125828463Y-103600224D01*
X125905000Y-103585000D01*
X126455000Y-103585000D01*
X126531537Y-103600224D01*
G37*
G36*
X138276742Y-101956601D02*
G01*
X138430687Y-102020367D01*
X138569234Y-102112941D01*
X138687059Y-102230766D01*
X138779633Y-102369313D01*
X138843399Y-102523258D01*
X138875907Y-102686685D01*
X138875907Y-102853315D01*
X138843399Y-103016742D01*
X138779633Y-103170687D01*
X138687059Y-103309234D01*
X138569234Y-103427059D01*
X138430687Y-103519633D01*
X138276742Y-103583399D01*
X138113315Y-103615907D01*
X137946685Y-103615907D01*
X137783258Y-103583399D01*
X137629313Y-103519633D01*
X137490766Y-103427059D01*
X137372941Y-103309234D01*
X137280367Y-103170687D01*
X137216601Y-103016742D01*
X137184093Y-102853315D01*
X137184093Y-102686685D01*
X137216601Y-102523258D01*
X137280367Y-102369313D01*
X137372941Y-102230766D01*
X137490766Y-102112941D01*
X137629313Y-102020367D01*
X137783258Y-101956601D01*
X137946685Y-101924093D01*
X138113315Y-101924093D01*
X138276742Y-101956601D01*
G37*
G36*
X153516742Y-101956601D02*
G01*
X153670687Y-102020367D01*
X153809234Y-102112941D01*
X153927059Y-102230766D01*
X154019633Y-102369313D01*
X154083399Y-102523258D01*
X154115907Y-102686685D01*
X154115907Y-102853315D01*
X154083399Y-103016742D01*
X154019633Y-103170687D01*
X153927059Y-103309234D01*
X153809234Y-103427059D01*
X153670687Y-103519633D01*
X153516742Y-103583399D01*
X153353315Y-103615907D01*
X153186685Y-103615907D01*
X153023258Y-103583399D01*
X152869313Y-103519633D01*
X152730766Y-103427059D01*
X152612941Y-103309234D01*
X152520367Y-103170687D01*
X152456601Y-103016742D01*
X152424093Y-102853315D01*
X152424093Y-102686685D01*
X152456601Y-102523258D01*
X152520367Y-102369313D01*
X152612941Y-102230766D01*
X152730766Y-102112941D01*
X152869313Y-102020367D01*
X153023258Y-101956601D01*
X153186685Y-101924093D01*
X153353315Y-101924093D01*
X153516742Y-101956601D01*
G37*
G36*
X132239009Y-102043754D02*
G01*
X132276317Y-102068683D01*
X132301246Y-102105991D01*
X132310000Y-102150000D01*
X132310000Y-103245000D01*
X132301246Y-103289009D01*
X132276317Y-103326317D01*
X132239009Y-103351246D01*
X132195000Y-103360000D01*
X131965000Y-103360000D01*
X131920991Y-103351246D01*
X131883683Y-103326317D01*
X131858754Y-103289009D01*
X131850000Y-103245000D01*
X131850000Y-102150000D01*
X131858754Y-102105991D01*
X131883683Y-102068683D01*
X131920991Y-102043754D01*
X131965000Y-102035000D01*
X132195000Y-102035000D01*
X132239009Y-102043754D01*
G37*
G36*
X132889009Y-102043754D02*
G01*
X132926317Y-102068683D01*
X132951246Y-102105991D01*
X132960000Y-102150000D01*
X132960000Y-103245000D01*
X132951246Y-103289009D01*
X132926317Y-103326317D01*
X132889009Y-103351246D01*
X132845000Y-103360000D01*
X132615000Y-103360000D01*
X132570991Y-103351246D01*
X132533683Y-103326317D01*
X132508754Y-103289009D01*
X132500000Y-103245000D01*
X132500000Y-102150000D01*
X132508754Y-102105991D01*
X132533683Y-102068683D01*
X132570991Y-102043754D01*
X132615000Y-102035000D01*
X132845000Y-102035000D01*
X132889009Y-102043754D01*
G37*
G36*
X133539009Y-102043754D02*
G01*
X133576317Y-102068683D01*
X133601246Y-102105991D01*
X133610000Y-102150000D01*
X133610000Y-103245000D01*
X133601246Y-103289009D01*
X133576317Y-103326317D01*
X133539009Y-103351246D01*
X133495000Y-103360000D01*
X133265000Y-103360000D01*
X133220991Y-103351246D01*
X133183683Y-103326317D01*
X133158754Y-103289009D01*
X133150000Y-103245000D01*
X133150000Y-102150000D01*
X133158754Y-102105991D01*
X133183683Y-102068683D01*
X133220991Y-102043754D01*
X133265000Y-102035000D01*
X133495000Y-102035000D01*
X133539009Y-102043754D01*
G37*
G36*
X134189009Y-102043754D02*
G01*
X134226317Y-102068683D01*
X134251246Y-102105991D01*
X134260000Y-102150000D01*
X134260000Y-103245000D01*
X134251246Y-103289009D01*
X134226317Y-103326317D01*
X134189009Y-103351246D01*
X134145000Y-103360000D01*
X133915000Y-103360000D01*
X133870991Y-103351246D01*
X133833683Y-103326317D01*
X133808754Y-103289009D01*
X133800000Y-103245000D01*
X133800000Y-102150000D01*
X133808754Y-102105991D01*
X133833683Y-102068683D01*
X133870991Y-102043754D01*
X133915000Y-102035000D01*
X134145000Y-102035000D01*
X134189009Y-102043754D01*
G37*
G36*
X121236104Y-101752127D02*
G01*
X121309099Y-101800901D01*
X121357873Y-101873896D01*
X121375000Y-101960000D01*
X121375000Y-102460000D01*
X121357873Y-102546104D01*
X121309099Y-102619099D01*
X121236104Y-102667873D01*
X121150000Y-102685000D01*
X120700000Y-102685000D01*
X120613896Y-102667873D01*
X120540901Y-102619099D01*
X120492127Y-102546104D01*
X120475000Y-102460000D01*
X120475000Y-101960000D01*
X120492127Y-101873896D01*
X120540901Y-101800901D01*
X120613896Y-101752127D01*
X120700000Y-101735000D01*
X121150000Y-101735000D01*
X121236104Y-101752127D01*
G37*
G36*
X122786104Y-101752127D02*
G01*
X122859099Y-101800901D01*
X122907873Y-101873896D01*
X122925000Y-101960000D01*
X122925000Y-102460000D01*
X122907873Y-102546104D01*
X122859099Y-102619099D01*
X122786104Y-102667873D01*
X122700000Y-102685000D01*
X122250000Y-102685000D01*
X122163896Y-102667873D01*
X122090901Y-102619099D01*
X122042127Y-102546104D01*
X122025000Y-102460000D01*
X122025000Y-101960000D01*
X122042127Y-101873896D01*
X122090901Y-101800901D01*
X122163896Y-101752127D01*
X122250000Y-101735000D01*
X122700000Y-101735000D01*
X122786104Y-101752127D01*
G37*
G36*
X132239009Y-99768754D02*
G01*
X132276317Y-99793683D01*
X132301246Y-99830991D01*
X132310000Y-99875000D01*
X132310000Y-100970000D01*
X132301246Y-101014009D01*
X132276317Y-101051317D01*
X132239009Y-101076246D01*
X132195000Y-101085000D01*
X131965000Y-101085000D01*
X131920991Y-101076246D01*
X131883683Y-101051317D01*
X131858754Y-101014009D01*
X131850000Y-100970000D01*
X131850000Y-99875000D01*
X131858754Y-99830991D01*
X131883683Y-99793683D01*
X131920991Y-99768754D01*
X131965000Y-99760000D01*
X132195000Y-99760000D01*
X132239009Y-99768754D01*
G37*
G36*
X132889009Y-99768754D02*
G01*
X132926317Y-99793683D01*
X132951246Y-99830991D01*
X132960000Y-99875000D01*
X132960000Y-100970000D01*
X132951246Y-101014009D01*
X132926317Y-101051317D01*
X132889009Y-101076246D01*
X132845000Y-101085000D01*
X132615000Y-101085000D01*
X132570991Y-101076246D01*
X132533683Y-101051317D01*
X132508754Y-101014009D01*
X132500000Y-100970000D01*
X132500000Y-99875000D01*
X132508754Y-99830991D01*
X132533683Y-99793683D01*
X132570991Y-99768754D01*
X132615000Y-99760000D01*
X132845000Y-99760000D01*
X132889009Y-99768754D01*
G37*
G36*
X133539009Y-99768754D02*
G01*
X133576317Y-99793683D01*
X133601246Y-99830991D01*
X133610000Y-99875000D01*
X133610000Y-100970000D01*
X133601246Y-101014009D01*
X133576317Y-101051317D01*
X133539009Y-101076246D01*
X133495000Y-101085000D01*
X133265000Y-101085000D01*
X133220991Y-101076246D01*
X133183683Y-101051317D01*
X133158754Y-101014009D01*
X133150000Y-100970000D01*
X133150000Y-99875000D01*
X133158754Y-99830991D01*
X133183683Y-99793683D01*
X133220991Y-99768754D01*
X133265000Y-99760000D01*
X133495000Y-99760000D01*
X133539009Y-99768754D01*
G37*
G36*
X134189009Y-99768754D02*
G01*
X134226317Y-99793683D01*
X134251246Y-99830991D01*
X134260000Y-99875000D01*
X134260000Y-100970000D01*
X134251246Y-101014009D01*
X134226317Y-101051317D01*
X134189009Y-101076246D01*
X134145000Y-101085000D01*
X133915000Y-101085000D01*
X133870991Y-101076246D01*
X133833683Y-101051317D01*
X133808754Y-101014009D01*
X133800000Y-100970000D01*
X133800000Y-99875000D01*
X133808754Y-99830991D01*
X133833683Y-99793683D01*
X133870991Y-99768754D01*
X133915000Y-99760000D01*
X134145000Y-99760000D01*
X134189009Y-99768754D01*
G37*
G36*
X138276742Y-99416601D02*
G01*
X138430687Y-99480367D01*
X138569234Y-99572941D01*
X138687059Y-99690766D01*
X138779633Y-99829313D01*
X138843399Y-99983258D01*
X138875907Y-100146685D01*
X138875907Y-100313315D01*
X138843399Y-100476742D01*
X138779633Y-100630687D01*
X138687059Y-100769234D01*
X138569234Y-100887059D01*
X138430687Y-100979633D01*
X138276742Y-101043399D01*
X138113315Y-101075907D01*
X137946685Y-101075907D01*
X137783258Y-101043399D01*
X137629313Y-100979633D01*
X137490766Y-100887059D01*
X137372941Y-100769234D01*
X137280367Y-100630687D01*
X137216601Y-100476742D01*
X137184093Y-100313315D01*
X137184093Y-100146685D01*
X137216601Y-99983258D01*
X137280367Y-99829313D01*
X137372941Y-99690766D01*
X137490766Y-99572941D01*
X137629313Y-99480367D01*
X137783258Y-99416601D01*
X137946685Y-99384093D01*
X138113315Y-99384093D01*
X138276742Y-99416601D01*
G37*
G36*
X153516742Y-99416601D02*
G01*
X153670687Y-99480367D01*
X153809234Y-99572941D01*
X153927059Y-99690766D01*
X154019633Y-99829313D01*
X154083399Y-99983258D01*
X154115907Y-100146685D01*
X154115907Y-100313315D01*
X154083399Y-100476742D01*
X154019633Y-100630687D01*
X153927059Y-100769234D01*
X153809234Y-100887059D01*
X153670687Y-100979633D01*
X153516742Y-101043399D01*
X153353315Y-101075907D01*
X153186685Y-101075907D01*
X153023258Y-101043399D01*
X152869313Y-100979633D01*
X152730766Y-100887059D01*
X152612941Y-100769234D01*
X152520367Y-100630687D01*
X152456601Y-100476742D01*
X152424093Y-100313315D01*
X152424093Y-100146685D01*
X152456601Y-99983258D01*
X152520367Y-99829313D01*
X152612941Y-99690766D01*
X152730766Y-99572941D01*
X152869313Y-99480367D01*
X153023258Y-99416601D01*
X153186685Y-99384093D01*
X153353315Y-99384093D01*
X153516742Y-99416601D01*
G37*
G36*
X121236104Y-100042127D02*
G01*
X121309099Y-100090901D01*
X121357873Y-100163896D01*
X121375000Y-100250000D01*
X121375000Y-100750000D01*
X121357873Y-100836104D01*
X121309099Y-100909099D01*
X121236104Y-100957873D01*
X121150000Y-100975000D01*
X120700000Y-100975000D01*
X120613896Y-100957873D01*
X120540901Y-100909099D01*
X120492127Y-100836104D01*
X120475000Y-100750000D01*
X120475000Y-100250000D01*
X120492127Y-100163896D01*
X120540901Y-100090901D01*
X120613896Y-100042127D01*
X120700000Y-100025000D01*
X121150000Y-100025000D01*
X121236104Y-100042127D01*
G37*
G36*
X122786104Y-100042127D02*
G01*
X122859099Y-100090901D01*
X122907873Y-100163896D01*
X122925000Y-100250000D01*
X122925000Y-100750000D01*
X122907873Y-100836104D01*
X122859099Y-100909099D01*
X122786104Y-100957873D01*
X122700000Y-100975000D01*
X122250000Y-100975000D01*
X122163896Y-100957873D01*
X122090901Y-100909099D01*
X122042127Y-100836104D01*
X122025000Y-100750000D01*
X122025000Y-100250000D01*
X122042127Y-100163896D01*
X122090901Y-100090901D01*
X122163896Y-100042127D01*
X122250000Y-100025000D01*
X122700000Y-100025000D01*
X122786104Y-100042127D01*
G37*
G36*
X123881537Y-98250224D02*
G01*
X123946421Y-98293579D01*
X123989776Y-98358463D01*
X124005000Y-98435000D01*
X124005000Y-98985000D01*
X123989776Y-99061537D01*
X123946421Y-99126421D01*
X123881537Y-99169776D01*
X123805000Y-99185000D01*
X123405000Y-99185000D01*
X123328463Y-99169776D01*
X123263579Y-99126421D01*
X123220224Y-99061537D01*
X123205000Y-98985000D01*
X123205000Y-98435000D01*
X123220224Y-98358463D01*
X123263579Y-98293579D01*
X123328463Y-98250224D01*
X123405000Y-98235000D01*
X123805000Y-98235000D01*
X123881537Y-98250224D01*
G37*
G36*
X125531537Y-98250224D02*
G01*
X125596421Y-98293579D01*
X125639776Y-98358463D01*
X125655000Y-98435000D01*
X125655000Y-98985000D01*
X125639776Y-99061537D01*
X125596421Y-99126421D01*
X125531537Y-99169776D01*
X125455000Y-99185000D01*
X125055000Y-99185000D01*
X124978463Y-99169776D01*
X124913579Y-99126421D01*
X124870224Y-99061537D01*
X124855000Y-98985000D01*
X124855000Y-98435000D01*
X124870224Y-98358463D01*
X124913579Y-98293579D01*
X124978463Y-98250224D01*
X125055000Y-98235000D01*
X125455000Y-98235000D01*
X125531537Y-98250224D01*
G37*
G36*
X119816104Y-98202127D02*
G01*
X119889099Y-98250901D01*
X119937873Y-98323896D01*
X119955000Y-98410000D01*
X119955000Y-98910000D01*
X119937873Y-98996104D01*
X119889099Y-99069099D01*
X119816104Y-99117873D01*
X119730000Y-99135000D01*
X119280000Y-99135000D01*
X119193896Y-99117873D01*
X119120901Y-99069099D01*
X119072127Y-98996104D01*
X119055000Y-98910000D01*
X119055000Y-98410000D01*
X119072127Y-98323896D01*
X119120901Y-98250901D01*
X119193896Y-98202127D01*
X119280000Y-98185000D01*
X119730000Y-98185000D01*
X119816104Y-98202127D01*
G37*
G36*
X121366104Y-98202127D02*
G01*
X121439099Y-98250901D01*
X121487873Y-98323896D01*
X121505000Y-98410000D01*
X121505000Y-98910000D01*
X121487873Y-98996104D01*
X121439099Y-99069099D01*
X121366104Y-99117873D01*
X121280000Y-99135000D01*
X120830000Y-99135000D01*
X120743896Y-99117873D01*
X120670901Y-99069099D01*
X120622127Y-98996104D01*
X120605000Y-98910000D01*
X120605000Y-98410000D01*
X120622127Y-98323896D01*
X120670901Y-98250901D01*
X120743896Y-98202127D01*
X120830000Y-98185000D01*
X121280000Y-98185000D01*
X121366104Y-98202127D01*
G37*
G36*
X132116104Y-98002127D02*
G01*
X132189099Y-98050901D01*
X132237873Y-98123896D01*
X132255000Y-98210000D01*
X132255000Y-98710000D01*
X132237873Y-98796104D01*
X132189099Y-98869099D01*
X132116104Y-98917873D01*
X132030000Y-98935000D01*
X131580000Y-98935000D01*
X131493896Y-98917873D01*
X131420901Y-98869099D01*
X131372127Y-98796104D01*
X131355000Y-98710000D01*
X131355000Y-98210000D01*
X131372127Y-98123896D01*
X131420901Y-98050901D01*
X131493896Y-98002127D01*
X131580000Y-97985000D01*
X132030000Y-97985000D01*
X132116104Y-98002127D01*
G37*
G36*
X133666104Y-98002127D02*
G01*
X133739099Y-98050901D01*
X133787873Y-98123896D01*
X133805000Y-98210000D01*
X133805000Y-98710000D01*
X133787873Y-98796104D01*
X133739099Y-98869099D01*
X133666104Y-98917873D01*
X133580000Y-98935000D01*
X133130000Y-98935000D01*
X133043896Y-98917873D01*
X132970901Y-98869099D01*
X132922127Y-98796104D01*
X132905000Y-98710000D01*
X132905000Y-98210000D01*
X132922127Y-98123896D01*
X132970901Y-98050901D01*
X133043896Y-98002127D01*
X133130000Y-97985000D01*
X133580000Y-97985000D01*
X133666104Y-98002127D01*
G37*
G36*
X138276742Y-96876601D02*
G01*
X138430687Y-96940367D01*
X138569234Y-97032941D01*
X138687059Y-97150766D01*
X138779633Y-97289313D01*
X138843399Y-97443258D01*
X138875907Y-97606685D01*
X138875907Y-97773315D01*
X138843399Y-97936742D01*
X138779633Y-98090687D01*
X138687059Y-98229234D01*
X138569234Y-98347059D01*
X138430687Y-98439633D01*
X138276742Y-98503399D01*
X138113315Y-98535907D01*
X137946685Y-98535907D01*
X137783258Y-98503399D01*
X137629313Y-98439633D01*
X137490766Y-98347059D01*
X137372941Y-98229234D01*
X137280367Y-98090687D01*
X137216601Y-97936742D01*
X137184093Y-97773315D01*
X137184093Y-97606685D01*
X137216601Y-97443258D01*
X137280367Y-97289313D01*
X137372941Y-97150766D01*
X137490766Y-97032941D01*
X137629313Y-96940367D01*
X137783258Y-96876601D01*
X137946685Y-96844093D01*
X138113315Y-96844093D01*
X138276742Y-96876601D01*
G37*
G36*
X153516742Y-96876601D02*
G01*
X153670687Y-96940367D01*
X153809234Y-97032941D01*
X153927059Y-97150766D01*
X154019633Y-97289313D01*
X154083399Y-97443258D01*
X154115907Y-97606685D01*
X154115907Y-97773315D01*
X154083399Y-97936742D01*
X154019633Y-98090687D01*
X153927059Y-98229234D01*
X153809234Y-98347059D01*
X153670687Y-98439633D01*
X153516742Y-98503399D01*
X153353315Y-98535907D01*
X153186685Y-98535907D01*
X153023258Y-98503399D01*
X152869313Y-98439633D01*
X152730766Y-98347059D01*
X152612941Y-98229234D01*
X152520367Y-98090687D01*
X152456601Y-97936742D01*
X152424093Y-97773315D01*
X152424093Y-97606685D01*
X152456601Y-97443258D01*
X152520367Y-97289313D01*
X152612941Y-97150766D01*
X152730766Y-97032941D01*
X152869313Y-96940367D01*
X153023258Y-96876601D01*
X153186685Y-96844093D01*
X153353315Y-96844093D01*
X153516742Y-96876601D01*
G37*
G36*
X133166104Y-96202127D02*
G01*
X133239099Y-96250901D01*
X133287873Y-96323896D01*
X133305000Y-96410000D01*
X133305000Y-96910000D01*
X133287873Y-96996104D01*
X133239099Y-97069099D01*
X133166104Y-97117873D01*
X133080000Y-97135000D01*
X132630000Y-97135000D01*
X132543896Y-97117873D01*
X132470901Y-97069099D01*
X132422127Y-96996104D01*
X132405000Y-96910000D01*
X132405000Y-96410000D01*
X132422127Y-96323896D01*
X132470901Y-96250901D01*
X132543896Y-96202127D01*
X132630000Y-96185000D01*
X133080000Y-96185000D01*
X133166104Y-96202127D01*
G37*
G36*
X134716104Y-96202127D02*
G01*
X134789099Y-96250901D01*
X134837873Y-96323896D01*
X134855000Y-96410000D01*
X134855000Y-96910000D01*
X134837873Y-96996104D01*
X134789099Y-97069099D01*
X134716104Y-97117873D01*
X134630000Y-97135000D01*
X134180000Y-97135000D01*
X134093896Y-97117873D01*
X134020901Y-97069099D01*
X133972127Y-96996104D01*
X133955000Y-96910000D01*
X133955000Y-96410000D01*
X133972127Y-96323896D01*
X134020901Y-96250901D01*
X134093896Y-96202127D01*
X134180000Y-96185000D01*
X134630000Y-96185000D01*
X134716104Y-96202127D01*
G37*
G36*
X138276742Y-94336601D02*
G01*
X138430687Y-94400367D01*
X138569234Y-94492941D01*
X138687059Y-94610766D01*
X138779633Y-94749313D01*
X138843399Y-94903258D01*
X138875907Y-95066685D01*
X138875907Y-95233315D01*
X138843399Y-95396742D01*
X138779633Y-95550687D01*
X138687059Y-95689234D01*
X138569234Y-95807059D01*
X138430687Y-95899633D01*
X138276742Y-95963399D01*
X138113315Y-95995907D01*
X137946685Y-95995907D01*
X137783258Y-95963399D01*
X137629313Y-95899633D01*
X137490766Y-95807059D01*
X137372941Y-95689234D01*
X137280367Y-95550687D01*
X137216601Y-95396742D01*
X137184093Y-95233315D01*
X137184093Y-95066685D01*
X137216601Y-94903258D01*
X137280367Y-94749313D01*
X137372941Y-94610766D01*
X137490766Y-94492941D01*
X137629313Y-94400367D01*
X137783258Y-94336601D01*
X137946685Y-94304093D01*
X138113315Y-94304093D01*
X138276742Y-94336601D01*
G37*
G36*
X153516742Y-94336601D02*
G01*
X153670687Y-94400367D01*
X153809234Y-94492941D01*
X153927059Y-94610766D01*
X154019633Y-94749313D01*
X154083399Y-94903258D01*
X154115907Y-95066685D01*
X154115907Y-95233315D01*
X154083399Y-95396742D01*
X154019633Y-95550687D01*
X153927059Y-95689234D01*
X153809234Y-95807059D01*
X153670687Y-95899633D01*
X153516742Y-95963399D01*
X153353315Y-95995907D01*
X153186685Y-95995907D01*
X153023258Y-95963399D01*
X152869313Y-95899633D01*
X152730766Y-95807059D01*
X152612941Y-95689234D01*
X152520367Y-95550687D01*
X152456601Y-95396742D01*
X152424093Y-95233315D01*
X152424093Y-95066685D01*
X152456601Y-94903258D01*
X152520367Y-94749313D01*
X152612941Y-94610766D01*
X152730766Y-94492941D01*
X152869313Y-94400367D01*
X153023258Y-94336601D01*
X153186685Y-94304093D01*
X153353315Y-94304093D01*
X153516742Y-94336601D01*
G37*
G36*
X123831537Y-94050224D02*
G01*
X123896421Y-94093579D01*
X123939776Y-94158463D01*
X123955000Y-94235000D01*
X123955000Y-94785000D01*
X123939776Y-94861537D01*
X123896421Y-94926421D01*
X123831537Y-94969776D01*
X123755000Y-94985000D01*
X123355000Y-94985000D01*
X123278463Y-94969776D01*
X123213579Y-94926421D01*
X123170224Y-94861537D01*
X123155000Y-94785000D01*
X123155000Y-94235000D01*
X123170224Y-94158463D01*
X123213579Y-94093579D01*
X123278463Y-94050224D01*
X123355000Y-94035000D01*
X123755000Y-94035000D01*
X123831537Y-94050224D01*
G37*
G36*
X125481537Y-94050224D02*
G01*
X125546421Y-94093579D01*
X125589776Y-94158463D01*
X125605000Y-94235000D01*
X125605000Y-94785000D01*
X125589776Y-94861537D01*
X125546421Y-94926421D01*
X125481537Y-94969776D01*
X125405000Y-94985000D01*
X125005000Y-94985000D01*
X124928463Y-94969776D01*
X124863579Y-94926421D01*
X124820224Y-94861537D01*
X124805000Y-94785000D01*
X124805000Y-94235000D01*
X124820224Y-94158463D01*
X124863579Y-94093579D01*
X124928463Y-94050224D01*
X125005000Y-94035000D01*
X125405000Y-94035000D01*
X125481537Y-94050224D01*
G37*
G36*
X119816104Y-94002127D02*
G01*
X119889099Y-94050901D01*
X119937873Y-94123896D01*
X119955000Y-94210000D01*
X119955000Y-94710000D01*
X119937873Y-94796104D01*
X119889099Y-94869099D01*
X119816104Y-94917873D01*
X119730000Y-94935000D01*
X119280000Y-94935000D01*
X119193896Y-94917873D01*
X119120901Y-94869099D01*
X119072127Y-94796104D01*
X119055000Y-94710000D01*
X119055000Y-94210000D01*
X119072127Y-94123896D01*
X119120901Y-94050901D01*
X119193896Y-94002127D01*
X119280000Y-93985000D01*
X119730000Y-93985000D01*
X119816104Y-94002127D01*
G37*
G36*
X121366104Y-94002127D02*
G01*
X121439099Y-94050901D01*
X121487873Y-94123896D01*
X121505000Y-94210000D01*
X121505000Y-94710000D01*
X121487873Y-94796104D01*
X121439099Y-94869099D01*
X121366104Y-94917873D01*
X121280000Y-94935000D01*
X120830000Y-94935000D01*
X120743896Y-94917873D01*
X120670901Y-94869099D01*
X120622127Y-94796104D01*
X120605000Y-94710000D01*
X120605000Y-94210000D01*
X120622127Y-94123896D01*
X120670901Y-94050901D01*
X120743896Y-94002127D01*
X120830000Y-93985000D01*
X121280000Y-93985000D01*
X121366104Y-94002127D01*
G37*
G36*
X127681537Y-94000224D02*
G01*
X127746421Y-94043579D01*
X127789776Y-94108463D01*
X127805000Y-94185000D01*
X127805000Y-94735000D01*
X127789776Y-94811537D01*
X127746421Y-94876421D01*
X127681537Y-94919776D01*
X127605000Y-94935000D01*
X127205000Y-94935000D01*
X127128463Y-94919776D01*
X127063579Y-94876421D01*
X127020224Y-94811537D01*
X127005000Y-94735000D01*
X127005000Y-94185000D01*
X127020224Y-94108463D01*
X127063579Y-94043579D01*
X127128463Y-94000224D01*
X127205000Y-93985000D01*
X127605000Y-93985000D01*
X127681537Y-94000224D01*
G37*
G36*
X129331537Y-94000224D02*
G01*
X129396421Y-94043579D01*
X129439776Y-94108463D01*
X129455000Y-94185000D01*
X129455000Y-94735000D01*
X129439776Y-94811537D01*
X129396421Y-94876421D01*
X129331537Y-94919776D01*
X129255000Y-94935000D01*
X128855000Y-94935000D01*
X128778463Y-94919776D01*
X128713579Y-94876421D01*
X128670224Y-94811537D01*
X128655000Y-94735000D01*
X128655000Y-94185000D01*
X128670224Y-94108463D01*
X128713579Y-94043579D01*
X128778463Y-94000224D01*
X128855000Y-93985000D01*
X129255000Y-93985000D01*
X129331537Y-94000224D01*
G37*
G36*
X133891104Y-93952127D02*
G01*
X133964099Y-94000901D01*
X134012873Y-94073896D01*
X134030000Y-94160000D01*
X134030000Y-94660000D01*
X134012873Y-94746104D01*
X133964099Y-94819099D01*
X133891104Y-94867873D01*
X133805000Y-94885000D01*
X133355000Y-94885000D01*
X133268896Y-94867873D01*
X133195901Y-94819099D01*
X133147127Y-94746104D01*
X133130000Y-94660000D01*
X133130000Y-94160000D01*
X133147127Y-94073896D01*
X133195901Y-94000901D01*
X133268896Y-93952127D01*
X133355000Y-93935000D01*
X133805000Y-93935000D01*
X133891104Y-93952127D01*
G37*
G36*
X135441104Y-93952127D02*
G01*
X135514099Y-94000901D01*
X135562873Y-94073896D01*
X135580000Y-94160000D01*
X135580000Y-94660000D01*
X135562873Y-94746104D01*
X135514099Y-94819099D01*
X135441104Y-94867873D01*
X135355000Y-94885000D01*
X134905000Y-94885000D01*
X134818896Y-94867873D01*
X134745901Y-94819099D01*
X134697127Y-94746104D01*
X134680000Y-94660000D01*
X134680000Y-94160000D01*
X134697127Y-94073896D01*
X134745901Y-94000901D01*
X134818896Y-93952127D01*
X134905000Y-93935000D01*
X135355000Y-93935000D01*
X135441104Y-93952127D01*
G37*
G36*
X138276742Y-91796601D02*
G01*
X138430687Y-91860367D01*
X138569234Y-91952941D01*
X138687059Y-92070766D01*
X138779633Y-92209313D01*
X138843399Y-92363258D01*
X138875907Y-92526685D01*
X138875907Y-92693315D01*
X138843399Y-92856742D01*
X138779633Y-93010687D01*
X138687059Y-93149234D01*
X138569234Y-93267059D01*
X138430687Y-93359633D01*
X138276742Y-93423399D01*
X138113315Y-93455907D01*
X137946685Y-93455907D01*
X137783258Y-93423399D01*
X137629313Y-93359633D01*
X137490766Y-93267059D01*
X137372941Y-93149234D01*
X137280367Y-93010687D01*
X137216601Y-92856742D01*
X137184093Y-92693315D01*
X137184093Y-92526685D01*
X137216601Y-92363258D01*
X137280367Y-92209313D01*
X137372941Y-92070766D01*
X137490766Y-91952941D01*
X137629313Y-91860367D01*
X137783258Y-91796601D01*
X137946685Y-91764093D01*
X138113315Y-91764093D01*
X138276742Y-91796601D01*
G37*
G36*
X153516742Y-91796601D02*
G01*
X153670687Y-91860367D01*
X153809234Y-91952941D01*
X153927059Y-92070766D01*
X154019633Y-92209313D01*
X154083399Y-92363258D01*
X154115907Y-92526685D01*
X154115907Y-92693315D01*
X154083399Y-92856742D01*
X154019633Y-93010687D01*
X153927059Y-93149234D01*
X153809234Y-93267059D01*
X153670687Y-93359633D01*
X153516742Y-93423399D01*
X153353315Y-93455907D01*
X153186685Y-93455907D01*
X153023258Y-93423399D01*
X152869313Y-93359633D01*
X152730766Y-93267059D01*
X152612941Y-93149234D01*
X152520367Y-93010687D01*
X152456601Y-92856742D01*
X152424093Y-92693315D01*
X152424093Y-92526685D01*
X152456601Y-92363258D01*
X152520367Y-92209313D01*
X152612941Y-92070766D01*
X152730766Y-91952941D01*
X152869313Y-91860367D01*
X153023258Y-91796601D01*
X153186685Y-91764093D01*
X153353315Y-91764093D01*
X153516742Y-91796601D01*
G37*
G36*
X132557801Y-93044200D02*
G01*
X132202201Y-93044200D01*
X132202201Y-91875800D01*
X132557801Y-91875800D01*
X132557801Y-93044200D01*
G37*
G36*
X133207800Y-93044200D02*
G01*
X132852200Y-93044200D01*
X132852200Y-91875800D01*
X133207800Y-91875800D01*
X133207800Y-93044200D01*
G37*
G36*
X133857799Y-93044200D02*
G01*
X133502199Y-93044200D01*
X133502199Y-91875800D01*
X133857799Y-91875800D01*
X133857799Y-93044200D01*
G37*
G36*
X130336104Y-90752127D02*
G01*
X130409099Y-90800901D01*
X130457873Y-90873896D01*
X130475000Y-90960000D01*
X130475000Y-91410000D01*
X130457873Y-91496104D01*
X130409099Y-91569099D01*
X130336104Y-91617873D01*
X130250000Y-91635000D01*
X129750000Y-91635000D01*
X129663896Y-91617873D01*
X129590901Y-91569099D01*
X129542127Y-91496104D01*
X129525000Y-91410000D01*
X129525000Y-90960000D01*
X129542127Y-90873896D01*
X129590901Y-90800901D01*
X129663896Y-90752127D01*
X129750000Y-90735000D01*
X130250000Y-90735000D01*
X130336104Y-90752127D01*
G37*
G36*
X126396600Y-91554002D02*
G01*
X125126600Y-91554002D01*
X125126600Y-91046002D01*
X126396600Y-91046002D01*
X126396600Y-91554002D01*
G37*
G36*
X128835000Y-91554002D02*
G01*
X127565000Y-91554002D01*
X127565000Y-91046002D01*
X128835000Y-91046002D01*
X128835000Y-91554002D01*
G37*
G36*
X120966104Y-90542127D02*
G01*
X121039099Y-90590901D01*
X121087873Y-90663896D01*
X121105000Y-90750000D01*
X121105000Y-91200000D01*
X121087873Y-91286104D01*
X121039099Y-91359099D01*
X120966104Y-91407873D01*
X120880000Y-91425000D01*
X120380000Y-91425000D01*
X120293896Y-91407873D01*
X120220901Y-91359099D01*
X120172127Y-91286104D01*
X120155000Y-91200000D01*
X120155000Y-90750000D01*
X120172127Y-90663896D01*
X120220901Y-90590901D01*
X120293896Y-90542127D01*
X120380000Y-90525000D01*
X120880000Y-90525000D01*
X120966104Y-90542127D01*
G37*
G36*
X124016104Y-90542127D02*
G01*
X124089099Y-90590901D01*
X124137873Y-90663896D01*
X124155000Y-90750000D01*
X124155000Y-91200000D01*
X124137873Y-91286104D01*
X124089099Y-91359099D01*
X124016104Y-91407873D01*
X123930000Y-91425000D01*
X123430000Y-91425000D01*
X123343896Y-91407873D01*
X123270901Y-91359099D01*
X123222127Y-91286104D01*
X123205000Y-91200000D01*
X123205000Y-90750000D01*
X123222127Y-90663896D01*
X123270901Y-90590901D01*
X123343896Y-90542127D01*
X123430000Y-90525000D01*
X123930000Y-90525000D01*
X124016104Y-90542127D01*
G37*
G36*
X132557801Y-91088400D02*
G01*
X132202201Y-91088400D01*
X132202201Y-89920000D01*
X132557801Y-89920000D01*
X132557801Y-91088400D01*
G37*
G36*
X133207800Y-91088400D02*
G01*
X132852200Y-91088400D01*
X132852200Y-89920000D01*
X133207800Y-89920000D01*
X133207800Y-91088400D01*
G37*
G36*
X133857799Y-91088400D02*
G01*
X133502199Y-91088400D01*
X133502199Y-89920000D01*
X133857799Y-89920000D01*
X133857799Y-91088400D01*
G37*
G36*
X138276742Y-89256601D02*
G01*
X138430687Y-89320367D01*
X138569234Y-89412941D01*
X138687059Y-89530766D01*
X138779633Y-89669313D01*
X138843399Y-89823258D01*
X138875907Y-89986685D01*
X138875907Y-90153315D01*
X138843399Y-90316742D01*
X138779633Y-90470687D01*
X138687059Y-90609234D01*
X138569234Y-90727059D01*
X138430687Y-90819633D01*
X138276742Y-90883399D01*
X138113315Y-90915907D01*
X137946685Y-90915907D01*
X137783258Y-90883399D01*
X137629313Y-90819633D01*
X137490766Y-90727059D01*
X137372941Y-90609234D01*
X137280367Y-90470687D01*
X137216601Y-90316742D01*
X137184093Y-90153315D01*
X137184093Y-89986685D01*
X137216601Y-89823258D01*
X137280367Y-89669313D01*
X137372941Y-89530766D01*
X137490766Y-89412941D01*
X137629313Y-89320367D01*
X137783258Y-89256601D01*
X137946685Y-89224093D01*
X138113315Y-89224093D01*
X138276742Y-89256601D01*
G37*
G36*
X153516742Y-89256601D02*
G01*
X153670687Y-89320367D01*
X153809234Y-89412941D01*
X153927059Y-89530766D01*
X154019633Y-89669313D01*
X154083399Y-89823258D01*
X154115907Y-89986685D01*
X154115907Y-90153315D01*
X154083399Y-90316742D01*
X154019633Y-90470687D01*
X153927059Y-90609234D01*
X153809234Y-90727059D01*
X153670687Y-90819633D01*
X153516742Y-90883399D01*
X153353315Y-90915907D01*
X153186685Y-90915907D01*
X153023258Y-90883399D01*
X152869313Y-90819633D01*
X152730766Y-90727059D01*
X152612941Y-90609234D01*
X152520367Y-90470687D01*
X152456601Y-90316742D01*
X152424093Y-90153315D01*
X152424093Y-89986685D01*
X152456601Y-89823258D01*
X152520367Y-89669313D01*
X152612941Y-89530766D01*
X152730766Y-89412941D01*
X152869313Y-89320367D01*
X153023258Y-89256601D01*
X153186685Y-89224093D01*
X153353315Y-89224093D01*
X153516742Y-89256601D01*
G37*
G36*
X126396600Y-90604001D02*
G01*
X125126600Y-90604001D01*
X125126600Y-90096001D01*
X126396600Y-90096001D01*
X126396600Y-90604001D01*
G37*
G36*
X130336104Y-89202127D02*
G01*
X130409099Y-89250901D01*
X130457873Y-89323896D01*
X130475000Y-89410000D01*
X130475000Y-89860000D01*
X130457873Y-89946104D01*
X130409099Y-90019099D01*
X130336104Y-90067873D01*
X130250000Y-90085000D01*
X129750000Y-90085000D01*
X129663896Y-90067873D01*
X129590901Y-90019099D01*
X129542127Y-89946104D01*
X129525000Y-89860000D01*
X129525000Y-89410000D01*
X129542127Y-89323896D01*
X129590901Y-89250901D01*
X129663896Y-89202127D01*
X129750000Y-89185000D01*
X130250000Y-89185000D01*
X130336104Y-89202127D01*
G37*
G36*
X120966104Y-88992127D02*
G01*
X121039099Y-89040901D01*
X121087873Y-89113896D01*
X121105000Y-89200000D01*
X121105000Y-89650000D01*
X121087873Y-89736104D01*
X121039099Y-89809099D01*
X120966104Y-89857873D01*
X120880000Y-89875000D01*
X120380000Y-89875000D01*
X120293896Y-89857873D01*
X120220901Y-89809099D01*
X120172127Y-89736104D01*
X120155000Y-89650000D01*
X120155000Y-89200000D01*
X120172127Y-89113896D01*
X120220901Y-89040901D01*
X120293896Y-88992127D01*
X120380000Y-88975000D01*
X120880000Y-88975000D01*
X120966104Y-88992127D01*
G37*
G36*
X124016104Y-88992127D02*
G01*
X124089099Y-89040901D01*
X124137873Y-89113896D01*
X124155000Y-89200000D01*
X124155000Y-89650000D01*
X124137873Y-89736104D01*
X124089099Y-89809099D01*
X124016104Y-89857873D01*
X123930000Y-89875000D01*
X123430000Y-89875000D01*
X123343896Y-89857873D01*
X123270901Y-89809099D01*
X123222127Y-89736104D01*
X123205000Y-89650000D01*
X123205000Y-89200000D01*
X123222127Y-89113896D01*
X123270901Y-89040901D01*
X123343896Y-88992127D01*
X123430000Y-88975000D01*
X123930000Y-88975000D01*
X124016104Y-88992127D01*
G37*
G36*
X126396600Y-89654000D02*
G01*
X125126600Y-89654000D01*
X125126600Y-89146000D01*
X126396600Y-89146000D01*
X126396600Y-89654000D01*
G37*
G36*
X128835000Y-89654000D02*
G01*
X127565000Y-89654000D01*
X127565000Y-89146000D01*
X128835000Y-89146000D01*
X128835000Y-89654000D01*
G37*
G36*
X132736104Y-88142127D02*
G01*
X132809099Y-88190901D01*
X132857873Y-88263896D01*
X132875000Y-88350000D01*
X132875000Y-88850000D01*
X132857873Y-88936104D01*
X132809099Y-89009099D01*
X132736104Y-89057873D01*
X132650000Y-89075000D01*
X132200000Y-89075000D01*
X132113896Y-89057873D01*
X132040901Y-89009099D01*
X131992127Y-88936104D01*
X131975000Y-88850000D01*
X131975000Y-88350000D01*
X131992127Y-88263896D01*
X132040901Y-88190901D01*
X132113896Y-88142127D01*
X132200000Y-88125000D01*
X132650000Y-88125000D01*
X132736104Y-88142127D01*
G37*
G36*
X134286104Y-88142127D02*
G01*
X134359099Y-88190901D01*
X134407873Y-88263896D01*
X134425000Y-88350000D01*
X134425000Y-88850000D01*
X134407873Y-88936104D01*
X134359099Y-89009099D01*
X134286104Y-89057873D01*
X134200000Y-89075000D01*
X133750000Y-89075000D01*
X133663896Y-89057873D01*
X133590901Y-89009099D01*
X133542127Y-88936104D01*
X133525000Y-88850000D01*
X133525000Y-88350000D01*
X133542127Y-88263896D01*
X133590901Y-88190901D01*
X133663896Y-88142127D01*
X133750000Y-88125000D01*
X134200000Y-88125000D01*
X134286104Y-88142127D01*
G37*
G36*
X138276742Y-86716601D02*
G01*
X138430687Y-86780367D01*
X138569234Y-86872941D01*
X138687059Y-86990766D01*
X138779633Y-87129313D01*
X138843399Y-87283258D01*
X138875907Y-87446685D01*
X138875907Y-87613315D01*
X138843399Y-87776742D01*
X138779633Y-87930687D01*
X138687059Y-88069234D01*
X138569234Y-88187059D01*
X138430687Y-88279633D01*
X138276742Y-88343399D01*
X138113315Y-88375907D01*
X137946685Y-88375907D01*
X137783258Y-88343399D01*
X137629313Y-88279633D01*
X137490766Y-88187059D01*
X137372941Y-88069234D01*
X137280367Y-87930687D01*
X137216601Y-87776742D01*
X137184093Y-87613315D01*
X137184093Y-87446685D01*
X137216601Y-87283258D01*
X137280367Y-87129313D01*
X137372941Y-86990766D01*
X137490766Y-86872941D01*
X137629313Y-86780367D01*
X137783258Y-86716601D01*
X137946685Y-86684093D01*
X138113315Y-86684093D01*
X138276742Y-86716601D01*
G37*
G36*
X153516742Y-86716601D02*
G01*
X153670687Y-86780367D01*
X153809234Y-86872941D01*
X153927059Y-86990766D01*
X154019633Y-87129313D01*
X154083399Y-87283258D01*
X154115907Y-87446685D01*
X154115907Y-87613315D01*
X154083399Y-87776742D01*
X154019633Y-87930687D01*
X153927059Y-88069234D01*
X153809234Y-88187059D01*
X153670687Y-88279633D01*
X153516742Y-88343399D01*
X153353315Y-88375907D01*
X153186685Y-88375907D01*
X153023258Y-88343399D01*
X152869313Y-88279633D01*
X152730766Y-88187059D01*
X152612941Y-88069234D01*
X152520367Y-87930687D01*
X152456601Y-87776742D01*
X152424093Y-87613315D01*
X152424093Y-87446685D01*
X152456601Y-87283258D01*
X152520367Y-87129313D01*
X152612941Y-86990766D01*
X152730766Y-86872941D01*
X152869313Y-86780367D01*
X153023258Y-86716601D01*
X153186685Y-86684093D01*
X153353315Y-86684093D01*
X153516742Y-86716601D01*
G37*
G36*
X120951537Y-87440224D02*
G01*
X121016421Y-87483579D01*
X121059776Y-87548463D01*
X121075000Y-87625000D01*
X121075000Y-88025000D01*
X121059776Y-88101537D01*
X121016421Y-88166421D01*
X120951537Y-88209776D01*
X120875000Y-88225000D01*
X120325000Y-88225000D01*
X120248463Y-88209776D01*
X120183579Y-88166421D01*
X120140224Y-88101537D01*
X120125000Y-88025000D01*
X120125000Y-87625000D01*
X120140224Y-87548463D01*
X120183579Y-87483579D01*
X120248463Y-87440224D01*
X120325000Y-87425000D01*
X120875000Y-87425000D01*
X120951537Y-87440224D01*
G37*
G36*
X125156537Y-86950224D02*
G01*
X125221421Y-86993579D01*
X125264776Y-87058463D01*
X125280000Y-87135000D01*
X125280000Y-87685000D01*
X125264776Y-87761537D01*
X125221421Y-87826421D01*
X125156537Y-87869776D01*
X125080000Y-87885000D01*
X124680000Y-87885000D01*
X124603463Y-87869776D01*
X124538579Y-87826421D01*
X124495224Y-87761537D01*
X124480000Y-87685000D01*
X124480000Y-87135000D01*
X124495224Y-87058463D01*
X124538579Y-86993579D01*
X124603463Y-86950224D01*
X124680000Y-86935000D01*
X125080000Y-86935000D01*
X125156537Y-86950224D01*
G37*
G36*
X126806537Y-86950224D02*
G01*
X126871421Y-86993579D01*
X126914776Y-87058463D01*
X126930000Y-87135000D01*
X126930000Y-87685000D01*
X126914776Y-87761537D01*
X126871421Y-87826421D01*
X126806537Y-87869776D01*
X126730000Y-87885000D01*
X126330000Y-87885000D01*
X126253463Y-87869776D01*
X126188579Y-87826421D01*
X126145224Y-87761537D01*
X126130000Y-87685000D01*
X126130000Y-87135000D01*
X126145224Y-87058463D01*
X126188579Y-86993579D01*
X126253463Y-86950224D01*
X126330000Y-86935000D01*
X126730000Y-86935000D01*
X126806537Y-86950224D01*
G37*
G36*
X133227801Y-87362100D02*
G01*
X132872201Y-87362100D01*
X132872201Y-86193700D01*
X133227801Y-86193700D01*
X133227801Y-87362100D01*
G37*
G36*
X133877800Y-87362100D02*
G01*
X133522200Y-87362100D01*
X133522200Y-86193700D01*
X133877800Y-86193700D01*
X133877800Y-87362100D01*
G37*
G36*
X134527799Y-87362100D02*
G01*
X134172199Y-87362100D01*
X134172199Y-86193700D01*
X134527799Y-86193700D01*
X134527799Y-87362100D01*
G37*
G36*
X120951537Y-85790224D02*
G01*
X121016421Y-85833579D01*
X121059776Y-85898463D01*
X121075000Y-85975000D01*
X121075000Y-86375000D01*
X121059776Y-86451537D01*
X121016421Y-86516421D01*
X120951537Y-86559776D01*
X120875000Y-86575000D01*
X120325000Y-86575000D01*
X120248463Y-86559776D01*
X120183579Y-86516421D01*
X120140224Y-86451537D01*
X120125000Y-86375000D01*
X120125000Y-85975000D01*
X120140224Y-85898463D01*
X120183579Y-85833579D01*
X120248463Y-85790224D01*
X120325000Y-85775000D01*
X120875000Y-85775000D01*
X120951537Y-85790224D01*
G37*
G36*
X127416104Y-85352127D02*
G01*
X127489099Y-85400901D01*
X127537873Y-85473896D01*
X127555000Y-85560000D01*
X127555000Y-86010000D01*
X127537873Y-86096104D01*
X127489099Y-86169099D01*
X127416104Y-86217873D01*
X127330000Y-86235000D01*
X126830000Y-86235000D01*
X126743896Y-86217873D01*
X126670901Y-86169099D01*
X126622127Y-86096104D01*
X126605000Y-86010000D01*
X126605000Y-85560000D01*
X126622127Y-85473896D01*
X126670901Y-85400901D01*
X126743896Y-85352127D01*
X126830000Y-85335000D01*
X127330000Y-85335000D01*
X127416104Y-85352127D01*
G37*
G36*
X129316104Y-85302127D02*
G01*
X129389099Y-85350901D01*
X129437873Y-85423896D01*
X129455000Y-85510000D01*
X129455000Y-85960000D01*
X129437873Y-86046104D01*
X129389099Y-86119099D01*
X129316104Y-86167873D01*
X129230000Y-86185000D01*
X128730000Y-86185000D01*
X128643896Y-86167873D01*
X128570901Y-86119099D01*
X128522127Y-86046104D01*
X128505000Y-85960000D01*
X128505000Y-85510000D01*
X128522127Y-85423896D01*
X128570901Y-85350901D01*
X128643896Y-85302127D01*
X128730000Y-85285000D01*
X129230000Y-85285000D01*
X129316104Y-85302127D01*
G37*
G36*
X123217251Y-84724792D02*
G01*
X123224596Y-84724792D01*
X123238050Y-84730365D01*
X123267310Y-84738205D01*
X123293546Y-84753352D01*
X123307001Y-84758926D01*
X123312194Y-84764119D01*
X123318895Y-84767988D01*
X123361009Y-84810102D01*
X123364877Y-84816802D01*
X123370072Y-84821997D01*
X123375646Y-84835454D01*
X123390792Y-84861687D01*
X123398631Y-84890944D01*
X123404206Y-84904402D01*
X123405349Y-84916017D01*
X123406644Y-84920847D01*
X123408273Y-84945700D01*
X123408598Y-84949000D01*
X123408598Y-85711000D01*
X123408272Y-85714301D01*
X123406644Y-85739152D01*
X123405350Y-85743981D01*
X123404206Y-85755598D01*
X123398630Y-85769057D01*
X123390792Y-85798312D01*
X123375647Y-85824542D01*
X123370072Y-85838003D01*
X123364876Y-85843198D01*
X123361009Y-85849897D01*
X123318895Y-85892011D01*
X123312196Y-85895878D01*
X123307001Y-85901074D01*
X123293540Y-85906649D01*
X123267310Y-85921794D01*
X123238053Y-85929633D01*
X123224596Y-85935208D01*
X123217250Y-85935208D01*
X123209779Y-85937210D01*
X123150217Y-85937210D01*
X123142746Y-85935208D01*
X123135400Y-85935208D01*
X123121943Y-85929633D01*
X123092685Y-85921794D01*
X123066452Y-85906648D01*
X123052995Y-85901074D01*
X123047800Y-85895879D01*
X123041100Y-85892011D01*
X122998986Y-85849897D01*
X122995117Y-85843196D01*
X122989924Y-85838003D01*
X122984350Y-85824548D01*
X122969203Y-85798312D01*
X122961362Y-85769050D01*
X122955790Y-85755598D01*
X122954646Y-85743987D01*
X122953351Y-85739152D01*
X122951722Y-85714296D01*
X122951398Y-85711000D01*
X122951398Y-84949000D01*
X122951722Y-84945705D01*
X122953351Y-84920847D01*
X122954646Y-84916011D01*
X122955790Y-84904402D01*
X122961361Y-84890951D01*
X122969203Y-84861687D01*
X122984352Y-84835447D01*
X122989924Y-84821997D01*
X122995115Y-84816805D01*
X122998986Y-84810102D01*
X123041100Y-84767988D01*
X123047803Y-84764117D01*
X123052995Y-84758926D01*
X123066445Y-84753354D01*
X123092685Y-84738205D01*
X123121946Y-84730364D01*
X123135400Y-84724792D01*
X123142745Y-84724792D01*
X123150217Y-84722790D01*
X123209779Y-84722790D01*
X123217251Y-84724792D01*
G37*
G36*
X125117253Y-84724792D02*
G01*
X125124598Y-84724792D01*
X125138052Y-84730365D01*
X125167312Y-84738205D01*
X125193548Y-84753352D01*
X125207003Y-84758926D01*
X125212196Y-84764119D01*
X125218897Y-84767988D01*
X125261011Y-84810102D01*
X125264879Y-84816802D01*
X125270074Y-84821997D01*
X125275648Y-84835454D01*
X125290794Y-84861687D01*
X125298633Y-84890944D01*
X125304208Y-84904402D01*
X125305351Y-84916017D01*
X125306646Y-84920847D01*
X125308275Y-84945700D01*
X125308600Y-84949000D01*
X125308600Y-85711000D01*
X125308274Y-85714301D01*
X125306646Y-85739152D01*
X125305352Y-85743981D01*
X125304208Y-85755598D01*
X125298632Y-85769057D01*
X125290794Y-85798312D01*
X125275649Y-85824542D01*
X125270074Y-85838003D01*
X125264878Y-85843198D01*
X125261011Y-85849897D01*
X125218897Y-85892011D01*
X125212198Y-85895878D01*
X125207003Y-85901074D01*
X125193542Y-85906649D01*
X125167312Y-85921794D01*
X125138055Y-85929633D01*
X125124598Y-85935208D01*
X125117252Y-85935208D01*
X125109781Y-85937210D01*
X125050219Y-85937210D01*
X125042748Y-85935208D01*
X125035402Y-85935208D01*
X125021945Y-85929633D01*
X124992687Y-85921794D01*
X124966454Y-85906648D01*
X124952997Y-85901074D01*
X124947802Y-85895879D01*
X124941102Y-85892011D01*
X124898988Y-85849897D01*
X124895119Y-85843196D01*
X124889926Y-85838003D01*
X124884352Y-85824548D01*
X124869205Y-85798312D01*
X124861364Y-85769050D01*
X124855792Y-85755598D01*
X124854648Y-85743987D01*
X124853353Y-85739152D01*
X124851724Y-85714296D01*
X124851400Y-85711000D01*
X124851400Y-84949000D01*
X124851724Y-84945705D01*
X124853353Y-84920847D01*
X124854648Y-84916011D01*
X124855792Y-84904402D01*
X124861363Y-84890951D01*
X124869205Y-84861687D01*
X124884354Y-84835447D01*
X124889926Y-84821997D01*
X124895117Y-84816805D01*
X124898988Y-84810102D01*
X124941102Y-84767988D01*
X124947805Y-84764117D01*
X124952997Y-84758926D01*
X124966447Y-84753354D01*
X124992687Y-84738205D01*
X125021948Y-84730364D01*
X125035402Y-84724792D01*
X125042747Y-84724792D01*
X125050219Y-84722790D01*
X125109781Y-84722790D01*
X125117253Y-84724792D01*
G37*
G36*
X138880000Y-85840000D02*
G01*
X137180000Y-85840000D01*
X137180000Y-84140000D01*
X138880000Y-84140000D01*
X138880000Y-85840000D01*
G37*
G36*
X153516742Y-84176601D02*
G01*
X153670687Y-84240367D01*
X153809234Y-84332941D01*
X153927059Y-84450766D01*
X154019633Y-84589313D01*
X154083399Y-84743258D01*
X154115907Y-84906685D01*
X154115907Y-85073315D01*
X154083399Y-85236742D01*
X154019633Y-85390687D01*
X153927059Y-85529234D01*
X153809234Y-85647059D01*
X153670687Y-85739633D01*
X153516742Y-85803399D01*
X153353315Y-85835907D01*
X153186685Y-85835907D01*
X153023258Y-85803399D01*
X152869313Y-85739633D01*
X152730766Y-85647059D01*
X152612941Y-85529234D01*
X152520367Y-85390687D01*
X152456601Y-85236742D01*
X152424093Y-85073315D01*
X152424093Y-84906685D01*
X152456601Y-84743258D01*
X152520367Y-84589313D01*
X152612941Y-84450766D01*
X152730766Y-84332941D01*
X152869313Y-84240367D01*
X153023258Y-84176601D01*
X153186685Y-84144093D01*
X153353315Y-84144093D01*
X153516742Y-84176601D01*
G37*
G36*
X133227801Y-85406300D02*
G01*
X132872201Y-85406300D01*
X132872201Y-84237900D01*
X133227801Y-84237900D01*
X133227801Y-85406300D01*
G37*
G36*
X133877800Y-85406300D02*
G01*
X133522200Y-85406300D01*
X133522200Y-84237900D01*
X133877800Y-84237900D01*
X133877800Y-85406300D01*
G37*
G36*
X134527799Y-85406300D02*
G01*
X134172199Y-85406300D01*
X134172199Y-84237900D01*
X134527799Y-84237900D01*
X134527799Y-85406300D01*
G37*
G36*
X127416104Y-83802127D02*
G01*
X127489099Y-83850901D01*
X127537873Y-83923896D01*
X127555000Y-84010000D01*
X127555000Y-84460000D01*
X127537873Y-84546104D01*
X127489099Y-84619099D01*
X127416104Y-84667873D01*
X127330000Y-84685000D01*
X126830000Y-84685000D01*
X126743896Y-84667873D01*
X126670901Y-84619099D01*
X126622127Y-84546104D01*
X126605000Y-84460000D01*
X126605000Y-84010000D01*
X126622127Y-83923896D01*
X126670901Y-83850901D01*
X126743896Y-83802127D01*
X126830000Y-83785000D01*
X127330000Y-83785000D01*
X127416104Y-83802127D01*
G37*
G36*
X129316104Y-83752127D02*
G01*
X129389099Y-83800901D01*
X129437873Y-83873896D01*
X129455000Y-83960000D01*
X129455000Y-84410000D01*
X129437873Y-84496104D01*
X129389099Y-84569099D01*
X129316104Y-84617873D01*
X129230000Y-84635000D01*
X128730000Y-84635000D01*
X128643896Y-84617873D01*
X128570901Y-84569099D01*
X128522127Y-84496104D01*
X128505000Y-84410000D01*
X128505000Y-83960000D01*
X128522127Y-83873896D01*
X128570901Y-83800901D01*
X128643896Y-83752127D01*
X128730000Y-83735000D01*
X129230000Y-83735000D01*
X129316104Y-83752127D01*
G37*
G36*
X120616104Y-83552127D02*
G01*
X120689099Y-83600901D01*
X120737873Y-83673896D01*
X120755000Y-83760000D01*
X120755000Y-84210000D01*
X120737873Y-84296104D01*
X120689099Y-84369099D01*
X120616104Y-84417873D01*
X120530000Y-84435000D01*
X120030000Y-84435000D01*
X119943896Y-84417873D01*
X119870901Y-84369099D01*
X119822127Y-84296104D01*
X119805000Y-84210000D01*
X119805000Y-83760000D01*
X119822127Y-83673896D01*
X119870901Y-83600901D01*
X119943896Y-83552127D01*
X120030000Y-83535000D01*
X120530000Y-83535000D01*
X120616104Y-83552127D01*
G37*
G36*
X125308600Y-83319600D02*
G01*
X124851400Y-83319600D01*
X124851400Y-82100400D01*
X125308600Y-82100400D01*
X125308600Y-83319600D01*
G37*
G36*
X123217251Y-82104792D02*
G01*
X123224596Y-82104792D01*
X123238050Y-82110365D01*
X123267310Y-82118205D01*
X123293546Y-82133352D01*
X123307001Y-82138926D01*
X123312194Y-82144119D01*
X123318895Y-82147988D01*
X123361009Y-82190102D01*
X123364877Y-82196802D01*
X123370072Y-82201997D01*
X123375646Y-82215454D01*
X123390792Y-82241687D01*
X123398631Y-82270944D01*
X123404206Y-82284402D01*
X123405349Y-82296017D01*
X123406644Y-82300847D01*
X123408273Y-82325700D01*
X123408598Y-82329000D01*
X123408598Y-83091000D01*
X123408272Y-83094301D01*
X123406644Y-83119152D01*
X123405350Y-83123981D01*
X123404206Y-83135598D01*
X123398630Y-83149057D01*
X123390792Y-83178312D01*
X123375647Y-83204542D01*
X123370072Y-83218003D01*
X123364876Y-83223198D01*
X123361009Y-83229897D01*
X123318895Y-83272011D01*
X123312196Y-83275878D01*
X123307001Y-83281074D01*
X123293540Y-83286649D01*
X123267310Y-83301794D01*
X123238053Y-83309633D01*
X123224596Y-83315208D01*
X123217250Y-83315208D01*
X123209779Y-83317210D01*
X123150217Y-83317210D01*
X123142746Y-83315208D01*
X123135400Y-83315208D01*
X123121943Y-83309633D01*
X123092685Y-83301794D01*
X123066452Y-83286648D01*
X123052995Y-83281074D01*
X123047800Y-83275879D01*
X123041100Y-83272011D01*
X122998986Y-83229897D01*
X122995117Y-83223196D01*
X122989924Y-83218003D01*
X122984350Y-83204548D01*
X122969203Y-83178312D01*
X122961362Y-83149050D01*
X122955790Y-83135598D01*
X122954646Y-83123987D01*
X122953351Y-83119152D01*
X122951722Y-83094296D01*
X122951398Y-83091000D01*
X122951398Y-82329000D01*
X122951722Y-82325705D01*
X122953351Y-82300847D01*
X122954646Y-82296011D01*
X122955790Y-82284402D01*
X122961361Y-82270951D01*
X122969203Y-82241687D01*
X122984352Y-82215447D01*
X122989924Y-82201997D01*
X122995115Y-82196805D01*
X122998986Y-82190102D01*
X123041100Y-82147988D01*
X123047803Y-82144117D01*
X123052995Y-82138926D01*
X123066445Y-82133354D01*
X123092685Y-82118205D01*
X123121946Y-82110364D01*
X123135400Y-82104792D01*
X123142745Y-82104792D01*
X123150217Y-82102790D01*
X123209779Y-82102790D01*
X123217251Y-82104792D01*
G37*
G36*
X124167252Y-82104792D02*
G01*
X124174597Y-82104792D01*
X124188051Y-82110365D01*
X124217311Y-82118205D01*
X124243547Y-82133352D01*
X124257002Y-82138926D01*
X124262195Y-82144119D01*
X124268896Y-82147988D01*
X124311010Y-82190102D01*
X124314878Y-82196802D01*
X124320073Y-82201997D01*
X124325647Y-82215454D01*
X124340793Y-82241687D01*
X124348632Y-82270944D01*
X124354207Y-82284402D01*
X124355350Y-82296017D01*
X124356645Y-82300847D01*
X124358274Y-82325700D01*
X124358599Y-82329000D01*
X124358599Y-83091000D01*
X124358273Y-83094301D01*
X124356645Y-83119152D01*
X124355351Y-83123981D01*
X124354207Y-83135598D01*
X124348631Y-83149057D01*
X124340793Y-83178312D01*
X124325648Y-83204542D01*
X124320073Y-83218003D01*
X124314877Y-83223198D01*
X124311010Y-83229897D01*
X124268896Y-83272011D01*
X124262197Y-83275878D01*
X124257002Y-83281074D01*
X124243541Y-83286649D01*
X124217311Y-83301794D01*
X124188054Y-83309633D01*
X124174597Y-83315208D01*
X124167251Y-83315208D01*
X124159780Y-83317210D01*
X124100218Y-83317210D01*
X124092747Y-83315208D01*
X124085401Y-83315208D01*
X124071944Y-83309633D01*
X124042686Y-83301794D01*
X124016453Y-83286648D01*
X124002996Y-83281074D01*
X123997801Y-83275879D01*
X123991101Y-83272011D01*
X123948987Y-83229897D01*
X123945118Y-83223196D01*
X123939925Y-83218003D01*
X123934351Y-83204548D01*
X123919204Y-83178312D01*
X123911363Y-83149050D01*
X123905791Y-83135598D01*
X123904647Y-83123987D01*
X123903352Y-83119152D01*
X123901723Y-83094296D01*
X123901399Y-83091000D01*
X123901399Y-82329000D01*
X123901723Y-82325705D01*
X123903352Y-82300847D01*
X123904647Y-82296011D01*
X123905791Y-82284402D01*
X123911362Y-82270951D01*
X123919204Y-82241687D01*
X123934353Y-82215447D01*
X123939925Y-82201997D01*
X123945116Y-82196805D01*
X123948987Y-82190102D01*
X123991101Y-82147988D01*
X123997804Y-82144117D01*
X124002996Y-82138926D01*
X124016446Y-82133354D01*
X124042686Y-82118205D01*
X124071947Y-82110364D01*
X124085401Y-82104792D01*
X124092746Y-82104792D01*
X124100218Y-82102790D01*
X124159780Y-82102790D01*
X124167252Y-82104792D01*
G37*
G36*
X132066104Y-82352127D02*
G01*
X132139099Y-82400901D01*
X132187873Y-82473896D01*
X132205000Y-82560000D01*
X132205000Y-83060000D01*
X132187873Y-83146104D01*
X132139099Y-83219099D01*
X132066104Y-83267873D01*
X131980000Y-83285000D01*
X131530000Y-83285000D01*
X131443896Y-83267873D01*
X131370901Y-83219099D01*
X131322127Y-83146104D01*
X131305000Y-83060000D01*
X131305000Y-82560000D01*
X131322127Y-82473896D01*
X131370901Y-82400901D01*
X131443896Y-82352127D01*
X131530000Y-82335000D01*
X131980000Y-82335000D01*
X132066104Y-82352127D01*
G37*
G36*
X133616104Y-82352127D02*
G01*
X133689099Y-82400901D01*
X133737873Y-82473896D01*
X133755000Y-82560000D01*
X133755000Y-83060000D01*
X133737873Y-83146104D01*
X133689099Y-83219099D01*
X133616104Y-83267873D01*
X133530000Y-83285000D01*
X133080000Y-83285000D01*
X132993896Y-83267873D01*
X132920901Y-83219099D01*
X132872127Y-83146104D01*
X132855000Y-83060000D01*
X132855000Y-82560000D01*
X132872127Y-82473896D01*
X132920901Y-82400901D01*
X132993896Y-82352127D01*
X133080000Y-82335000D01*
X133530000Y-82335000D01*
X133616104Y-82352127D01*
G37*
G36*
X120616104Y-82002127D02*
G01*
X120689099Y-82050901D01*
X120737873Y-82123896D01*
X120755000Y-82210000D01*
X120755000Y-82660000D01*
X120737873Y-82746104D01*
X120689099Y-82819099D01*
X120616104Y-82867873D01*
X120530000Y-82885000D01*
X120030000Y-82885000D01*
X119943896Y-82867873D01*
X119870901Y-82819099D01*
X119822127Y-82746104D01*
X119805000Y-82660000D01*
X119805000Y-82210000D01*
X119822127Y-82123896D01*
X119870901Y-82050901D01*
X119943896Y-82002127D01*
X120030000Y-81985000D01*
X120530000Y-81985000D01*
X120616104Y-82002127D01*
G37*
G36*
X136431537Y-81725224D02*
G01*
X136496421Y-81768579D01*
X136539776Y-81833463D01*
X136555000Y-81910000D01*
X136555000Y-82310000D01*
X136539776Y-82386537D01*
X136496421Y-82451421D01*
X136431537Y-82494776D01*
X136355000Y-82510000D01*
X135805000Y-82510000D01*
X135728463Y-82494776D01*
X135663579Y-82451421D01*
X135620224Y-82386537D01*
X135605000Y-82310000D01*
X135605000Y-81910000D01*
X135620224Y-81833463D01*
X135663579Y-81768579D01*
X135728463Y-81725224D01*
X135805000Y-81710000D01*
X136355000Y-81710000D01*
X136431537Y-81725224D01*
G37*
G36*
X132016104Y-80752127D02*
G01*
X132089099Y-80800901D01*
X132137873Y-80873896D01*
X132155000Y-80960000D01*
X132155000Y-81460000D01*
X132137873Y-81546104D01*
X132089099Y-81619099D01*
X132016104Y-81667873D01*
X131930000Y-81685000D01*
X131480000Y-81685000D01*
X131393896Y-81667873D01*
X131320901Y-81619099D01*
X131272127Y-81546104D01*
X131255000Y-81460000D01*
X131255000Y-80960000D01*
X131272127Y-80873896D01*
X131320901Y-80800901D01*
X131393896Y-80752127D01*
X131480000Y-80735000D01*
X131930000Y-80735000D01*
X132016104Y-80752127D01*
G37*
G36*
X133566104Y-80752127D02*
G01*
X133639099Y-80800901D01*
X133687873Y-80873896D01*
X133705000Y-80960000D01*
X133705000Y-81460000D01*
X133687873Y-81546104D01*
X133639099Y-81619099D01*
X133566104Y-81667873D01*
X133480000Y-81685000D01*
X133030000Y-81685000D01*
X132943896Y-81667873D01*
X132870901Y-81619099D01*
X132822127Y-81546104D01*
X132805000Y-81460000D01*
X132805000Y-80960000D01*
X132822127Y-80873896D01*
X132870901Y-80800901D01*
X132943896Y-80752127D01*
X133030000Y-80735000D01*
X133480000Y-80735000D01*
X133566104Y-80752127D01*
G37*
G36*
X123381537Y-80240224D02*
G01*
X123446421Y-80283579D01*
X123489776Y-80348463D01*
X123505000Y-80425000D01*
X123505000Y-80825000D01*
X123489776Y-80901537D01*
X123446421Y-80966421D01*
X123381537Y-81009776D01*
X123305000Y-81025000D01*
X122755000Y-81025000D01*
X122678463Y-81009776D01*
X122613579Y-80966421D01*
X122570224Y-80901537D01*
X122555000Y-80825000D01*
X122555000Y-80425000D01*
X122570224Y-80348463D01*
X122613579Y-80283579D01*
X122678463Y-80240224D01*
X122755000Y-80225000D01*
X123305000Y-80225000D01*
X123381537Y-80240224D01*
G37*
G36*
X136431537Y-80075224D02*
G01*
X136496421Y-80118579D01*
X136539776Y-80183463D01*
X136555000Y-80260000D01*
X136555000Y-80660000D01*
X136539776Y-80736537D01*
X136496421Y-80801421D01*
X136431537Y-80844776D01*
X136355000Y-80860000D01*
X135805000Y-80860000D01*
X135728463Y-80844776D01*
X135663579Y-80801421D01*
X135620224Y-80736537D01*
X135605000Y-80660000D01*
X135605000Y-80260000D01*
X135620224Y-80183463D01*
X135663579Y-80118579D01*
X135728463Y-80075224D01*
X135805000Y-80060000D01*
X136355000Y-80060000D01*
X136431537Y-80075224D01*
G37*
G36*
X120616104Y-79952127D02*
G01*
X120689099Y-80000901D01*
X120737873Y-80073896D01*
X120755000Y-80160000D01*
X120755000Y-80610000D01*
X120737873Y-80696104D01*
X120689099Y-80769099D01*
X120616104Y-80817873D01*
X120530000Y-80835000D01*
X120030000Y-80835000D01*
X119943896Y-80817873D01*
X119870901Y-80769099D01*
X119822127Y-80696104D01*
X119805000Y-80610000D01*
X119805000Y-80160000D01*
X119822127Y-80073896D01*
X119870901Y-80000901D01*
X119943896Y-79952127D01*
X120030000Y-79935000D01*
X120530000Y-79935000D01*
X120616104Y-79952127D01*
G37*
G36*
X132736104Y-78702127D02*
G01*
X132809099Y-78750901D01*
X132857873Y-78823896D01*
X132875000Y-78910000D01*
X132875000Y-79410000D01*
X132857873Y-79496104D01*
X132809099Y-79569099D01*
X132736104Y-79617873D01*
X132650000Y-79635000D01*
X132200000Y-79635000D01*
X132113896Y-79617873D01*
X132040901Y-79569099D01*
X131992127Y-79496104D01*
X131975000Y-79410000D01*
X131975000Y-78910000D01*
X131992127Y-78823896D01*
X132040901Y-78750901D01*
X132113896Y-78702127D01*
X132200000Y-78685000D01*
X132650000Y-78685000D01*
X132736104Y-78702127D01*
G37*
G36*
X134286104Y-78702127D02*
G01*
X134359099Y-78750901D01*
X134407873Y-78823896D01*
X134425000Y-78910000D01*
X134425000Y-79410000D01*
X134407873Y-79496104D01*
X134359099Y-79569099D01*
X134286104Y-79617873D01*
X134200000Y-79635000D01*
X133750000Y-79635000D01*
X133663896Y-79617873D01*
X133590901Y-79569099D01*
X133542127Y-79496104D01*
X133525000Y-79410000D01*
X133525000Y-78910000D01*
X133542127Y-78823896D01*
X133590901Y-78750901D01*
X133663896Y-78702127D01*
X133750000Y-78685000D01*
X134200000Y-78685000D01*
X134286104Y-78702127D01*
G37*
G36*
X131276383Y-78413702D02*
G01*
X131334779Y-78452721D01*
X131373798Y-78511117D01*
X131387500Y-78580000D01*
X131387500Y-79420000D01*
X131373798Y-79488883D01*
X131334779Y-79547279D01*
X131276383Y-79586298D01*
X131207500Y-79600000D01*
X129567500Y-79600000D01*
X129498617Y-79586298D01*
X129440221Y-79547279D01*
X129401202Y-79488883D01*
X129387500Y-79420000D01*
X129387500Y-78580000D01*
X129401202Y-78511117D01*
X129440221Y-78452721D01*
X129498617Y-78413702D01*
X129567500Y-78400000D01*
X131207500Y-78400000D01*
X131276383Y-78413702D01*
G37*
G36*
X123381537Y-78590224D02*
G01*
X123446421Y-78633579D01*
X123489776Y-78698463D01*
X123505000Y-78775000D01*
X123505000Y-79175000D01*
X123489776Y-79251537D01*
X123446421Y-79316421D01*
X123381537Y-79359776D01*
X123305000Y-79375000D01*
X122755000Y-79375000D01*
X122678463Y-79359776D01*
X122613579Y-79316421D01*
X122570224Y-79251537D01*
X122555000Y-79175000D01*
X122555000Y-78775000D01*
X122570224Y-78698463D01*
X122613579Y-78633579D01*
X122678463Y-78590224D01*
X122755000Y-78575000D01*
X123305000Y-78575000D01*
X123381537Y-78590224D01*
G37*
G36*
X120616104Y-78402127D02*
G01*
X120689099Y-78450901D01*
X120737873Y-78523896D01*
X120755000Y-78610000D01*
X120755000Y-79060000D01*
X120737873Y-79146104D01*
X120689099Y-79219099D01*
X120616104Y-79267873D01*
X120530000Y-79285000D01*
X120030000Y-79285000D01*
X119943896Y-79267873D01*
X119870901Y-79219099D01*
X119822127Y-79146104D01*
X119805000Y-79060000D01*
X119805000Y-78610000D01*
X119822127Y-78523896D01*
X119870901Y-78450901D01*
X119943896Y-78402127D01*
X120030000Y-78385000D01*
X120530000Y-78385000D01*
X120616104Y-78402127D01*
G37*
G36*
X126253234Y-76291556D02*
G01*
X126323796Y-76338704D01*
X126370944Y-76409266D01*
X126387500Y-76492500D01*
X126387500Y-77507500D01*
X126370944Y-77590734D01*
X126323796Y-77661296D01*
X126253234Y-77708444D01*
X126170000Y-77725000D01*
X124605000Y-77725000D01*
X124521766Y-77708444D01*
X124451204Y-77661296D01*
X124404056Y-77590734D01*
X124387500Y-77507500D01*
X124387500Y-76492500D01*
X124404056Y-76409266D01*
X124451204Y-76338704D01*
X124521766Y-76291556D01*
X124605000Y-76275000D01*
X126170000Y-76275000D01*
X126253234Y-76291556D01*
G37*
G36*
X136351537Y-76240224D02*
G01*
X136416421Y-76283579D01*
X136459776Y-76348463D01*
X136475000Y-76425000D01*
X136475000Y-76825000D01*
X136459776Y-76901537D01*
X136416421Y-76966421D01*
X136351537Y-77009776D01*
X136275000Y-77025000D01*
X135725000Y-77025000D01*
X135648463Y-77009776D01*
X135583579Y-76966421D01*
X135540224Y-76901537D01*
X135525000Y-76825000D01*
X135525000Y-76425000D01*
X135540224Y-76348463D01*
X135583579Y-76283579D01*
X135648463Y-76240224D01*
X135725000Y-76225000D01*
X136275000Y-76225000D01*
X136351537Y-76240224D01*
G37*
G36*
X131276383Y-74413702D02*
G01*
X131334779Y-74452721D01*
X131373798Y-74511117D01*
X131387500Y-74580000D01*
X131387500Y-75420000D01*
X131373798Y-75488883D01*
X131334779Y-75547279D01*
X131276383Y-75586298D01*
X131207500Y-75600000D01*
X129567500Y-75600000D01*
X129498617Y-75586298D01*
X129440221Y-75547279D01*
X129401202Y-75488883D01*
X129387500Y-75420000D01*
X129387500Y-74580000D01*
X129401202Y-74511117D01*
X129440221Y-74452721D01*
X129498617Y-74413702D01*
X129567500Y-74400000D01*
X131207500Y-74400000D01*
X131276383Y-74413702D01*
G37*
G36*
X136351537Y-74590224D02*
G01*
X136416421Y-74633579D01*
X136459776Y-74698463D01*
X136475000Y-74775000D01*
X136475000Y-75175000D01*
X136459776Y-75251537D01*
X136416421Y-75316421D01*
X136351537Y-75359776D01*
X136275000Y-75375000D01*
X135725000Y-75375000D01*
X135648463Y-75359776D01*
X135583579Y-75316421D01*
X135540224Y-75251537D01*
X135525000Y-75175000D01*
X135525000Y-74775000D01*
X135540224Y-74698463D01*
X135583579Y-74633579D01*
X135648463Y-74590224D01*
X135725000Y-74575000D01*
X136275000Y-74575000D01*
X136351537Y-74590224D01*
G37*
G36*
X122520285Y-70263060D02*
G01*
X122701397Y-70338079D01*
X122864393Y-70446990D01*
X123003010Y-70585607D01*
X123111921Y-70748603D01*
X123186940Y-70929715D01*
X123225185Y-71121983D01*
X123225185Y-71318017D01*
X123186940Y-71510285D01*
X123111921Y-71691397D01*
X123003010Y-71854393D01*
X122864393Y-71993010D01*
X122701397Y-72101921D01*
X122520285Y-72176940D01*
X122328017Y-72215185D01*
X122131983Y-72215185D01*
X121939715Y-72176940D01*
X121758603Y-72101921D01*
X121595607Y-71993010D01*
X121456990Y-71854393D01*
X121348079Y-71691397D01*
X121273060Y-71510285D01*
X121234815Y-71318017D01*
X121234815Y-71121983D01*
X121273060Y-70929715D01*
X121348079Y-70748603D01*
X121456990Y-70585607D01*
X121595607Y-70446990D01*
X121758603Y-70338079D01*
X121939715Y-70263060D01*
X122131983Y-70224815D01*
X122328017Y-70224815D01*
X122520285Y-70263060D01*
G37*
G36*
X159520285Y-70263060D02*
G01*
X159701397Y-70338079D01*
X159864393Y-70446990D01*
X160003010Y-70585607D01*
X160111921Y-70748603D01*
X160186940Y-70929715D01*
X160225185Y-71121983D01*
X160225185Y-71318017D01*
X160186940Y-71510285D01*
X160111921Y-71691397D01*
X160003010Y-71854393D01*
X159864393Y-71993010D01*
X159701397Y-72101921D01*
X159520285Y-72176940D01*
X159328017Y-72215185D01*
X159131983Y-72215185D01*
X158939715Y-72176940D01*
X158758603Y-72101921D01*
X158595607Y-71993010D01*
X158456990Y-71854393D01*
X158348079Y-71691397D01*
X158273060Y-71510285D01*
X158234815Y-71318017D01*
X158234815Y-71121983D01*
X158273060Y-70929715D01*
X158348079Y-70748603D01*
X158456990Y-70585607D01*
X158595607Y-70446990D01*
X158758603Y-70338079D01*
X158939715Y-70263060D01*
X159131983Y-70224815D01*
X159328017Y-70224815D01*
X159520285Y-70263060D01*
G37*
G36*
X128489034Y-67228264D02*
G01*
X128522125Y-67250375D01*
X128544236Y-67283466D01*
X128552000Y-67322500D01*
X128552000Y-70822500D01*
X128544236Y-70861534D01*
X128522125Y-70894625D01*
X128489034Y-70916736D01*
X128450000Y-70924500D01*
X126950000Y-70924500D01*
X126910966Y-70916736D01*
X126877875Y-70894625D01*
X126855764Y-70861534D01*
X126848000Y-70822500D01*
X126848000Y-67322500D01*
X126855764Y-67283466D01*
X126877875Y-67250375D01*
X126910966Y-67228264D01*
X126950000Y-67220500D01*
X128450000Y-67220500D01*
X128489034Y-67228264D01*
G37*
G36*
X131189034Y-67228264D02*
G01*
X131222125Y-67250375D01*
X131244236Y-67283466D01*
X131252000Y-67322500D01*
X131252000Y-70822500D01*
X131244236Y-70861534D01*
X131222125Y-70894625D01*
X131189034Y-70916736D01*
X131150000Y-70924500D01*
X129650000Y-70924500D01*
X129610966Y-70916736D01*
X129577875Y-70894625D01*
X129555764Y-70861534D01*
X129548000Y-70822500D01*
X129548000Y-67322500D01*
X129555764Y-67283466D01*
X129577875Y-67250375D01*
X129610966Y-67228264D01*
X129650000Y-67220500D01*
X131150000Y-67220500D01*
X131189034Y-67228264D01*
G37*
G36*
X133889034Y-67228264D02*
G01*
X133922125Y-67250375D01*
X133944236Y-67283466D01*
X133952000Y-67322500D01*
X133952000Y-70822500D01*
X133944236Y-70861534D01*
X133922125Y-70894625D01*
X133889034Y-70916736D01*
X133850000Y-70924500D01*
X132350000Y-70924500D01*
X132310966Y-70916736D01*
X132277875Y-70894625D01*
X132255764Y-70861534D01*
X132248000Y-70822500D01*
X132248000Y-67322500D01*
X132255764Y-67283466D01*
X132277875Y-67250375D01*
X132310966Y-67228264D01*
X132350000Y-67220500D01*
X133850000Y-67220500D01*
X133889034Y-67228264D01*
G37*
M02*
