M48
; DRILL file {KiCad 9.0.0} date 2025-10-14T13:06:12-0600
; FORMAT={-:-/ absolute / metric / decimal}
; #@! TF.CreationDate,2025-10-14T13:06:12-06:00
; #@! TF.GenerationSoftware,Kicad,Pcbnew,9.0.0
; #@! TF.FileFunction,MixedPlating,1,4
FMAT,2
METRIC
; #@! TA.AperFunction,Plated,PTH,ViaDrill
T1C0.300
; #@! TA.AperFunction,Plated,PTH,ComponentDrill
T2C0.889
; #@! TA.AperFunction,Plated,PTH,ComponentDrill
T3C1.000
; #@! TA.AperFunction,NonPlated,NPTH,ComponentDrill
T4C2.000
%
G90
G05
T1
X119.5Y-100.5
X120.22Y-118.7
X120.6Y-137.0
X120.63Y-92.7
X121.4Y-81.4
X121.7Y-149.3
X121.9Y-97.6
X122.0Y-87.825
X122.5Y-124.4
X122.9Y-76.8
X123.7Y-135.9
X125.6Y-95.7
X125.828Y-69.072
X126.052Y-130.586
X126.262Y-142.762
X126.29Y-112.39
X126.4Y-139.2
X127.8Y-87.5
X128.6Y-150.3
X128.9Y-116.86
X129.0Y-103.2
X130.0Y-84.7
X130.2Y-125.2
X130.3Y-81.3
X130.3Y-86.4
X130.3Y-93.0
X130.9Y-100.3
X131.0Y-127.0
X131.0Y-128.0
X131.1Y-102.9
X131.183Y-90.817
X132.0Y-104.0
X132.38Y-93.82
X132.6Y-80.2
X132.655Y-118.41
X133.1Y-89.4
X133.58Y-95.6
X133.775Y-132.1
X134.8Y-83.7
X135.0Y-90.2
X135.05Y-73.85
X135.273Y-69.072
X135.4Y-147.3
X135.5Y-86.778
X135.5Y-95.8
X135.6Y-85.1
X136.3Y-87.6
X136.4Y-133.25
X137.4Y-82.1
X154.0Y-149.0
T2
X139.45Y-149.32
X141.99Y-149.32
X144.53Y-149.32
X147.07Y-149.32
X159.7Y-105.88
X159.7Y-108.42
X159.7Y-110.96
X159.7Y-113.5
X159.73Y-128.23
X159.73Y-130.77
X159.73Y-133.31
X159.73Y-135.85
T3
X138.03Y-84.99
X138.03Y-87.53
X138.03Y-90.07
X138.03Y-92.61
X138.03Y-95.15
X138.03Y-97.69
X138.03Y-100.23
X138.03Y-102.77
X138.03Y-105.31
X138.03Y-123.09
X138.03Y-125.63
X138.03Y-128.17
X138.03Y-130.71
X138.03Y-133.25
X138.03Y-135.79
X138.03Y-138.33
X138.03Y-140.87
X138.03Y-143.41
X153.27Y-84.99
X153.27Y-87.53
X153.27Y-90.07
X153.27Y-92.61
X153.27Y-95.15
X153.27Y-97.69
X153.27Y-100.23
X153.27Y-102.77
X153.27Y-105.31
X153.27Y-123.09
X153.27Y-125.63
X153.27Y-128.17
X153.27Y-130.71
X153.27Y-133.25
X153.27Y-135.79
X153.27Y-138.33
X153.27Y-140.87
X153.27Y-143.41
T4
X122.23Y-71.22
X122.23Y-142.22
X159.23Y-71.22
X159.23Y-142.22
M30
